<?xml version="1.0" encoding="UTF-8" standalone="no"?>
<!-- Created with Inkscape (http://www.inkscape.org/) -->

<svg
   xmlns:dc="http://purl.org/dc/elements/1.1/"
   xmlns:cc="http://creativecommons.org/ns#"
   xmlns:rdf="http://www.w3.org/1999/02/22-rdf-syntax-ns#"
   xmlns:svg="http://www.w3.org/2000/svg"
   xmlns="http://www.w3.org/2000/svg"
   xmlns:sodipodi="http://sodipodi.sourceforge.net/DTD/sodipodi-0.dtd"
   xmlns:inkscape="http://www.inkscape.org/namespaces/inkscape"
   id="svg2"
   version="1.1"
   inkscape:version="0.91 r13725"
   xml:space="preserve"
   width="452.53976"
   height="200"
   viewBox="0 0 452.53976 200"
   sodipodi:docname="a3sec.svg"><metadata
     id="metadata8"><rdf:RDF><cc:Work
         rdf:about=""><dc:format>image/svg+xml</dc:format><dc:type
           rdf:resource="http://purl.org/dc/dcmitype/StillImage" /><dc:title></dc:title></cc:Work></rdf:RDF></metadata><defs
     id="defs6"><clipPath
       clipPathUnits="userSpaceOnUse"
       id="clipPath20"><path
         d="m 0,853.228 606.619,0 L 606.619,0 0,0 0,853.228 Z"
         id="path22"
         inkscape:connector-curvature="0" /></clipPath></defs><sodipodi:namedview
     pagecolor="#ffffff"
     bordercolor="#666666"
     borderopacity="1"
     objecttolerance="10"
     gridtolerance="10"
     guidetolerance="10"
     inkscape:pageopacity="0"
     inkscape:pageshadow="2"
     inkscape:window-width="1366"
     inkscape:window-height="717"
     id="namedview4"
     showgrid="false"
     fit-margin-top="0"
     fit-margin-left="0"
     fit-margin-right="0"
     fit-margin-bottom="0"
     inkscape:zoom="1.28"
     inkscape:cx="244.85546"
     inkscape:cy="21.475171"
     inkscape:window-x="0"
     inkscape:window-y="0"
     inkscape:window-maximized="1"
     inkscape:current-layer="g10" /><g
     id="g10"
     inkscape:groupmode="layer"
     inkscape:label="Log_A3SEC_CS4"
     transform="matrix(1.25,0,0,-1.25,-157.22762,962.21137)"><g
       id="g8120"
       transform="translate(0,16)"><g
         transform="translate(420.0415,735.7598)"
         id="g24"><path
           inkscape:connector-curvature="0"
           id="path26"
           style="fill:#be0f34;fill-opacity:1;fill-rule:nonzero;stroke:none"
           d="m 0,0 -96.175,0 12.122,-21.065 61.332,0 C -17.354,-12.051 -9.428,-4.675 0,0" /></g><g
         transform="translate(389.7651,688.1899)"
         id="g28"><path
           inkscape:connector-curvature="0"
           id="path30"
           style="fill:#be0f34;fill-opacity:1;fill-rule:nonzero;stroke:none"
           d="m 0,0 c 0,4.011 0.499,7.924 1.412,11.701 l -67.74,0 1.348,-20.941 65.863,0 C 0.313,-6.231 0,-3.146 0,0" /></g><g
         transform="translate(397.0542,661.1094)"
         id="g32"><path
           inkscape:connector-curvature="0"
           id="path34"
           style="fill:#be0f34;fill-opacity:1;fill-rule:nonzero;stroke:none"
           d="m 0,0 -61.065,0 -6.652,-21.057 90.091,0 C 12.893,-16.284 5.198,-8.932 0,0" /></g><g
         transform="translate(305.7495,628.9688)"
         id="g36"><path
           inkscape:connector-curvature="0"
           id="path38"
           style="fill:#39424b;fill-opacity:1;fill-rule:nonzero;stroke:none"
           d="m 0,0 -0.419,0 c 0,1.154 -0.871,1.912 -2.216,1.912 -1.346,0 -2.239,-0.679 -2.239,-1.686 0,-0.859 0.655,-1.322 2.329,-1.662 1.764,-0.362 2.781,-0.837 2.781,-2.193 0,-1.369 -1.141,-2.251 -2.905,-2.251 -1.369,0 -2.839,0.803 -2.839,2.533 l 0.419,0 c 0,-1.447 1.221,-2.104 2.42,-2.104 1.538,0 2.487,0.69 2.487,1.822 0,0.972 -0.61,1.413 -2.442,1.787 -1.391,0.271 -2.668,0.723 -2.668,2.068 0,1.255 1.062,2.092 2.657,2.092 C -0.814,2.318 0,1.154 0,0" /></g><g
         transform="translate(312.2085,626.1299)"
         id="g40"><path
           inkscape:connector-curvature="0"
           id="path42"
           style="fill:#39424b;fill-opacity:1;fill-rule:nonzero;stroke:none"
           d="m 0,0 c 0,1.482 -1.109,2.681 -2.489,2.681 -1.368,0 -2.488,-1.199 -2.488,-2.681 0,-1.447 1.12,-2.634 2.488,-2.634 C -1.109,-2.634 0,-1.447 0,0 m 0.429,0 c 0,-1.674 -1.312,-3.03 -2.918,-3.03 -1.595,0 -2.907,1.356 -2.907,3.03 0,1.696 1.312,3.077 2.907,3.077 1.606,0 2.918,-1.381 2.918,-3.077" /></g><g
         transform="translate(314.2671,628.6411)"
         id="g44"><path
           inkscape:connector-curvature="0"
           id="path46"
           style="fill:#39424b;fill-opacity:1;fill-rule:nonzero;stroke:none"
           d="m 0,0 0,-5.406 -0.43,0 0,5.406 -0.792,0 0,0.418 0.792,0 0,0.407 c 0,1.29 0.735,2.114 1.991,2.003 l 0,-0.386 C 0.463,2.511 0,1.832 0,0.792 l 0,-0.374 1.561,0 L 1.561,0 0,0 Z" /></g><g
         transform="translate(317.5796,625.2485)"
         id="g48"><path
           inkscape:connector-curvature="0"
           id="path50"
           style="fill:#39424b;fill-opacity:1;fill-rule:nonzero;stroke:none"
           d="m 0,0 c 0,-0.995 0.464,-1.674 1.572,-1.629 l 0,-0.385 C 0.316,-2.127 -0.418,-1.3 -0.418,0 l 0,3.393 -0.792,0 0,0.418 0.792,0 0,1.243 0.418,0 0,-1.243 1.572,0 0,-0.418 L 0,3.393 0,0 Z" /></g><g
         transform="translate(325.4741,623.2349)"
         id="g52"><path
           inkscape:connector-curvature="0"
           id="path54"
           style="fill:#39424b;fill-opacity:1;fill-rule:nonzero;stroke:none"
           d="M 0,0 -0.453,0 -2.014,5.135 -3.574,0 l -0.452,0 -1.777,5.825 0.442,0 1.561,-5.136 1.561,5.136 0.452,0 1.56,-5.136 1.561,5.136 0.441,0 L 0,0 Z" /></g><g
         transform="translate(332.2954,626.6841)"
         id="g56"><path
           inkscape:connector-curvature="0"
           id="path58"
           style="fill:#39424b;fill-opacity:1;fill-rule:nonzero;stroke:none"
           d="m 0,0 c -0.452,-0.418 -1.3,-0.498 -2.103,-0.564 -1.493,-0.148 -2.07,-0.544 -2.07,-1.347 0,-0.96 1.086,-1.221 1.662,-1.221 1.256,0 2.511,0.566 2.511,1.798 L 0,0 Z M 0.159,-3.449 C 0.057,-3.233 0,-2.962 0,-2.6 l 0,0.113 c -0.464,-0.657 -1.356,-1.063 -2.511,-1.063 -1.017,0 -2.114,0.509 -2.114,1.627 0,1.324 1.232,1.63 2.477,1.743 C -0.859,-0.057 0,0.081 0,0.792 0,1.866 -1.017,2.115 -1.878,2.115 -2.94,2.115 -3.642,1.674 -3.89,0.883 l -0.429,0 c 0.259,1.039 1.131,1.64 2.441,1.64 1.46,0 2.297,-0.633 2.297,-1.731 l 0,-3.291 c 0,-0.293 0.079,-0.724 0.17,-0.95 l -0.43,0 z" /></g><g
         transform="translate(337.1255,628.7988)"
         id="g60"><path
           inkscape:connector-curvature="0"
           id="path62"
           style="fill:#39424b;fill-opacity:1;fill-rule:nonzero;stroke:none"
           d="M 0,0 C -0.769,0.068 -1.357,-0.146 -1.72,-0.498 -2.137,-0.87 -2.363,-1.436 -2.363,-2.046 l 0,-3.518 -0.43,0 0,5.825 0.43,0 0,-0.973 c 0.102,0.192 0.226,0.374 0.384,0.52 C -1.47,0.261 -0.792,0.475 0,0.386 L 0,0 Z" /></g><g
         transform="translate(342.5542,626.5708)"
         id="g64"><path
           inkscape:connector-curvature="0"
           id="path66"
           style="fill:#39424b;fill-opacity:1;fill-rule:nonzero;stroke:none"
           d="M 0,0 C -0.203,1.255 -1.232,2.206 -2.455,2.206 -3.688,2.206 -4.705,1.255 -4.896,0 L 0,0 Z m -4.942,-0.418 c 0.01,-1.515 1.141,-2.635 2.555,-2.635 1.369,0 1.991,0.758 2.274,1.527 l 0.441,0 c -0.407,-1.256 -1.346,-1.945 -2.715,-1.945 -1.662,0 -2.974,1.334 -2.974,3.03 0,1.696 1.3,3.077 2.906,3.077 1.742,0 2.93,-1.583 2.908,-3.054 l -5.395,0 z" /></g><g
         transform="translate(349.3745,628.1211)"
         id="g68"><path
           inkscape:connector-curvature="0"
           id="path70"
           style="fill:#39424b;fill-opacity:1;fill-rule:nonzero;stroke:none"
           d="m 0,0 c 1.153,0.633 1.516,1.086 1.516,1.594 0,0.668 -0.487,1.188 -1.165,1.188 -0.712,0 -1.232,-0.52 -1.232,-1.199 0,-0.328 0.169,-0.735 0.463,-1.085 L 0,0 Z m -0.102,-0.498 c -1.378,-0.769 -1.82,-1.414 -1.82,-2.261 0,-1.019 0.961,-1.878 2.16,-1.878 0.995,0 1.719,0.464 2.137,1.176 l -2.477,2.963 z M 2.658,-3.8 c -0.51,-0.769 -1.369,-1.232 -2.42,-1.232 -1.426,0 -2.613,1.005 -2.613,2.25 0,1.199 0.838,1.923 2.025,2.59 l -0.362,0.429 c -0.395,0.452 -0.599,0.916 -0.599,1.346 0,0.904 0.723,1.583 1.662,1.583 0.905,0 1.606,-0.667 1.606,-1.572 0,-0.735 -0.622,-1.301 -1.696,-1.899 l 2.306,-2.76 c 0.148,0.362 0.227,0.781 0.227,1.221 l 0,0.645 0.419,0 0,-0.645 c 0,-0.598 -0.125,-1.13 -0.34,-1.583 l 1.221,-1.459 -0.52,0 -0.916,1.086 z" /></g><g
         transform="translate(362.981,628.9688)"
         id="g72"><path
           inkscape:connector-curvature="0"
           id="path74"
           style="fill:#39424b;fill-opacity:1;fill-rule:nonzero;stroke:none"
           d="m 0,0 -0.419,0 c 0,1.154 -0.87,1.912 -2.215,1.912 -1.346,0 -2.24,-0.679 -2.24,-1.686 0,-0.859 0.656,-1.322 2.33,-1.662 1.764,-0.362 2.781,-0.837 2.781,-2.193 0,-1.369 -1.142,-2.251 -2.906,-2.251 -1.368,0 -2.838,0.803 -2.838,2.533 l 0.418,0 c 0,-1.447 1.221,-2.104 2.42,-2.104 1.539,0 2.488,0.69 2.488,1.822 0,0.972 -0.611,1.413 -2.442,1.787 -1.392,0.271 -2.669,0.723 -2.669,2.068 0,1.255 1.063,2.092 2.658,2.092 C -0.813,2.318 0,1.154 0,0" /></g><g
         transform="translate(369.4058,626.5708)"
         id="g76"><path
           inkscape:connector-curvature="0"
           id="path78"
           style="fill:#39424b;fill-opacity:1;fill-rule:nonzero;stroke:none"
           d="M 0,0 C -0.203,1.255 -1.232,2.206 -2.455,2.206 -3.688,2.206 -4.705,1.255 -4.896,0 L 0,0 Z m -4.942,-0.418 c 0.01,-1.515 1.142,-2.635 2.555,-2.635 1.369,0 1.991,0.758 2.274,1.527 l 0.441,0 c -0.407,-1.256 -1.346,-1.945 -2.715,-1.945 -1.662,0 -2.974,1.334 -2.974,3.03 0,1.696 1.3,3.077 2.906,3.077 1.742,0 2.93,-1.583 2.908,-3.054 l -5.395,0 z" /></g><g
         transform="translate(373.3765,623.0996)"
         id="g80"><path
           inkscape:connector-curvature="0"
           id="path82"
           style="fill:#39424b;fill-opacity:1;fill-rule:nonzero;stroke:none"
           d="m 0,0 c -1.605,0 -2.906,1.356 -2.906,3.03 0,1.697 1.301,3.077 2.906,3.077 1.289,0 2.296,-0.77 2.691,-1.945 l -0.452,0 C 1.865,5.088 1.041,5.677 0,5.677 -1.369,5.677 -2.488,4.49 -2.488,3.03 -2.488,1.595 -1.369,0.418 0,0.418 c 1.074,0 1.899,0.588 2.25,1.527 l 0.441,0 C 2.307,0.77 1.289,0 0,0" /></g><g
         transform="translate(382.187,623.2349)"
         id="g84"><path
           inkscape:connector-curvature="0"
           id="path86"
           style="fill:#39424b;fill-opacity:1;fill-rule:nonzero;stroke:none"
           d="m 0,0 -0.419,0 0,0.962 c -0.395,-0.679 -1.119,-1.097 -2.035,-1.097 -1.414,0 -2.442,1.029 -2.442,2.442 l 0,3.518 0.417,0 0,-3.518 c 0,-1.175 0.86,-2.024 2.025,-2.024 1.187,0 2.035,0.849 2.035,2.024 l 0,3.518 L 0,5.825 0,0 Z" /></g><g
         transform="translate(386.6099,628.7988)"
         id="g88"><path
           inkscape:connector-curvature="0"
           id="path90"
           style="fill:#39424b;fill-opacity:1;fill-rule:nonzero;stroke:none"
           d="M 0,0 C -0.77,0.068 -1.357,-0.146 -1.72,-0.498 -2.137,-0.87 -2.363,-1.436 -2.363,-2.046 l 0,-3.518 -0.43,0 0,5.825 0.43,0 0,-0.973 c 0.101,0.192 0.226,0.374 0.384,0.52 C -1.47,0.261 -0.792,0.475 0,0.386 L 0,0 Z" /></g><path
         inkscape:connector-curvature="0"
         id="path92"
         style="fill:#39424b;fill-opacity:1;fill-rule:nonzero;stroke:none"
         d="m 388.001,623.235 -0.418,0 0,5.825 0.418,0 0,-5.825 z m 0,6.809 -0.418,0 0,1.039 0.418,0 0,-1.039 z" /><g
         transform="translate(390.1841,625.2485)"
         id="g94"><path
           inkscape:connector-curvature="0"
           id="path96"
           style="fill:#39424b;fill-opacity:1;fill-rule:nonzero;stroke:none"
           d="m 0,0 c 0,-0.995 0.464,-1.674 1.572,-1.629 l 0,-0.385 C 0.316,-2.127 -0.419,-1.3 -0.419,0 l 0,3.393 -0.791,0 0,0.418 0.791,0 0,1.243 0.419,0 0,-1.243 1.572,0 0,-0.418 L 0,3.393 0,0 Z" /></g><g
         transform="translate(394.729,622.3877)"
         id="g98"><path
           inkscape:connector-curvature="0"
           id="path100"
           style="fill:#39424b;fill-opacity:1;fill-rule:nonzero;stroke:none"
           d="m 0,0 c -0.418,-1.108 -1.232,-1.526 -2.262,-1.334 l 0,0.394 c 0.906,-0.135 1.516,0.148 1.866,1.086 l 0.272,0.713 -2.193,5.813 0.451,0 1.957,-5.225 1.979,5.225 0.441,0 L 0,0 Z" /></g><g
         transform="translate(406.6606,628.9688)"
         id="g102"><path
           inkscape:connector-curvature="0"
           id="path104"
           style="fill:#39424b;fill-opacity:1;fill-rule:nonzero;stroke:none"
           d="m 0,0 -0.418,0 c 0,1.154 -0.871,1.912 -2.216,1.912 -1.346,0 -2.239,-0.679 -2.239,-1.686 0,-0.859 0.655,-1.322 2.329,-1.662 1.764,-0.362 2.782,-0.837 2.782,-2.193 0,-1.369 -1.142,-2.251 -2.906,-2.251 -1.369,0 -2.839,0.803 -2.839,2.533 l 0.418,0 c 0,-1.447 1.222,-2.104 2.421,-2.104 1.538,0 2.487,0.69 2.487,1.822 0,0.972 -0.61,1.413 -2.442,1.787 -1.391,0.271 -2.669,0.723 -2.669,2.068 0,1.255 1.063,2.092 2.658,2.092 C -0.813,2.318 0,1.154 0,0" /></g><g
         transform="translate(413.0854,626.5708)"
         id="g106"><path
           inkscape:connector-curvature="0"
           id="path108"
           style="fill:#39424b;fill-opacity:1;fill-rule:nonzero;stroke:none"
           d="M 0,0 C -0.203,1.255 -1.232,2.206 -2.454,2.206 -3.687,2.206 -4.704,1.255 -4.896,0 L 0,0 Z m -4.942,-0.418 c 0.011,-1.515 1.142,-2.635 2.556,-2.635 1.368,0 1.99,0.758 2.273,1.527 l 0.441,0 c -0.407,-1.256 -1.346,-1.945 -2.714,-1.945 -1.663,0 -2.974,1.334 -2.974,3.03 0,1.696 1.3,3.077 2.906,3.077 1.741,0 2.929,-1.583 2.907,-3.054 l -5.395,0 z" /></g><g
         transform="translate(417.4517,628.7988)"
         id="g110"><path
           inkscape:connector-curvature="0"
           id="path112"
           style="fill:#39424b;fill-opacity:1;fill-rule:nonzero;stroke:none"
           d="M 0,0 C -0.769,0.068 -1.357,-0.146 -1.719,-0.498 -2.137,-0.87 -2.363,-1.436 -2.363,-2.046 l 0,-3.518 -0.43,0 0,5.825 0.43,0 0,-0.973 c 0.102,0.192 0.226,0.374 0.384,0.52 C -1.47,0.261 -0.791,0.475 0,0.386 L 0,0 Z" /></g><g
         transform="translate(420.5288,623.2349)"
         id="g114"><path
           inkscape:connector-curvature="0"
           id="path116"
           style="fill:#39424b;fill-opacity:1;fill-rule:nonzero;stroke:none"
           d="m 0,0 -0.453,0 -2.239,5.825 0.453,0 2.012,-5.247 2.013,5.247 0.453,0 L 0,0 Z" /></g><path
         inkscape:connector-curvature="0"
         id="path118"
         style="fill:#39424b;fill-opacity:1;fill-rule:nonzero;stroke:none"
         d="m 424.137,623.235 -0.419,0 0,5.825 0.419,0 0,-5.825 z m 0,6.809 -0.419,0 0,1.039 0.419,0 0,-1.039 z" /><g
         transform="translate(428.2192,623.0996)"
         id="g120"><path
           inkscape:connector-curvature="0"
           id="path122"
           style="fill:#39424b;fill-opacity:1;fill-rule:nonzero;stroke:none"
           d="m 0,0 c -1.605,0 -2.906,1.356 -2.906,3.03 0,1.697 1.301,3.077 2.906,3.077 1.289,0 2.296,-0.77 2.691,-1.945 l -0.452,0 C 1.866,5.088 1.041,5.677 0,5.677 c -1.368,0 -2.488,-1.187 -2.488,-2.647 0,-1.435 1.12,-2.612 2.488,-2.612 1.074,0 1.9,0.588 2.251,1.527 l 0.44,0 C 2.308,0.77 1.289,0 0,0" /></g><g
         transform="translate(437.0298,626.5708)"
         id="g124"><path
           inkscape:connector-curvature="0"
           id="path126"
           style="fill:#39424b;fill-opacity:1;fill-rule:nonzero;stroke:none"
           d="M 0,0 C -0.203,1.255 -1.232,2.206 -2.454,2.206 -3.687,2.206 -4.704,1.255 -4.896,0 L 0,0 Z m -4.941,-0.418 c 0.01,-1.515 1.141,-2.635 2.555,-2.635 1.368,0 1.99,0.758 2.273,1.527 l 0.442,0 c -0.408,-1.256 -1.347,-1.945 -2.715,-1.945 -1.662,0 -2.974,1.334 -2.974,3.03 0,1.696 1.3,3.077 2.906,3.077 1.742,0 2.93,-1.583 2.907,-3.054 l -5.394,0 z" /></g><g
         transform="translate(442.6079,623.7783)"
         id="g128"><path
           inkscape:connector-curvature="0"
           id="path130"
           style="fill:#39424b;fill-opacity:1;fill-rule:nonzero;stroke:none"
           d="m 0,0 c -0.418,-0.43 -1.108,-0.679 -1.923,-0.679 -1.47,0 -2.511,0.645 -2.702,1.832 l 0.418,0 c 0.203,-0.938 1.04,-1.436 2.273,-1.436 0.701,0 1.289,0.227 1.628,0.576 0.204,0.215 0.306,0.498 0.283,0.803 -0.022,0.714 -0.599,1.075 -2.024,1.278 -1.007,0.147 -2.25,0.317 -2.273,1.471 0,0.791 0.747,1.584 2.206,1.584 1.288,0 2.136,-0.578 2.385,-1.63 l -0.429,0 C -0.396,4.58 -1.063,5.032 -2.104,5.032 -3.155,5.032 -3.901,4.523 -3.891,3.845 -3.879,3.178 -3.268,2.962 -1.979,2.782 -0.77,2.601 0.351,2.285 0.407,1.108 0.419,0.702 0.283,0.293 0,0" /></g><g
         transform="translate(279.7964,676.8281)"
         id="g132"><path
           inkscape:connector-curvature="0"
           id="path134"
           style="fill:#36424a;fill-opacity:1;fill-rule:nonzero;stroke:none"
           d="m 0,0 c 10.315,4.984 15.654,14.404 15.654,25.082 0,16.71 -12.276,33.972 -39.847,33.972 -26.502,0 -41.798,-18.326 -41.798,-39.843 l 23.481,0 c 0,9.244 5.688,18.142 18.317,18.142 10.852,0 16.898,-5.869 16.898,-14.769 0,-8.18 -4.799,-14.225 -19.567,-14.225 l -4.798,0 0,-20.455 7.826,0 c 13.696,0 20.097,-5.515 20.097,-15.652 0,-10.137 -8.003,-17.61 -21.346,-17.61 -6.259,0 -11.301,1.754 -14.878,4.954 -4.651,-0.02 -9.302,-0.03 -13.952,-0.03 -4.345,0 -8.69,0.007 -13.034,0.023 5.405,-15.638 19.276,-26.648 42.042,-26.648 29.349,0 44.645,19.567 44.645,38.955 C 19.74,-16.362 14.406,-4.268 0,0" /></g><g
         transform="translate(325.9438,639.7261)"
         id="g136"><path
           inkscape:connector-curvature="0"
           id="path138"
           style="fill:#36424a;fill-opacity:1;fill-rule:nonzero;stroke:none"
           d="m 0,0 c -23.304,0 -40.555,12.279 -43.402,32.023 l 23.835,0 C -16.366,24.196 -6.938,21.347 0,21.347 c 9.424,0 16.536,2.849 16.536,8.181 0,5.16 -3.2,7.295 -19.205,9.783 -16.367,2.488 -38.244,6.941 -38.244,27.393 0,14.403 12.629,29.348 39.133,29.348 20.986,0 36.635,-11.385 39.662,-28.638 l -24.367,0 c -1.422,4.274 -6.582,7.649 -15.295,7.649 -10.852,0 -15.301,-3.916 -15.301,-7.296 0,-4.8 6.764,-6.401 18.141,-8.181 C 23.831,55.85 40.193,50.875 40.193,30.951 40.193,12.81 23.474,0 0,0" /></g><g
         transform="translate(443.5269,639.7261)"
         id="g140"><path
           inkscape:connector-curvature="0"
           id="path142"
           style="fill:#36424a;fill-opacity:1;fill-rule:nonzero;stroke:none"
           d="m 0,0 c -27.568,0 -47.313,21.347 -47.313,47.854 0,26.498 19.745,48.198 47.313,48.198 22.057,0 38.776,-12.455 44.109,-33.085 l -25.08,0 C 15.833,69.192 8.537,74.531 0,74.531 c -12.982,0 -23.479,-12.096 -23.479,-26.862 0,-14.406 10.497,-26.322 23.479,-26.322 8.713,0 16.187,5.339 19.209,11.74 l 25.078,0 C 38.953,12.279 22.233,0 0,0" /></g><g
         transform="translate(173.8501,661.666)"
         id="g144"><path
           inkscape:connector-curvature="0"
           id="path146"
           style="fill:#36424a;fill-opacity:1;fill-rule:nonzero;stroke:none"
           d="m 0,0 c -14.449,0 -26.163,11.714 -26.163,26.163 0,14.448 11.714,26.163 26.163,26.163 14.45,0 26.163,-11.715 26.163,-26.163 C 26.163,11.714 14.45,0 0,0 m 48.048,26.957 0,45.135 -22.414,0 0,-5.275 C 18.213,71.507 9.427,74.231 0,74.231 c -1.75,0 -3.475,-0.098 -5.175,-0.282 -7.655,-0.506 -14.807,-3.145 -20.925,-7.431 -13.217,-8.564 -21.968,-23.435 -21.968,-40.356 0,-26.546 21.52,-48.069 48.068,-48.069 9.427,0 18.213,2.725 25.634,7.413 l 0,-7.456 22.414,0 0,47.316 c 0.005,0.265 0.02,0.529 0.02,0.796 0,0.266 -0.015,0.528 -0.02,0.795" /></g></g></g></svg>