<?xml version="1.0" encoding="UTF-8" standalone="no"?>
<!-- Created with sK1/UniConvertor (http://sk1project.org/) -->

<svg
   xmlns:dc="http://purl.org/dc/elements/1.1/"
   xmlns:cc="http://creativecommons.org/ns#"
   xmlns:rdf="http://www.w3.org/1999/02/22-rdf-syntax-ns#"
   xmlns:svg="http://www.w3.org/2000/svg"
   xmlns="http://www.w3.org/2000/svg"
   xmlns:sodipodi="http://sodipodi.sourceforge.net/DTD/sodipodi-0.dtd"
   xmlns:inkscape="http://www.inkscape.org/namespaces/inkscape"
   width="856.97278pt"
   height="198.03151pt"
   viewBox="0 0 856.97277 198.03151"
   id="svg2"
   version="1.1"
   inkscape:version="0.91 r13725"
   sodipodi:docname="apsl.svg"
   style="fill-rule:evenodd">
  <metadata
     id="metadata24">
    <rdf:RDF>
      <cc:Work
         rdf:about="">
        <dc:format>image/svg+xml</dc:format>
        <dc:type
           rdf:resource="http://purl.org/dc/dcmitype/StillImage" />
        <dc:title></dc:title>
      </cc:Work>
    </rdf:RDF>
  </metadata>
  <sodipodi:namedview
     pagecolor="#ffffff"
     bordercolor="#666666"
     borderopacity="1"
     objecttolerance="10"
     gridtolerance="10"
     guidetolerance="10"
     inkscape:pageopacity="0"
     inkscape:pageshadow="2"
     inkscape:window-width="1133"
     inkscape:window-height="761"
     id="namedview22"
     showgrid="false"
     inkscape:zoom="0.22425732"
     inkscape:cx="30.271143"
     inkscape:cy="-38.548026"
     inkscape:window-x="65"
     inkscape:window-y="0"
     inkscape:window-maximized="0"
     inkscape:current-layer="svg2"
     fit-margin-top="0"
     fit-margin-left="0"
     fit-margin-right="0"
     fit-margin-bottom="0" />
  <defs
     id="defs4">
    <marker
       id="ArrowEnd"
       viewBox="0 0 10 10"
       refX="0"
       refY="5"
       markerUnits="strokeWidth"
       markerWidth="4"
       markerHeight="3"
       orient="auto">
      <path
         d="M 0,0 10,5 0,10 Z"
         id="path7"
         inkscape:connector-curvature="0" />
    </marker>
    <marker
       id="ArrowStart"
       viewBox="0 0 10 10"
       refX="10"
       refY="5"
       markerUnits="strokeWidth"
       markerWidth="4"
       markerHeight="3"
       orient="auto">
      <path
         d="M 10,0 0,5 10,10 Z"
         id="path10"
         inkscape:connector-curvature="0" />
    </marker>
  </defs>
  <path
     style="fill:#333333;stroke:none"
     d="m 477.6718,117.86926 -12.981,0 0,-34.411002 c 0,-3.983 -0.652,-6.834 -1.957,-8.55 -1.305,-1.717 -3.812,-2.577 -7.521,-2.577 l -57.9001,0 c -11.1258,0 -16.6892,5.564 -16.6892,16.691 0,10.989002 5.5634,16.484002 16.6892,16.484002 l 52.1311,0 c 4.121,0 6.181,2.061 6.181,6.181 0,4.121 -1.992,6.182 -5.975,6.182 l -54.1912,0 c -2.7469,-0.275 -6.6618,-0.893 -11.7448,-1.855 -3.4337,-1.099 -6.456,-3.16 -9.0659,-6.181 -4.9453,-5.632 -7.4176,-12.638002 -7.4176,-21.017002 0,-15.248 5.838,-24.382 17.5139,-27.405 3.846,-0.961 8.1044,-1.442 12.7751,-1.442 l 56.0455,0 c 2.06,0 6.044,0.412 11.951,1.237 8.104,2.197 12.156,8.791 12.156,19.78 l 0,36.883002 z m 128.574,-29.466002 c 0,8.38 -2.472,15.386002 -7.417,21.018002 -2.61,3.022 -5.632,5.082 -9.066,6.181 l -11.745,1.854 -69.232,0 0,21.018 -12.981,0 0,-57.900002 c 0,-10.989 4.052,-17.583 12.156,-19.781 l 12.157,-1.236 55.839,0 c 20.193,0 30.289,9.615 30.289,28.846 z m -13.393,0.207 c 0,-11.127 -5.563,-16.69 -16.69,-16.69 l -57.899,0 c -5.083,0 -8.104,1.785 -9.066,5.357 -0.275,1.099 -0.412,3.022 -0.412,5.77 l 0,22.047002 67.377,0 c 11.127,0 16.69,-5.495002 16.69,-16.484002 z m 138.672,11.538002 c 0,5.22 -1.786,9.478 -5.358,12.775 -3.571,3.297 -7.967,4.946 -13.187,4.946 l -84.686,0 c -3.984,0 -5.976,-2.061 -5.976,-6.182 0,-4.12 2.13,-6.181 6.388,-6.181 l 82.419,0 c 4.671,0 7.006,-1.717 7.006,-5.151 0,-3.572002 -2.335,-5.358002 -7.006,-5.358002 l -71.292,0 c -5.22,0 -9.65,-1.648 -13.291,-4.945 -3.639,-3.297 -5.46,-7.486 -5.46,-12.569 0,-5.22 1.821,-9.478 5.46,-12.775 3.641,-3.297 8.071,-4.945 13.291,-4.945 l 84.686,0 c 3.846,0 5.77,2.129 5.77,6.387 0,3.984 -2.061,5.976 -6.182,5.976 l -82.42,0 c -4.67,0 -7.005,1.786 -7.005,5.357 0,3.434 2.335,5.151 7.005,5.151 l 71.293,0 c 5.22,0 9.616,1.614 13.187,4.842 3.572,3.228 5.358,7.452 5.358,12.672002 z m 125.44799,11.539 c 0,4.121 -1.991,6.182 -5.974,6.182 l -86.74799,0 c -5.219,0 -9.615,-1.82 -13.186,-5.46 -3.572,-3.641 -5.358,-8.071 -5.358,-13.291002 l 0,-39.355 12.981,0 0,39.561 c 0,4.121002 2.473,6.182002 7.418,6.182002 l 84.47999,0 c 4.259,0 6.387,2.061 6.387,6.181 z"
     id="path16"
     inkscape:connector-curvature="0" />
  <path
     style="fill:#f4b70a;stroke:none"
     d="m 186.7069,95.302428 c 0,-13.47284 -4.80618,-25.21319 -14.41854,-35.25807 -9.61236,-10.04609 -20.72184,-15.04942 -33.24957,-15.04942 -13.63056,0 -25.21258,5.00333 -34.78612,15.04942 -9.572927,10.04488 -14.379117,22.49436 -14.379117,37.34602 0,14.142542 4.76736,26.079432 14.300857,35.810082 9.53351,9.73065 20.99724,14.61569 34.39183,14.61569 12.92142,0 24.18801,-5.12101 33.76155,-15.40368 9.57293,-10.28145 14.37911,-22.65207 14.37911,-37.110042 z M 10.313953,82.939078 85.467743,56.655828 c -8.29662,11.31633 -12.45494,24.64904 -12.45494,40.02542 0,18.712752 6.185,34.431262 18.59445,47.156142 12.370017,12.72428 27.891977,19.10643 46.485827,19.10643 5.00272,0 9.83741,-0.52229 14.50529,-1.56142 L 50.264273,197.17186 c -7.99635,2.79648 -16.82679,-1.45769 -19.62321,-9.45464 L 0.8596716,102.56174 C -1.9368664,94.565998 2.3174796,85.735558 10.313953,82.939078 Z M 156.06697,31.965538 245.01012,0.85972783 c 7.99575,-2.79647003 16.82679,1.45707997 19.62327,9.45343017 l 29.78097,85.15548 c 2.79648,7.996952 -1.45769,16.826792 -9.45464,19.623262 l -82.33716,28.79584 0,-111.262812 -15.91566,0 0,20.32754 c -5.39702,-7.44555 -12.17287,-13.158 -20.32754,-17.13616 -3.30724,-1.61359 -6.7437,-2.89536 -10.31239,-3.85077 z M 186.7069,149.454 l -20.17225,7.05489 c 8.46284,-4.1565 15.17499,-9.7998 20.17225,-17.00513 l 0,9.95024 z"
     id="path18"
     inkscape:connector-curvature="0" />
  <g
     id="g20"
     transform="translate(-141.42985,-192.07508)" />
</svg>
