<?xml version="1.0" standalone="no"?><!DOCTYPE svg PUBLIC "-//W3C//DTD SVG 1.1//EN" "http://www.w3.org/Graphics/SVG/1.1/DTD/svg11.dtd"><svg width="100%" height="100%" viewBox="0 0 207 96" version="1.1" xmlns="http://www.w3.org/2000/svg" xmlns:xlink="http://www.w3.org/1999/xlink" xml:space="preserve" style="fill-rule:evenodd;clip-rule:evenodd;stroke-linejoin:round;stroke-miterlimit:1.41421;"><path d="M176.822,53.119l0,-37.492l8.627,0l0,35.915c0,4.643 0.996,6.303 3.566,7.797l4.647,2.654l-3.816,6.802c-8.875,-4.23 -13.024,-7.301 -13.024,-15.676M169.676,67.716l-8.626,0l0,-25.049c0,-4.811 -3.067,-7.548 -6.635,-7.548c-4.148,0 -7.215,2.488 -7.215,8.71l0,23.887l-8.627,0l0,-23.887c0,-6.222 -3.068,-8.71 -7.216,-8.71c-3.566,0 -6.635,2.737 -6.635,7.548l0,25.049l-8.625,0l0,-25.133c0,-10.201 6.801,-16.09 14.68,-16.09c6.053,0 10.45,2.904 12.027,7.133l0.165,0c1.575,-4.229 5.971,-7.133 12.026,-7.133c7.879,0 14.681,5.889 14.681,16.09l0,25.133ZM155.299,0.173c-26.42,0 -47.837,21.417 -47.837,47.837c0,26.419 21.417,47.836 47.837,47.836c26.418,0 47.835,-21.417 47.835,-47.836c0,-26.42 -21.417,-47.837 -47.835,-47.837" style="fill:#7ca340;fill-rule:nonzero;"/><path d="M21.149,34.592c-7.215,0 -12.523,5.556 -12.523,13.021c0,7.465 5.308,13.021 12.523,13.021c7.216,0 12.524,-5.556 12.524,-13.021c0,-7.465 -5.308,-13.021 -12.524,-13.021M0,15.599l8.626,0l0,16.836l0.165,0c2.073,-3.318 7.465,-5.972 13.105,-5.972c10.45,0 20.9,7.714 20.9,21.15c0,13.436 -10.45,21.15 -20.9,21.15c-5.64,0 -11.032,-2.654 -13.105,-5.972l-0.165,0l0,4.893l-8.626,0l0,-52.085Z" style="fill:#293b46;fill-rule:nonzero;"/><path d="M47.723,27.542l8.626,0l0,40.142l-8.626,0l0,-40.142ZM52.036,14.52c2.654,0 4.81,2.157 4.81,4.811c0,2.654 -2.156,4.81 -4.81,4.81c-2.654,0 -4.811,-2.156 -4.811,-4.81c0,-2.654 2.157,-4.811 4.811,-4.811" style="fill:#293b46;fill-rule:nonzero;"/><path d="M82.382,59.555c6.967,0 11.943,-5.556 11.943,-12.44c0,-6.967 -5.391,-12.523 -11.943,-12.523c-6.718,0 -12.109,5.556 -12.109,12.44c0,6.967 4.81,12.523 12.109,12.523M102.453,63.206c0,13.27 -10.118,20.899 -20.983,20.899c-5.557,0 -12.358,-2.321 -16.919,-7.962l7.049,-5.142c1.659,2.323 5.39,4.977 9.455,4.977c8.792,0 13.27,-5.723 13.27,-11.86l0,-2.654c-3.649,4.063 -7.796,6.22 -13.685,6.22c-10.367,0 -19.49,-7.795 -19.49,-20.485c0,-13.188 9.786,-20.736 20.485,-20.736c5.392,0 9.704,2.074 12.524,5.807l0.166,0l0,-4.728l8.128,0l0,35.664Z" style="fill:#293b46;fill-rule:nonzero;"/><path d="M199.997,1.524c-2.901,0 -5.258,2.359 -5.258,5.257c0,2.9 2.357,5.259 5.258,5.259c2.899,0 5.257,-2.359 5.257,-5.259c0,-2.898 -2.358,-5.257 -5.257,-5.257M199.997,13.564c-3.74,0 -6.784,-3.043 -6.784,-6.783c0,-3.739 3.044,-6.781 6.784,-6.781c3.74,0 6.782,3.042 6.782,6.781c0,3.74 -3.042,6.783 -6.782,6.783" style="fill:#293b46;fill-rule:nonzero;"/><path d="M200.063,6.39c0.682,0 1.11,-0.377 1.11,-1.072c0,-0.659 -0.245,-1.049 -1.317,-1.049l-0.72,0l0,2.121l0.926,0ZM197.003,2.441l3.034,0c0.891,0 1.319,0.061 1.696,0.206c0.987,0.379 1.608,1.269 1.608,2.537c0,0.927 -0.437,1.938 -1.304,2.376l0,0.025c0,0 0.122,0.159 0.331,0.524l1.693,3.047l-2.376,0l-1.548,-2.937l-1,0l0,2.937l-2.134,0l0,-8.715Z" style="fill:#293b46;fill-rule:nonzero;"/></svg>