<?xml version="1.0" encoding="UTF-8" standalone="no"?>
<!-- Created with Inkscape (http://www.inkscape.org/) -->

<svg
   xmlns:dc="http://purl.org/dc/elements/1.1/"
   xmlns:cc="http://creativecommons.org/ns#"
   xmlns:rdf="http://www.w3.org/1999/02/22-rdf-syntax-ns#"
   xmlns:svg="http://www.w3.org/2000/svg"
   xmlns="http://www.w3.org/2000/svg"
   xmlns:sodipodi="http://sodipodi.sourceforge.net/DTD/sodipodi-0.dtd"
   xmlns:inkscape="http://www.inkscape.org/namespaces/inkscape"
   id="svg2"
   version="1.1"
   inkscape:version="0.91 r13725"
   xml:space="preserve"
   width="670.16736"
   height="108.84312"
   viewBox="0 0 670.16736 108.84312"
   sodipodi:docname="blablacar.svg"><metadata
     id="metadata8"><rdf:RDF><cc:Work
         rdf:about=""><dc:format>image/svg+xml</dc:format><dc:type
           rdf:resource="http://purl.org/dc/dcmitype/StillImage" /><dc:title></dc:title></cc:Work></rdf:RDF></metadata><defs
     id="defs6"><clipPath
       clipPathUnits="userSpaceOnUse"
       id="clipPath16"><path
         d="m 0,144 601.333,0 0,-144 L 0,0 0,144 Z"
         id="path18"
         inkscape:connector-curvature="0" /></clipPath></defs><sodipodi:namedview
     pagecolor="#ffffff"
     bordercolor="#666666"
     borderopacity="1"
     objecttolerance="10"
     gridtolerance="10"
     guidetolerance="10"
     inkscape:pageopacity="0"
     inkscape:pageshadow="2"
     inkscape:window-width="1366"
     inkscape:window-height="717"
     id="namedview4"
     showgrid="false"
     fit-margin-top="0"
     fit-margin-left="0"
     fit-margin-right="0"
     fit-margin-bottom="0"
     inkscape:zoom="1.369687"
     inkscape:cx="349.99361"
     inkscape:cy="22.051834"
     inkscape:window-x="0"
     inkscape:window-y="0"
     inkscape:window-maximized="1"
     inkscape:current-layer="g10" /><g
     id="g10"
     inkscape:groupmode="layer"
     inkscape:label="BlaBlacar Vecto"
     transform="matrix(1.25,0,0,-1.25,-45.93975,143.39912)"><g
       id="g12"><g
         id="g14"
         clip-path="url(#clipPath16)"><g
           id="g20"
           transform="translate(265.4668,55.8418)"><path
             d="M 0,0 C -0.249,2.359 -0.936,4.135 -2.039,5.363 -3.142,6.584 -4.675,7.432 -6.661,7.904 -7.876,8.219 -9.5,8.285 -11.522,8.123 -13.556,7.939 -16.271,7.668 -19.683,7.289 l -3.53,-0.383 2.108,-19.06 1.034,0.117 c 4.962,0.551 8.4,0.951 10.301,1.224 1.904,0.293 3.791,0.963 5.683,2.034 1.647,0.935 2.796,2.179 3.434,3.722 C -0.026,-3.531 0.209,-1.844 0,0 m -8.211,30.378 c -0.14,1.23 -0.599,2.456 -1.375,3.674 -0.768,1.235 -1.851,2.059 -3.239,2.496 -1.319,0.406 -2.85,0.54 -4.573,0.393 -1.728,-0.14 -4.291,-0.399 -7.696,-0.759 l -1.331,-0.159 1.778,-16.101 2.402,0.272 c 3.272,0.367 5.558,0.65 6.858,0.865 1.312,0.207 2.626,0.716 3.952,1.529 1.446,0.87 2.406,1.988 2.831,3.311 0.439,1.32 0.574,2.814 0.393,4.479 M 19.71,1.818 c 0.42,-3.783 0.074,-7.172 -1.034,-10.187 -1.132,-3.029 -2.775,-5.621 -4.998,-7.764 -2.605,-2.553 -5.574,-4.506 -8.894,-5.832 -3.315,-1.334 -7.621,-2.289 -12.897,-2.873 l -30.458,-3.359 -8.4,76.068 26.882,2.966 c 5.576,0.622 9.828,0.885 12.766,0.771 2.917,-0.117 5.714,-0.707 8.385,-1.789 2.89,-1.167 5.146,-2.902 6.762,-5.203 1.612,-2.3 2.59,-5.047 2.949,-8.257 C 11.19,32.656 10.627,29.24 9.077,26.151 7.554,23.042 5.214,20.631 2.098,18.901 l 0.048,-0.405 c 4.806,-0.475 8.793,-2.068 11.967,-4.803 3.16,-2.752 5.03,-6.689 5.597,-11.875"
             style="fill:#2188c5;fill-opacity:1;fill-rule:nonzero;stroke:none"
             id="path22"
             inkscape:connector-curvature="0" /></g><g
           id="g24"
           transform="translate(312.4961,36.2363)"><path
             d="M 0,0 -17.475,-1.674 -24.918,75.974 -7.443,77.651 0,0 Z"
             style="fill:#2188c5;fill-opacity:1;fill-rule:nonzero;stroke:none"
             id="path26"
             inkscape:connector-curvature="0" /></g><g
           id="g28"
           transform="translate(355.3535,55.0977)"><path
             d="m 0,0 -1.121,11.674 c -2.93,-0.576 -5.298,-1.067 -7.111,-1.453 -1.81,-0.397 -3.564,-0.994 -5.26,-1.799 -1.496,-0.684 -2.609,-1.59 -3.347,-2.756 -0.749,-1.164 -1.026,-2.639 -0.852,-4.439 0.243,-2.623 1.137,-4.372 2.629,-5.215 1.526,-0.848 3.645,-1.127 6.408,-0.862 1.524,0.135 3.056,0.639 4.596,1.491 C -2.534,-2.512 -1.177,-1.391 0,0 m 0.833,-8.684 c -1.103,-1.111 -2.096,-2.109 -2.967,-2.984 -0.877,-0.904 -2.064,-1.828 -3.586,-2.777 -1.491,-0.914 -2.958,-1.641 -4.386,-2.18 -1.453,-0.547 -3.51,-0.951 -6.167,-1.193 -4.954,-0.481 -9.223,0.789 -12.835,3.797 -3.583,3.017 -5.63,7.05 -6.108,12.099 -0.408,4.166 0.098,7.608 1.518,10.33 1.428,2.715 3.619,4.979 6.611,6.783 2.997,1.819 6.693,3.248 11.013,4.274 4.345,1.021 9.017,1.939 14.047,2.758 l -0.034,0.287 c -0.292,3.101 -1.634,5.129 -4.026,6.095 -2.403,0.962 -5.87,1.222 -10.437,0.782 -2.057,-0.195 -4.437,-0.797 -7.125,-1.818 -2.678,-1.005 -5.287,-2.226 -7.803,-3.636 l -1.498,-0.142 -1.295,13.521 c 1.684,0.668 4.407,1.517 8.215,2.573 3.793,1.056 7.65,1.764 11.576,2.142 9.642,0.931 16.826,-0.015 21.549,-2.798 4.718,-2.789 7.39,-7.477 8.013,-14.06 l 3.664,-38.124 -17.375,-1.656 -0.564,5.927 z"
             style="fill:#2188c5;fill-opacity:1;fill-rule:nonzero;stroke:none"
             id="path30"
             inkscape:connector-curvature="0" /></g><g
           id="g32"
           transform="translate(83.7188,56.6738)"><path
             d="m 0,0 c -0.25,2.361 -0.933,4.135 -2.041,5.367 -1.101,1.221 -2.634,2.069 -4.619,2.539 -1.217,0.313 -2.836,0.383 -4.861,0.215 -2.031,-0.182 -4.746,-0.453 -8.158,-0.828 l -3.537,-0.385 2.111,-19.06 1.034,0.115 c 4.964,0.551 8.402,0.951 10.3,1.226 1.907,0.291 3.791,0.961 5.681,2.034 1.652,0.933 2.801,2.177 3.441,3.72 C -0.024,-3.531 0.21,-1.84 0,0 m -8.21,30.38 c -0.142,1.23 -0.6,2.457 -1.376,3.67 -0.768,1.236 -1.85,2.059 -3.233,2.5 -1.322,0.404 -2.855,0.534 -4.58,0.392 -1.729,-0.139 -4.291,-0.399 -7.697,-0.762 l -1.326,-0.156 1.78,-16.098 2.395,0.269 c 3.277,0.366 5.561,0.65 6.861,0.866 1.312,0.205 2.624,0.716 3.952,1.524 1.446,0.873 2.408,1.992 2.831,3.314 0.443,1.318 0.573,2.816 0.393,4.481 M 19.707,1.82 c 0.425,-3.783 0.076,-7.175 -1.032,-10.189 -1.131,-3.027 -2.773,-5.623 -4.998,-7.762 -2.606,-2.553 -5.573,-4.508 -8.895,-5.836 -3.31,-1.326 -7.619,-2.285 -12.892,-2.871 l -30.463,-3.359 -8.394,76.072 26.879,2.962 c 5.578,0.622 9.826,0.886 12.765,0.769 2.919,-0.115 5.718,-0.701 8.383,-1.787 C 3.954,48.65 6.207,46.923 7.827,44.62 9.436,42.316 10.415,39.567 10.774,36.361 11.188,32.657 10.63,29.241 9.076,26.154 7.552,23.038 5.224,20.631 2.102,18.901 l 0.044,-0.408 c 4.809,-0.466 8.798,-2.067 11.963,-4.798 3.16,-2.752 5.037,-6.689 5.598,-11.875"
             style="fill:#6db030;fill-opacity:1;fill-rule:nonzero;stroke:none"
             id="path34"
             inkscape:connector-curvature="0" /></g><g
           id="g36"
           transform="translate(130.751,37.0703)"><path
             d="M 0,0 -17.478,-1.672 -24.92,75.97 -7.442,77.649 0,0 Z"
             style="fill:#6db030;fill-opacity:1;fill-rule:nonzero;stroke:none"
             id="path38"
             inkscape:connector-curvature="0" /></g><g
           id="g40"
           transform="translate(173.6104,55.9316)"><path
             d="M 0,0 -1.126,11.67 C -4.057,11.096 -6.424,10.604 -8.237,10.217 -10.042,9.822 -11.8,9.227 -13.498,8.42 -14.993,7.738 -16.101,6.828 -16.845,5.666 -17.592,4.5 -17.866,3.021 -17.697,1.227 c 0.244,-2.625 1.132,-4.372 2.63,-5.217 1.529,-0.846 3.645,-1.127 6.408,-0.864 1.53,0.139 3.057,0.639 4.6,1.495 C -2.536,-2.514 -1.179,-1.393 0,0 m 0.832,-8.688 c -1.103,-1.113 -2.094,-2.109 -2.975,-2.984 -0.867,-0.898 -2.06,-1.828 -3.576,-2.777 -1.496,-0.908 -2.967,-1.641 -4.391,-2.174 -1.452,-0.547 -3.51,-0.955 -6.167,-1.197 -4.952,-0.481 -9.223,0.793 -12.834,3.799 -3.586,3.015 -5.63,7.048 -6.112,12.103 -0.405,4.16 0.101,7.604 1.522,10.326 1.43,2.713 3.619,4.975 6.609,6.783 3.001,1.817 6.692,3.243 11.014,4.274 4.343,1.022 9.022,1.939 14.047,2.757 l -0.032,0.29 c -0.29,3.096 -1.638,5.127 -4.027,6.093 -2.401,0.957 -5.869,1.219 -10.437,0.779 -2.059,-0.196 -4.439,-0.796 -7.128,-1.816 -2.672,-1.005 -5.287,-2.228 -7.801,-3.638 l -1.5,-0.142 -1.293,13.521 c 1.686,0.668 4.409,1.519 8.217,2.577 3.789,1.052 7.645,1.76 11.574,2.14 9.646,0.929 16.824,-0.015 21.547,-2.796 4.72,-2.789 7.39,-7.477 8.014,-14.063 l 3.668,-38.122 -17.38,-1.658 -0.559,5.925 z"
             style="fill:#6db030;fill-opacity:1;fill-rule:nonzero;stroke:none"
             id="path42"
             inkscape:connector-curvature="0" /></g><g
           id="g44"
           transform="translate(502.3437,49.9941)"><path
             d="m 0,0 -0.04,12.148 c -3.079,-0.324 -5.569,-0.607 -7.473,-0.828 -1.898,-0.226 -3.772,-0.675 -5.591,-1.341 -1.598,-0.567 -2.836,-1.401 -3.709,-2.528 -0.884,-1.127 -1.311,-2.627 -1.305,-4.494 0.007,-2.73 0.75,-4.605 2.214,-5.627 1.481,-1.006 3.646,-1.517 6.514,-1.508 1.594,0.004 3.222,0.371 4.884,1.106 C -2.848,-2.338 -1.341,-1.318 0,0 m 0.02,-9.037 c -1.244,-1.026 -2.351,-1.975 -3.335,-2.805 -0.983,-0.826 -2.303,-1.66 -3.962,-2.498 -1.614,-0.801 -3.198,-1.41 -4.746,-1.832 -1.545,-0.42 -3.688,-0.629 -6.45,-0.639 -5.157,-0.015 -9.448,1.698 -12.859,5.149 -3.421,3.445 -5.144,7.799 -5.156,13.06 -0.01,4.327 0.842,7.817 2.566,10.487 1.719,2.668 4.207,4.791 7.452,6.361 3.283,1.594 7.203,2.719 11.764,3.354 4.571,0.631 9.476,1.135 14.736,1.492 l -0.003,0.316 c -0.007,3.219 -1.206,5.438 -3.578,6.657 -2.354,1.213 -5.921,1.82 -10.656,1.805 -2.147,-0.005 -4.653,-0.397 -7.522,-1.188 -2.866,-0.785 -5.667,-1.787 -8.409,-3.005 l -1.545,-0.006 -0.048,14.065 c 1.798,0.521 4.71,1.149 8.713,1.868 4.008,0.723 8.058,1.085 12.143,1.097 10.028,0.027 17.338,-1.619 21.938,-4.942 4.594,-3.323 6.891,-8.414 6.917,-15.259 L 18.095,-15.143 0.04,-15.201 0.02,-9.037 Z"
             style="fill:#c7292b;fill-opacity:1;fill-rule:nonzero;stroke:none"
             id="path46"
             inkscape:connector-curvature="0" /></g><g
           id="g48"
           transform="translate(572.8857,76.105)"><path
             d="M 0,0 -1.507,-0.009 C -2.209,0.23 -3.2,0.411 -4.51,0.532 c -1.316,0.114 -2.778,0.172 -4.363,0.166 -1.905,-0.002 -3.898,-0.286 -5.997,-0.85 -2.095,-0.56 -4.117,-1.22 -6.085,-1.986 l 0.121,-39.026 -18.158,-0.05 -0.179,58.266 18.161,0.061 0.027,-8.353 c 0.826,0.757 1.966,1.719 3.44,2.886 1.464,1.164 2.809,2.09 4.011,2.787 1.313,0.799 2.844,1.486 4.584,2.064 1.744,0.583 3.397,0.871 4.95,0.873 0.582,0 1.248,-0.019 1.969,-0.044 0.734,-0.036 1.388,-0.083 1.986,-0.152 L 0,0 Z"
             style="fill:#c7292b;fill-opacity:1;fill-rule:nonzero;stroke:none"
             id="path50"
             inkscape:connector-curvature="0" /></g><g
           id="g52"
           transform="translate(433.6787,33.082)"><path
             d="m 0,0 c -11.583,-0.027 -20.8,3.445 -27.629,10.422 -6.835,6.988 -10.27,16.83 -10.306,29.52 -0.035,12.253 3.338,22.028 10.154,29.33 6.813,7.305 16.01,10.976 27.596,11.009 3.082,0.011 5.862,-0.167 8.304,-0.495 2.464,-0.342 4.813,-0.817 7.065,-1.433 1.773,-0.518 3.686,-1.219 5.777,-2.116 2.076,-0.888 3.747,-1.669 5.031,-2.319 l 0.057,-18.415 -1.976,-0.006 c -0.933,0.826 -2.104,1.816 -3.543,2.968 -1.419,1.158 -3.023,2.286 -4.822,3.385 -1.812,1.101 -3.791,2.04 -5.951,2.812 -2.174,0.774 -4.418,1.15 -6.79,1.143 -2.791,-0.006 -5.363,-0.453 -7.696,-1.344 -2.332,-0.89 -4.54,-2.421 -6.643,-4.612 -1.945,-1.976 -3.505,-4.642 -4.731,-8.003 -1.221,-3.359 -1.825,-7.326 -1.811,-11.888 0.018,-4.813 0.67,-8.849 1.963,-12.108 1.284,-3.266 2.972,-5.905 5.05,-7.905 2.026,-1.931 4.262,-3.32 6.735,-4.185 2.479,-0.854 4.952,-1.278 7.398,-1.266 2.564,0.006 4.992,0.434 7.315,1.287 2.314,0.852 4.269,1.801 5.857,2.852 1.731,1.072 3.248,2.17 4.549,3.277 1.318,1.113 2.457,2.098 3.417,2.969 l 1.772,0.004 0.056,-18.162 C 24.78,6.062 23.137,5.303 21.269,4.451 19.404,3.602 17.488,2.867 15.511,2.279 13.092,1.543 10.831,0.98 8.721,0.598 6.614,0.211 3.71,0.014 0,0"
             style="fill:#c7292b;fill-opacity:1;fill-rule:nonzero;stroke:none"
             id="path54"
             inkscape:connector-curvature="0" /></g></g></g></g></svg>