<svg xmlns="http://www.w3.org/2000/svg" xmlns:xlink="http://www.w3.org/1999/xlink" preserveAspectRatio="xMidYMid" width="4000" height="2000" viewBox="0 0 4000 2000">
  <defs>
    <style>
      .cls-1 {
        fill: #313236;
      }

      .cls-1, .cls-2, .cls-3, .cls-4, .cls-5 {
        fill-rule: evenodd;
      }

      .cls-2 {
        fill: #e7643c;
      }

      .cls-3 {
        fill: #ebe052;
      }

      .cls-4 {
        fill: #cbd13f;
      }

      .cls-5 {
        fill: #86d3cb;
      }
    </style>
  </defs>
  <g>
    <path d="M3755.000,1050.000 L3342.000,1050.000 C3342.990,1164.841 3420.234,1234.207 3527.155,1234.207 C3614.275,1234.207 3662.786,1188.667 3687.536,1154.017 L3739.016,1191.637 C3710.306,1240.147 3642.985,1303.507 3526.165,1303.507 C3369.744,1303.507 3261.833,1193.617 3261.833,1035.216 C3261.833,870.875 3374.694,762.964 3511.315,762.964 C3662.786,762.964 3755.846,871.865 3755.846,1026.306 C3755.846,1029.276 3755.990,1040.100 3755.000,1050.000 ZM3511.315,830.285 C3427.164,830.285 3351.940,894.979 3346.000,992.000 L3676.000,992.000 C3671.050,885.079 3596.455,830.285 3511.315,830.285 ZM3044.000,1114.000 L3044.000,842.000 L2984.000,842.000 L2984.000,776.000 L3044.000,776.000 L3044.000,668.000 L3122.000,668.000 L3122.000,776.000 L3235.000,776.000 L3235.000,842.000 L3122.000,842.000 L3122.000,1107.000 C3122.000,1203.031 3150.066,1226.287 3217.386,1226.287 C3227.286,1226.287 3239.000,1225.000 3239.000,1225.000 L3239.000,1295.000 C3239.000,1295.000 3218.376,1297.567 3191.646,1297.567 C3088.686,1297.567 3044.000,1229.831 3044.000,1114.000 ZM2887.414,725.999 C2861.542,725.999 2840.844,705.301 2840.844,678.566 C2840.844,652.694 2861.542,631.995 2887.414,631.995 C2914.150,631.995 2934.848,652.694 2934.848,678.566 C2934.848,705.301 2914.150,725.999 2887.414,725.999 ZM2701.000,987.000 C2701.000,891.755 2660.659,842.972 2584.447,842.972 C2512.194,842.972 2458.000,892.727 2458.000,987.000 L2458.000,1291.000 L2390.000,1291.000 L2390.000,972.000 C2390.000,891.333 2334.037,842.972 2261.784,842.972 C2193.490,842.972 2137.000,899.474 2137.000,985.000 L2137.000,1291.000 L2059.000,1291.000 L2059.000,786.000 L2136.000,786.000 C2136.000,832.651 2136.000,858.000 2136.000,858.000 C2155.795,814.265 2210.316,772.996 2281.579,772.996 C2358.781,772.996 2413.218,809.927 2436.972,865.325 C2467.655,805.068 2529.020,772.996 2602.263,772.996 C2717.076,772.996 2778.000,852.205 2778.000,963.000 L2778.000,1291.000 L2701.000,1291.000 L2701.000,987.000 ZM1920.000,988.000 C1920.000,892.755 1879.780,842.972 1803.568,842.972 C1731.315,842.972 1677.000,893.727 1677.000,988.000 L1677.000,1291.000 L1609.000,1291.000 L1609.000,972.000 C1609.000,891.333 1553.158,842.972 1480.905,842.972 C1412.611,842.972 1356.000,899.474 1356.000,985.000 L1356.000,1291.000 L1278.000,1291.000 L1278.000,786.000 L1355.000,786.000 C1355.000,832.651 1355.000,859.000 1355.000,859.000 C1374.795,815.265 1429.437,772.996 1500.700,772.996 C1577.902,772.996 1632.339,809.927 1656.093,865.325 C1686.776,805.068 1748.142,772.996 1821.384,772.996 C1936.197,772.996 1998.000,852.205 1998.000,963.000 L1998.000,1291.000 L1920.000,1291.000 L1920.000,988.000 ZM509.193,835.235 C401.282,835.235 325.052,921.365 325.052,1033.236 C325.052,1144.117 405.242,1232.227 511.173,1232.227 C592.353,1232.227 643.833,1184.707 664.623,1163.917 L700.888,1226.499 C680.098,1248.279 604.233,1303.507 508.203,1303.507 C354.752,1303.507 243.871,1185.697 243.871,1033.236 C243.871,880.775 357.722,762.964 507.213,762.964 C601.263,762.964 675.401,811.262 702.132,837.003 L661.654,900.575 C640.863,878.795 587.403,835.235 509.193,835.235 ZM2928.000,1291.000 L2850.000,1291.000 L2850.000,776.000 L2928.000,776.000 L2928.000,1291.000 Z" class="cls-1"/>
    <g>
      <path d="M964.000,848.655 C963.910,848.655 963.820,848.652 963.730,848.652 C862.377,848.652 780.215,930.819 780.215,1032.177 C780.215,1133.535 862.377,1215.702 963.730,1215.702 C963.820,1215.702 963.910,1215.699 964.000,1215.698 L964.000,1289.536 C963.028,1289.547 962.060,1289.573 961.086,1289.573 C818.549,1289.573 703.000,1174.019 703.000,1031.475 C703.000,888.931 818.549,773.376 961.086,773.376 C962.060,773.376 963.028,773.402 964.000,773.413 L964.000,848.655 Z" class="cls-1"/>
      <path d="M1089.054,898.128 C1056.313,867.501 1012.352,848.725 964.000,848.655 L964.000,773.413 C1032.662,774.174 1094.881,801.741 1140.692,846.152 L1089.054,898.128 Z" class="cls-2"/>
      <path d="M1219.088,1024.902 L1147.081,1024.668 C1145.067,974.648 1123.039,929.788 1088.782,897.874 L1140.469,845.933 C1187.528,891.445 1217.333,954.686 1219.088,1024.902 Z" class="cls-3"/>
      <path d="M1219.028,1023.254 C1219.113,1025.985 1219.172,1028.723 1219.172,1031.475 C1219.172,1100.553 1192.034,1163.293 1147.840,1209.615 L1096.910,1158.435 C1128.105,1125.537 1147.246,1081.094 1147.246,1032.177 C1147.246,1029.262 1147.170,1026.365 1147.036,1023.483 L1219.028,1023.254 Z" class="cls-4"/>
      <path d="M964.000,1289.536 L964.000,1215.698 C1016.529,1215.623 1063.878,1193.473 1097.285,1158.032 L1148.199,1209.232 C1101.800,1258.063 1036.486,1288.733 964.000,1289.536 Z" class="cls-5"/>
    </g>
  </g>
</svg>
