<?xml version="1.0" encoding="utf-8"?>
<!-- Generator: Adobe Illustrator 16.0.0, SVG Export Plug-In . SVG Version: 6.00 Build 0)  -->
<!DOCTYPE svg PUBLIC "-//W3C//DTD SVG 1.1//EN" "http://www.w3.org/Graphics/SVG/1.1/DTD/svg11.dtd">
<svg version="1.1" id="Layer_1" xmlns="http://www.w3.org/2000/svg" xmlns:xlink="http://www.w3.org/1999/xlink" x="0px" y="0px"
	 width="400px" height="129px" viewBox="0 0 400 129" enable-background="new 0 0 400 129" xml:space="preserve">
<path fill="#C4D600" d="M327.421,28.034c0,4.565-3.7,8.263-8.269,8.263c-4.562,0-8.263-3.698-8.263-8.263
	c0-4.563,3.7-8.264,8.263-8.264C323.721,19.77,327.421,23.471,327.421,28.034"/>
<path fill="#C4D600" d="M309.054,46.399c0,4.565-3.699,8.266-8.267,8.266c-4.564,0-8.265-3.701-8.265-8.266
	c0-4.565,3.7-8.264,8.265-8.264C305.354,38.136,309.054,41.834,309.054,46.399"/>
<path fill="#C4D600" d="M327.421,64.765c0,4.567-3.7,8.267-8.269,8.267c-4.562,0-8.263-3.7-8.263-8.267
	c0-4.563,3.7-8.264,8.263-8.264C323.721,56.501,327.421,60.202,327.421,64.765"/>
<path fill="#C4D600" d="M345.786,46.399c0,4.565-3.7,8.266-8.266,8.266c-4.563,0-8.264-3.701-8.264-8.266
	c0-4.565,3.7-8.264,8.264-8.264C342.086,38.136,345.786,41.834,345.786,46.399"/>
<path fill="#C4D600" d="M364.152,64.765c0,4.567-3.701,8.267-8.264,8.267c-4.567,0-8.268-3.7-8.268-8.267
	c0-4.563,3.7-8.264,8.268-8.264C360.451,56.501,364.152,60.202,364.152,64.765"/>
<path fill="#C4D600" d="M382.518,83.13c0,4.568-3.7,8.268-8.264,8.268c-4.567,0-8.266-3.699-8.266-8.268
	c0-4.563,3.698-8.263,8.266-8.263C378.817,74.867,382.518,78.566,382.518,83.13"/>
<path fill="#63A70A" d="M328.337,46.399c0,5.074-4.11,9.185-9.183,9.185s-9.183-4.111-9.183-9.185c0-5.071,4.11-9.183,9.183-9.183
	S328.337,41.328,328.337,46.399"/>
<path fill="#63A70A" d="M346.703,64.765c0,5.074-4.112,9.184-9.183,9.184s-9.184-4.11-9.184-9.184c0-5.071,4.113-9.183,9.184-9.183
	S346.703,59.694,346.703,64.765"/>
<path fill="#63A70A" d="M365.069,83.134c0,5.071-4.113,9.181-9.184,9.181s-9.183-4.109-9.183-9.181c0-5.075,4.112-9.185,9.183-9.185
	S365.069,78.059,365.069,83.134"/>
<path fill="#FFD923" d="M344.867,28.034c0,4.059-3.291,7.347-7.347,7.347c-4.058,0-7.346-3.288-7.346-7.347
	c0-4.056,3.288-7.347,7.346-7.347C341.576,20.687,344.867,23.978,344.867,28.034"/>
<path fill="#FFD923" d="M344.797,101.569c0,4.057-3.288,7.347-7.347,7.347c-4.056,0-7.346-3.29-7.346-7.347s3.29-7.346,7.346-7.346
	C341.509,94.224,344.797,97.513,344.797,101.569"/>
<path fill="#C4D600" d="M325.549,101.461c0,3.55-2.878,6.43-6.429,6.43c-3.55,0-6.427-2.88-6.427-6.43
	c0-3.549,2.877-6.424,6.427-6.424C322.671,95.037,325.549,97.912,325.549,101.461"/>
<path fill="#C4D600" d="M380.75,46.468c0,3.552-2.878,6.429-6.426,6.429c-3.552,0-6.43-2.877-6.43-6.429
	c0-3.55,2.878-6.426,6.43-6.426C377.872,40.042,380.75,42.918,380.75,46.468"/>
<path fill="#C4D600" d="M80.623,56.366h-7.918v16.909c0,3.354-0.215,5.207-0.999,7.277c-1.141,2.996-4.352,4.923-6.92,4.923
	c-3.71,0-4.922-2.995-4.922-6.776V56.366h-8.133v24.616c0,3.21,0.356,4.707,1.784,6.992c1.997,3.137,5.421,4.279,8.632,4.279
	c3.781,0,6.135-1.572,7.348-2.571c2.354-1.923,3.067-3.851,3.71-5.703v7.559h7.418V56.366z"/>
<path fill="#C4D600" d="M83.566,83.475c1.428,5.21,6.636,8.778,14.982,8.778c4.852,0,15.339-1.715,15.339-11.487
	c0-5.492-3.139-8.987-8.846-10.129l-7.562-1.571c-2.854-0.57-5.137-1.642-5.137-3.78c0-2.355,1.998-3.996,6.35-3.996
	c5.064,0,5.992,2.78,6.35,3.922l7.063-1.426c-2.212-7.277-9.489-8.134-13.626-8.134c-11.416,0-13.484,7.42-13.484,11.203
	c0,8.132,7.348,9.773,10.701,10.342l6.421,1.285c1.427,0.286,3.852,1.285,3.852,3.495c0,4.211-5.707,4.354-7.42,4.354
	c-5.564,0-6.777-2.64-7.491-4.28L83.566,83.475z"/>
<path fill="#C4D600" d="M136.646,85.331c-0.859,0.071-1.358,0.071-1.999,0.071c-4.068,0-5.781-0.856-5.781-5.706V62.573h7.065
	v-6.208h-7.065v-4.137h-7.706v4.137h-4.349v6.208h4.349v18.192c0,3.994,0.286,6.278,2.428,8.704
	c1.568,1.854,4.852,2.783,7.492,2.783c1.498,0,3.78-0.286,5.565-0.716V85.331z"/>
<path fill="#C4D600" d="M170.77,73.845c0,11.918-7.706,18.408-16.695,18.408c-11.772,0-16.051-10.416-16.051-18.479
	c0-9.56,5.849-18.123,16.551-18.123C165.205,55.652,170.77,64.285,170.77,73.845 M162.352,73.774c0-6.065-1.855-11.63-7.848-11.63
	c-6.422,0-8.062,6.278-8.062,11.772c0,1.785,0,11.846,7.918,11.846C161.709,85.763,162.352,77.414,162.352,73.774"/>
<path fill="#C4D600" d="M175.001,91.537h8.347v-17.12c0-8.775,4.138-11.701,8.064-11.701c4.921,0,5.706,4.208,5.706,6.921v21.899
	h8.348V73.132c0-7.704,3.853-10.272,7.775-10.272c5.21,0,5.994,3.564,5.994,7.989v20.688h8.345V68.709
	c0-7.632-3.565-13.054-11.271-13.054c-6.206,0-9.703,4.42-11.7,8.202c-0.713-2.211-2.497-8.202-10.129-8.202
	c-7.562,0-10.129,5.206-11.699,8.202v-7.489h-7.778V91.537z"/>
<path fill="#C4D600" d="M41.107,78.624c-0.999,3.994-3.139,6.707-6.92,6.707c-7.205,0-7.205-9.629-7.205-11.058
	c0-1.64,0.214-4.279,0.999-6.633c0.642-1.927,2.14-5.496,6.635-5.496c3.353,0,5.85,1.927,6.492,6.564l6.849-0.926
	c-0.5-2.784-2.212-12.128-13.698-12.128c-10.345,0-15.695,8.63-15.695,18.262c0,7.991,3.78,18.336,14.982,18.336
	c11.415,0,13.697-9.707,14.411-12.912L41.107,78.624z"/>
<rect x="234.167" y="56.366" fill="#63A70A" width="7.919" height="35.171"/>
<path fill="#63A70A" d="M277.711,68.565v15.838c0,3.355,0.712,5.922,1.07,7.134h-7.563c-0.928-2.853-1.07-4.276-1.283-7.134
	c-1.072,2.497-3.495,7.85-11.913,7.85c-7.563,0-11.632-5.065-11.632-10.845c0-11.844,15.982-12.2,23.545-12.058v-2.64
	c0-4.494-3.925-5.421-7.491-5.421c-6.992,0-7.849,3.853-8.204,5.421l-6.776-0.997c1.354-7.92,8.773-10.059,15.907-10.059
	c3.854,0,8.275,0.498,10.702,2.567C277.711,61.358,277.711,64.145,277.711,68.565 M269.935,76.84v-3.209
	c-4.994,0-8.062,0.713-9.632,1.143c-1.569,0.5-5.779,1.711-5.779,6.208c0,1.281,0.571,5.277,6.205,5.277
	C268.506,86.259,269.935,79.623,269.935,76.84"/>
</svg>
