<?xml version="1.0" encoding="UTF-8" standalone="no"?>
<!-- Created with Inkscape (http://www.inkscape.org/) -->

<svg
   xmlns:dc="http://purl.org/dc/elements/1.1/"
   xmlns:cc="http://creativecommons.org/ns#"
   xmlns:rdf="http://www.w3.org/1999/02/22-rdf-syntax-ns#"
   xmlns:svg="http://www.w3.org/2000/svg"
   xmlns="http://www.w3.org/2000/svg"
   xmlns:sodipodi="http://sodipodi.sourceforge.net/DTD/sodipodi-0.dtd"
   xmlns:inkscape="http://www.inkscape.org/namespaces/inkscape"
   width="223"
   height="150"
   id="svg3069"
   version="1.1"
   inkscape:version="0.48.3.1 r9886"
   sodipodi:docname="el-gas-logo_iOs4r1a.svg">
  <defs
     id="defs3071" />
  <sodipodi:namedview
     id="base"
     pagecolor="#ffffff"
     bordercolor="#666666"
     borderopacity="1.0"
     inkscape:pageopacity="0.0"
     inkscape:pageshadow="2"
     inkscape:zoom="0.49497475"
     inkscape:cx="-307.03437"
     inkscape:cy="199.16048"
     inkscape:document-units="px"
     inkscape:current-layer="layer1"
     showgrid="false"
     inkscape:window-width="1280"
     inkscape:window-height="739"
     inkscape:window-x="0"
     inkscape:window-y="0"
     inkscape:window-maximized="1"
     fit-margin-top="0"
     fit-margin-left="0"
     fit-margin-right="0"
     fit-margin-bottom="0" />
  <metadata
     id="metadata3074">
    <rdf:RDF>
      <cc:Work
         rdf:about="">
        <dc:format>image/svg+xml</dc:format>
        <dc:type
           rdf:resource="http://purl.org/dc/dcmitype/StillImage" />
        <dc:title />
      </cc:Work>
    </rdf:RDF>
  </metadata>
  <g
     inkscape:label="Layer 1"
     inkscape:groupmode="layer"
     id="layer1"
     transform="translate(-65.860524,-712.50556)">
    <path
       inkscape:connector-curvature="0"
       id="path3225"
       d="m 198.38154,841.21945 c -0.27498,-0.056 -0.76243,-0.23654 -1.08323,-0.40128 -0.99485,-0.51084 -1.5428,-1.23507 -1.67175,-2.20954 l -0.0579,-0.43745 1.25134,0 1.25133,0 0.0561,0.29898 c 0.0774,0.41265 0.6691,0.99356 1.14243,1.12162 0.19885,0.0538 0.61185,0.0801 0.91778,0.0584 1.15466,-0.0817 1.71222,-0.74022 2.39712,-2.83109 0.27587,-0.84217 0.14494,-0.9337 -0.52365,-0.36608 -0.72218,0.61312 -1.12079,0.75431 -2.13808,0.75732 -0.73827,0.002 -0.95888,-0.0299 -1.41255,-0.20573 -0.98149,-0.38029 -1.81413,-1.39287 -2.0977,-2.55102 -0.14131,-0.57716 -0.11913,-2.28354 0.0392,-3.01739 0.4231,-1.9607 1.66151,-3.62464 3.13773,-4.21589 0.24693,-0.0989 0.68942,-0.16457 1.29588,-0.19228 1.31863,-0.0603 1.82067,0.0944 2.49541,0.76916 0.27497,0.27498 0.54547,0.57494 0.6011,0.6666 0.10014,0.16499 0.10278,0.16477 0.26352,-0.0211 0.0893,-0.10325 0.18714,-0.34698 0.2174,-0.54161 0.10841,-0.69708 0.003,-0.64554 1.32662,-0.64554 l 1.1892,0 -1.0586,5.27031 c -1.09049,5.42905 -1.25382,6.05575 -1.78463,6.84784 -0.94911,1.41627 -2.20485,1.97127 -4.42091,1.95396 -0.45829,-0.004 -1.05823,-0.0523 -1.3332,-0.10827 z m 3.20312,-6.01258 c 1.13753,-0.33782 2.12196,-2.13838 2.11494,-3.86834 -0.003,-0.81113 -0.12192,-1.21388 -0.5008,-1.7002 -0.55581,-0.7134 -1.28224,-0.92088 -2.21526,-0.63269 -0.98975,0.30569 -1.68699,1.23359 -2.07251,2.75812 -0.25591,1.01198 -0.20059,1.79397 0.17977,2.54132 0.24773,0.48676 0.35615,0.60954 0.70819,0.80196 0.49268,0.26927 1.10064,0.30326 1.78567,0.0998 z m -42.99081,5.73194 c 0,-0.0818 0.27898,-1.53478 0.61995,-3.22884 1.94168,-9.64684 2.00109,-9.93829 2.10147,-10.30855 0.0353,-0.13008 0.16588,-0.14582 1.20994,-0.14582 l 1.17039,0 -0.0543,0.36212 c -0.0398,0.26524 -0.0223,0.38867 0.0653,0.46136 0.0965,0.0801 0.19254,0.036 0.4985,-0.22875 0.20841,-0.18038 0.59662,-0.43454 0.86268,-0.56478 0.42024,-0.20572 0.60092,-0.24085 1.37624,-0.26748 1.30671,-0.0449 1.88398,0.14421 2.60833,0.85444 0.58196,0.57062 0.89164,1.12643 1.04909,1.88285 0.14831,0.71251 0.0488,2.80403 -0.17247,3.62463 -0.53733,1.99286 -1.78729,3.5603 -3.2305,4.05103 -0.4664,0.1586 -0.74339,0.19226 -1.60523,0.19509 -0.99808,0.003 -1.06469,-0.008 -1.59566,-0.25835 -0.4244,-0.20052 -0.62849,-0.36143 -0.87187,-0.68743 -0.31379,-0.42031 -0.5005,-0.52445 -0.57628,-0.32147 -0.0214,0.0573 -0.20485,0.87283 -0.40771,1.81232 -0.20286,0.93948 -0.43092,1.98 -0.5068,2.31226 l -0.13796,0.6041 -1.20153,0 c -1.09776,0 -1.20154,-0.0129 -1.20154,-0.14873 z m 6.94663,-5.31818 c 0.96234,-0.32791 1.84187,-1.73022 2.11011,-3.36436 0.11752,-0.71594 0.12399,-0.94491 0.0405,-1.432 -0.11793,-0.68774 -0.24358,-0.95207 -0.66125,-1.3911 -0.75864,-0.7974 -2.16011,-0.70856 -3.06284,0.19416 -0.42098,0.42099 -0.85731,1.23998 -1.13554,2.13142 -0.1531,0.49052 -0.19418,0.8143 -0.19512,1.53791 -9.4e-4,0.84697 0.0171,0.9527 0.23992,1.39241 0.13261,0.26172 0.32176,0.5516 0.42033,0.64419 0.42982,0.4038 1.49999,0.54086 2.24393,0.28737 z m -32.81904,2.04592 c -2.45944,-0.32897 -4.0279,-1.70378 -4.63015,-4.05854 -0.46737,-1.82741 -0.20478,-4.54128 0.60659,-6.26909 1.09995,-2.34232 2.75577,-3.76141 4.9253,-4.22112 0.77691,-0.16463 2.94632,-0.11235 3.68114,0.0887 1.22434,0.33499 2.59195,1.32706 3.03536,2.20189 0.23666,0.4669 0.50595,1.5237 0.50595,1.98555 l 0,0.36163 -1.37486,0 c -1.36986,0 -1.37487,-0.002 -1.37613,-0.18748 -0.002,-0.24489 -0.17283,-0.78319 -0.35885,-1.12848 -0.18442,-0.34231 -0.91261,-0.81632 -1.44519,-0.94074 -0.5162,-0.1206 -1.62113,-0.12094 -2.13574,-0.002 -0.69187,0.16169 -1.54422,0.74264 -2.03417,1.3865 -2.17325,2.85588 -1.93825,7.28125 0.43488,8.18939 0.94678,0.36231 2.23897,0.29482 3.19711,-0.167 0.56599,-0.2728 1.17041,-0.92864 1.52252,-1.65204 0.40736,-0.83692 0.43666,-0.95542 0.27597,-1.11611 -0.11195,-0.11196 -0.35703,-0.13377 -1.50268,-0.13377 -1.60302,0 -1.47164,0.14021 -1.19064,-1.2707 l 0.1784,-0.89576 2.7797,0 c 1.52884,0 2.77971,0.0145 2.77971,0.0321 0,0.0176 -0.24459,1.22688 -0.54352,2.68722 -0.29893,1.46034 -0.64081,3.15199 -0.75973,3.75923 l -0.21623,1.10405 -0.82344,0 -0.82344,0 0,-0.49314 c 0,-0.91487 -0.13215,-0.96091 -0.85008,-0.29624 -1.02952,0.95316 -2.17344,1.25996 -3.85778,1.03467 z m 17.63478,-0.14029 c -0.57294,-0.16867 -1.18327,-0.7549 -1.37657,-1.32221 -0.26688,-0.78324 -0.19245,-1.45956 0.58821,-5.34464 l 0.72414,-3.60381 1.24359,0 1.24358,0 -0.0447,0.18748 c -0.0246,0.10312 -0.27307,1.34987 -0.55214,2.77056 -0.27906,1.42069 -0.54527,2.72219 -0.59157,2.89223 -0.0463,0.17004 -0.10703,0.60546 -0.13496,0.96763 -0.0601,0.77885 0.0452,1.02703 0.58756,1.38499 0.3136,0.207 0.39695,0.22341 0.9775,0.19238 0.49684,-0.0266 0.717,-0.0822 1.01374,-0.25607 0.66801,-0.39148 1.29174,-1.29647 1.56091,-2.26479 0.0637,-0.22914 0.36131,-1.63525 0.66136,-3.12468 l 0.54555,-2.70807 1.22904,-0.0231 c 0.81593,-0.0153 1.22904,0.006 1.22904,0.0642 0,0.048 -0.26387,1.38953 -0.58638,2.9811 -0.32251,1.59158 -0.69576,3.47498 -0.82943,4.18532 -0.21957,1.16686 -0.43041,2.22298 -0.54478,2.72889 -0.0415,0.18347 -0.0673,0.18749 -1.20734,0.18749 -0.64073,0 -1.16496,-0.0313 -1.16496,-0.0694 0,-0.0382 0.0431,-0.28386 0.0957,-0.54592 0.13857,-0.69003 0.031,-0.73208 -0.56272,-0.22 -0.53578,0.46211 -1.28395,0.8607 -1.86839,0.99537 -0.54446,0.12545 -1.72124,0.0965 -2.23592,-0.055 z m 28.56893,-0.0125 c -0.93858,-0.25541 -1.45611,-0.59791 -2.01514,-1.33365 -0.54883,-0.72229 -0.74912,-1.36985 -0.79741,-2.57808 -0.0897,-2.24357 0.47591,-3.83431 1.85538,-5.21832 1.03757,-1.04099 1.88427,-1.37812 3.4611,-1.37812 1.5761,0 2.54654,0.37187 3.42713,1.3133 0.71496,0.76434 0.98173,1.59736 0.98368,3.07167 6.3e-4,0.50984 -0.0222,1.04417 -0.0508,1.18739 l -0.0521,0.26039 -3.56236,0 c -3.09,0 -3.57633,0.0168 -3.66776,0.127 -0.16137,0.19443 -0.0529,1.29081 0.17409,1.75972 0.30748,0.63516 1.07231,1.02826 2.00243,1.02919 0.81489,0.002 1.2197,-0.21974 1.84513,-1.00524 l 0.3271,-0.41082 1.20674,0 1.20674,0 -0.0551,0.18748 c -0.26496,0.90149 -1.4836,2.31004 -2.33636,2.70046 -0.98615,0.45146 -2.85157,0.58723 -3.95247,0.28763 z m 4.50066,-6.30161 c 0.15395,-0.18549 0.0394,-0.9658 -0.21566,-1.46915 -0.18013,-0.35547 -0.28276,-0.4506 -0.68606,-0.63595 -1.26956,-0.58345 -2.77502,0.0189 -3.46874,1.38789 -0.23388,0.46157 -0.27022,0.72345 -0.10937,0.78836 0.0573,0.0231 1.0651,0.045 2.23958,0.0486 1.8121,0.006 2.15129,-0.0126 2.24025,-0.11976 z m 25.58922,6.32739 c -0.57556,-0.1548 -1.17425,-0.59594 -1.50205,-1.10678 -0.67595,-1.05336 -0.44659,-2.66477 0.50641,-3.55794 0.9437,-0.88446 1.34434,-1.02896 3.66021,-1.32014 2.23497,-0.281 2.52719,-0.38172 2.83012,-0.97553 0.21131,-0.41418 0.20282,-0.78897 -0.027,-1.19143 -0.25776,-0.45143 -0.6836,-0.65249 -1.47953,-0.69857 -1.11092,-0.0643 -1.87151,0.34939 -2.17245,1.1816 l -0.10891,0.30118 -1.15359,0 -1.15358,0 0.0541,-0.31247 c 0.14084,-0.81317 0.84036,-1.8032 1.5754,-2.22972 0.18489,-0.10728 0.59864,-0.28223 0.91944,-0.38878 0.52379,-0.17396 0.73623,-0.19371 2.08312,-0.19371 1.33124,0 1.56818,0.0215 2.1076,0.19098 0.66275,0.20827 1.13106,0.56284 1.50803,1.14175 0.20549,0.3156 0.21712,0.39048 0.21358,1.37533 -0.003,0.88368 -0.0515,1.2626 -0.31901,2.49976 -0.64851,2.99958 -0.80214,3.86407 -0.80214,4.51383 l 0,0.6523 -1.20364,0 -1.20365,0 -0.0254,-0.39503 c -0.0333,-0.51725 -0.22241,-0.5642 -0.63874,-0.15852 -0.71854,0.70011 -2.41084,1.01007 -3.66834,0.67189 z m 3.36405,-1.78655 c 0.63224,-0.31431 1.05258,-0.89423 1.36623,-1.88491 0.27642,-0.87306 0.32594,-1.2803 0.1555,-1.27882 -0.0573,0.002 -0.28343,0.0553 -0.50254,0.12178 -0.21911,0.0665 -0.83352,0.15867 -1.36536,0.20486 -1.61345,0.14013 -2.25123,0.55387 -2.40548,1.56045 -0.0622,0.40581 0.11832,0.93042 0.38987,1.13317 0.5966,0.44543 1.62827,0.50809 2.36178,0.14347 z m 7.98586,1.79375 c -1.7714,-0.4061 -2.69367,-1.38891 -2.69367,-2.8705 l 0,-0.42138 1.12489,0 1.12489,0 0,0.22366 c 0,0.31918 0.30871,0.91404 0.57143,1.10111 0.87576,0.62359 2.68195,0.50557 3.14799,-0.20568 0.31299,-0.47769 0.22162,-1.26166 -0.19041,-1.63388 -0.0849,-0.0767 -0.90093,-0.40262 -1.8134,-0.72427 -2.52049,-0.88848 -2.88766,-1.21752 -2.95077,-2.64435 -0.0472,-1.06669 0.10271,-1.54094 0.67139,-2.12448 0.84577,-0.8679 1.92065,-1.24138 3.57269,-1.24138 1.40184,0 2.31844,0.24158 3.05858,0.80611 0.35975,0.27439 0.74165,1.07795 0.81597,1.71689 l 0.056,0.48155 -1.14229,-0.0233 -1.14229,-0.0232 -0.18184,-0.45831 c -0.24187,-0.60962 -0.64924,-0.83324 -1.51784,-0.83324 -1.10666,0 -1.70425,0.37381 -1.70504,1.06653 -9.5e-4,0.66193 0.26874,0.85309 2.07033,1.46852 1.25458,0.42857 1.72432,0.66157 2.26438,1.1232 0.5798,0.4956 0.78027,0.97626 0.7853,1.88286 0.002,0.41246 -0.045,0.91867 -0.10508,1.12488 -0.26046,0.894 -1.1292,1.64011 -2.3905,2.05304 -0.55655,0.18222 -0.85232,0.22281 -1.79149,0.24589 -0.76396,0.0188 -1.28991,-0.0101 -1.63923,-0.0902 z m -79.26934,-0.18863 c 0,-0.0372 0.24075,-1.26615 0.53499,-2.73112 0.29424,-1.46496 0.70962,-3.56348 0.92306,-4.66337 0.21345,-1.09989 0.42711,-2.15915 0.47481,-2.35392 l 0.0867,-0.35414 1.16638,0 1.16638,0 -0.052,0.18749 c -0.0286,0.10311 -0.0758,0.40307 -0.10492,0.66659 -0.0469,0.42512 -0.036,0.47912 0.0968,0.47912 0.0823,0 0.34659,-0.21756 0.58721,-0.48345 0.29104,-0.32161 0.62594,-0.5791 1.00036,-0.76915 0.51178,-0.25977 0.64102,-0.28858 1.42446,-0.31759 0.7964,-0.0295 0.86161,-0.0201 0.86167,0.12338 3e-5,0.0854 -0.0982,0.64784 -0.21828,1.24984 l -0.21833,1.09459 -0.84412,-0.0411 c -0.73415,-0.0357 -0.90926,-0.0167 -1.34407,0.1461 -0.68511,0.25653 -1.21312,0.80676 -1.63205,1.70074 -0.37148,0.7927 -0.48391,1.24772 -1.2262,4.96252 l -0.22478,1.12488 -1.22904,0.0231 c -0.67597,0.0126 -1.22905,-0.007 -1.22905,-0.0445 z m 45.16215,0.003 c 0,-0.0357 0.24488,-1.26467 0.54417,-2.73112 0.29929,-1.46646 0.74678,-3.67868 0.99442,-4.91606 0.56576,-2.82686 1.19698,-5.9409 1.2541,-6.18688 0.0427,-0.18379 0.0673,-0.18748 1.25016,-0.18748 1.09454,0 1.2064,0.0136 1.20419,0.14582 -0.003,0.16306 -0.23958,1.36255 -1.28756,6.52018 -0.39575,1.94773 -0.77989,3.84129 -0.85363,4.20792 -0.0737,0.36662 -0.24975,1.22904 -0.39112,1.91647 l -0.25706,1.24988 -1.22883,0.0231 c -0.67586,0.0126 -1.22884,-0.006 -1.22884,-0.0418 z m -17.74822,-24.23572 c -3.79209,-0.25333 -6.10337,-0.59825 -8.59323,-1.28238 -1.58551,-0.43566 -3.44897,-1.07962 -4.42877,-1.53043 -0.26487,-0.12189 -0.52838,-0.2216 -0.58557,-0.2216 -0.0572,0 -0.17794,-0.0497 -0.26834,-0.11047 -0.0904,-0.0608 -0.38933,-0.19977 -0.6643,-0.30889 -0.47117,-0.18701 -3.34018,-1.59822 -3.79129,-1.8649 -0.11457,-0.0677 -0.73326,-0.42688 -1.37486,-0.79811 -2.1485,-1.24316 -3.23119,-1.98556 -3.52048,-2.41402 -0.10312,-0.15272 -0.18748,-0.30962 -0.18748,-0.34868 0,-0.039 1.63356,-0.071 3.63014,-0.071 l 3.63014,0 -0.0182,2.12962 c -0.0172,2.01317 -0.009,2.14186 0.14812,2.35392 0.0915,0.12338 0.29402,0.26907 0.45013,0.32378 0.21257,0.0745 2.46601,0.10063 8.97584,0.10416 l 8.692,0.005 -0.0189,0.94435 c -0.0104,0.51939 0.0106,0.992 0.0466,1.05024 0.036,0.0582 0.22017,0.17614 0.40929,0.26203 0.3242,0.14722 0.65092,0.15655 5.71831,0.16325 3.68895,0.005 5.30913,0.0333 5.16615,0.0908 -0.66953,0.26906 -3.73643,0.91408 -5.45779,1.14788 -2.10274,0.28558 -6.32359,0.48488 -7.95754,0.37571 z m 15.6651,-3.11805 c -1.35195,-0.0792 -4.36102,-0.25093 -6.68683,-0.38155 -2.32581,-0.13059 -4.22875,-0.2627 -4.22875,-0.29356 0,-0.0906 2.67918,-3.65675 3.11847,-4.15087 0.67841,-0.76308 0.78143,-1.26615 0.32107,-1.56784 -0.21019,-0.13773 -0.87611,-0.14946 -10.71242,-0.18854 l -10.4883,-0.0417 1.26858,-1.49984 c 0.69772,-0.82492 1.37557,-1.66656 1.50633,-1.8703 0.3918,-0.61048 0.29681,-1.10054 -0.24235,-1.25029 -0.20651,-0.0573 -3.381,-0.0866 -9.41888,-0.087 -7.71348,0 -9.14249,-0.0186 -9.33672,-0.11906 -0.38529,-0.19924 -0.8991,-0.82107 -0.96392,-1.16657 -0.0765,-0.40756 0.11211,-0.69869 1.1656,-1.79961 0.43222,-0.45165 0.78585,-0.86222 0.78585,-0.91235 0,-0.26994 -0.25579,-0.66735 -0.46298,-0.71937 -0.12319,-0.0309 -1.1151,-0.0293 -2.20424,0.003 l -1.98025,0.0597 -0.0324,-0.33976 c -0.0314,-0.32922 -0.0246,-0.33987 0.21978,-0.34291 0.1387,-0.002 1.41456,-0.0919 2.83525,-0.20047 1.42069,-0.10852 2.59163,-0.18918 2.60207,-0.17922 0.0105,0.01 0.0622,0.31576 0.11507,0.67958 0.0528,0.36382 0.13325,0.70836 0.17869,0.76565 0.0646,0.0814 1.26067,0.10416 5.47483,0.10416 2.96573,0 7.25446,0.0249 9.53051,0.0553 l 4.13829,0.0553 0,2.43957 c 0,1.86042 0.0247,2.45545 0.10415,2.50646 0.0573,0.0368 4.16313,0.0534 9.12409,0.037 l 9.01993,-0.0299 0,1.04522 c 0,0.83907 0.0258,1.07102 0.13094,1.17614 0.11724,0.11723 0.9779,0.1309 8.22834,0.13063 7.92535,0 8.10317,-0.004 8.36821,-0.16542 0.32644,-0.19903 0.35806,-0.50313 0.10409,-1.00096 -0.13095,-0.25668 -0.23372,-0.34306 -0.47912,-0.40274 -0.17181,-0.0418 -3.25585,-0.1756 -6.85341,-0.29737 -3.59755,-0.12179 -6.70084,-0.24139 -6.89618,-0.26579 -0.42942,-0.0537 -0.46605,0.0148 0.68437,-1.27912 1.46615,-1.64905 2.71517,-3.20232 2.93296,-3.6474 l 0.21275,-0.43476 -0.17307,-0.28002 c -0.33967,-0.54962 0.38152,-0.51284 -10.95823,-0.55862 l -10.32279,-0.0417 1.39685,-1.66649 c 1.76337,-2.10378 1.95198,-2.49028 1.39372,-2.8561 -0.20363,-0.13343 -0.96604,-0.14656 -10.77393,-0.18527 l -10.55479,-0.0417 0.8854,-1.05191 c 0.48697,-0.57854 1.20722,-1.42222 1.60054,-1.87481 0.39333,-0.45259 0.7398,-0.89062 0.76993,-0.97337 0.0735,-0.20189 -0.13837,-0.68906 -0.34864,-0.80158 -0.12127,-0.0649 -1.33323,-0.0672 -4.27746,-0.008 -2.25953,0.0454 -4.32214,0.0831 -4.58358,0.0838 l -0.47534,0.002 -0.0554,-0.29553 c -0.0305,-0.16254 -0.0399,-0.31104 -0.0209,-0.32999 0.049,-0.0491 10.74084,-0.4791 10.7861,-0.43383 0.0206,0.0206 0.0865,0.34589 0.14651,0.72288 0.0627,0.39428 0.15886,0.71699 0.22627,0.75968 0.0667,0.0422 4.20015,0.0747 9.59541,0.0755 l 9.47822,0.002 0,2.44143 c 0,1.78779 0.0268,2.4682 0.1,2.5414 0.0765,0.0765 2.19793,0.1 9.04076,0.1 l 8.94077,0 0,1.0249 c 0,0.68603 0.0331,1.05795 0.1,1.12489 0.12716,0.12715 16.26591,0.14623 16.59892,0.0196 0.27725,-0.10542 0.35804,-0.44113 0.20816,-0.86498 -0.22994,-0.65021 0.18651,-0.59835 -6.74142,-0.83955 -6.71807,-0.23387 -7.91691,-0.29003 -7.91393,-0.37068 9.5e-4,-0.0289 0.32287,-0.40874 0.71509,-0.84412 1.02202,-1.13445 2.70729,-3.14362 3.00535,-3.58296 0.48275,-0.71159 0.43903,-0.97902 -0.20903,-1.27855 l -0.38867,-0.17964 -10.01983,-0.0228 c -5.5109,-0.0126 -10.01982,-0.0458 -10.01982,-0.074 0,-0.0282 0.32809,-0.53625 0.72909,-1.12906 0.401,-0.59281 0.88446,-1.3208 1.07435,-1.61777 0.18989,-0.29698 0.40406,-0.60494 0.47594,-0.68436 0.21141,-0.23362 0.40305,-0.77135 0.35009,-0.98234 -0.027,-0.10748 -0.14991,-0.26153 -0.27318,-0.34232 -0.21018,-0.13772 -0.87273,-0.14945 -10.63636,-0.18852 l -10.41223,-0.0417 0.41337,-0.49995 c 1.09901,-1.32922 2.51745,-3.11125 2.6016,-3.26853 0.13324,-0.24893 0.0248,-0.67734 -0.21051,-0.83151 -0.16969,-0.11118 -0.39612,-0.12261 -1.50914,-0.0762 -0.72022,0.03 -3.09056,0.12795 -5.26743,0.21762 -2.17686,0.0897 -4.22978,0.17711 -4.56204,0.19434 l -0.60411,0.0313 0,-0.31919 c 0,-0.26435 0.0322,-0.32566 0.18749,-0.35675 0.36095,-0.0723 12.975,-0.74619 13.02531,-0.69588 0.028,0.028 0.0909,0.33682 0.14,0.68638 0.0668,0.47577 0.12835,0.65651 0.24497,0.71893 0.0996,0.0533 3.56334,0.10171 9.61071,0.13428 l 9.45493,0.0509 0,2.43438 c 0,2.09662 0.0179,2.44922 0.12909,2.54151 0.10438,0.0866 1.85857,0.0961 9.16574,0.0495 l 9.03666,-0.0576 0,1.19388 c 0,0.81749 0.0315,1.22542 0.1,1.29388 0.0764,0.0764 2.00304,0.1 8.16377,0.1 l 8.06377,0 -0.0531,0.2708 c -0.0721,0.36753 -0.86356,2.58263 -1.10901,3.10385 -0.0432,0.0917 -0.2443,0.57912 -0.44697,1.08322 -0.47769,1.18817 -2.42445,5.1276 -2.8444,5.75591 -0.0895,0.13392 -0.23376,0.37474 -0.32053,0.53513 -0.0868,0.16041 -0.28456,0.46539 -0.43951,0.67777 -0.15496,0.21238 -0.28174,0.41336 -0.28174,0.44664 0,0.0333 -0.18748,0.31828 -0.41662,0.63334 -0.22915,0.31503 -0.41663,0.59208 -0.41663,0.61562 0,0.0809 -0.79243,1.08592 -1.67647,2.12618 -0.98043,1.15371 -2.22789,2.38633 -3.61647,3.57347 -0.50312,0.43014 -1.02879,0.88009 -1.16815,0.99989 -0.56672,0.48722 -3.13654,2.4316 -4.03786,3.05515 -1.69126,1.17001 -2.40862,1.65315 -2.91637,1.96413 -0.29789,0.18244 -0.80409,0.49704 -1.12489,0.69909 -0.3208,0.20206 -0.827,0.5064 -1.12489,0.67632 -0.29789,0.16993 -0.81282,0.47137 -1.1443,0.66986 -0.33148,0.1985 -0.63348,0.36089 -0.67111,0.36089 -0.0376,0 -0.24581,0.11249 -0.46261,0.24998 -0.45568,0.28899 -0.15857,0.28204 -3.55473,0.083 z m 20.37382,-29.5135 c -3.66582,-0.18076 -6.67816,-0.34171 -6.6941,-0.35764 -0.0159,-0.0159 0.20865,-0.35074 0.49908,-0.74401 0.29043,-0.39328 0.71554,-0.97701 0.94468,-1.2972 0.22914,-0.32018 0.61741,-0.85444 0.86281,-1.18722 0.50708,-0.68763 1.22886,-1.71431 1.45788,-2.07374 0.33434,-0.52472 1.08952,-0.48947 -10.48392,-0.48947 -5.79878,0 -10.54323,-0.0283 -10.54323,-0.0628 0,-0.0578 0.23244,-0.39029 1.37612,-1.96864 0.22845,-0.31529 0.66788,-0.89648 0.97651,-1.29153 0.30863,-0.39507 0.56173,-0.79996 0.56244,-0.89975 6.4e-4,-0.0998 -0.0975,-0.25914 -0.21824,-0.35413 -0.21953,-0.17267 -0.22087,-0.17268 -10.91558,-0.17268 -5.88281,0 -10.69602,-0.0318 -10.69602,-0.0706 0,-0.0388 0.2349,-0.34819 0.52201,-0.68744 0.81054,-0.95776 2.42179,-2.92087 2.63639,-3.21211 0.17477,-0.23718 0.18358,-0.29138 0.0923,-0.56801 -0.0585,-0.17719 -0.18354,-0.34346 -0.29734,-0.39531 -0.14337,-0.0653 -1.76042,-0.0254 -5.98785,0.14769 -3.1853,0.13045 -5.80627,0.2201 -5.82439,0.19921 -0.0181,-0.0209 -0.0558,-0.15836 -0.0838,-0.30551 -0.0477,-0.25059 -0.0339,-0.27027 0.21717,-0.31062 0.31543,-0.0507 12.08679,-0.71492 12.65339,-0.714 0.42928,6.3e-4 0.39624,-0.0571 0.53491,0.93535 0.0302,0.21621 0.0997,0.43028 0.15445,0.47571 0.0636,0.0527 3.53799,0.10377 9.61498,0.14119 l 9.51545,0.0586 0,2.43436 c 0,2.07612 0.0186,2.44983 0.12661,2.53945 0.10118,0.084 1.94207,0.0927 9.16575,0.0432 l 9.03914,-0.0619 0,1.20023 c 0,0.82243 0.0315,1.23171 0.1,1.30023 0.0755,0.0755 1.29314,0.1 4.96925,0.1 l 4.86926,0 -0.0537,0.77076 c -0.0295,0.42392 -0.0902,1.46444 -0.13478,2.31228 -0.0762,1.44888 -0.10704,1.64289 -0.51261,3.22883 l -0.4315,1.68733 -0.67418,-0.0107 c -0.37081,-0.006 -3.6735,-0.15859 -7.33933,-0.33936 z m 1.29228,-9.62809 c 9.5e-4,-0.0344 0.198,-0.32496 0.43803,-0.64577 0.24004,-0.3208 0.57771,-0.7895 0.75039,-1.04156 0.17268,-0.25207 0.47999,-0.68327 0.68291,-0.95824 0.20292,-0.27497 0.6539,-0.91241 1.00219,-1.41652 0.34827,-0.50412 0.81629,-1.16031 1.04003,-1.45819 0.44568,-0.59337 0.53565,-0.80046 0.38909,-0.89566 -0.053,-0.0344 -4.92398,-0.0485 -10.82443,-0.0314 -6.09562,0.0177 -10.72699,-3.2e-4 -10.72553,-0.0417 0.001,-0.0401 0.60464,-0.82279 1.34052,-1.73937 1.9427,-2.41971 2.01348,-2.51949 1.95434,-2.75514 -0.1188,-0.47333 0.48888,-0.44525 -11.12945,-0.51429 l -10.69762,-0.0636 0.70318,-0.84368 c 1.72239,-2.06653 2.46083,-2.98035 2.56399,-3.17293 0.0895,-0.1671 0.0911,-0.25524 0.008,-0.45567 -0.21169,-0.51106 0.0218,-0.49897 -5.37002,-0.27808 -2.70306,0.11075 -5.33649,0.22555 -5.85206,0.25513 l -0.93741,0.0538 0,-0.33173 0,-0.33174 0.60411,-0.0522 c 1.06005,-0.0916 12.5794,-0.72694 12.61076,-0.69557 0.0166,0.0166 0.0734,0.3278 0.12621,0.69162 0.0528,0.36382 0.13325,0.70836 0.17869,0.76565 0.0652,0.0822 2.08833,0.10415 9.61312,0.10415 l 9.53051,0 0,2.41048 c 0,2.08024 0.0179,2.42841 0.13094,2.54141 0.11732,0.11733 1.01793,0.13094 8.66579,0.13094 l 8.53486,0 0,1.27487 c 0,0.88047 0.0309,1.30581 0.1,1.37486 0.0642,0.0642 0.39255,0.1 0.91657,0.1 0.44912,0 0.81659,0.0183 0.81659,0.0406 0,0.0223 0.14679,0.80037 0.32621,1.72899 0.31588,1.63492 0.32787,1.7617 0.37828,4.00069 l 0.0521,2.31227 -3.96125,0 c -2.17869,0 -3.96053,-0.0281 -3.95964,-0.0625 z M 197.09,754.48158 c 0,-0.0174 0.16691,-0.25174 0.37093,-0.52078 0.20401,-0.26903 0.49461,-0.65354 0.64577,-0.85448 0.15116,-0.20093 0.3713,-0.48215 0.48921,-0.62494 0.66561,-0.80606 1.59892,-2.08876 1.67169,-2.2975 0.0731,-0.20977 0.0276,-0.44348 -0.11834,-0.60688 -0.01,-0.011 -4.86982,-0.0392 -10.79994,-0.0625 l -10.78204,-0.0425 0.99135,-1.20311 c 0.54525,-0.6617 1.24512,-1.50536 1.55528,-1.8748 0.74148,-0.88322 0.85179,-1.12092 0.69468,-1.49694 -0.0655,-0.15685 -0.20256,-0.31028 -0.30658,-0.3433 -0.10344,-0.0328 -0.73493,-0.0357 -1.4033,-0.006 -0.66837,0.0293 -3.03379,0.12645 -5.25648,0.21589 -2.22269,0.0894 -4.29436,0.18026 -4.60371,0.20185 l -0.56244,0.0392 0,-0.32468 c 0,-0.30224 0.0187,-0.32755 0.27081,-0.36619 0.14894,-0.0228 1.63942,-0.117 3.31216,-0.20925 1.67275,-0.0923 4.51293,-0.25042 6.31151,-0.35148 1.79858,-0.10105 3.29209,-0.16178 3.31892,-0.13496 0.0268,0.0268 0.0932,0.33618 0.14752,0.68746 0.0696,0.44992 0.14195,0.66287 0.24491,0.72049 0.0917,0.0513 3.66784,0.1004 9.60186,0.13177 l 9.4557,0.05 0,2.39621 c 0,1.31792 0.0228,2.45552 0.0506,2.52801 0.0448,0.11688 0.39711,0.13181 3.1103,0.13181 l 3.05973,0 1.03511,2.05453 c 0.56932,1.13 1.04762,2.08615 1.06289,2.12479 0.0153,0.0386 -3.03129,0.0702 -6.77015,0.0702 -3.73886,0 -6.79793,-0.0142 -6.79793,-0.0316 z m -9.83235,-14.92901 c 0,-0.025 0.73118,-0.92653 1.62484,-2.00338 1.42897,-1.72188 1.62483,-1.99307 1.62483,-2.24974 0,-0.20112 -0.0655,-0.35738 -0.21077,-0.50263 -0.20889,-0.20889 -0.21989,-0.21032 -1.22904,-0.15972 -0.56005,0.0281 -2.81809,0.12358 -5.01787,0.21221 -2.19978,0.0886 -4.3785,0.1842 -4.84161,0.21237 l -0.84201,0.0512 -0.0512,-0.31529 c -0.0281,-0.17341 -0.0385,-0.32791 -0.0231,-0.34333 0.0248,-0.0248 12.65481,-0.76828 13.0999,-0.77116 0.15533,-9.4e-4 0.1882,0.0748 0.27934,0.64463 0.0568,0.35518 0.14154,0.69264 0.18828,0.74993 0.0633,0.0775 0.54797,0.10415 1.89544,0.10415 l 1.81044,0 2.42259,2.1225 c 1.33243,1.16737 2.44641,2.16102 2.47552,2.20811 0.036,0.0583 -2.05969,0.0856 -6.57635,0.0856 -3.64608,0 -6.62925,-0.0205 -6.62925,-0.0455 z"
       style="fill:#0051a2" />
  </g>
</svg>
