<?xml version="1.0" encoding="UTF-8" standalone="no"?>
<!-- Generator: Adobe Illustrator 17.0.0, SVG Export Plug-In . SVG Version: 6.00 Build 0)  -->

<svg
   xmlns:dc="http://purl.org/dc/elements/1.1/"
   xmlns:cc="http://creativecommons.org/ns#"
   xmlns:rdf="http://www.w3.org/1999/02/22-rdf-syntax-ns#"
   xmlns:svg="http://www.w3.org/2000/svg"
   xmlns="http://www.w3.org/2000/svg"
   xmlns:sodipodi="http://sodipodi.sourceforge.net/DTD/sodipodi-0.dtd"
   xmlns:inkscape="http://www.inkscape.org/namespaces/inkscape"
   version="1.1"
   id="Layer_1"
   x="0px"
   y="0px"
   width="417.02151"
   height="112.83685"
   viewBox="0 0 417.02152 112.83684"
   enable-background="new 0 0 557.766 693.911"
   xml:space="preserve"
   inkscape:version="0.91 r13725"
   sodipodi:docname="Elements-Interactive-Logo-Portrait.svg"><metadata
     id="metadata103"><rdf:RDF><cc:Work
         rdf:about=""><dc:format>image/svg+xml</dc:format><dc:type
           rdf:resource="http://purl.org/dc/dcmitype/StillImage" /><dc:title></dc:title></cc:Work></rdf:RDF></metadata><defs
     id="defs101" /><sodipodi:namedview
     pagecolor="#ffffff"
     bordercolor="#666666"
     borderopacity="1"
     objecttolerance="10"
     gridtolerance="10"
     guidetolerance="10"
     inkscape:pageopacity="0"
     inkscape:pageshadow="2"
     inkscape:window-width="1366"
     inkscape:window-height="717"
     id="namedview99"
     showgrid="false"
     fit-margin-top="0"
     fit-margin-left="0"
     fit-margin-right="0"
     fit-margin-bottom="0"
     inkscape:zoom="1.360405"
     inkscape:cx="188.41834"
     inkscape:cy="66.427064"
     inkscape:window-x="0"
     inkscape:window-y="0"
     inkscape:window-maximized="1"
     inkscape:current-layer="Layer_1" /><g
     id="g3"
     style="fill:#5b6270;fill-opacity:1"
     transform="matrix(0.81029156,0,0,0.81029156,38.969451,-374.02628)"><path
       d="m 93.051,507.942 36.536,0 0,9.112 -25.948,0 0,9.443 22.834,0 0,9.111 -22.834,0 0,9.777 26.294,0 0,9.112 -36.882,0 0,-46.555 z"
       id="path5"
       style="fill:#5b6270;fill-opacity:1"
       inkscape:connector-curvature="0" /><path
       d="m 139.412,507.942 10.656,0 0,37.245 24.15,0 0,9.312 -34.806,0 0,-46.557 z"
       id="path7"
       style="fill:#5b6270;fill-opacity:1"
       inkscape:connector-curvature="0" /><path
       d="m 182.243,507.942 36.535,0 0,9.112 -25.949,0 0,9.443 22.835,0 0,9.111 -22.835,0 0,9.777 26.294,0 0,9.112 -36.881,0 0,-46.555 z"
       id="path9"
       style="fill:#5b6270;fill-opacity:1"
       inkscape:connector-curvature="0" /><path
       d="m 228.603,507.942 11.486,0 12.732,15.345 12.732,-15.345 11.486,0 0,46.557 -10.587,0 0,-30.396 -13.631,15.544 -0.277,0 -13.494,-15.343 0,30.194 -10.448,0 0,-46.556 z"
       id="path11"
       style="fill:#5b6270;fill-opacity:1"
       inkscape:connector-curvature="0" /><path
       d="m 288.663,507.942 36.535,0 0,9.112 -25.948,0 0,9.443 22.835,0 0,9.111 -22.835,0 0,9.777 26.294,0 0,9.112 -36.881,0 0,-46.555 z"
       id="path13"
       style="fill:#5b6270;fill-opacity:1"
       inkscape:connector-curvature="0" /><path
       d="m 335.023,507.942 9.827,0 22.696,28.666 0,-28.666 10.518,0 0,46.557 -9.065,0 -23.457,-29.597 0,29.597 -10.519,0 0,-46.557 z"
       id="path15"
       style="fill:#5b6270;fill-opacity:1"
       inkscape:connector-curvature="0" /><path
       d="m 400.965,517.387 -14.737,0 0,-9.444 40.133,0 0,9.444 -14.737,0 0,37.112 -10.658,0 0,-37.112 z"
       id="path17"
       style="fill:#5b6270;fill-opacity:1"
       inkscape:connector-curvature="0" /><path
       d="m 428.229,547.716 6.297,-7.25 c 4.361,3.458 8.927,5.653 14.462,5.653 4.359,0 6.989,-1.664 6.989,-4.391 l 0,-0.132 c 0,-2.595 -1.66,-3.925 -9.756,-5.919 -9.758,-2.395 -16.055,-4.988 -16.055,-14.233 l 0,-0.133 c 0,-8.447 7.059,-14.033 16.953,-14.033 7.059,0 13.078,2.128 17.992,5.919 l -5.535,7.715 c -4.292,-2.86 -8.512,-4.589 -12.596,-4.589 -4.082,0 -6.226,1.795 -6.226,4.057 l 0,0.134 c 0,3.059 2.074,4.057 10.448,6.119 9.825,2.461 15.361,5.852 15.361,13.965 l 0,0.134 c 0,9.244 -7.335,14.434 -17.783,14.434 -7.334,-0.001 -14.738,-2.462 -20.551,-7.45 z"
       id="path19"
       style="fill:#5b6270;fill-opacity:1"
       inkscape:connector-curvature="0" /></g><g
     id="g21"
     transform="matrix(0.35048267,0,0,0.35048267,-48.902146,-48.86114)"><polygon
       points="139.528,273.555 139.528,219.897 185.998,246.726 "
       id="polygon23"
       style="fill:#77b1d4" /><polygon
       points="139.528,327.214 139.528,273.556 185.998,300.384 "
       id="polygon25"
       style="fill:#008ed3" /><polygon
       points="139.528,380.873 139.528,327.214 185.998,354.043 "
       id="polygon27"
       style="fill:#798399" /><polygon
       points="185.999,246.726 185.999,193.068 232.47,219.898 "
       id="polygon29"
       style="fill:#0086c9" /><polygon
       points="185.999,407.702 185.999,354.043 232.47,380.871 "
       id="polygon31"
       style="fill:#afb1c2" /><polygon
       points="278.942,354.043 278.942,300.385 325.413,327.213 "
       id="polygon33"
       style="fill:#915d94" /><polygon
       points="371.882,246.725 371.882,193.067 418.353,219.896 "
       id="polygon35"
       style="fill:#798399" /><polygon
       points="371.882,300.383 371.882,246.725 418.353,273.554 "
       id="polygon37"
       style="fill:#afb1c2" /><polygon
       points="232.47,219.897 232.47,166.24 278.941,193.068 "
       id="polygon39"
       style="fill:#915d94" /><polygon
       points="232.47,327.214 232.47,273.555 278.941,300.385 "
       id="polygon41"
       style="fill:#915d94" /><polygon
       points="325.413,380.872 325.413,327.213 278.942,354.043 "
       id="polygon43"
       style="fill:#969bae" /><polygon
       points="418.353,273.556 418.353,219.896 371.882,246.725 "
       id="polygon45"
       style="fill:#969bae" /><polygon
       points="232.47,219.897 232.47,166.24 185.999,193.068 "
       id="polygon47"
       style="fill:#7c3580" /><polygon
       points="232.47,434.529 232.47,380.871 278.941,407.701 "
       id="polygon49"
       style="fill:#50a2c8" /><polygon
       points="232.47,434.529 232.47,380.871 185.999,407.703 "
       id="polygon51"
       style="fill:#77b1d4" /><polygon
       points="185.999,246.726 185.999,193.068 139.528,219.897 "
       id="polygon53"
       style="fill:#50a2c8" /><polygon
       points="185.999,300.385 185.999,246.726 139.528,273.557 "
       id="polygon55"
       style="fill:#50a2c8" /><polygon
       points="185.999,354.043 185.999,300.385 139.528,327.214 "
       id="polygon57"
       style="fill:#858ca1" /><polygon
       points="185.999,407.702 185.999,354.043 139.528,380.871 "
       id="polygon59"
       style="fill:#969bae" /><polygon
       points="278.942,354.043 278.942,300.385 232.471,327.214 "
       id="polygon61"
       style="fill:#7c3580" /><polygon
       points="278.942,461.358 278.942,407.701 325.413,434.53 "
       id="polygon63"
       style="fill:#915d94" /><polygon
       points="278.942,461.358 278.942,407.701 232.471,434.53 "
       id="polygon65"
       style="fill:#7c3580" /><polygon
       points="371.882,246.725 371.882,193.067 325.413,219.895 "
       id="polygon67"
       style="fill:#858ca1" /><polygon
       points="278.942,300.385 278.942,246.726 325.413,273.555 "
       id="polygon69"
       style="fill:#ec0f50" /><polygon
       points="371.882,354.042 371.882,300.383 418.353,327.212 "
       id="polygon71"
       style="fill:#ec0f50" /><polygon
       points="371.882,407.701 371.882,354.042 418.353,380.87 "
       id="polygon73"
       style="fill:#ec0f50" /><polygon
       points="325.413,380.872 325.413,327.213 371.882,354.041 "
       id="polygon75"
       style="fill:#ec0f50" /><polygon
       points="325.413,434.529 325.413,380.872 371.882,407.701 "
       id="polygon77"
       style="fill:#ec0f50" /><polygon
       points="278.942,193.069 278.942,139.411 325.413,166.239 "
       id="polygon79"
       style="fill:#ec0f50" /><polygon
       points="325.413,219.897 325.413,166.239 278.942,193.068 "
       id="polygon81"
       style="fill:#eb5176" /><polygon
       points="418.353,380.872 418.353,327.212 371.882,354.042 "
       id="polygon83"
       style="fill:#eb5176" /><polygon
       points="371.882,354.042 371.882,300.383 325.413,327.213 "
       id="polygon85"
       style="fill:#eb5176" /><polygon
       points="325.413,219.897 325.413,166.239 371.882,193.067 "
       id="polygon87"
       style="fill:#c11251" /><polygon
       points="418.353,327.212 418.353,273.555 371.882,300.383 "
       id="polygon89"
       style="fill:#c11251" /><polygon
       points="325.413,434.529 325.413,380.872 278.942,407.701 "
       id="polygon91"
       style="fill:#c11251" /><polygon
       points="278.942,300.385 278.942,246.726 232.471,273.555 "
       id="polygon93"
       style="fill:#c11251" /><polygon
       points="278.942,193.069 278.942,139.411 232.471,166.24 "
       id="polygon95"
       style="fill:#c11251" /><polygon
       points="371.882,407.701 371.882,354.042 325.413,380.872 "
       id="polygon97"
       style="fill:#c11251" /></g></svg>