<?xml version="1.0" encoding="utf-8"?>
<!-- Generator: Adobe Illustrator 18.0.0, SVG Export Plug-In . SVG Version: 6.00 Build 0)  -->
<!DOCTYPE svg PUBLIC "-//W3C//DTD SVG 1.1//EN" "http://www.w3.org/Graphics/SVG/1.1/DTD/svg11.dtd">
<svg version="1.1" id="Mode_Isolation" xmlns="http://www.w3.org/2000/svg" xmlns:xlink="http://www.w3.org/1999/xlink" x="0px"
	 y="0px" viewBox="0 0 347.9 240.9" enable-background="new 0 0 347.9 240.9" xml:space="preserve">
<g>
	<g>
		<path fill="#A61E6F" d="M122.1,43.5l-0.4,0.4c-0.2,0.2-4.9,5.6-4.9,11.6c0,0.5,0,1,0.1,1.5c0.5,3.2,2.3,5.8,5.6,7.9
			c0.1,0,33.1,15.5,40,18.7c-2.5,1.2-55.2,26.3-55.2,26.3c-3.4,2.1-5.4,4.8-5.9,8.1c-0.1,0.6-0.1,1.2-0.1,1.8
			c0,5.7,4.1,10.8,4.3,11.1l0.3,0.4l96-47.9L122.1,43.5z"/>
		<path fill="#A61E6F" d="M183.5,20.6c-18.3,0-35.6,7.9-47.6,21.7l-0.6,0.7l16.8,8.4l0.3-0.3c8.4-8,19.4-12.4,31-12.4
			c24.8,0,45,20.2,45,45c0,24.8-20.2,45-45,45c-11.8,0-22.9-4.5-31.3-12.7l-0.3-0.3l-16.8,8.4l0.6,0.7c12,14,29.4,22.1,47.9,22.1
			c34.7,0,63-28.3,63-63C246.5,48.8,218.3,20.6,183.5,20.6z"/>
	</g>
	<g>
		<path fill="#A61E6F" d="M319.6,200.6c-1.6,0-1.7,0-1.7,0h-18.5c0,0-1,0-2.7,0c-0.8,0-1.5,0-1.5,0s0,0.7,0,1.5
			c0,1.4,1.5,1.5,1.5,1.5h2.7h15.5c0,0,2.2,0,3.5,0c2.3,0,3.7,0.6,3.7,3.2c0,1.6,0,3.1,0,3.1s0,2,0,3.3c0,2.3-0.6,3.7-3.2,3.7
			c-1.6,0-3.1,0-3.1,0h-13.4c0,0-0.3,0-1.5,0c-2.1,0-3.2-0.4-3.2-2.4v0v0c0,0,0,0,0-0.1c0,0,0,0,0,0.1V214v-0.1v0.1
			c0-2,1.1-2.5,3.2-2.5c1.2,0,1.5,0,1.5,0h12.7h2.7c0,0,1.5-0.1,1.5-1.5c0-0.8,0-1.5,0-1.5s-0.7,0-1.5,0c-1.7,0-2.7,0-2.7,0h-13
			c0,0-1.2,0-2.5,0c-2.3,0-4.7,1.5-4.7,4.1c0,0.9,0,1.6,0,1.9c0,0.2,0,0.4,0,0.4c0,0.1,0,0.3,0,0.5c0,2.6,2.4,4.1,4.7,4.1
			c1.3,0,2.5,0,2.5,0h15.8c0,0,0.1,0,1.7,0c3.6,0,5.3-2.4,5.3-4.7c0-1.3,0-2.5,0-2.5l0-6c0-0.4,0-0.8,0-1.2
			C325,202.9,323.2,200.6,319.6,200.6z"/>
		<path fill="#A61E6F" d="M148.9,200.6c-1.3,0-2.5,0-2.5,0h-15.8c0,0-0.1,0-1.7,0c-3.6,0-5.3,2.4-5.3,4.7c0,1.3,0,2.5,0,2.5v6
			c0,0.2,0,0.5,0,1.2c0,2.3,1.7,4.7,5.3,4.7c1.6,0,1.7,0,1.7,0h18.5c0,0,1,0,2.7,0c0.7,0,1.5,0,1.5,0s0-0.7,0-1.5
			c0-1.4-1.5-1.5-1.5-1.5h-2.7h-15.5c0,0-2.2,0-3.5,0c-2.3,0-3.7-0.6-3.7-3.2c0-1.6,0-3.2,0-3.2s0-2,0-3.3c0-2.3,0.6-3.7,3.2-3.7
			c1.6,0,3.1,0,3.1,0h13.4c0,0,0.3,0,1.5,0c2.1,0,3.2,0.4,3.2,2.4v0v0c0,0,0,0,0,0c0,0,0,0,0,0v0.5v0.1v-0.1c0,2-1.1,2.5-3.2,2.5
			c-1.2,0-1.5,0-1.5,0h-12.7h-2.7c0,0-1.5,0.1-1.5,1.5c0,0.8,0,1.5,0,1.5s0.7,0,1.5,0c1.7,0,2.7,0,2.7,0h13c0,0,1.2,0,2.5,0
			c2.3,0,4.7-1.5,4.7-4.1c0-0.9,0-1.6,0-1.9c0-0.2,0-0.4,0-0.4c0-0.1,0-0.3,0-0.5C153.6,202.1,151.2,200.6,148.9,200.6z"/>
		<path fill="#A61E6F" d="M101.4,201c-2-0.9-3-0.5-4.3,0.2c-1.4,0.7-6.6,5.3-6.6,5.3s-0.8,0.8-1.6,0.8c0,0,0,0,0,0c0,0,0,0,0,0
			c0,0,0,0,0,0c0,0,0,0,0,0c-0.8,0-1.6-0.8-1.6-0.8s-5.2-4.6-6.6-5.3c-1.4-0.7-2.3-1.1-4.3-0.2c-2.5,1.2-2.6,3.3-2.6,4.8
			c0,0.7,0,1,0,1.1c0,0.1,0,0.1,0,0.1v8.8c0,0,0,1,0,2.7c0,0.8,0,1.5,0,1.5s0.7,0,1.5,0c1.4,0,1.5-1.5,1.5-1.5v-2.7v-7.2
			c0,0,0-2.1,0-2.9c0-1.3,1-2.6,2.5-2.1l1.6,1.3l5.4,4.4c0,0,0.7,0.6,1.1,0.8c0.7,0.3,1.6,0.3,1.6,0.3s0.9,0,1.6-0.3
			c0.3-0.2,1.1-0.8,1.1-0.8l5.4-4.4l1.6-1.3c1.6-0.5,2.5,0.8,2.5,2.1c0,0.8,0,2.9,0,2.9v7.2v2.7c0,0,0.1,1.5,1.5,1.5
			c0.8,0,1.5,0,1.5,0s0-0.7,0-1.5c0-1.7,0-2.7,0-2.7v-8.8c0,0,0,0,0-0.1c0-0.1,0-0.5,0-1.1C104.1,204.3,104,202.2,101.4,201z"/>
		<path fill="#A61E6F" d="M203,200.7c0,0-0.7,0-1.5,0c-1.4,0-1.5,1.5-1.5,1.5v2.7v7.2c0,0,0,2.1,0,2.9c0,1.3-1,2.6-2.5,2.1l-1.6-1.3
			l-5.9-5.1c0,0-8.5-8.3-10.7-9.8c-1.3-0.9-2.3-1.1-4.3-0.2c-2.6,1.2-2.6,3.3-2.6,4.8c0,0.7,0,1,0,1.1c0,0.1,0,0.1,0,0.1v8.8
			c0,0,0,1,0,2.7c0,0.7,0,1.5,0,1.5s0.7,0,1.5,0c1.4,0,1.5-1.5,1.5-1.5v-2.7v-7.2c0,0,0-2.1,0-2.9c0-1.3,1-2.6,2.5-2.1l1.6,1.3
			l6.7,6.3c0,0,8.5,7.9,9.8,8.6c1.4,0.7,2.3,1.1,4.3,0.2c2.6-1.2,2.6-3.3,2.6-4.8c0-0.7,0-1,0-1.1c0-0.1,0-0.1,0-0.1v-8.8
			c0,0,0-1,0-2.7C203,201.4,203,200.7,203,200.7z"/>
		<path fill="#A61E6F" d="M279.4,218.6c0,0.8,0,1.3,0,1.3h-4.9h0.1c-3,0-4.6-1.9-4.6-4.8c0-1.7,0-10,0-10v-2.7c0,0,0.1-1.5,1.5-1.5
			c0.4,0,1.2,0,1.5,0c0,0,0,0.7,0,1.5c0,1.7,0,2.7,0,2.7v7.2c0,0,0,2.1,0,2.9c0,1.3,0.9,1.9,2.5,1.9h2.6
			C277.9,217.2,279.4,217.3,279.4,218.6"/>
		<path fill="#A61E6F" d="M271.4,190.8c-0.8,0-1.5,0-1.5,0s0,0.7,0,1.5v1.9v0.6c0,0,0.1,1.5,1.5,1.5c0.8,0,1.5,0,1.5,0s0-0.7,0-1.5
			c0-1.7,0-1.8,0-1.8v-0.7C272.8,192.3,272.7,190.8,271.4,190.8z"/>
		<path fill="#A61E6F" d="M46.9,208.7h-17c-0.1,0-1.4,0.1-1.4,1.4l0,0c0,0.1,0,1.4-0.1,1.4c0,0,19.8,0,19.8,0c2.2,0,4.6-1.4,4.6-4.1
			v-2.8c0-2.7-2.4-4.1-4.6-4.1H28.2c-3.6,0-5.3,2.4-5.3,4.6v9.7c0,2.2,1.6,4.6,5.3,4.6h22.9c0,0,1.4,0,1.4,0.1v-1.5
			c0-1.3-1.4-1.4-1.4-1.4H29.4c-2.3,0-3.8-0.6-3.8-3.3V207c0-2.3,0.6-3.8,3.3-3.8h18c2,0,3.3,0.4,3.3,2.5v0.5
			C50.2,208.3,49,208.7,46.9,208.7z"/>
		<path fill="#A61E6F" d="M220,205.5v9.8c0,2.2,1.7,4.6,5.3,4.6h22.9c0,0,1.4,0,1.4,0.1c0,0,0-1.5,0-1.5c0-1.3-1.4-1.4-1.4-1.4
			c0,0-21.7,0-21.7,0c-2.3,0-3.8-0.6-3.8-3.3l0-6.8c0-2.7,1.5-3.3,3.8-3.3h21.7c0,0,1.4-0.1,1.4-1.4l0.1-1.4h-24.4
			C221.7,200.8,220,203.2,220,205.5z"/>
	</g>
</g>
</svg>
