<?xml version="1.0" encoding="UTF-8" standalone="no"?>
<!-- Generator: Adobe Illustrator 17.0.0, SVG Export Plug-In . SVG Version: 6.00 Build 0)  -->

<svg
   xmlns:dc="http://purl.org/dc/elements/1.1/"
   xmlns:cc="http://creativecommons.org/ns#"
   xmlns:rdf="http://www.w3.org/1999/02/22-rdf-syntax-ns#"
   xmlns:svg="http://www.w3.org/2000/svg"
   xmlns="http://www.w3.org/2000/svg"
   xmlns:sodipodi="http://sodipodi.sourceforge.net/DTD/sodipodi-0.dtd"
   xmlns:inkscape="http://www.inkscape.org/namespaces/inkscape"
   version="1.1"
   id="Layer_1"
   x="0px"
   y="0px"
   width="381.62924"
   height="83.285004"
   viewBox="0 0 381.62924 83.285"
   enable-background="new 0 0 841.89 595.28"
   xml:space="preserve"
   inkscape:version="0.91 r13725"
   sodipodi:docname="Logo_Ticketea_03.svg"><metadata
     id="metadata6940"><rdf:RDF><cc:Work
         rdf:about=""><dc:format>image/svg+xml</dc:format><dc:type
           rdf:resource="http://purl.org/dc/dcmitype/StillImage" /><dc:title></dc:title></cc:Work></rdf:RDF></metadata><defs
     id="defs6938" /><sodipodi:namedview
     pagecolor="#ffffff"
     bordercolor="#666666"
     borderopacity="1"
     objecttolerance="10"
     gridtolerance="10"
     guidetolerance="10"
     inkscape:pageopacity="0"
     inkscape:pageshadow="2"
     inkscape:window-width="1366"
     inkscape:window-height="717"
     id="namedview6936"
     showgrid="false"
     fit-margin-top="0"
     fit-margin-left="0"
     fit-margin-right="0"
     fit-margin-bottom="0"
     inkscape:zoom="0.91049586"
     inkscape:cx="241.45401"
     inkscape:cy="41.414985"
     inkscape:window-x="0"
     inkscape:window-y="0"
     inkscape:window-maximized="1"
     inkscape:current-layer="Layer_1" /><path
     d="m 161.98,82.181 c -0.998,-0.081 -1.873,-0.208 -2.562,-0.396 -0.708,-0.196 -1.31,-0.477 -1.78,-0.895 -0.442,-0.372 -0.79,-0.86 -1.068,-1.373 l -15.736,-24.891 0,24.602 c 0.023,0.52 -0.166,1.07 -0.507,1.498 -0.386,0.435 -0.917,0.727 -1.54,0.955 -0.657,0.222 -1.448,0.374 -2.398,0.469 -0.965,0.093 -2.163,0.158 -3.597,0.158 -1.445,0 -2.629,-0.065 -3.612,-0.158 -0.966,-0.095 -1.757,-0.247 -2.412,-0.469 -0.626,-0.228 -1.146,-0.52 -1.522,-0.955 -0.332,-0.428 -0.516,-0.979 -0.516,-1.498 l 0,-75.982 c 0,-0.553 0.184,-1.082 0.506,-1.5 0.367,-0.479 0.886,-0.79 1.522,-1.039 0.644,-0.251 1.435,-0.417 2.4,-0.542 0.98,-0.122 2.169,-0.165 3.634,-0.165 1.434,0 2.654,0.043 3.621,0.165 0.949,0.126 1.74,0.291 2.391,0.542 0.647,0.249 1.155,0.56 1.529,1.039 0.334,0.418 0.5,0.947 0.5,1.5 l 0,42.901 13.841,-18.595 c 0.335,-0.519 0.741,-0.975 1.165,-1.373 0.48,-0.438 1.105,-0.751 1.822,-0.969 0.709,-0.218 1.529,-0.364 2.506,-0.469 0.998,-0.091 2.205,-0.145 3.686,-0.145 1.455,0 2.683,0.054 3.687,0.145 1.04,0.104 1.873,0.251 2.538,0.469 0.666,0.24 1.227,0.51 1.621,0.99 0.335,0.416 0.518,0.977 0.5,1.541 0,0.709 -0.165,1.432 -0.48,2.164 -0.332,0.727 -0.791,1.476 -1.434,2.277 l -14.695,16.657 17.137,26.515 c 0.491,0.791 0.846,1.498 1.073,2.125 0.251,0.621 0.364,1.205 0.364,1.789 0.02,0.529 -0.133,1.061 -0.467,1.478 -0.364,0.477 -0.914,0.77 -1.539,0.968 -0.648,0.197 -1.44,0.34 -2.429,0.435 -1.006,0.093 -2.286,0.158 -3.847,0.158 -1.582,0.002 -2.884,-0.052 -3.902,-0.126"
     id="path6900"
     inkscape:connector-curvature="0"
     style="fill:#ff5113" /><path
     d="m 380.331,35.294 c -0.897,-2.684 -2.331,-4.921 -4.286,-6.658 -1.938,-1.725 -4.417,-2.997 -7.381,-3.809 -2.955,-0.811 -6.482,-1.205 -10.581,-1.205 -2.288,0 -4.536,0.188 -6.746,0.56 -2.163,0.375 -4.161,0.843 -6.011,1.434 -1.854,0.586 -3.454,1.23 -4.852,1.938 -1.373,0.689 -2.39,1.32 -3.046,1.989 -0.616,0.654 -1.05,1.391 -1.281,2.203 -0.227,0.812 -0.311,1.81 -0.311,3.037 0,0.928 0.043,1.781 0.176,2.553 0.115,0.779 0.291,1.457 0.55,2.039 0.25,0.583 0.564,1.068 1.023,1.443 0.457,0.374 1.04,0.572 1.622,0.572 0.843,0 1.716,-0.33 2.766,-0.893 0.957,-0.52 2.164,-1.111 3.621,-1.771 1.414,-0.622 3.06,-1.204 4.952,-1.747 1.812,-0.522 3.902,-0.791 6.266,-0.791 1.812,0 3.288,0.207 4.421,0.562 1.155,0.347 2.03,0.876 2.677,1.563 0.66,0.714 1.133,1.6 1.434,2.723 0.306,1.117 0.458,2.479 0.458,4.039 l 0,2.34 -4.236,0 c -4.628,0 -8.707,0.346 -12.226,1.073 -3.536,0.708 -6.533,1.79 -8.966,3.288 -2.436,1.51 -4.287,3.454 -5.526,5.787 -1.238,2.352 -1.845,5.088 -1.845,8.19 0,2.862 0.48,5.389 1.457,7.594 0.961,2.195 2.335,4.029 4.092,5.506 1.758,1.477 3.848,2.59 6.21,3.329 2.397,0.729 4.977,1.103 7.783,1.103 3.417,0 6.557,-0.656 9.368,-1.977 2.247,-1.061 4.286,-2.455 6.149,-4.161 l 0,2.245 c -0.014,0.686 0.236,1.364 0.735,1.832 0.522,0.48 1.207,0.709 2.062,0.875 0.883,0.144 2.164,0.209 3.935,0.209 1.643,0 2.892,-0.065 3.797,-0.209 0.884,-0.157 1.614,-0.395 2.165,-0.835 0.573,-0.435 0.883,-1.151 0.873,-1.872 l 0,-34.67 c 10e-4,-3.6 -0.438,-6.743 -1.298,-9.428 m -14.529,30.511 c -1.642,1.852 -3.288,3.246 -4.846,4.203 -1.581,0.969 -3.311,1.447 -5.226,1.447 -2.311,-0.01 -3.986,-0.571 -5.184,-1.655 -1.184,-1.083 -1.767,-2.507 -1.799,-4.507 0,-1.177 0.217,-2.185 0.635,-3.025 0.439,-0.853 1.081,-1.582 2.038,-2.23 0.915,-0.609 2.178,-1.1 3.777,-1.432 1.572,-0.336 3.51,-0.503 5.819,-0.503 l 0.021,0 4.763,0 0,7.702 z"
     id="path6902"
     inkscape:connector-curvature="0"
     style="fill:#ff5113" /><path
     d="m 324.346,39.364 c -0.957,-3.172 -2.454,-5.939 -4.493,-8.291 -2.05,-2.355 -4.671,-4.186 -7.824,-5.477 -3.173,-1.33 -6.965,-1.977 -11.362,-1.977 -4.166,0 -7.953,0.688 -11.301,2.082 -3.354,1.393 -6.224,3.413 -8.573,6.067 -2.354,2.653 -4.135,5.856 -5.351,9.625 -1.23,3.778 -1.83,7.979 -1.83,12.643 0,4.869 0.572,9.144 1.725,12.831 1.164,3.682 2.969,6.762 5.372,9.195 2.4,2.449 5.388,4.266 8.94,5.443 3.546,1.195 7.643,1.777 12.294,1.777 2.572,0 4.995,-0.164 7.266,-0.499 2.257,-0.331 4.277,-0.726 6.044,-1.175 1.738,-0.445 3.208,-0.906 4.374,-1.385 1.166,-0.5 1.851,-0.809 2.331,-1.291 0.268,-0.309 0.518,-0.642 0.717,-0.996 0.199,-0.395 0.323,-0.811 0.415,-1.289 0.084,-0.461 0.158,-1.009 0.2,-1.625 0.04,-0.625 0.04,-1.352 0.04,-2.216 0,-0.98 -0.022,-1.799 -0.082,-2.476 -0.064,-0.678 -0.166,-1.24 -0.374,-1.695 -0.199,-0.461 -0.482,-0.847 -0.906,-1.094 -0.366,-0.22 -0.801,-0.301 -1.259,-0.301 -0.73,0 -1.562,0.218 -2.529,0.604 -0.883,0.352 -2.054,0.747 -3.444,1.185 -1.373,0.436 -3.007,0.83 -4.912,1.187 -1.872,0.352 -4.036,0.539 -6.533,0.539 -2.454,0 -4.518,-0.312 -6.191,-0.935 -1.697,-0.626 -3.052,-1.498 -4.092,-2.645 -1.041,-1.168 -1.809,-2.56 -2.3,-4.266 -0.435,-1.498 -0.684,-3.162 -0.757,-4.976 l 30.593,0 c 1.539,0 2.881,-0.509 3.828,-1.528 0.987,-1.052 1.393,-2.58 1.393,-4.463 l 0,-2.31 c -0.003,-3.678 -0.48,-7.114 -1.419,-10.268 m -34.355,7.648 c 0.124,-1.445 0.374,-2.81 0.767,-4.119 0.439,-1.522 1.096,-2.812 1.937,-3.906 0.832,-1.07 1.873,-1.93 3.162,-2.58 1.24,-0.631 2.715,-0.957 4.454,-0.957 3.505,0.012 5.918,1.082 7.514,3.189 1.518,2.007 2.289,4.772 2.289,8.374 l -20.123,0 z"
     id="path6904"
     inkscape:connector-curvature="0"
     style="fill:#ff5113" /><path
     d="m 226.037,39.364 c -0.956,-3.172 -2.456,-5.939 -4.498,-8.291 -2.067,-2.355 -4.679,-4.186 -7.842,-5.498 -3.188,-1.309 -6.976,-1.955 -11.368,-1.955 -4.138,0 -7.926,0.688 -11.297,2.061 -3.362,1.415 -6.215,3.435 -8.562,6.089 -2.354,2.653 -4.135,5.856 -5.352,9.625 -1.238,3.778 -1.84,7.979 -1.84,12.643 0,4.869 0.583,9.144 1.747,12.831 1.165,3.682 2.955,6.762 5.361,9.195 2.392,2.449 5.386,4.266 8.937,5.443 3.54,1.195 7.65,1.777 12.287,1.777 2.571,0 5.009,-0.164 7.275,-0.499 2.27,-0.331 4.268,-0.726 6.033,-1.165 1.762,-0.455 3.217,-0.916 4.392,-1.404 1.159,-0.49 1.843,-0.799 2.313,-1.281 0.277,-0.309 0.52,-0.642 0.728,-0.996 0.205,-0.395 0.321,-0.811 0.423,-1.289 0.076,-0.481 0.139,-1.009 0.18,-1.625 0.044,-0.625 0.062,-1.352 0.062,-2.225 0,-0.972 -0.044,-1.79 -0.103,-2.467 -0.062,-0.678 -0.158,-1.24 -0.373,-1.695 -0.188,-0.461 -0.48,-0.847 -0.898,-1.094 -0.382,-0.22 -0.812,-0.301 -1.256,-0.301 -0.75,0 -1.555,0.218 -2.53,0.604 -0.917,0.352 -2.039,0.747 -3.445,1.185 -1.364,0.436 -3.018,0.83 -4.919,1.187 -1.864,0.352 -4.053,0.539 -6.56,0.539 -2.435,0 -4.474,-0.312 -6.157,-0.935 -1.707,-0.626 -3.037,-1.498 -4.104,-2.654 -1.039,-1.158 -1.807,-2.55 -2.307,-4.256 -0.44,-1.498 -0.689,-3.162 -0.749,-4.996 l 30.612,0 c 1.522,0.021 2.871,-0.488 3.828,-1.508 0.968,-1.052 1.373,-2.58 1.373,-4.463 l 0,-2.31 c 0.024,-3.682 -0.465,-7.118 -1.391,-10.272 m -34.38,7.648 c 0.127,-1.445 0.375,-2.81 0.767,-4.119 0.459,-1.522 1.105,-2.812 1.955,-3.906 0.824,-1.07 1.873,-1.93 3.137,-2.58 1.258,-0.631 2.714,-0.957 4.471,-0.957 3.511,0.012 5.924,1.082 7.523,3.189 1.498,2.007 2.28,4.772 2.28,8.374 l -20.133,0 z"
     id="path6906"
     inkscape:connector-curvature="0"
     style="fill:#ff5113" /><path
     d="m 86.603,81.321 c -3.163,-1.27 -5.86,-3.177 -8.016,-5.674 -2.162,-2.485 -3.784,-5.532 -4.85,-9.082 -1.099,-3.558 -1.623,-7.605 -1.641,-12.133 0.018,-5.223 0.644,-9.76 1.975,-13.621 1.322,-3.85 3.186,-7.055 5.579,-9.613 2.392,-2.539 5.224,-4.445 8.5,-5.683 3.237,-1.229 6.807,-1.833 10.678,-1.833 1.572,0 3.13,0.125 4.652,0.416 1.518,0.271 2.955,0.646 4.294,1.125 1.324,0.457 2.508,1.02 3.59,1.623 1.053,0.58 1.824,1.104 2.334,1.623 0.436,0.438 0.771,0.83 1,1.217 0.227,0.386 0.393,0.846 0.5,1.364 0.092,0.499 0.193,1.102 0.234,1.786 0.074,0.721 0.098,1.555 0.098,2.533 0,2.279 -0.179,3.9 -0.624,5.017 -0.417,1.008 -1.165,1.819 -2.228,1.819 -0.874,0 -1.731,-0.355 -2.531,-0.959 -0.738,-0.522 -1.582,-1.121 -2.572,-1.77 -0.955,-0.604 -2.087,-1.186 -3.429,-1.707 -1.272,-0.505 -2.853,-0.768 -4.694,-0.758 -3.588,0.01 -6.149,1.323 -8.047,4.025 -1.848,2.708 -2.847,6.828 -2.847,12.365 0,2.713 0.251,5.096 0.726,7.156 0.49,2.041 1.198,3.727 2.104,5.059 0.914,1.322 2.03,2.291 3.413,2.934 1.354,0.668 2.955,0.987 4.827,0.999 1.936,0 3.538,-0.291 4.871,-0.851 1.394,-0.562 2.611,-1.209 3.644,-1.917 1.082,-0.705 1.964,-1.364 2.673,-1.946 0.791,-0.634 1.496,-1.05 2.329,-1.07 0.49,0 0.989,0.143 1.364,0.477 0.416,0.374 0.648,0.853 0.801,1.458 0.139,0.583 0.262,1.29 0.323,2.125 0.108,0.83 0.123,1.911 0.123,3.19 0,1.01 -0.016,1.873 -0.083,2.571 -0.059,0.707 -0.143,1.29 -0.24,1.81 -0.1,0.502 -0.234,0.918 -0.401,1.293 -0.232,0.455 -0.562,0.832 -1.061,1.322 -0.562,0.527 -1.375,1.07 -2.522,1.736 -1.166,0.664 -2.476,1.246 -3.955,1.758 -1.456,0.531 -3.037,0.927 -4.762,1.248 -1.721,0.312 -3.496,0.47 -5.311,0.47 -4.037,0.001 -7.646,-0.625 -10.818,-1.902"
     id="path6908"
     inkscape:connector-curvature="0"
     style="fill:#ff5113" /><path
     d="m 249.344,81.973 c -2.225,-0.768 -4.098,-1.977 -5.577,-3.6 -1.477,-1.621 -2.549,-3.651 -3.238,-6.054 -0.685,-2.396 -1.006,-5.202 -1.006,-8.411 l 0,-25.627 -5.412,0 c -1.09,0.012 -1.956,-0.779 -2.373,-1.834 -0.455,-1.098 -0.645,-2.67 -0.645,-4.834 0,-1.136 0.043,-2.114 0.149,-2.914 0.123,-0.834 0.258,-1.5 0.496,-2.051 0.229,-0.53 0.552,-0.967 1,-1.281 0.416,-0.278 0.925,-0.426 1.434,-0.426 l 5.352,0 0,-10.718 c 0,-0.53 0.165,-1.042 0.457,-1.467 0.35,-0.519 0.874,-0.833 1.519,-1.061 0.647,-0.26 1.459,-0.414 2.458,-0.52 0.976,-0.103 2.164,-0.157 3.557,-0.157 1.438,0 2.645,0.055 3.634,0.157 0.984,0.106 1.798,0.26 2.424,0.52 0.633,0.228 1.142,0.542 1.497,1.019 0.333,0.44 0.509,0.956 0.509,1.51 l 0,10.718 10.419,0 c 0.527,0 1.04,0.147 1.457,0.426 0.456,0.314 0.748,0.751 0.984,1.281 0.241,0.551 0.406,1.217 0.514,2.051 0.083,0.8 0.124,1.778 0.144,2.914 -0.02,2.164 -0.186,3.736 -0.635,4.834 -0.425,1.055 -1.299,1.846 -2.403,1.834 l -10.48,0 0,23.422 c -0.019,2.748 0.449,4.716 1.197,5.921 0.718,1.124 1.957,1.741 4.088,1.75 0.731,0 1.364,-0.073 1.906,-0.176 0.606,-0.137 1.114,-0.294 1.549,-0.436 0.471,-0.178 0.887,-0.326 1.189,-0.458 0.406,-0.169 0.8,-0.252 1.197,-0.252 0.374,-0.012 0.768,0.104 1.067,0.312 0.473,0.313 0.689,0.77 0.824,1.248 0.134,0.46 0.249,1.052 0.356,1.75 0.083,0.747 0.124,1.665 0.144,2.768 l -0.02,0 c 0,1.726 -0.083,3.077 -0.332,4.077 -0.232,0.977 -0.5,1.728 -1.014,2.258 -0.467,0.479 -1.067,0.855 -1.799,1.175 -0.727,0.303 -1.558,0.564 -2.497,0.791 -0.934,0.208 -1.955,0.386 -3.038,0.499 -1.091,0.115 -2.187,0.188 -3.288,0.188 -2.947,-0.001 -5.535,-0.376 -7.764,-1.146"
     id="path6910"
     inkscape:connector-curvature="0"
     style="fill:#ff5113" /><path
     d="m 46.955,16.92 c -1.392,-1.333 -1.932,-3.488 -1.932,-6.391 0,-3.016 0.559,-5.265 1.974,-6.659 1.455,-1.372 3.869,-1.903 7.211,-1.925 3.323,0.022 5.694,0.531 7.127,1.864 1.396,1.353 1.964,3.518 1.964,6.431 0,3.017 -0.592,5.265 -2.024,6.629 -1.48,1.342 -3.871,1.882 -7.18,1.882 -3.351,-0.02 -5.724,-0.498 -7.14,-1.831"
     id="path6912"
     inkscape:connector-curvature="0"
     style="fill:#ff5113" /><path
     d="m 57.05,24.942 c 1.716,0.01 3.079,0.353 3.944,1.303 0.809,0.874 1.155,2.1 1.155,3.525 l 0,49.459 c 0.02,0.518 -0.165,1.072 -0.499,1.498 -0.373,0.435 -0.897,0.727 -1.496,0.957 -0.657,0.22 -1.43,0.372 -2.415,0.467 -0.999,0.093 -2.169,0.154 -3.585,0.154 -1.442,0 -2.664,-0.061 -3.628,-0.154 -0.967,-0.095 -1.758,-0.247 -2.404,-0.467 -0.61,-0.23 -1.144,-0.522 -1.498,-0.957 -0.334,-0.426 -0.519,-0.96 -0.519,-1.498 l 0,-40.947 -21.622,0 0,23.422 c 0,2.748 0.445,4.716 1.217,5.921 0.708,1.138 1.947,1.741 4.086,1.759 0.732,0 1.357,-0.082 1.907,-0.186 0.592,-0.135 1.114,-0.292 1.564,-0.435 0.465,-0.178 0.858,-0.326 1.173,-0.46 0.377,-0.167 0.791,-0.248 1.184,-0.248 0.397,-0.014 0.751,0.105 1.081,0.312 0.465,0.312 0.673,0.77 0.815,1.246 0.134,0.46 0.242,1.052 0.335,1.747 0.122,0.752 0.165,1.668 0.165,2.768 0,1.729 -0.102,3.04 -0.3,4.019 -0.218,0.934 -0.51,1.676 -0.99,2.224 -0.447,0.544 -1.082,0.95 -1.854,1.27 -0.727,0.303 -1.581,0.564 -2.507,0.791 -0.947,0.208 -1.965,0.386 -3.056,0.499 -1.072,0.118 -2.169,0.188 -3.276,0.188 -2.957,0 -5.535,-0.375 -7.766,-1.143 C 16.033,81.206 14.16,79.999 12.704,78.374 11.22,76.753 10.123,74.723 9.456,72.32 8.771,69.927 8.44,67.116 8.44,63.911 l 0,-25.629 -5.4,0 C 1.949,38.294 1.051,37.503 0.644,36.448 0.178,35.35 0.019,33.776 0,31.612 0,30.478 0.061,29.5 0.158,28.7 0.261,27.866 0.408,27.202 0.644,26.651 0.867,26.12 1.199,25.682 1.658,25.37 2.072,25.09 2.572,24.942 3.09,24.942 l 5.351,0 0,-10.717 c 0,-0.531 0.142,-1.055 0.458,-1.468 0.352,-0.519 0.884,-0.833 1.517,-1.061 0.666,-0.26 1.48,-0.417 2.446,-0.52 0.989,-0.102 2.163,-0.156 3.589,-0.156 1.437,0 2.644,0.054 3.624,0.156 0.984,0.104 1.775,0.26 2.432,0.52 0.606,0.228 1.124,0.542 1.497,1.019 0.314,0.44 0.481,0.956 0.481,1.511 l 0,10.717 32.565,0"
     id="path6914"
     inkscape:connector-curvature="0"
     style="fill:#ff5113" /><path
     d="m 212.558,47.783 0,-0.771 0,0.771 z"
     id="path6916"
     inkscape:connector-curvature="0"
     style="fill:#ff5113" /><path
     d="m 310.904,47.783 0,-0.771 0,0.771 z"
     id="path6918"
     inkscape:connector-curvature="0"
     style="fill:#ff5113" /></svg>