<?xml version="1.0" encoding="UTF-8" standalone="no"?>
<!-- Created with Inkscape (http://www.inkscape.org/) -->

<svg
   xmlns:dc="http://purl.org/dc/elements/1.1/"
   xmlns:cc="http://creativecommons.org/ns#"
   xmlns:rdf="http://www.w3.org/1999/02/22-rdf-syntax-ns#"
   xmlns:svg="http://www.w3.org/2000/svg"
   xmlns="http://www.w3.org/2000/svg"
   xmlns:sodipodi="http://sodipodi.sourceforge.net/DTD/sodipodi-0.dtd"
   xmlns:inkscape="http://www.inkscape.org/namespaces/inkscape"
   id="svg2"
   version="1.1"
   inkscape:version="0.91 r13725"
   xml:space="preserve"
   width="483.25226"
   height="125.06573"
   viewBox="0 0 483.25226 125.06573"
   sodipodi:docname="logo_paradigma_2013.svg"><metadata
     id="metadata8"><rdf:RDF><cc:Work
         rdf:about=""><dc:format>image/svg+xml</dc:format><dc:type
           rdf:resource="http://purl.org/dc/dcmitype/StillImage" /><dc:title></dc:title></cc:Work></rdf:RDF></metadata><defs
     id="defs6"><clipPath
       clipPathUnits="userSpaceOnUse"
       id="clipPath16"><path
         d="m 0,317.478 572.598,0 L 572.598,0 0,0 0,317.478 Z"
         id="path18"
         inkscape:connector-curvature="0" /></clipPath></defs><sodipodi:namedview
     pagecolor="#ffffff"
     bordercolor="#666666"
     borderopacity="1"
     objecttolerance="10"
     gridtolerance="10"
     guidetolerance="10"
     inkscape:pageopacity="0"
     inkscape:pageshadow="2"
     inkscape:window-width="640"
     inkscape:window-height="480"
     id="namedview4"
     showgrid="false"
     fit-margin-top="0"
     fit-margin-left="0"
     fit-margin-right="0"
     fit-margin-bottom="0"
     inkscape:zoom="0.56025344"
     inkscape:cx="212.30501"
     inkscape:cy="56.611152"
     inkscape:window-x="0"
     inkscape:window-y="0"
     inkscape:window-maximized="0"
     inkscape:current-layer="g10" /><g
     id="g10"
     inkscape:groupmode="layer"
     inkscape:label="logo_paradigma_2013"
     transform="matrix(1.25,0,0,-1.25,-114.33288,266.87833)"><g
       id="g7403"><path
         d="m 152.0552,157.9336 c -5.455,0 -8.596,4.828 -8.596,10.229 0,5.4 3.056,10.228 8.596,10.228 5.568,0 8.767,-4.6 8.767,-10.228 0,-5.629 -3.199,-10.229 -8.767,-10.229 m 2.113,28.656 c -4.769,0 -8.71,-2.171 -11.051,-5.714 l 0,0.486 c 0,2.658 -1.829,4.915 -4.656,4.915 -2.827,0 -4.654,-2.171 -4.654,-4.829 l 0,-41.628 c 0,-2.657 2.17,-4.829 4.826,-4.829 2.655,0 4.826,2.172 4.826,4.829 l 0,15.628 c 2.399,-3.943 6.511,-5.714 10.709,-5.714 10.595,0 16.335,8.942 16.335,18.429 0,9.513 -5.654,18.427 -16.335,18.427"
         style="fill:#f64700;fill-opacity:1;fill-rule:nonzero;stroke:none"
         id="path22"
         inkscape:connector-curvature="0" /><path
         d="m 193.0229,158.1045 c -6.055,0 -9.167,4.657 -9.167,10.058 0,5.629 3.598,10.056 9.167,10.056 5.711,0 9.081,-4.171 9.081,-10.056 0,-5.401 -3.284,-10.058 -9.081,-10.058 m 0,28.485 c -10.881,0 -18.677,-7.399 -18.677,-18.427 0,-10.143 6.511,-18.429 17.448,-18.429 5.083,0 8.625,2.257 10.481,5.4 l 0,-0.172 c 0,-2.571 1.457,-4.914 4.655,-4.914 3.142,0 4.684,2.343 4.684,4.914 l 0,13.201 c 0,11.028 -7.254,18.427 -18.591,18.427"
         style="fill:#f64700;fill-opacity:1;fill-rule:nonzero;stroke:none"
         id="path26"
         inkscape:connector-curvature="0" /><path
         d="m 239.8003,182.248 c 0,2.428 -1.514,4.342 -4.341,4.342 -4.683,0 -7.739,-2.229 -9.424,-6.113 l 0,0.884 c 0,2.658 -2.171,4.915 -4.826,4.915 -2.885,0 -4.912,-2 -4.912,-4.915 l 0,-26.485 c 0,-2.657 2.256,-4.828 4.912,-4.828 2.655,0 4.826,2.171 4.826,4.828 l 0,12.571 c 0,6.515 3.712,10.457 9.424,10.457 2.57,0 4.341,1.944 4.341,4.344"
         style="fill:#f64700;fill-opacity:1;fill-rule:nonzero;stroke:none"
         id="path30"
         inkscape:connector-curvature="0" /><path
         d="m 259.6338,158.1045 c -6.054,0 -9.195,4.657 -9.195,10.058 0,5.629 3.626,10.056 9.195,10.056 5.712,0 9.081,-4.171 9.081,-10.056 0,-5.401 -3.283,-10.058 -9.081,-10.058 m 0,28.485 c -10.88,0 -18.677,-7.399 -18.677,-18.427 0,-10.143 6.512,-18.429 17.449,-18.429 5.083,0 8.624,2.257 10.481,5.4 l 0,-0.172 c 0,-2.571 1.428,-4.914 4.654,-4.914 3.142,0 4.684,2.343 4.684,4.914 l 0,13.201 c 0,11.028 -7.254,18.427 -18.591,18.427"
         style="fill:#f64700;fill-opacity:1;fill-rule:nonzero;stroke:none"
         id="path34"
         inkscape:connector-curvature="0" /><path
         d="m 300.27,157.9336 c -5.568,0 -8.795,4.6 -8.795,10.229 0,5.628 3.227,10.228 8.795,10.228 5.455,0 8.596,-4.828 8.596,-10.228 0,-5.401 -3.055,-10.229 -8.596,-10.229 m 13.422,47.028 c -2.656,0 -4.826,-2.171 -4.826,-4.829 l 0,-19.257 c -2.399,3.943 -6.51,5.714 -10.709,5.714 -10.623,0 -16.335,-8.914 -16.335,-18.427 0,-9.487 5.656,-18.429 16.335,-18.429 4.769,0 8.711,2.171 11.023,5.714 l 0,-0.486 c 0,-2.657 1.856,-4.914 4.684,-4.914 2.799,0 4.654,2.171 4.654,4.828 l 0,45.257 c 0,2.658 -2.17,4.829 -4.826,4.829"
         style="fill:#f64700;fill-opacity:1;fill-rule:nonzero;stroke:none"
         id="path38"
         inkscape:connector-curvature="0" /><path
         d="m 322.9243,196.8184 c 0,-3.057 2.398,-5.457 5.455,-5.457 3.084,0 5.483,2.4 5.483,5.457 0,3.058 -2.399,5.486 -5.483,5.486 -3.057,0 -5.455,-2.428 -5.455,-5.486"
         style="fill:#f64700;fill-opacity:1;fill-rule:nonzero;stroke:none"
         id="path42"
         inkscape:connector-curvature="0" /><path
         d="m 323.5532,154.876 c 0,-2.657 2.17,-4.828 4.826,-4.828 2.656,0 4.826,2.171 4.826,4.828 l 0,26.571 c 0,2.658 -2.17,4.829 -4.826,4.829 -2.656,0 -4.826,-2.171 -4.826,-4.829 l 0,-26.571 z"
         style="fill:#f64700;fill-opacity:1;fill-rule:nonzero;stroke:none"
         id="path46"
         inkscape:connector-curvature="0" /><path
         d="m 355.8784,159.3906 c -5.541,0 -8.768,4.114 -8.768,9.514 0,5.372 3.227,9.486 8.768,9.486 5.568,0 8.625,-4.429 8.625,-9.486 0,-5.086 -3.143,-9.514 -8.625,-9.514 m 13.621,26.886 c -2.826,0 -4.683,-2.171 -4.683,-4.915 l 0,-0.486 c -2.34,3.543 -6.282,5.714 -11.022,5.714 -10.709,0 -16.336,-8.199 -16.336,-17.685 0,-9.514 5.711,-17.714 16.336,-17.714 4.197,0 8.281,1.771 10.709,5.714 l 0,-4.6 c 0,-6.515 -2.428,-9.657 -9.424,-9.657 -3.056,0 -5.14,0.715 -6.826,1.372 -1.77,0.714 -3.141,1.371 -4.684,1.371 -2.17,0 -3.855,-1.058 -3.855,-3.543 0,-1.629 0.971,-3.058 2.57,-3.886 3.143,-1.599 7.797,-2.971 12.623,-2.971 13.137,0 19.248,6.372 19.248,17.885 l 0,28.572 c 0,2.658 -1.857,4.829 -4.656,4.829"
         style="fill:#f64700;fill-opacity:1;fill-rule:nonzero;stroke:none"
         id="path50"
         inkscape:connector-curvature="0" /><path
         d="m 436.8589,154.876 0,15.458 c 0,9.656 -4.512,16.256 -14.25,16.256 -5.455,0 -9.881,-2.4 -12.395,-6.027 -2.341,3.713 -6.111,6.027 -11.25,6.027 -4.341,0 -8.054,-2.171 -10.082,-5.857 l 0,0.628 c 0,2.659 -1.998,4.915 -4.826,4.915 -2.968,0 -4.826,-2.256 -4.826,-4.915 l 0,-26.485 c 0,-2.657 2.17,-4.828 4.826,-4.828 2.657,0 4.826,2.171 4.826,4.828 l 0,14.657 c 0,4.258 1.858,8.371 7.254,8.371 4.998,0 6.996,-3.685 6.996,-8.371 l 0,-14.657 c 0,-2.657 2.256,-4.828 4.913,-4.828 2.656,0 4.826,2.171 4.826,4.828 l 0,14.657 c 0,4.258 1.941,8.371 7.254,8.371 4.968,0 6.996,-3.685 6.996,-8.371 l 0,-14.657 c 0,-2.657 2.172,-4.828 4.826,-4.828 2.656,0 4.912,2.171 4.912,4.828"
         style="fill:#f64700;fill-opacity:1;fill-rule:nonzero;stroke:none"
         id="path54"
         inkscape:connector-curvature="0" /><path
         d="m 459.4761,158.1045 c -6.053,0 -9.195,4.657 -9.195,10.058 0,5.629 3.627,10.056 9.195,10.056 5.713,0 9.082,-4.171 9.082,-10.056 0,-5.401 -3.285,-10.058 -9.082,-10.058 m 0,28.485 c -10.879,0 -18.676,-7.399 -18.676,-18.427 0,-10.143 6.512,-18.429 17.449,-18.429 5.082,0 8.623,2.257 10.481,5.4 l 0,-0.172 c 0,-2.571 1.428,-4.914 4.654,-4.914 3.141,0 4.684,2.343 4.684,4.914 l 0,13.201 c 0,11.028 -7.254,18.427 -18.592,18.427"
         style="fill:#f64700;fill-opacity:1;fill-rule:nonzero;stroke:none"
         id="path58"
         inkscape:connector-curvature="0" /><path
         d="m 91.4663,163.333 0,0.144 0,0.142 0.029,0 c 0.314,2.657 5.625,3.199 5.625,9.172 l 0,17.371 0,10.457 c 0,2.657 0.657,6 1.685,7.742 1.028,1.744 1.913,2.829 3.599,3.715 1.685,0.886 2.913,1.285 7.025,1.401 1.142,0.028 1.856,0.085 2.998,-0.172 1.514,-0.343 2.685,-1.971 2.656,-4.115 -0.029,-1.571 -1.114,-3.657 -3.027,-3.743 l -1.428,-0.086 c -0.914,-0.027 -2.599,-0.171 -3.284,-0.513 -0.828,-0.429 -1.656,-1.944 -1.656,-3.658 l -0.029,-3.342 -0.057,-8.172 0,-16.428 c 0,-5.2 -1.028,-7.228 -2.199,-8.344 -0.8,-0.742 -1.085,-1.171 -1.171,-1.427 0.086,-0.258 0.371,-0.687 1.171,-1.429 1.171,-1.114 2.199,-3.144 2.199,-8.343 l 0,-16.429 0.057,-8.172 0.029,-3.342 c 0,-1.714 0.828,-3.229 1.656,-3.658 0.685,-0.342 2.37,-0.485 3.284,-0.513 l 1.428,-0.086 c 1.913,-0.086 2.998,-2.172 3.027,-3.743 0.029,-2.143 -1.142,-3.772 -2.656,-4.115 -1.142,-0.256 -1.856,-0.2 -2.998,-0.17 -4.112,0.114 -5.34,0.513 -7.025,1.399 -1.686,0.857 -2.571,1.972 -3.599,3.686 -1.028,1.771 -1.685,5.114 -1.685,7.771 l 0,10.457 0,17.372 c 0,5.972 -5.311,6.514 -5.625,9.171 l -0.029,0 z"
         style="fill:#f64700;fill-opacity:1;fill-rule:nonzero;stroke:none"
         id="path62"
         inkscape:connector-curvature="0" /></g></g></svg>