<?xml version="1.0" encoding="UTF-8" standalone="no"?>
<!-- Generator: Adobe Illustrator 17.0.0, SVG Export Plug-In . SVG Version: 6.00 Build 0)  -->

<svg
   xmlns:dc="http://purl.org/dc/elements/1.1/"
   xmlns:cc="http://creativecommons.org/ns#"
   xmlns:rdf="http://www.w3.org/1999/02/22-rdf-syntax-ns#"
   xmlns:svg="http://www.w3.org/2000/svg"
   xmlns="http://www.w3.org/2000/svg"
   xmlns:sodipodi="http://sodipodi.sourceforge.net/DTD/sodipodi-0.dtd"
   xmlns:inkscape="http://www.inkscape.org/namespaces/inkscape"
   version="1.1"
   id="Capa_1"
   x="0px"
   y="0px"
   width="555.20398"
   height="99.903999"
   viewBox="0 0 555.20395 99.903998"
   enable-background="new 0 0 595.28 841.89"
   xml:space="preserve"
   inkscape:version="0.91 r13725"
   sodipodi:docname="LOGO gaceta.svg"><metadata
     id="metadata15"><rdf:RDF><cc:Work
         rdf:about=""><dc:format>image/svg+xml</dc:format><dc:type
           rdf:resource="http://purl.org/dc/dcmitype/StillImage" /><dc:title></dc:title></cc:Work></rdf:RDF></metadata><defs
     id="defs13" /><sodipodi:namedview
     pagecolor="#ffffff"
     bordercolor="#666666"
     borderopacity="1"
     objecttolerance="10"
     gridtolerance="10"
     guidetolerance="10"
     inkscape:pageopacity="0"
     inkscape:pageshadow="2"
     inkscape:window-width="1366"
     inkscape:window-height="717"
     id="namedview11"
     showgrid="false"
     fit-margin-top="0"
     fit-margin-left="0"
     fit-margin-right="0"
     fit-margin-bottom="0"
     inkscape:zoom="1.1212866"
     inkscape:cx="237.3795"
     inkscape:cy="75.324982"
     inkscape:window-x="0"
     inkscape:window-y="0"
     inkscape:window-maximized="1"
     inkscape:current-layer="Capa_1" /><g
     id="g3"
     transform="translate(-23.145,-326.808)"><path
       d="m 208.955,384.103 c -3.954,3.404 -4.99,4.261 -8.335,4.261 -2.806,0 -4.508,-1.953 -4.508,-5.051 0,-4.319 2.923,-6.573 10.229,-6.573 l 2.615,0 0,7.363 z m 0.303,10.227 8.4,0 c -0.119,-1.526 -0.305,-4.81 -0.305,-6.209 l 0,-17.77 c 0,-9.621 -5.966,-13.153 -13.936,-13.153 -8.889,0 -12.294,4.144 -14.425,9.252 l 7.668,2.133 c 1.278,-3.287 2.317,-5.538 6.452,-5.538 4.259,0 5.842,2.617 5.842,5.655 l 0,2.805 -3.834,0 c -9.859,0 -17.408,3.226 -17.408,12.536 0,6.575 3.715,11.019 10.043,11.019 4.684,0 8.46,-2.807 11.199,-6.214 l 0.304,5.484 z m -24.707,-33.412 -8.526,0 0,-11.934 -8.761,3.657 0,8.277 -5.232,0 0,6.204 5.232,0 0,16.309 c 0,6.151 2.375,11.631 10.591,11.631 2.92,0 5.779,-0.669 6.816,-1.103 l 0,-6.327 c -1.278,0.546 -3.104,0.732 -4.258,0.732 -4.201,0 -4.388,-2.501 -4.388,-6.272 l 0,-14.971 8.526,0 0,-6.203 z m -48.634,11.561 c 0.311,-4.688 2.317,-9.19 7.674,-9.067 4.319,-0.123 6.938,3.224 6.938,9.067 l -14.612,0 z m 14.612,10.952 c -0.609,2.253 -2.923,5.417 -6.876,5.417 -6.271,0 -7.736,-6.202 -7.736,-10.523 l 23.374,0 0,-3.289 c 0,-9.618 -5.112,-17.838 -15.394,-17.838 -10.717,0 -16.741,7.671 -16.741,18.806 0,11.874 6.452,19.058 16.673,19.058 8.282,0 12.175,-4.389 14.121,-9.199 l -7.421,-2.432 z m -33.597,-1.028 c -0.302,2.494 -1.946,6.445 -6.084,6.445 -5.476,0 -6.635,-5.598 -6.635,-13.261 0,-8.042 1.885,-12.175 6.51,-12.175 3.834,0 5.536,3.282 5.604,6.758 l 8.155,-2.193 c -0.429,-3.592 -4.322,-10.779 -13.573,-10.779 -11.322,0 -15.823,8.585 -15.823,19.056 0,9.31 3.773,18.808 15.518,18.808 10.104,0 12.657,-6.214 14.241,-10.656 l -7.913,-2.003 z m -36.392,1.7 c -3.958,3.404 -4.994,4.261 -8.34,4.261 -2.796,0 -4.505,-1.953 -4.505,-5.051 0,-4.319 2.92,-6.573 10.226,-6.573 l 2.619,0 0,7.363 z m 0.305,10.227 8.394,0 c -0.119,-1.526 -0.302,-4.81 -0.302,-6.209 l 0,-17.77 c 0,-9.621 -5.966,-13.153 -13.938,-13.153 -8.881,0 -12.294,4.144 -14.425,9.252 l 7.666,2.133 c 1.282,-3.287 2.317,-5.538 6.454,-5.538 4.264,0 5.847,2.617 5.847,5.655 l 0,2.805 -3.834,0 c -9.864,0 -17.407,3.226 -17.407,12.536 0,6.575 3.709,11.019 10.042,11.019 4.688,0 8.461,-2.807 11.199,-6.214 l 0.304,5.484 z m -37.189,-1.526 c 2.433,0.605 4.142,1.526 4.142,3.708 0,2.68 -2.191,4.512 -8.096,4.512 -4.686,0 -8.887,-1.346 -8.887,-4.806 0,-2.682 1.767,-4.321 3.833,-5.725 l 9.008,2.311 z m -5.108,-18.257 c -3.775,0 -6.514,-2.249 -6.514,-5.783 0,-3.409 2.132,-5.718 6.633,-5.718 2.863,0 6.267,1.582 6.267,5.718 0,3.469 -2.555,5.783 -6.386,5.783 m 18.619,-16.614 -13.143,0 c -1.946,-0.306 -4.264,-0.734 -6.573,-0.734 -7.911,0 -13.328,5.116 -13.328,11.566 0,4.873 1.702,7.668 7.302,10.348 -2.009,0.912 -3.53,3.291 -3.53,5.234 0,1.218 0.548,2.985 2.126,3.833 -2.554,1.283 -6.876,3.475 -6.876,9.062 0,5.607 6.026,9.385 16.252,9.385 8.275,0 16.796,-2.627 16.796,-10.897 0,-5.236 -3.652,-7.794 -7.973,-8.949 l -10.955,-2.98 c -1.584,-0.429 -2.07,-0.73 -2.07,-1.582 0,-1.04 0.428,-1.584 0.916,-2.073 0.546,0.125 1.396,0.243 2.309,0.243 11.079,0 14.425,-6.142 14.425,-10.827 0,-3.963 -1.826,-5.791 -2.799,-6.758 l 7.119,0 0,-4.871 z"
       id="path5"
       inkscape:connector-curvature="0"
       style="fill:#bc1a38" /><path
       d="m 347.565,357.738 c -5.356,0 -9.354,3.382 -12.31,6.214 l 0,-5.475 -8.867,0 0,36.812 8.867,0 0,-25.421 c 3.201,-3.017 4.988,-4.618 7.817,-4.618 2.894,0 4.617,1.789 4.617,5.232 l 0,24.808 8.865,0 0,-26.719 c 0.002,-5.416 -1.785,-10.833 -8.989,-10.833 z m -92.103,-6.284 -33.242,0 0,7.266 12.004,0 0,36.569 9.234,0 0,-36.569 12.004,0 0,-7.266 z m 52.087,38.297 c -5.537,0 -6.71,-5.663 -6.71,-13.424 0,-8.123 1.912,-12.308 6.593,-12.308 3.876,0 5.6,3.322 5.662,6.83 l 8.246,-2.215 c -0.424,-3.633 -4.367,-10.896 -13.725,-10.896 -11.453,0 -16.01,8.679 -16.01,19.272 0,9.418 3.816,19.022 15.705,19.022 10.215,0 12.804,-6.281 14.402,-10.776 l -8.001,-2.032 c -0.309,2.523 -1.975,6.527 -6.162,6.527 z m -36.075,-32.013 c -10.836,0 -16.929,7.754 -16.929,19.022 0,12.004 6.522,19.272 16.869,19.272 8.371,0 12.31,-4.435 14.284,-9.3 l -7.512,-2.463 c -0.616,2.28 -2.956,5.482 -6.956,5.482 -6.346,0 -7.82,-6.281 -7.82,-10.651 l 23.64,0 0,-3.328 c 10e-4,-9.726 -5.17,-18.034 -15.576,-18.034 z m -8.063,15.449 c 0.308,-4.736 2.338,-9.295 7.757,-9.168 4.365,-0.127 7.018,3.26 7.018,9.168 l -14.775,0 z m 314.633,15.818 0,-18.014 c 0,-9.738 -6.045,-13.313 -14.125,-13.313 -9.002,0 -12.462,4.191 -14.614,9.37 l 7.768,2.162 c 1.293,-3.33 2.345,-5.62 6.534,-5.62 4.321,0 5.927,2.661 5.927,5.737 l 0,2.834 -3.893,0 c -9.984,0 -17.636,3.274 -17.636,12.71 0,6.654 3.771,11.161 10.182,11.161 4.745,0 8.571,-2.843 11.347,-6.291 l 0.309,5.547 8.506,0 c -0.126,-1.541 -0.305,-4.868 -0.305,-6.283 z m -8.511,-4.074 c -4.008,3.45 -5.061,4.319 -8.45,4.319 -2.839,0 -4.564,-1.974 -4.564,-5.119 0,-4.384 2.964,-6.659 10.357,-6.659 l 2.657,0 0,7.459 z m -69.374,10.357 8.877,0 0,-36.872 -8.877,0 0,36.872 z m -55.443,-49.742 -10.095,0 -6.092,8.99 6.399,0 9.788,-8.99 z M 434.5,357.738 c -10.287,0 -16.869,7.754 -16.869,19.022 0,12.004 6.521,19.272 16.869,19.272 9.843,0 16.863,-7.268 16.863,-19.272 0,-11.268 -6.093,-19.022 -16.863,-19.022 z m 0,32.013 c -4.685,0 -7.637,-3.573 -7.637,-12.866 0,-9.052 2.952,-12.866 7.637,-12.866 4.678,0 7.63,3.814 7.63,12.866 0,9.293 -2.952,12.866 -7.63,12.866 z m 97.225,-0.01 c -5.542,0 -6.714,-5.669 -6.714,-13.443 0,-8.14 1.909,-12.332 6.599,-12.332 3.881,0 5.607,3.328 5.673,6.847 l 8.258,-2.227 c -0.429,-3.635 -4.375,-10.908 -13.752,-10.908 -11.463,0 -16.03,8.691 -16.03,19.294 0,9.44 3.823,19.061 15.727,19.061 10.237,0 12.822,-6.291 14.426,-10.79 l -8.012,-2.035 c -0.31,2.525 -1.978,6.533 -6.175,6.533 z m -31.566,-35.766 8.877,0 0,-6.602 -8.877,0 0,6.602 z m -6.553,8.287 1.594,0.072 0.23,-5.384 -3.859,-0.162 c -7.723,-17.625 -25.312,-29.98 -45.756,-29.98 -16.592,0 -31.277,8.164 -40.367,20.65 l -2.783,0 0,4.256 c -3.506,6.017 -5.826,12.801 -6.549,20.066 -1.574,-8.502 -7.32,-14.042 -16.412,-14.042 -10.285,0 -16.867,7.754 -16.867,19.022 0,12.004 6.526,19.272 16.867,19.272 8.406,0 14.73,-5.305 16.411,-14.316 2.496,25.226 23.83,44.996 49.7,44.996 15.433,0 29.246,-7.04 38.417,-18.07 4.657,-1.533 8.113,-4.572 8.341,-9.978 0.057,-1.225 -0.143,-2.273 -0.457,-3.239 2.335,-5.774 3.651,-12.065 3.651,-18.665 10e-4,-5.043 -0.765,-9.906 -2.161,-14.498 z m -113.902,27.489 c -4.681,0 -7.635,-3.573 -7.635,-12.866 0,-9.052 2.954,-12.866 7.635,-12.866 4.676,0 7.632,3.814 7.632,12.866 0,9.293 -2.956,12.866 -7.632,12.866 z m 66.111,35.728 c -26.863,0 -48.719,-21.856 -48.719,-48.72 0,-8.133 2.029,-15.793 5.568,-22.54 l 0,41.068 8.862,0 0,-47.831 -4.541,0 c 8.902,-11.767 22.971,-19.418 38.829,-19.418 19.72,0 36.701,11.797 44.36,28.687 l -9.268,-0.395 c -2.143,-0.433 -4.673,-1.009 -7.229,-1.12 -8.747,-0.375 -14.971,5.02 -15.273,12.146 -0.227,5.383 1.522,8.554 7.584,11.783 -2.266,0.908 -4.055,3.455 -4.153,5.617 -0.058,1.336 0.47,3.315 2.174,4.329 -2.882,1.298 -7.76,3.513 -8.024,9.698 -0.263,6.185 6.214,10.639 17.511,11.121 2.435,0.101 4.887,-0.005 7.198,-0.376 -0.024,0.024 0.053,0.005 0.181,-0.036 0.393,-0.067 0.765,-0.166 1.147,-0.251 -8.926,9.94 -21.829,16.238 -36.207,16.238 z m 35.582,-57.133 c -0.159,3.83 -3.092,6.264 -7.326,6.083 -4.168,-0.178 -7.088,-2.8 -6.927,-6.695 0.166,-3.768 2.632,-6.226 7.605,-6.007 3.159,0.127 6.846,2.039 6.648,6.619 z m -7.299,35.393 c -5.177,-0.219 -9.753,-1.904 -9.59,-5.735 0.131,-2.961 2.155,-4.695 4.51,-6.144 l 9.842,2.983 c 2.658,0.785 4.5,1.878 4.397,4.302 -0.126,2.95 -2.635,4.869 -9.159,4.594 z m 17.361,-10.101 c -0.127,-0.325 -0.305,-0.654 -0.687,-0.993 -1.546,-2.042 -3.912,-3.409 -6.587,-4.242 l -11.964,-3.811 c -1.728,-0.549 -2.248,-0.913 -2.212,-1.849 0.051,-1.141 0.546,-1.728 1.107,-2.244 0.6,0.159 1.536,0.337 2.537,0.378 12.245,0.522 16.234,-6.113 16.453,-11.287 0.19,-4.372 -1.742,-6.476 -2.775,-7.596 l 4.878,0.205 0.1,0.005 c 1.442,4.599 2.225,9.487 2.225,14.556 0.001,5.939 -1.121,11.609 -3.075,16.878 z"
       id="path7"
       inkscape:connector-curvature="0"
       style="fill:#314a79" /></g></svg>