<?xml version="1.0" encoding="UTF-8" standalone="no"?>
<!-- Created with Inkscape (http://www.inkscape.org/) -->

<svg
   xmlns:dc="http://purl.org/dc/elements/1.1/"
   xmlns:cc="http://creativecommons.org/ns#"
   xmlns:rdf="http://www.w3.org/1999/02/22-rdf-syntax-ns#"
   xmlns:svg="http://www.w3.org/2000/svg"
   xmlns="http://www.w3.org/2000/svg"
   xmlns:sodipodi="http://sodipodi.sourceforge.net/DTD/sodipodi-0.dtd"
   xmlns:inkscape="http://www.inkscape.org/namespaces/inkscape"
   id="svg2"
   version="1.1"
   inkscape:version="0.91 r13725"
   xml:space="preserve"
   width="3543.3125"
   height="885.82623"
   viewBox="0 0 3543.3125 885.82623"
   sodipodi:docname="logov2-1.svg"><metadata
     id="metadata8"><rdf:RDF><cc:Work
         rdf:about=""><dc:format>image/svg+xml</dc:format><dc:type
           rdf:resource="http://purl.org/dc/dcmitype/StillImage" /><dc:title></dc:title></cc:Work></rdf:RDF></metadata><defs
     id="defs6"><clipPath
       clipPathUnits="userSpaceOnUse"
       id="clipPath16"><path
         d="m 0,708.661 2834.65,0 L 2834.65,0 0,0 0,708.661 Z"
         id="path18"
         inkscape:connector-curvature="0" /></clipPath></defs><sodipodi:namedview
     pagecolor="#ffffff"
     bordercolor="#666666"
     borderopacity="1"
     objecttolerance="10"
     gridtolerance="10"
     guidetolerance="10"
     inkscape:pageopacity="0"
     inkscape:pageshadow="2"
     inkscape:window-width="1366"
     inkscape:window-height="717"
     id="namedview4"
     showgrid="false"
     inkscape:zoom="0.25863098"
     inkscape:cx="1565.4302"
     inkscape:cy="412.84336"
     inkscape:window-x="0"
     inkscape:window-y="0"
     inkscape:window-maximized="1"
     inkscape:current-layer="g10" /><g
     id="g10"
     inkscape:groupmode="layer"
     inkscape:label="logov2-1"
     transform="matrix(1.25,0,0,-1.25,0,885.82625)"><g
       id="g12"><g
         id="g14"
         clip-path="url(#clipPath16)"><g
           id="g20"
           transform="translate(1572.2317,438.4736)"><path
             d="m 0,0 c -8.722,-2.787 -16.255,-6.582 -22.573,-11.383 -6.325,-4.809 -11.382,-10.434 -15.177,-16.885 -3.794,-6.45 -6.581,-13.345 -8.344,-20.678 l -0.76,0 0,48.187 -7.588,0 0,-195.025 7.588,0 0,110.414 c 0,10.621 1.516,20.989 4.554,31.108 3.031,10.116 7.711,19.032 14.036,26.754 6.317,7.711 14.35,13.784 24.092,18.212 9.734,4.42 21.305,6.259 34.719,5.502 l 0,7.588 C 18.908,4.042 8.73,2.779 0,0 m -247.956,-92.202 c 0.762,13.661 3.285,25.926 7.589,36.804 4.3,10.874 9.926,20.168 16.887,27.89 6.953,7.711 15.043,13.591 24.282,17.641 9.23,4.042 19.161,6.073 29.786,6.073 12.644,0 23.775,-2.342 33.388,-7.022 9.612,-4.683 17.647,-11.068 24.094,-19.161 6.451,-8.099 11.32,-17.518 14.61,-28.267 3.283,-10.753 4.932,-22.072 4.928,-33.958 l -155.564,0 z m 143.996,64.128 c -6.962,9.611 -15.94,17.323 -26.941,23.143 -11.003,5.818 -24.096,8.731 -39.273,8.731 -10.877,0 -21.5,-2.281 -31.869,-6.834 -10.371,-4.549 -19.477,-11.189 -27.316,-19.919 -7.846,-8.725 -14.172,-19.415 -18.971,-32.058 -4.81,-12.653 -7.212,-27.072 -7.212,-43.257 0,-14.417 1.643,-27.882 4.935,-40.41 3.281,-12.516 8.346,-23.399 15.177,-32.629 6.829,-9.233 15.612,-16.381 26.367,-21.439 10.751,-5.054 23.714,-7.459 38.891,-7.207 22.26,0 40.981,6.255 56.159,18.779 15.177,12.52 24.148,30.161 26.938,52.927 l -7.588,0 c -3.294,-21.502 -11.702,-37.628 -25.235,-48.377 -13.532,-10.753 -30.54,-16.125 -51.03,-16.125 -13.913,0 -25.68,2.401 -35.289,7.21 -9.612,4.802 -17.452,11.383 -23.522,19.731 -6.073,8.348 -10.567,18.145 -13.472,29.405 -2.909,11.253 -4.497,23.459 -4.743,36.612 l 0,0.006 163.154,0 c 0.504,13.405 -0.826,26.308 -3.983,38.701 -3.168,12.391 -8.226,23.396 -15.177,33.01 m 960.119,61.461 52.364,0 0,44.772 -52.364,0 0,-44.772 z m 0,-229.171 52.364,0 0,204.129 -52.364,0 0,-204.129 z m -479.586,125.209 0,7.97 c 0,4.803 0.435,9.609 1.326,14.418 0.886,4.802 2.34,9.163 4.365,13.09 2.023,3.916 4.743,7.076 8.155,9.486 3.415,2.399 7.782,3.601 13.091,3.601 5.31,0 9.671,-1.078 13.089,-3.224 3.418,-2.153 6.068,-5.314 7.965,-9.485 1.897,-4.172 3.231,-9.237 3.991,-15.178 0.755,-5.945 1.259,-12.842 1.515,-20.678 l -53.497,0 z m 89.164,55.956 c -5.571,8.977 -13.22,15.935 -22.954,20.868 -9.745,4.931 -22.199,7.398 -37.376,7.398 -17.707,0 -31.865,-2.913 -42.496,-8.726 -10.619,-5.821 -18.775,-13.661 -24.466,-23.525 -5.691,-9.862 -9.486,-21.124 -11.383,-33.77 -1.897,-12.65 -2.845,-25.801 -2.845,-39.461 0,-12.895 0.563,-25.793 1.7,-38.699 1.142,-12.898 4.236,-24.532 9.297,-34.903 5.058,-10.379 12.898,-18.724 23.521,-25.041 10.624,-6.321 25.422,-9.486 44.394,-9.486 25.04,0 43.378,6.196 55.016,18.59 11.631,12.39 17.956,30.48 18.971,54.26 l -47.05,0 c -1.511,-12.901 -4.301,-22.517 -8.348,-28.838 -4.046,-6.325 -10.497,-9.485 -19.349,-9.485 -4.806,0 -8.856,1.337 -12.138,3.986 -3.291,2.661 -5.948,6.199 -7.967,10.631 -2.03,4.42 -3.479,9.486 -4.365,15.177 -0.891,5.691 -1.326,11.572 -1.326,17.641 l 0,16.305 103.582,0 0,11.763 c 0,15.682 -1.017,29.911 -3.035,42.686 -2.027,12.767 -5.821,23.648 -11.383,32.629 M 243.204,-143.991 c -3.409,-11.261 -10.942,-16.885 -22.577,-16.885 -11.382,0 -18.775,5.624 -22.193,16.885 -3.418,11.253 -5.119,28.012 -5.119,50.274 0,22.253 1.701,39.012 5.119,50.272 3.418,11.252 10.811,16.885 22.193,16.885 11.631,0 19.164,-5.631 22.577,-16.885 3.416,-11.26 5.124,-28.019 5.124,-50.272 0,-22.262 -1.708,-39.021 -5.124,-50.274 m 5.122,133.363 -0.759,0 c -5.566,8.094 -11.826,14.166 -18.781,18.217 -6.96,4.042 -15.367,6.068 -25.235,6.068 -21.501,0 -37.312,-8.412 -47.428,-25.233 -10.119,-16.822 -15.177,-44.204 -15.177,-82.145 0,-37.943 5.058,-65.136 15.177,-81.576 10.116,-16.448 25.927,-24.663 47.428,-24.663 10.631,0 19.542,1.897 26.756,5.691 7.207,3.795 13.718,10.498 19.539,20.111 l 0.759,0 0,-21.63 50.081,0 0,274.017 -52.36,0 0,-88.857 z m 358.169,24.287 c -11.383,0 -21.502,-2.341 -30.354,-7.017 -8.856,-4.685 -16.063,-12.083 -21.628,-22.199 l -0.756,0 0,23.904 -50.081,0 0,-204.131 52.362,0 0,135.453 c 0,22.51 9.232,33.771 27.699,33.771 7.836,0 13.528,-2.091 17.074,-6.263 3.539,-4.171 5.313,-11.57 5.313,-22.193 l -0.007,0 0,-140.765 52.362,0 0,151.39 c 0,20.485 -4.497,35.284 -13.471,44.393 -8.986,9.104 -21.817,13.657 -38.513,13.657 m 180.235,-92.202 -31.491,10.624 c -8.861,2.78 -14.862,6.196 -18.03,10.246 -3.168,4.043 -4.743,8.596 -4.743,13.658 0,7.332 2.464,12.834 7.399,16.507 4.933,3.659 10.683,5.498 17.264,5.498 8.596,0 14.606,-2.463 18.022,-7.395 3.417,-4.937 5.121,-12.713 5.121,-23.337 l 47.05,0 0,8.347 c 0,18.462 -5.691,32.756 -17.074,42.875 -11.383,10.115 -28.968,15.177 -52.741,15.177 -13.41,0 -24.852,-1.65 -34.337,-4.933 -9.486,-3.289 -17.264,-7.717 -23.336,-13.28 -6.07,-5.569 -10.498,-12.082 -13.281,-19.541 -2.79,-7.464 -4.171,-15.367 -4.171,-23.714 0,-14.417 3.664,-26.245 11.004,-35.475 7.333,-9.235 18.212,-16.382 32.629,-21.44 l 36.805,-13.28 c 5.058,-2.026 9.486,-4.743 13.28,-8.155 3.794,-3.413 5.691,-8.411 5.691,-14.988 0,-8.1 -2.412,-14.17 -7.214,-18.212 -4.802,-4.05 -11.253,-6.073 -19.345,-6.073 -8.864,0 -15.622,2.72 -20.302,8.159 -4.687,5.436 -7.017,12.584 -7.017,21.439 l 0,6.836 -47.051,0 0,-7.214 c 0,-9.867 1.141,-18.786 3.417,-26.752 2.274,-7.966 6.261,-14.732 11.953,-20.298 5.691,-5.569 13.402,-9.741 23.143,-12.524 9.734,-2.779 21.943,-4.172 36.616,-4.172 11.131,0 21.31,1.141 30.543,3.416 9.234,2.275 17.2,6.07 23.907,11.383 6.699,5.314 11.953,11.953 15.747,19.92 3.794,7.966 5.692,17.389 5.692,28.264 0,15.425 -3.413,27.638 -10.242,36.616 -6.829,8.974 -18.467,16.249 -34.908,21.818 m -1535.703,-30.355 c -5.946,3.794 -12.652,6.76 -20.11,8.915 -7.463,2.145 -14.987,4.237 -22.575,6.262 -10.621,2.781 -19.92,5.183 -27.888,7.208 -7.966,2.024 -15.365,4.424 -22.194,7.211 -6.582,2.78 -11.827,6.767 -15.755,11.944 -3.924,5.179 -5.88,12.581 -5.88,22.195 0,1.768 0.502,4.933 1.516,9.485 1.006,4.555 3.414,9.167 7.208,13.851 3.795,4.677 9.612,8.848 17.454,12.521 7.839,3.664 18.591,5.501 32.251,5.501 9.355,0 17.894,-1.016 25.611,-3.039 7.714,-2.028 14.352,-5.25 19.92,-9.674 5.563,-4.428 9.867,-10.052 12.9,-16.885 3.038,-6.827 4.556,-15.177 4.556,-25.04 l 7.588,0 c 0,21.75 -6.325,37.565 -18.971,47.428 -12.654,9.863 -29.852,14.799 -51.604,14.799 -12.14,0 -22.384,-1.517 -30.733,-4.553 -8.347,-3.033 -15.177,-6.962 -20.489,-11.763 -5.312,-4.806 -9.106,-10.119 -11.383,-15.932 -2.279,-5.827 -3.414,-11.383 -3.414,-16.697 0,-10.622 1.897,-19.1 5.691,-25.421 3.794,-6.325 9.732,-11.258 17.833,-14.796 5.562,-2.535 11.889,-4.812 18.971,-6.833 7.078,-2.027 15.3,-4.172 24.663,-6.446 8.345,-2.03 16.561,-4.051 24.662,-6.073 8.096,-2.03 15.235,-4.742 21.439,-8.155 6.197,-3.414 11.252,-7.78 15.178,-13.091 3.916,-5.313 5.88,-12.272 5.88,-20.868 0,-8.347 -1.965,-15.433 -5.88,-21.249 -3.926,-5.82 -8.917,-10.563 -14.988,-14.228 -6.073,-3.666 -12.84,-6.325 -20.302,-7.966 -7.46,-1.649 -14.735,-2.468 -21.816,-2.468 -23.016,0 -40.66,5.126 -52.926,15.371 -12.274,10.24 -18.401,26.365 -18.401,48.377 l -7.589,0 c 0,-24.538 6.64,-42.496 19.92,-53.879 13.282,-11.383 32.946,-17.074 58.999,-17.074 8.352,0 16.756,0.949 25.236,2.846 8.469,1.897 16.057,4.989 22.765,9.297 6.701,4.298 12.142,9.863 16.316,16.692 4.175,6.827 6.261,15.177 6.261,25.044 0,9.352 -1.835,16.941 -5.498,22.765 -3.673,5.816 -8.481,10.624 -14.422,14.418 m 51.791,16.696 c 0.761,13.661 3.284,25.926 7.588,36.804 4.3,10.874 9.925,20.168 16.885,27.89 6.953,7.711 15.046,13.591 24.283,17.641 9.232,4.042 19.158,6.073 29.787,6.073 12.643,0 23.775,-2.342 33.387,-7.022 9.611,-4.683 17.645,-11.068 24.095,-19.161 6.449,-8.099 11.316,-17.518 14.608,-28.267 3.281,-10.753 4.931,-22.072 4.931,-33.958 l -155.564,0 z m 143.992,64.128 c -6.961,9.611 -15.937,17.323 -26.94,23.143 -11.003,5.818 -24.094,8.731 -39.27,8.731 -10.879,0 -21.502,-2.281 -31.872,-6.834 -10.373,-4.549 -19.479,-11.189 -27.319,-19.919 -7.844,-8.725 -14.169,-19.415 -18.971,-32.058 -4.804,-12.653 -7.209,-27.072 -7.209,-43.257 0,-14.417 1.643,-27.882 4.936,-40.41 3.28,-12.516 8.344,-23.399 15.176,-32.629 6.828,-9.233 15.613,-16.381 26.367,-21.439 10.75,-5.054 23.715,-7.459 38.892,-7.207 22.257,0 40.98,6.255 56.157,18.779 15.177,12.52 24.15,30.161 26.936,52.927 l -7.589,0 c -3.288,-21.502 -11.701,-37.628 -25.229,-48.377 -13.534,-10.753 -30.539,-16.125 -51.029,-16.125 -13.916,0 -25.68,2.401 -35.29,7.21 -9.613,4.802 -17.452,11.383 -23.523,19.731 -6.071,8.348 -10.566,18.145 -13.473,29.405 -2.91,11.253 -4.496,23.459 -4.742,36.612 l 0,0.006 163.152,0 c 0.504,13.405 -0.825,26.308 -3.983,38.701 -3.166,12.391 -8.224,23.396 -15.177,33.01 m 214.564,-160.121 -0.755,0 -77.502,192.131 -5.882,-0.12 c -0.28,-0.003 -0.554,-0.013 -0.834,-0.016 l -1.937,-0.04 0.005,-0.016 c -1.082,-0.035 -2.146,-0.085 -3.2,-0.149 -0.057,-0.004 -0.116,-0.01 -0.176,-0.012 -2.969,-0.187 -5.832,-0.487 -8.576,-0.904 -0.228,-0.034 -0.461,-0.065 -0.689,-0.101 -0.635,-0.103 -1.258,-0.217 -1.882,-0.33 -0.515,-0.095 -1.03,-0.192 -1.54,-0.294 -0.514,-0.102 -1.022,-0.211 -1.532,-0.325 -0.648,-0.144 -1.287,-0.3 -1.921,-0.459 -0.385,-0.097 -0.776,-0.19 -1.156,-0.292 -1.025,-0.275 -2.03,-0.563 -3.02,-0.878 -8.724,-2.787 -16.253,-6.582 -22.574,-11.383 -6.324,-4.809 -11.383,-10.434 -15.177,-16.885 -3.795,-6.45 -6.579,-13.345 -8.344,-20.678 l -0.76,0 0,48.187 -7.589,0 0,-195.029 7.589,0 0,110.414 c 0,10.621 1.517,20.99 4.553,31.109 3.033,10.115 7.713,19.031 14.038,26.753 6.32,7.712 14.351,13.784 24.092,18.212 0.583,0.264 1.171,0.516 1.764,0.761 0.205,0.087 0.422,0.167 0.635,0.252 0.382,0.154 0.764,0.306 1.152,0.451 0.271,0.099 0.538,0.194 0.808,0.291 0.341,0.122 0.674,0.241 1.016,0.357 0.301,0.102 0.609,0.199 0.915,0.297 0.311,0.099 0.622,0.197 0.935,0.293 0.336,0.1 0.669,0.199 1.01,0.293 0.283,0.08 0.573,0.16 0.858,0.237 0.368,0.098 0.741,0.194 1.111,0.287 0.256,0.065 0.513,0.126 0.769,0.186 0.406,0.097 0.821,0.192 1.234,0.281 0.206,0.045 0.421,0.087 0.632,0.131 0.467,0.097 0.93,0.191 1.404,0.277 0.121,0.022 0.247,0.042 0.367,0.064 4.42,0.787 9.117,1.191 14.087,1.205 l 0.004,0 c 0.728,0.002 1.457,-0.005 2.192,-0.019 l 78.936,-192.128 9.489,0 75.468,199.72 -8.344,0 -71.673,-192.131 z m 1485.407,196.538 -26.559,-141.14 -0.76,0 -30.354,141.14 -83.846,0 0,69.886 -52.361,0 0,-69.884 -26.56,0 0,-35.654 26.56,0 0,-116.864 c 0,-10.377 0.626,-18.971 1.897,-25.806 1.26,-6.826 3.601,-12.331 7.018,-16.503 3.416,-4.17 8.35,-6.956 14.799,-8.346 6.451,-1.388 14.734,-2.088 24.853,-2.088 6.071,0 11.822,0.191 17.265,0.572 5.436,0.376 11.064,0.567 16.883,0.567 l 0,36.427 c -1.776,-0.257 -3.674,-0.448 -5.691,-0.572 -2.025,-0.131 -4.052,-0.189 -6.071,-0.189 -7.588,0 -12.582,1.706 -14.985,5.119 -2.404,3.418 -3.603,9.167 -3.603,17.265 l 0,110.414 39.226,0 47.28,-168.468 c -0.759,-8.349 -3.223,-15.049 -7.399,-20.11 -4.171,-5.058 -11.068,-7.588 -20.672,-7.588 -4.554,0 -9.11,0.381 -13.662,1.139 l 0,-39.082 21.25,0 c 12.135,0 22.193,0.888 30.158,2.657 7.97,1.767 14.801,5.5 20.492,11.192 5.691,5.691 10.625,13.789 14.801,24.281 4.17,10.5 8.537,24.223 13.083,41.169 l 49.318,190.466 -52.36,0 z m -2446.957,-29.155 c -10.366,0 -17.636,-3.601 -22.879,-11.332 -5.735,-8.462 -8.644,-21.121 -8.644,-37.624 0,-15.619 2.886,-27.529 8.578,-35.404 5.208,-7.208 12.714,-10.711 22.945,-10.711 9.997,0 17.896,3.641 24.147,11.131 6.513,7.796 9.813,19.929 9.813,36.066 0,16.397 -3.541,28.671 -10.523,36.48 -6.858,7.667 -14.525,11.394 -23.437,11.394 m 54.368,-107.75 c -6.583,-7.343 -14.132,-12.975 -22.439,-16.749 -8.618,-3.918 -18.223,-5.906 -28.543,-5.906 -13.421,0 -25.195,2.953 -35.184,8.806 0.011,-8.307 -0.47,-22.359 42.098,-25.034 12.218,-0.769 19.258,-1.205 32.322,-3.11 0,0 4.973,-0.986 7.523,-2.081 -4.209,-18.197 -10.609,-32.891 -27.643,-31.206 -6.513,0.58 -11.991,0.488 -13.559,0.488 -66.496,0 -80.454,33.023 -80.454,60.728 l 0,72.315 c 0,70.008 38.888,84.703 71.511,84.703 21.867,0 39.972,-7.776 53.809,-23.112 13.633,-15.109 20.545,-35.284 20.545,-59.966 0,-24.936 -6.724,-45.082 -19.986,-59.876 m -117.085,257.144 c -94.406,-27.155 -171.378,-330.191 -107.361,-400.674 64.017,-70.482 376.105,7.782 400.673,107.361 24.569,99.578 -198.907,320.468 -293.312,293.313"
             style="fill:#212121;fill-opacity:1;fill-rule:nonzero;stroke:none"
             id="path22"
             inkscape:connector-curvature="0" /></g></g></g></g></svg>