<?xml version="1.0" standalone="no"?><!DOCTYPE svg PUBLIC "-//W3C//DTD SVG 1.1//EN" "http://www.w3.org/Graphics/SVG/1.1/DTD/svg11.dtd"><svg width="100%" height="100%" viewBox="0 0 327 104" version="1.1" xmlns="http://www.w3.org/2000/svg" xmlns:xlink="http://www.w3.org/1999/xlink" xml:space="preserve" style="fill-rule:evenodd;clip-rule:evenodd;stroke-linejoin:round;stroke-miterlimit:1.41421;"><path d="M33.442,34.225c-0.293,-0.721 0.151,-1.691 0.151,-1.691c0.528,-0.165 1.515,-0.061 1.811,0.626c0.321,0.743 0,1.383 -0.853,1.895c0,0 -0.54,-0.191 -1.109,-0.83Z" style="fill:#4c575f;"/><path d="M58.738,77.399l-5.223,4.163l-0.028,-42.964l5.251,0l0,38.801Z" style="fill:#4c575f;"/><path d="M62.104,73.652l0.014,-35.054l4.26,0l0.042,26.746c-0.821,2.53 -2.163,5.288 -4.316,8.308Z" style="fill:#4c575f;"/><path d="M44.926,77.794l5.294,4.165l0,-43.361l-5.294,0l0,39.196Z" style="fill:#4c575f;"/><path d="M41.963,74.866l-0.031,-36.268l-4.699,0l0,28.548c0.178,1.925 3.622,6.807 4.73,7.72Z" style="fill:#4c575f;"/><path d="M51.605,87.469c-19.782,0 -35.872,-16.092 -35.872,-35.871c0,-19.779 16.09,-35.869 35.872,-35.869c19.778,0 35.869,16.09 35.869,35.869c0,19.779 -16.091,35.871 -35.869,35.871l0,1.269c20.478,0 37.138,-16.661 37.138,-37.14c0,-20.479 -16.66,-37.138 -37.138,-37.138c-20.482,0 -37.142,16.659 -37.142,37.138c0,20.479 16.66,37.14 37.142,37.14l0,-1.269Z" style="fill:#4c575f;fill-rule:nonzero;"/><path d="M51.605,101.555c-27.55,0 -49.962,-22.41 -49.962,-49.957c0,-27.546 22.412,-49.955 49.962,-49.955c27.547,0 49.958,22.409 49.958,49.955c0,27.547 -22.411,49.957 -49.958,49.957l0,1.643c28.453,0 51.601,-23.148 51.601,-51.6c0,-28.452 -23.148,-51.598 -51.601,-51.598c-28.456,0 -51.605,23.146 -51.605,51.598c0,28.452 23.149,51.6 51.605,51.6l0,-1.643Z" style="fill:#4c575f;fill-rule:nonzero;"/><path d="M9.064,66.225c1.127,1.1 1.698,1.86 2.314,3.307c0.552,1.29 0.669,2.121 0.745,3.523l2.554,-1.132c-0.944,-1.046 -1.473,-1.691 -2.044,-2.982c-0.632,-1.431 -0.861,-2.332 -0.962,-3.89l-2.607,1.174Z" style="fill:#4c575f;"/><path d="M8.9,71.877c1.088,-1.134 1.853,-1.711 3.306,-2.314c1.296,-0.54 2.121,-0.657 3.523,-0.744l-1.129,-2.554c-1.043,0.95 -1.7,1.464 -2.986,2.042c-1.423,0.642 -2.331,0.849 -3.889,0.963l1.175,2.607Z" style="fill:#4c575f;"/><path d="M94.036,66.225c-1.122,1.103 -1.7,1.86 -2.313,3.307c-0.553,1.293 -0.672,2.121 -0.745,3.523l-2.554,-1.132c0.933,-1.055 1.481,-1.689 2.042,-2.982c0.625,-1.434 0.864,-2.332 0.964,-3.89l2.606,1.174Z" style="fill:#4c575f;"/><path d="M94.201,71.877c-1.094,-1.131 -1.85,-1.714 -3.306,-2.314c-1.299,-0.535 -2.121,-0.662 -3.523,-0.744l1.129,-2.554c1.04,0.952 1.7,1.459 2.986,2.042c1.42,0.647 2.331,0.846 3.889,0.963l-1.175,2.607Z" style="fill:#4c575f;"/><path d="M31.469,87.361c0.671,-0.366 0.998,-0.034 1.166,-0.25c0.125,-0.159 -0.021,-0.227 -0.208,-0.372c-0.25,-0.196 -0.525,-0.353 -0.776,-0.546c-0.256,-0.202 -0.475,-0.432 -0.734,-0.634c-0.104,-0.082 -0.341,-0.313 -0.48,-0.136c-0.256,0.329 0.91,0.682 0.224,1.563c-0.116,0.148 -0.389,0.461 -1.145,0.879l-3.435,1.891c-0.081,0.045 -0.217,0.147 -0.271,0.107c-0.054,-0.042 0.004,-0.207 0.028,-0.294l1.198,-3.911c0.225,-0.744 0.452,-1.274 0.671,-1.555c0.308,-0.392 0.731,0.165 0.927,-0.088c0.125,-0.156 0.074,-0.185 -0.21,-0.406c-0.143,-0.108 -0.43,-0.274 -0.998,-0.717c-0.302,-0.236 -0.574,-0.511 -0.867,-0.739c-0.134,-0.102 -0.35,-0.392 -0.527,-0.17c-0.05,0.068 0.021,0.212 0.039,0.244c0.291,0.375 0.337,0.577 0.204,1.057l-2.042,7.168c-0.145,0.518 -0.132,0.68 -0.039,0.75c0.096,0.077 0.183,0.055 0.471,-0.11l6.804,-3.731Z" style="fill:#4c575f;"/><path d="M40.4,91.058c0.218,-0.876 0.889,-0.256 0.998,-0.694c0.034,-0.136 -0.017,-0.165 -0.248,-0.221c-0.173,-0.043 -0.319,-0.03 -1.246,-0.262c-0.417,-0.103 -1.04,-0.308 -1.475,-0.416c-0.231,-0.057 -0.372,0.003 -0.401,0.108c-0.099,0.404 1.214,0.399 0.97,1.377l-1.356,5.445c-0.351,1.404 -1.027,0.574 -1.161,1.106c-0.016,0.068 0.035,0.142 0.177,0.179c0.602,0.148 1.072,0.216 1.412,0.301c0.547,0.136 1.192,0.347 2.852,0.762c0.897,0.222 1.777,-0.56 2.002,-1.459c0.054,-0.218 -0.014,-0.273 -0.057,-0.284c-0.415,-0.102 -0.639,1.442 -3.349,0.768c-0.787,-0.197 -0.643,-0.6 -0.463,-1.314l1.345,-5.396Z" style="fill:#4c575f;"/><path d="M46.933,92.443c0.057,-0.819 0.102,-0.825 1.462,-0.731c2.17,0.15 1.197,1.476 1.722,1.51c0.26,0.019 0.232,-0.376 0.232,-0.529l0.036,-1.174c0.009,-0.109 -0.063,-0.231 -0.207,-0.242c-0.99,-0.069 -1.77,-0.077 -2.568,-0.131c-1.72,-0.122 -2.525,-0.224 -2.986,-0.259c-0.159,-0.009 -0.256,0.08 -0.262,0.185c-0.034,0.475 1.263,0.185 1.189,1.248l-0.387,5.539c-0.101,1.441 -0.909,0.745 -0.949,1.288c-0.006,0.071 0.06,0.136 0.205,0.145c0.619,0.042 1.094,0.031 1.442,0.054c0.562,0.04 1.233,0.134 2.942,0.253c0.922,0.065 1.653,-0.859 1.718,-1.783c0.014,-0.225 -0.063,-0.264 -0.106,-0.267c-0.429,-0.031 -0.378,1.529 -3.167,1.336c-0.807,-0.057 -0.734,-0.481 -0.682,-1.214l0.105,-1.516c0.048,-0.684 0.014,-0.83 0.531,-0.795l0.83,0.06c1.169,0.082 0.768,1.313 1.126,1.338c0.271,0.02 0.234,-0.412 0.234,-0.565l0.068,-2.113c0.012,-0.318 -0.114,-0.304 -0.193,-0.31c-0.225,-0.016 -0.336,1.072 -1.303,1.004l-0.708,-0.051c-0.483,-0.034 -0.478,-0.116 -0.44,-0.626l0.116,-1.654Z" style="fill:#4c575f;"/><path d="M52.944,98.137c0.105,1.203 -0.993,1.086 -0.95,1.558c0.017,0.203 0.236,0.123 0.361,0.111c0.301,-0.025 0.6,-0.099 0.962,-0.131c0.391,-0.033 0.775,-0.019 1.327,-0.067c0.145,-0.012 0.426,-0.026 0.412,-0.191c-0.048,-0.555 -1.416,0.372 -1.612,-1.896l-0.353,-4.018c-0.009,-0.105 0.006,-0.191 0.074,-0.196c0.055,-0.006 0.128,0.048 0.214,0.137l5.94,5.671c0.084,0.089 0.146,0.154 0.303,0.14c0.136,-0.012 0.128,-0.108 0.106,-0.367l-0.58,-6.628c-0.109,-1.242 0.87,-1.04 0.839,-1.396c-0.003,-0.034 -0.015,-0.153 -0.229,-0.136c-0.099,0.011 -0.488,0.091 -1.196,0.154c-0.774,0.068 -1.104,0.051 -1.283,0.065c-0.148,0.014 -0.17,0.134 -0.162,0.216c0.035,0.389 1.385,0.057 1.479,1.132l0.344,3.935c0.025,0.295 0.017,0.44 -0.051,0.446c-0.069,0.006 -0.217,-0.125 -0.375,-0.276l-4.968,-4.816c-0.222,-0.208 -0.094,-0.302 -0.455,-0.27c-0.594,0.051 -0.881,0.125 -1.174,0.15c-0.214,0.018 -0.418,-0.011 -0.632,0.009c-0.136,0.012 -0.185,0.111 -0.173,0.216c0.048,0.566 1.24,-0.313 1.436,1.959l0.396,4.489Z" style="fill:#4c575f;"/><path d="M66.881,89.05c-0.019,-0.057 -0.097,-0.045 -0.15,-0.028c-0.152,0.046 -0.049,0.424 -0.253,0.486c-0.322,0.1 -1.366,-0.341 -2.667,0.061c-2.716,0.829 -3.06,3.675 -2.477,5.58c0.273,0.896 1.646,3.651 4.802,2.684c2.298,-0.699 2.915,-2.764 2.774,-3.216c-0.019,-0.068 -0.132,-0.093 -0.187,-0.079c-0.281,0.088 -0.56,1.797 -2.229,2.306c-2.058,0.631 -3.607,-1.354 -4.097,-2.951c-0.463,-1.519 -0.077,-3.375 1.507,-3.859c1.251,-0.381 2.502,0.313 3.372,1.24c0.123,0.122 0.27,0.338 0.441,0.287c0.185,-0.057 0.062,-0.304 0.018,-0.415l-0.854,-2.096Z" style="fill:#4c575f;"/><path d="M70.128,88.34c-0.529,-0.995 0.418,-1.018 0.228,-1.373c-0.069,-0.126 -0.128,-0.12 -0.427,0.039c-0.566,0.302 -0.901,0.532 -1.26,0.726c-0.349,0.184 -0.759,0.346 -1.148,0.553c-0.088,0.049 -0.356,0.148 -0.259,0.327c0.193,0.367 1.163,-0.522 1.669,0.43l2.673,5.027c0.528,0.995 -0.333,1.103 -0.137,1.469c0.028,0.052 0.085,0.115 0.177,0.067c0.258,-0.137 0.662,-0.408 1.092,-0.635c0.776,-0.412 1.165,-0.566 1.534,-0.762c0.228,-0.122 0.297,-0.21 0.234,-0.327c-0.177,-0.335 -1.035,0.739 -1.721,-0.546l-2.655,-4.995Z" style="fill:#4c575f;"/><path d="M5.629,46.78c-0.673,-0.324 -0.574,-0.708 -0.847,-0.734c-0.202,-0.022 -0.178,0.114 -0.199,0.314c-0.025,0.267 -0.006,0.537 -0.031,0.801c-0.028,0.276 -0.103,0.536 -0.131,0.811c-0.011,0.113 -0.074,0.387 0.151,0.409c0.415,0.04 0.071,-0.961 1.186,-0.85c0.189,0.02 0.603,0.08 1.37,0.443l3.472,1.661c0.082,0.037 0.244,0.091 0.238,0.147c-0.006,0.058 -0.176,0.089 -0.264,0.109l-3.938,0.85c-0.748,0.165 -1.316,0.233 -1.675,0.198c-0.494,-0.05 -0.261,-0.602 -0.58,-0.633c-0.201,-0.02 -0.195,0.028 -0.228,0.331c-0.013,0.152 0.006,0.431 -0.053,1.039c-0.034,0.322 -0.113,0.64 -0.145,0.953c-0.014,0.142 -0.136,0.426 0.148,0.455c0.083,0.008 0.165,-0.108 0.178,-0.136c0.161,-0.376 0.302,-0.496 0.783,-0.612l7.133,-1.67c0.515,-0.121 0.643,-0.204 0.652,-0.299c0.011,-0.104 -0.054,-0.158 -0.353,-0.294l-6.867,-3.293Z" style="fill:#4c575f;"/><path d="M11.271,46.022c1.176,0.271 0.764,1.111 1.227,1.216c0.197,0.045 0.18,-0.152 0.205,-0.253c0.058,-0.25 0.069,-0.51 0.137,-0.807c0.074,-0.323 0.193,-0.626 0.299,-1.079c0.028,-0.121 0.091,-0.349 -0.069,-0.386c-0.545,-0.126 -0.031,1.238 -2.251,0.727l-3.93,-0.909c-0.103,-0.022 -0.179,-0.06 -0.168,-0.116c0.012,-0.046 0.083,-0.089 0.191,-0.131l7.034,-3.059c0.108,-0.044 0.188,-0.074 0.219,-0.203c0.026,-0.112 -0.068,-0.133 -0.321,-0.193l-6.482,-1.495c-1.215,-0.282 -0.757,-1.002 -1.104,-1.083c-0.034,-0.008 -0.15,-0.035 -0.19,0.142c-0.021,0.082 -0.048,0.418 -0.182,0.999c-0.149,0.638 -0.257,0.896 -0.29,1.044c-0.026,0.121 0.082,0.175 0.162,0.193c0.381,0.088 0.435,-1.088 1.486,-0.846l3.847,0.89c0.29,0.065 0.424,0.117 0.413,0.172c-0.015,0.056 -0.18,0.135 -0.367,0.218l-5.957,2.539c-0.256,0.116 -0.313,-0.013 -0.381,0.282c-0.11,0.491 -0.122,0.741 -0.176,0.981c-0.043,0.175 -0.125,0.331 -0.168,0.508c-0.025,0.111 0.057,0.179 0.162,0.202c0.555,0.128 0.043,-1.081 2.261,-0.569l4.393,1.016Z" style="fill:#4c575f;"/><path d="M8.214,36.056c-1.069,-0.349 -0.443,-0.893 -0.827,-1.018c-0.137,-0.045 -0.174,-0.006 -0.262,0.264c-0.168,0.515 -0.227,0.853 -0.333,1.179c-0.102,0.317 -0.261,0.652 -0.375,1.005c-0.028,0.081 -0.134,0.295 0.057,0.358c0.395,0.128 0.409,-0.995 1.438,-0.66l5.414,1.759c1.073,0.348 0.566,0.903 0.961,1.031c0.057,0.018 0.142,0.025 0.168,-0.056c0.076,-0.234 0.157,-0.637 0.284,-1.025c0.228,-0.703 0.381,-1.023 0.493,-1.356c0.065,-0.208 0.045,-0.304 -0.078,-0.344c-0.361,-0.118 -0.169,1.06 -1.557,0.611l-5.383,-1.748Z" style="fill:#4c575f;"/><path d="M10.884,29.312c-0.534,-0.518 -0.321,-0.851 -0.571,-0.961c-0.186,-0.083 -0.205,0.053 -0.287,0.236c-0.109,0.242 -0.174,0.504 -0.282,0.747c-0.111,0.252 -0.261,0.475 -0.376,0.727c-0.046,0.103 -0.19,0.34 0.018,0.432c0.378,0.169 0.366,-0.886 1.385,-0.431c0.173,0.077 0.546,0.261 1.156,0.846l2.765,2.654c0.064,0.06 0.201,0.162 0.175,0.214c-0.023,0.052 -0.193,0.028 -0.278,0.019l-3.992,-0.426c-0.757,-0.077 -1.317,-0.191 -1.644,-0.336c-0.455,-0.202 -0.059,-0.651 -0.352,-0.78c-0.185,-0.083 -0.194,-0.034 -0.316,0.243c-0.062,0.139 -0.131,0.409 -0.378,0.964c-0.13,0.296 -0.307,0.571 -0.432,0.856c-0.06,0.13 -0.264,0.361 -0.006,0.477c0.077,0.033 0.193,-0.051 0.214,-0.071c0.266,-0.307 0.44,-0.375 0.929,-0.335l7.267,0.649c0.524,0.047 0.672,0.007 0.711,-0.078c0.04,-0.097 -0.006,-0.168 -0.244,-0.389l-5.462,-5.257Z" style="fill:#4c575f;"/><path d="M12.88,26.851c-0.688,-0.446 -0.677,-0.485 -0.052,-1.448c0.998,-1.535 1.758,-0.159 2.002,-0.533c0.117,-0.183 -0.235,-0.356 -0.369,-0.432l-1.007,-0.608c-0.088,-0.057 -0.224,-0.067 -0.293,0.036c-0.455,0.7 -0.77,1.276 -1.137,1.84c-0.79,1.218 -1.203,1.766 -1.415,2.092c-0.072,0.112 -0.035,0.226 0.056,0.285c0.398,0.259 0.662,-0.847 1.558,-0.267l4.657,3.024c1.212,0.789 0.282,1.045 0.739,1.34c0.06,0.04 0.143,0.023 0.207,-0.079c0.286,-0.438 0.464,-0.798 0.624,-1.044c0.258,-0.398 0.608,-0.85 1.393,-2.06c0.424,-0.652 -0.086,-1.652 -0.864,-2.156c-0.188,-0.122 -0.253,-0.085 -0.274,-0.054c-0.199,0.303 1.178,1.037 -0.101,3.011c-0.373,0.572 -0.711,0.308 -1.328,-0.091l-1.274,-0.828c-0.578,-0.375 -0.717,-0.42 -0.478,-0.787l0.38,-0.589c0.539,-0.827 1.449,0.08 1.613,-0.173c0.126,-0.192 -0.264,-0.377 -0.398,-0.452l-1.808,-1.095c-0.273,-0.166 -0.31,-0.065 -0.347,-0.011c-0.102,0.159 0.796,0.779 0.353,1.463l-0.325,0.501c-0.224,0.341 -0.293,0.296 -0.722,0.019l-1.39,-0.904Z" style="fill:#4c575f;"/><path d="M24.698,22.289c0.22,0.187 0.274,0.266 0.5,0.168c0.522,-0.237 1.077,-0.329 1.52,-0.701c0.952,-0.8 0.944,-2.167 -0.057,-3.359c-0.966,-1.153 -1.774,-1.142 -2.912,-0.916c-1.424,0.282 -1.922,0.498 -2.433,-0.11c-0.512,-0.609 -0.472,-1.229 0.005,-1.631c1.251,-1.049 2.778,0.55 2.946,0.409c0.159,-0.135 0.091,-0.262 -0.091,-0.449l-1.105,-1.15c-0.189,-0.198 -0.28,-0.352 -0.39,-0.26c-0.095,0.078 -0.154,0.377 -0.247,0.456c-0.22,0.182 -0.822,0.086 -1.417,0.585c-0.85,0.713 -0.793,1.966 0.086,3.008c0.799,0.957 1.526,0.951 2.442,0.771c1.711,-0.338 2.265,-0.602 2.914,0.168c0.611,0.728 0.54,1.53 -0.025,2.005c-0.809,0.677 -1.951,0.23 -2.919,-0.449c-0.126,-0.094 -0.209,-0.163 -0.325,-0.065c-0.183,0.152 0.11,0.354 0.241,0.464l1.267,1.056Z" style="fill:#4c575f;"/><path d="M25.939,13.31c-0.646,-0.924 0.182,-0.981 -0.049,-1.312c-0.082,-0.117 -0.134,-0.11 -0.366,0.055c-0.444,0.31 -0.697,0.545 -0.977,0.74c-0.271,0.19 -0.602,0.364 -0.905,0.577c-0.069,0.049 -0.284,0.156 -0.168,0.321c0.235,0.34 0.924,-0.547 1.543,0.337l3.267,4.665c0.646,0.921 -0.09,1.06 0.148,1.401c0.034,0.048 0.097,0.105 0.168,0.057c0.202,-0.142 0.509,-0.415 0.842,-0.648c0.605,-0.425 0.921,-0.588 1.208,-0.789c0.179,-0.125 0.221,-0.213 0.148,-0.32c-0.219,-0.31 -0.776,0.745 -1.612,-0.449l-3.247,-4.635Z" style="fill:#4c575f;"/><path d="M58.934,6.129c0.094,-0.527 0.285,-0.734 0.706,-0.66c1.447,0.256 1.23,1.976 1.168,2.277c-0.063,0.303 -0.378,1.606 -1.51,1.407c-0.205,-0.035 -0.353,-0.133 -0.427,-0.146c-0.113,-0.02 -0.156,0.117 -0.17,0.198c-0.008,0.048 -0.014,0.348 0.902,0.509c1.111,0.196 2.137,-0.538 2.396,-2c0.302,-1.704 -0.757,-2.493 -1.956,-2.68c-0.666,-0.106 -1.336,-0.188 -1.467,-0.211c-0.708,-0.125 -1.214,-0.261 -1.28,-0.273c-0.225,-0.04 -0.29,0.106 -0.301,0.175c-0.077,0.434 0.981,0.125 0.762,1.364l-0.907,5.139c-0.256,1.46 -0.958,1.071 -1.018,1.41c-0.037,0.198 0.137,0.204 0.165,0.209c0.054,0.011 0.782,0.091 1.157,0.157c0.205,0.036 0.609,0.155 1.263,0.271c0.13,0.022 0.219,0.063 0.255,-0.135c0.071,-0.41 -0.949,-0.133 -0.693,-1.593l0.955,-5.418Z" style="fill:#4c575f;"/><path d="M67.336,11.567c-0.64,1.863 -1.661,3.193 -3.216,2.694c-1.615,-0.519 -1.376,-3.057 -0.81,-4.695c0.56,-1.626 1.541,-3.019 3.068,-2.531c1.165,0.376 1.814,2.054 0.958,4.532ZM66.813,6.646c-2.153,-0.717 -3.981,0.724 -4.828,3.18c-0.782,2.276 -0.094,4.207 1.709,4.829c2.863,0.984 4.356,-1.575 4.896,-3.145c0.818,-2.377 -0.02,-4.284 -1.777,-4.864Z" style="fill:#4c575f;"/><path d="M72.059,10.084c0.406,-0.803 0.807,-0.106 1.011,-0.508c0.066,-0.127 0.029,-0.158 -0.147,-0.249c-0.137,-0.07 -0.259,-0.079 -0.978,-0.445c-0.322,-0.164 -0.791,-0.456 -1.129,-0.628c-0.176,-0.09 -0.313,-0.053 -0.361,0.041c-0.187,0.371 0.912,0.571 0.455,1.469l-2.548,4.999c-0.657,1.291 -1.009,0.393 -1.256,0.879c-0.032,0.062 -0.009,0.142 0.102,0.197c0.463,0.238 0.842,0.377 1.103,0.509c0.424,0.215 0.91,0.516 2.195,1.172c0.691,0.354 1.632,-0.261 2.053,-1.083c0.102,-0.201 0.056,-0.264 0.025,-0.28c-0.321,-0.164 -0.909,1.28 -3.005,0.213c-0.608,-0.31 -0.381,-0.674 -0.048,-1.329l2.528,-4.957Z" style="fill:#4c575f;"/><path d="M77.182,13.288c0.631,-0.934 0.98,-0.182 1.209,-0.518c0.079,-0.116 0.054,-0.163 -0.185,-0.322c-0.447,-0.303 -0.757,-0.454 -1.042,-0.646c-0.272,-0.186 -0.553,-0.431 -0.86,-0.638c-0.071,-0.049 -0.248,-0.211 -0.362,-0.043c-0.23,0.344 0.845,0.668 0.239,1.563l-3.182,4.72c-0.631,0.933 -1.026,0.296 -1.256,0.641c-0.034,0.047 -0.066,0.127 0.005,0.175c0.205,0.139 0.572,0.327 0.907,0.555c0.615,0.415 0.879,0.651 1.172,0.847c0.179,0.123 0.279,0.13 0.35,0.023c0.213,-0.315 -0.973,-0.458 -0.156,-1.668l3.161,-4.689Z" style="fill:#4c575f;"/><path d="M76.826,19.922c-0.869,1.113 -1.361,0.004 -1.648,0.368c-0.159,0.204 -0.026,0.296 0.107,0.401c0.302,0.233 0.577,0.389 1.078,0.781c0.5,0.39 0.716,0.621 1.018,0.854c0.217,0.17 0.344,0.315 0.518,0.091c0.205,-0.262 -0.964,-0.74 -0.066,-1.889l3.301,-4.224c0.35,-0.449 0.464,-0.437 0.768,-0.197l0.637,0.496c0.889,0.634 -0.162,1.486 0.136,1.72c0.196,0.15 0.398,-0.278 0.473,-0.401l0.588,-0.924c0.065,-0.099 0.167,-0.23 0.056,-0.319c-0.696,-0.543 -1.225,-0.898 -2.316,-1.751c-1.092,-0.853 -1.565,-1.281 -2.261,-1.824c-0.111,-0.088 -0.214,0.044 -0.293,0.131l-1.086,1.14c-0.108,0.109 -0.312,0.28 -0.156,0.402c0.335,0.265 1.068,-1.136 1.913,-0.475l0.628,0.49c0.305,0.24 0.345,0.345 -0.005,0.793l-3.39,4.337Z" style="fill:#4c575f;"/><path d="M84.995,20.029c0.6,-0.558 0.634,-0.538 1.416,0.301c1.251,1.339 -0.27,1.744 0.034,2.07c0.148,0.16 0.404,-0.143 0.509,-0.253l0.833,-0.829c0.079,-0.073 0.119,-0.204 0.034,-0.293c-0.568,-0.61 -1.048,-1.056 -1.509,-1.549c-0.99,-1.062 -1.419,-1.594 -1.687,-1.878c-0.091,-0.097 -0.21,-0.088 -0.289,-0.015c-0.348,0.323 0.662,0.848 -0.12,1.576l-4.06,3.786c-1.058,0.987 -1.081,0.022 -1.478,0.394c-0.052,0.049 -0.057,0.131 0.028,0.221c0.356,0.383 0.659,0.641 0.862,0.856c0.324,0.346 0.676,0.796 1.66,1.851c0.532,0.568 1.624,0.315 2.3,-0.316c0.166,-0.154 0.145,-0.228 0.12,-0.255c-0.245,-0.263 -1.291,0.894 -2.895,-0.829c-0.466,-0.497 -0.131,-0.761 0.409,-1.263l1.11,-1.035c0.503,-0.469 0.583,-0.594 0.878,-0.275l0.481,0.514c0.671,0.72 -0.43,1.384 -0.223,1.606c0.157,0.166 0.43,-0.166 0.536,-0.277l1.501,-1.49c0.227,-0.224 0.135,-0.285 0.093,-0.334c-0.131,-0.138 -0.947,0.584 -1.504,-0.011l-0.409,-0.439c-0.279,-0.296 -0.217,-0.353 0.156,-0.702l1.214,-1.132Z" style="fill:#4c575f;"/><path d="M92.021,27.387c0.048,-0.032 0.02,-0.094 -0.006,-0.134c-0.073,-0.111 -0.403,0.101 -0.506,-0.048c-0.159,-0.236 0.034,-1.246 -0.608,-2.198c-1.336,-1.981 -4.058,-1.328 -5.709,-0.213c-0.777,0.525 -3.057,2.575 -1.502,4.881c1.131,1.675 3.178,1.507 3.571,1.243c0.059,-0.04 0.059,-0.145 0.034,-0.183c-0.139,-0.206 -1.788,0.129 -2.61,-1.091c-1.012,-1.502 0.509,-3.445 1.896,-4.38c1.318,-0.888 3.125,-1.18 3.905,-0.024c0.617,0.913 0.227,2.183 -0.453,3.213c-0.09,0.14 -0.258,0.335 -0.173,0.46c0.088,0.134 0.293,-0.05 0.386,-0.125l1.775,-1.401Z" style="fill:#4c575f;"/><path d="M87.27,32.069c-1.098,0.512 -1.288,-0.403 -1.718,-0.203c-0.182,0.085 -0.048,0.232 -0.005,0.328c0.107,0.231 0.258,0.444 0.387,0.718c0.141,0.302 0.236,0.614 0.431,1.035c0.052,0.113 0.143,0.331 0.291,0.262c0.505,-0.234 -0.737,-0.996 1.325,-1.958l3.656,-1.704c0.097,-0.046 0.18,-0.064 0.205,-0.012c0.02,0.043 -0.012,0.12 -0.068,0.221l-3.662,6.743c-0.057,0.101 -0.103,0.172 -0.046,0.294c0.048,0.103 0.133,0.063 0.37,-0.049l6.033,-2.811c1.126,-0.527 1.211,0.324 1.532,0.175c0.031,-0.017 0.14,-0.066 0.066,-0.229c-0.038,-0.077 -0.222,-0.359 -0.472,-0.9c-0.279,-0.593 -0.353,-0.863 -0.415,-1.001c-0.055,-0.113 -0.174,-0.087 -0.248,-0.053c-0.356,0.167 0.327,1.126 -0.651,1.581l-3.58,1.669c-0.267,0.125 -0.406,0.169 -0.428,0.117c-0.024,-0.052 0.056,-0.215 0.156,-0.397l3.127,-5.668c0.131,-0.25 0.256,-0.182 0.128,-0.456c-0.213,-0.456 -0.362,-0.66 -0.466,-0.883c-0.074,-0.163 -0.106,-0.339 -0.18,-0.502c-0.048,-0.104 -0.156,-0.107 -0.253,-0.061c-0.513,0.242 0.635,0.878 -1.429,1.839l-4.086,1.905Z" style="fill:#4c575f;"/><path d="M95.739,38.327c1.073,-0.348 0.885,0.461 1.269,0.336c0.137,-0.044 0.145,-0.096 0.057,-0.367c-0.168,-0.515 -0.319,-0.824 -0.424,-1.148c-0.102,-0.318 -0.17,-0.684 -0.287,-1.036c-0.026,-0.082 -0.066,-0.318 -0.256,-0.255c-0.396,0.128 0.25,1.046 -0.777,1.379l-5.413,1.759c-1.072,0.348 -0.989,-0.397 -1.384,-0.269c-0.057,0.019 -0.128,0.062 -0.103,0.144c0.077,0.234 0.248,0.608 0.372,0.995c0.231,0.704 0.294,1.052 0.402,1.387c0.068,0.207 0.139,0.274 0.264,0.234c0.359,-0.118 -0.486,-0.959 0.899,-1.41l5.381,-1.749Z" style="fill:#4c575f;"/><path d="M98.274,45.377c0.058,-0.01 0.058,-0.078 0.05,-0.123c-0.022,-0.131 -0.409,-0.074 -0.443,-0.251c-0.049,-0.281 0.537,-1.126 0.338,-2.257c-0.415,-2.354 -3.167,-2.861 -5.129,-2.515c-0.922,0.162 -3.839,1.11 -3.355,3.848c0.349,1.99 2.289,2.67 2.755,2.588c0.071,-0.013 0.114,-0.107 0.105,-0.154c-0.042,-0.243 -1.683,-0.609 -1.939,-2.057c-0.316,-1.784 1.866,-2.94 3.511,-3.231c1.567,-0.276 3.335,0.193 3.577,1.566c0.194,1.085 -0.679,2.086 -1.717,2.751c-0.142,0.092 -0.375,0.2 -0.347,0.351c0.025,0.158 0.29,0.074 0.404,0.043l2.19,-0.559Z" style="fill:#4c575f;"/><path d="M30.38,75.264c-0.304,0.23 -0.321,0.216 -0.683,-0.265c-0.58,-0.767 0.171,-0.847 0.032,-1.034c-0.069,-0.092 -0.2,0.039 -0.256,0.085l-0.424,0.347c-0.039,0.028 -0.062,0.09 -0.025,0.142c0.264,0.35 0.489,0.611 0.702,0.893c0.458,0.608 0.657,0.909 0.779,1.071c0.042,0.057 0.103,0.06 0.143,0.031c0.175,-0.133 -0.305,-0.477 0.093,-0.776l2.07,-1.558c0.537,-0.406 0.526,0.078 0.731,-0.076c0.026,-0.023 0.03,-0.063 -0.009,-0.114c-0.165,-0.219 -0.307,-0.373 -0.401,-0.495c-0.15,-0.199 -0.312,-0.451 -0.768,-1.058c-0.247,-0.324 -0.784,-0.287 -1.131,-0.028c-0.082,0.065 -0.075,0.102 -0.063,0.12c0.114,0.15 0.651,-0.342 1.394,0.645c0.215,0.287 0.046,0.389 -0.228,0.597l-0.565,0.426c-0.259,0.194 -0.299,0.248 -0.436,0.066l-0.222,-0.296c-0.312,-0.412 0.239,-0.654 0.143,-0.782c-0.071,-0.094 -0.211,0.048 -0.268,0.097l-0.765,0.62c-0.116,0.094 -0.073,0.13 -0.054,0.159c0.06,0.079 0.476,-0.213 0.734,0.128l0.188,0.25c0.131,0.171 0.099,0.194 -0.091,0.338l-0.62,0.467Z" style="fill:#4c575f;"/><path d="M31.329,71.861c0.365,-0.006 0.518,0.227 0.62,0.15c0.063,-0.048 0.006,-0.097 -0.059,-0.179c-0.094,-0.128 -0.208,-0.245 -0.308,-0.375c-0.085,-0.111 -0.15,-0.236 -0.298,-0.429c-0.057,-0.078 -0.094,-0.091 -0.131,-0.066c-0.153,0.119 0.236,0.387 0,0.563c-0.062,0.045 -0.21,0.085 -0.409,0.096l-0.725,0.034c-0.168,0.009 -0.265,0.018 -0.273,0.006c-0.011,-0.017 0.029,-0.108 0.076,-0.238l0.299,-0.791c0.048,-0.131 0.088,-0.216 0.179,-0.284c0.168,-0.128 0.273,0.137 0.404,0.037c0.071,-0.054 0.017,-0.106 -0.025,-0.162c-0.092,-0.123 -0.199,-0.247 -0.361,-0.444c-0.149,-0.188 -0.2,-0.301 -0.268,-0.392c-0.122,-0.162 -0.165,-0.199 -0.222,-0.156c-0.096,0.073 0.094,0.247 -0.125,0.81l-0.511,1.336c-0.057,0.148 -0.075,0.231 -0.143,0.278c-0.049,0.038 -0.179,0.029 -0.315,0.035l-1.03,0.031c-0.639,0.023 -0.753,-0.293 -0.855,-0.216c-0.049,0.037 -0.054,0.074 -0.003,0.142c0.144,0.196 0.253,0.301 0.344,0.421c0.083,0.111 0.154,0.239 0.293,0.426c0.013,0.015 0.05,0.086 0.13,0.026c0.109,-0.079 -0.173,-0.341 0.02,-0.489c0.08,-0.06 0.168,-0.083 0.443,-0.091l0.711,-0.023c0.069,-0.003 0.155,-0.017 0.177,0.012c0.02,0.028 -0.006,0.085 -0.025,0.131l-0.399,0.892c-0.031,0.066 -0.074,0.137 -0.11,0.165c-0.16,0.119 -0.314,-0.122 -0.421,-0.04c-0.023,0.017 -0.057,0.037 0.008,0.125c0.083,0.109 0.171,0.188 0.398,0.492c0.228,0.301 0.307,0.444 0.381,0.543c0.054,0.072 0.088,0.077 0.131,0.046c0.165,-0.125 -0.19,-0.188 0.187,-1.103l0.402,-0.97c0.042,-0.108 0.105,-0.273 0.144,-0.304c0.032,-0.023 0.152,-0.02 0.265,-0.023l1.404,-0.022Z" style="fill:#4c575f;"/><path d="M46.342,21.102c0.62,0 1.12,0.502 1.12,1.12c0,0.618 -0.5,1.12 -1.12,1.12c-0.617,0 -1.12,-0.502 -1.12,-1.12c0,-0.618 0.503,-1.12 1.12,-1.12Z" style="fill:#4c575f;"/><path d="M36.263,23.342c0.617,0 1.12,0.502 1.12,1.12c0,0.619 -0.503,1.121 -1.12,1.121c-0.62,0 -1.12,-0.502 -1.12,-1.121c0,-0.618 0.5,-1.12 1.12,-1.12Z" style="fill:#4c575f;"/><path d="M69.471,27.582c-0.271,0.643 -0.559,0.74 -1.622,0.553c-0.887,-0.156 -0.865,-1.321 -0.816,-1.814l-1.493,-0.434c-0.64,1.278 -1.399,1.348 -1.989,1.266c-1.072,-0.147 -1.127,-1.926 -1.064,-2.973l-1.535,-0.311c-0.744,2.105 -1.079,2.429 -2.015,2.601c-0.521,0.096 -0.919,-0.239 -1.111,-0.447c-0.326,-0.357 -0.522,-0.842 -0.55,-1.298c0.04,-0.227 0.065,-0.459 0.074,-0.695l-1.552,-0.24c-0.072,0.262 -0.107,0.537 -0.108,0.814c-0.135,0.614 -0.423,1.146 -0.788,1.416c-0.252,0.186 -0.515,0.235 -0.826,0.152c-0.745,-0.197 -1.735,-0.801 -1.735,-3.753l-1.582,0c0,0.091 0.003,0.177 0.005,0.265l-0.005,0c0,2.124 -0.52,3.167 -1.733,3.488c-0.31,0.082 -0.596,0.014 -0.873,-0.207c-0.383,-0.305 -0.674,-0.854 -0.779,-1.422c0.003,-0.231 -0.014,-0.462 -0.055,-0.685l-1.569,0.116c-0.007,0.22 0.007,0.442 0.037,0.663c-0.037,0.546 -0.271,1.116 -0.636,1.48c-0.299,0.3 -0.631,0.418 -0.986,0.353c-0.95,-0.174 -1.419,-0.604 -2.151,-2.668l-1.533,0.311c0.065,1.094 0.027,2.949 -0.968,3.084c-0.554,0.078 -1.217,-0.042 -1.952,-1.508l-1.493,0.434c0.101,1.004 -0.29,1.971 -0.855,2.112c-1.005,0.251 -1.005,0.251 -1.47,-0.553l-0.134,-0.23l-1.363,0.802l0.129,0.221c0.722,1.247 1.276,1.782 3.221,1.294c0.871,-0.217 1.458,-0.883 1.778,-1.708c0.68,0.589 1.467,0.826 2.355,0.703c0.782,-0.108 1.643,-0.562 2.074,-1.905c0.514,0.61 1.161,0.998 2.076,1.166c0.87,0.161 1.719,-0.12 2.39,-0.789c0.154,-0.155 0.294,-0.326 0.419,-0.51c0.146,0.177 0.306,0.338 0.479,0.476c0.668,0.531 1.471,0.708 2.263,0.498c1.05,-0.277 1.72,-0.871 2.149,-1.565c0.485,0.798 1.181,1.324 2.092,1.565c0.778,0.206 1.528,0.065 2.171,-0.409c0.199,-0.148 0.384,-0.328 0.55,-0.533c0.083,0.116 0.173,0.227 0.269,0.333c0.701,0.765 1.635,1.104 2.562,0.934c0.921,-0.169 1.532,-0.545 1.998,-1.109c0.497,1.334 1.449,1.713 2.115,1.804c0.697,0.096 1.567,0.027 2.369,-0.566c0.341,0.825 0.989,1.383 1.869,1.538c0.824,0.145 2.537,0.447 3.354,-1.498l-1.457,-0.612Z" style="fill:#4c575f;fill-rule:nonzero;"/><path d="M56.625,21.167c0.62,0 1.12,0.502 1.12,1.12c0,0.618 -0.5,1.12 -1.12,1.12c-0.619,0 -1.12,-0.502 -1.12,-1.12c0,-0.618 0.501,-1.12 1.12,-1.12Z" style="fill:#4c575f;"/><path d="M66.838,23.21c0.62,0 1.121,0.502 1.121,1.12c0,0.618 -0.501,1.12 -1.121,1.12c-0.619,0 -1.12,-0.502 -1.12,-1.12c0,-0.618 0.501,-1.12 1.12,-1.12Z" style="fill:#4c575f;"/><path d="M36.285,33.121l1.189,-1.142l1.462,0.551l-1.124,1.135l-1.527,-0.544Z" style="fill:#4c575f;"/><path d="M33.655,32.224c6.766,-2.161 10.796,-2.784 17.968,-2.777c7.239,0.006 11.281,0.628 18.02,2.777c0,0 0.558,0.147 0.77,-0.518c0.212,-0.665 -0.317,-0.906 -0.317,-0.906c-6.826,-2.176 -11.142,-2.841 -18.471,-2.847c-7.264,-0.007 -11.569,0.658 -18.425,2.848c0,0 -0.54,0.231 -0.328,0.895c0.212,0.665 0.783,0.528 0.783,0.528Z" style="fill:#4c575f;fill-rule:nonzero;"/><path d="M35.097,36.594c0.614,-0.129 1.243,-0.274 1.908,-0.426c3.353,-0.77 7.524,-1.728 14.546,-1.734c5.811,-0.005 9.754,0.788 14.746,1.792l1.847,0.369c0,0 0.566,0.084 0.7,-0.59c0.134,-0.674 -0.41,-0.875 -0.41,-0.875l-1.843,-0.369c-5.073,-1.02 -9.08,-1.826 -15.042,-1.82c-7.189,0.005 -11.453,0.984 -14.879,1.771c-0.657,0.151 -1.279,0.294 -1.88,0.42c0,0 -0.545,0.208 -0.406,0.873c0.14,0.665 0.713,0.589 0.713,0.589Z" style="fill:#4c575f;fill-rule:nonzero;"/><path d="M45.409,31.391l1.328,-0.964l1.478,0.778l-1.358,0.949l-1.448,-0.763Z" style="fill:#4c575f;"/><path d="M69.658,34.157c0.293,-0.72 -0.15,-1.69 -0.15,-1.69c-0.529,-0.164 -1.559,-0.076 -1.813,0.628c-0.277,0.762 0,1.383 0.855,1.893c0,0 0.54,-0.189 1.108,-0.831Z" style="fill:#4c575f;"/><path d="M66.881,33.121l-1.188,-1.142l-1.462,0.551l1.123,1.135l1.527,-0.544Z" style="fill:#4c575f;"/><path d="M57.692,31.391l-1.329,-0.964l-1.48,0.778l1.361,0.949l1.448,-0.763Z" style="fill:#4c575f;"/><path d="M63.238,32.22c0.125,-0.79 -0.75,-1.376 -1.936,-1.564c-1.185,-0.187 -2.234,0.094 -2.359,0.885c-0.125,0.79 0.713,1.364 1.899,1.554c1.186,0.187 2.271,-0.085 2.396,-0.875Z" style="fill:#4c575f;"/><path d="M77.989,36.148c0.225,-0.135 0.367,-0.128 0.481,0.062c0.395,0.659 -0.313,1.135 -0.446,1.209c-0.134,0.074 -0.723,0.377 -1.03,-0.137c-0.056,-0.093 -0.068,-0.183 -0.091,-0.217c-0.028,-0.051 -0.093,-0.023 -0.13,-0.003c-0.018,0.013 -0.131,0.108 0.119,0.525c0.302,0.504 0.919,0.669 1.547,0.294c0.728,-0.441 0.665,-1.116 0.327,-1.652c-0.185,-0.298 -0.381,-0.59 -0.415,-0.65c-0.197,-0.322 -0.316,-0.567 -0.333,-0.597c-0.06,-0.1 -0.137,-0.078 -0.164,-0.061c-0.189,0.111 0.283,0.43 -0.248,0.748l-2.204,1.323c-0.625,0.377 -0.719,-0.029 -0.865,0.059c-0.085,0.051 -0.028,0.121 -0.019,0.133c0.014,0.026 0.23,0.34 0.333,0.51c0.056,0.093 0.147,0.292 0.324,0.588c0.036,0.059 0.051,0.108 0.137,0.057c0.175,-0.105 -0.271,-0.418 0.355,-0.795l2.322,-1.396Z" style="fill:#4c575f;"/><path d="M82.681,48.524c0.094,-0.015 0.222,-0.032 0.21,-0.106c-0.011,-0.078 -0.173,-0.065 -0.188,-0.174c-0.019,-0.13 0.299,-0.595 0.202,-1.276c-0.173,-1.234 -1.521,-1.558 -2.493,-1.421c-0.458,0.064 -1.905,0.491 -1.706,1.927c0.076,0.533 0.418,1.039 0.784,1.462c0.035,0.039 0.067,0.041 0.157,0.028c0.083,-0.011 0.242,-0.048 0.478,-0.082c0.741,-0.104 0.478,0.278 0.725,0.243c0.056,-0.009 0.077,-0.042 0.074,-0.066c-0.026,-0.176 -0.071,-0.344 -0.097,-0.525c-0.034,-0.23 -0.043,-0.459 -0.074,-0.689c-0.012,-0.084 0.012,-0.246 -0.157,-0.223c-0.219,0.031 0.257,0.558 -0.645,0.685c-0.336,0.047 -0.824,0.101 -0.947,-0.78c-0.113,-0.794 0.894,-1.284 1.684,-1.395c1.465,-0.206 1.908,0.39 1.973,0.846c0.179,1.286 -1.081,1.466 -1.067,1.572c0.015,0.093 0.046,0.118 0.123,0.108l0.964,-0.134Z" style="fill:#4c575f;"/><path d="M82.214,54.039c0.401,0.041 0.404,0.063 0.341,0.657c-0.099,0.95 -0.738,0.495 -0.762,0.725c-0.011,0.113 0.183,0.107 0.26,0.111l0.576,0.042c0.052,0.006 0.114,-0.023 0.12,-0.088c0.046,-0.432 0.057,-0.773 0.097,-1.123c0.077,-0.753 0.137,-1.103 0.159,-1.305c0.006,-0.07 -0.034,-0.114 -0.089,-0.119c-0.229,-0.025 -0.104,0.551 -0.628,0.496l-2.718,-0.285c-0.708,-0.075 -0.355,-0.416 -0.623,-0.445c-0.034,-0.003 -0.065,0.023 -0.074,0.087c-0.028,0.272 -0.025,0.48 -0.042,0.633c-0.025,0.244 -0.08,0.537 -0.159,1.285c-0.04,0.404 0.403,0.745 0.858,0.791c0.109,0.011 0.131,-0.02 0.134,-0.04c0.02,-0.188 -0.751,-0.2 -0.623,-1.418c0.04,-0.353 0.245,-0.312 0.606,-0.274l0.742,0.077c0.339,0.037 0.41,0.024 0.387,0.25l-0.039,0.364c-0.052,0.512 -0.655,0.31 -0.672,0.466c-0.011,0.119 0.199,0.111 0.276,0.114l1.038,0.074c0.159,0.011 0.152,-0.045 0.156,-0.08c0.008,-0.096 -0.523,-0.168 -0.48,-0.591l0.034,-0.31c0.023,-0.21 0.063,-0.206 0.313,-0.179l0.812,0.085Z" style="fill:#4c575f;"/><path d="M78.908,55.742c-0.142,-0.003 -0.188,-0.017 -0.245,0.099c-0.131,0.265 -0.315,0.487 -0.372,0.782c-0.125,0.638 0.298,1.18 1.052,1.328c0.727,0.142 1.034,-0.131 1.404,-0.597c0.467,-0.585 0.592,-0.838 0.979,-0.762c0.384,0.074 0.556,0.336 0.494,0.654c-0.162,0.836 -1.242,0.699 -1.263,0.813c-0.022,0.106 0.047,0.134 0.174,0.148l0.776,0.097c0.136,0.017 0.219,0.048 0.234,-0.026c0.012,-0.062 -0.057,-0.202 -0.046,-0.264c0.028,-0.148 0.293,-0.307 0.37,-0.705c0.11,-0.569 -0.296,-1.049 -0.956,-1.177c-0.603,-0.117 -0.881,0.125 -1.18,0.5c-0.559,0.703 -0.693,0.995 -1.179,0.898c-0.458,-0.087 -0.677,-0.432 -0.603,-0.813c0.102,-0.537 0.682,-0.736 1.265,-0.784c0.077,-0.006 0.131,-0.006 0.145,-0.083c0.026,-0.122 -0.151,-0.105 -0.233,-0.105l-0.816,-0.003Z" style="fill:#4c575f;"/><path d="M78.367,58.241c-0.141,-0.022 -0.184,-0.04 -0.255,0.066c-0.163,0.25 -0.373,0.446 -0.466,0.733c-0.2,0.617 0.153,1.208 0.882,1.447c0.704,0.228 1.045,-0.005 1.468,-0.423c0.532,-0.523 0.689,-0.759 1.062,-0.637c0.372,0.119 0.514,0.401 0.415,0.711c-0.265,0.81 -1.32,0.543 -1.357,0.651c-0.032,0.105 0.029,0.139 0.154,0.171l0.761,0.19c0.131,0.031 0.211,0.071 0.234,0.003c0.019,-0.063 -0.031,-0.208 -0.012,-0.27c0.046,-0.14 0.327,-0.268 0.452,-0.654c0.18,-0.549 -0.164,-1.077 -0.804,-1.285c-0.583,-0.191 -0.89,0.017 -1.231,0.355c-0.642,0.626 -0.81,0.898 -1.283,0.745c-0.443,-0.142 -0.619,-0.512 -0.5,-0.879c0.171,-0.52 0.77,-0.648 1.353,-0.625c0.078,0.003 0.131,0.011 0.155,-0.065c0.039,-0.117 -0.137,-0.123 -0.22,-0.134l-0.808,-0.1Z" style="fill:#4c575f;"/><path d="M80.19,62.444c0.52,0.187 0.196,0.466 0.384,0.534c0.066,0.023 0.085,0.006 0.136,-0.137c0.094,-0.264 0.134,-0.437 0.196,-0.605c0.057,-0.162 0.146,-0.335 0.213,-0.517c0.015,-0.043 0.075,-0.151 -0.019,-0.185c-0.194,-0.071 -0.231,0.509 -0.731,0.327l-2.632,-0.958c-0.524,-0.191 -0.259,-0.472 -0.45,-0.543c-0.028,-0.009 -0.071,-0.015 -0.086,0.028c-0.042,0.119 -0.093,0.327 -0.167,0.529c-0.131,0.361 -0.215,0.526 -0.279,0.696c-0.04,0.108 -0.03,0.16 0.029,0.18c0.176,0.065 0.114,-0.549 0.787,-0.302l2.619,0.953Z" style="fill:#4c575f;"/><path d="M79.82,64.661c-0.205,0.603 -1.048,0.939 -2.262,0.498c-0.91,-0.333 -1.553,-0.862 -1.278,-1.667c0.289,-0.836 1.541,-0.713 2.341,-0.42c0.796,0.29 1.47,0.799 1.199,1.589ZM78.519,62.387c-1.115,-0.404 -2.085,-0.048 -2.426,0.887c-0.537,1.481 0.702,2.254 1.47,2.533c1.166,0.424 2.124,-0.011 2.445,-0.921c0.393,-1.114 -0.29,-2.062 -1.489,-2.499Z" style="fill:#4c575f;"/><path d="M79.324,68.151l-5.245,-3.184c5.026,-11.261 4.617,-20.371 -1.246,-27.826l5.939,-3.8c3.375,4.893 5.322,10.938 5.481,17.073c0.167,6.397 -1.539,12.52 -4.929,17.737ZM75.876,68.613c-0.275,0.454 -0.688,1.05 -0.96,1.435l-2.765,-1.69l-0.313,-0.191l-0.009,-0.016l-0.009,0.004l-0.007,-0.004l-0.006,0.012l-1.891,1.045c0.505,-0.764 0.934,-1.449 1.412,-2.485c0.617,-1.332 0.959,-2.247 1.292,-3.372l0.478,1.891l0.046,-0.011l-0.016,0.033l0.283,0.172l3.115,1.889c-0.118,0.259 -0.407,0.888 -0.65,1.288ZM76.231,71.726c-0.44,0.924 -1.883,3.362 -3.922,3.973c-1.395,0.418 -1.485,0.404 -2.587,0.234l-0.737,-0.109c-0.188,-0.07 -0.295,-0.099 -0.396,-0.127c-0.168,-0.045 -0.357,-0.096 -1.072,-0.382c-0.087,-0.036 -0.092,-0.072 -0.096,-0.101c-0.029,-0.219 0.233,-0.677 0.708,-1.033l0.018,-0.014c0.001,-0.001 0.017,-0.016 0.017,-0.016l0.461,-0.442c0.587,-0.558 0.785,-0.747 1.58,-1.734c0.703,-0.874 1.2,-1.525 1.891,-2.776l4.135,2.527ZM69.736,70.161l1.39,-0.768c-0.31,0.522 -0.591,0.931 -0.889,1.329l-0.501,-0.561ZM74.056,63.123c-0.146,0.355 -0.296,0.712 -0.452,1.071l-0.32,-1.264l0.772,0.193ZM73.02,46.682l-1.054,-4l1.698,2.112l0.129,0.161l0.205,-0.024l1.973,-0.233c0.062,0.213 0.12,0.429 0.176,0.644l-3.127,1.34ZM73.023,38.641c1.183,1.688 2.089,3.464 2.717,5.332l-1.494,0.177l-1.223,-5.509ZM72.746,40.843l0.497,2.235l-1.413,-1.758l0.916,-0.477ZM85,50.395c-0.167,-6.405 -2.233,-12.718 -5.818,-17.78l-0.306,0.216l-0.2,-0.314l-6.592,4.216l-0.351,0.226l0.208,0.256l0.638,2.874l-1.498,0.778l-0.301,0.158l-0.021,0.004l0.001,0.005l-0.083,0.043l0.141,0.176l1.59,6.037l0.111,0.419l0.397,-0.171l3.405,-1.458c1.058,4.827 0.394,10.245 -1.987,16.343l-1.473,-0.37l-0.606,-0.152l0.006,0.027l-0.018,-0.004c-0.466,1.745 -0.791,2.754 -1.592,4.485c-0.53,1.145 -0.978,1.817 -1.597,2.747l-0.507,0.766l0.035,0.022l-0.028,0.017l0.312,0.349l0.906,1.011c-0.048,0.061 -0.098,0.123 -0.149,0.186c-0.763,0.948 -0.937,1.113 -1.513,1.661l-0.457,0.438c-0.661,0.507 -1.043,1.174 -0.973,1.706c0.043,0.321 0.242,0.569 0.559,0.696c0.755,0.303 0.967,0.36 1.155,0.41c0.104,0.028 0.186,0.051 0.368,0.119l0.038,0.014c0.003,0.001 0.042,0.007 0.042,0.007l0.766,0.113c1.205,0.186 1.416,0.192 2.916,-0.256c2.828,-0.849 4.503,-4.529 4.546,-4.775l-0.369,-0.064l0.196,-0.319l-1.341,-0.819c0.276,-0.392 0.679,-0.976 0.959,-1.437c0.242,-0.4 0.513,-0.978 0.653,-1.285l2.08,1.263l0.307,0.185l0.198,-0.298c3.607,-5.41 5.421,-11.797 5.247,-18.471ZM34.094,76.191c-0.542,0.449 -1.01,0.838 -1.774,1.093c-2.49,0.831 -5.424,-4.131 -6.529,-6l-0.03,-0.051l4.634,-3.015c0.716,1.281 1.681,2.734 2.481,3.724c0.952,1.182 1.125,1.421 1.684,2.331c0.282,0.462 0.371,0.726 0.518,1.166l0,0.001c-0.375,0.248 -0.685,0.502 -0.984,0.751ZM26.576,67.325l3.114,-1.889l0.283,-0.172l-0.016,-0.033l0.046,0.011l0.478,-1.89c0.332,1.124 0.674,2.039 1.292,3.371c0.374,0.814 0.719,1.408 1.095,1.997l-2.128,-1.471l-0.013,0.019l-0.062,-0.116l-0.341,0.221l-2.733,1.779c-0.125,-0.169 -0.267,-0.369 -0.362,-0.533c-0.241,-0.406 -0.534,-1.034 -0.653,-1.294ZM23.777,68.151c-3.39,-5.217 -5.096,-11.34 -4.93,-17.737c0.16,-6.135 2.106,-12.18 5.482,-17.073l5.939,3.8c-5.865,7.455 -6.272,16.565 -1.246,27.826l-5.245,3.184ZM31.27,41.32l-1.412,1.758l0.496,-2.233l0.916,0.475ZM27.361,43.973c0.628,-1.867 1.534,-3.644 2.717,-5.331l-1.223,5.508l-1.494,-0.177ZM30.08,46.682l-3.126,-1.34c0.056,-0.215 0.114,-0.431 0.177,-0.644l1.971,0.233l0.206,0.024l0.129,-0.161l1.694,-2.108l-1.051,3.996ZM29.817,62.929l-0.32,1.265c-0.156,-0.36 -0.307,-0.717 -0.452,-1.072l0.772,-0.193ZM32.822,70.636c-0.425,-0.589 -0.869,-1.26 -1.27,-1.918l1.845,1.275l-0.575,0.643ZM35.786,75.201c-0.153,-0.456 -0.262,-0.785 -0.59,-1.318c-0.575,-0.937 -0.769,-1.207 -1.739,-2.41c-0.058,-0.072 -0.118,-0.149 -0.179,-0.226l0.958,-1.071l0.097,-0.11l0.221,-0.143l-0.039,-0.06l0.002,-0.002l-0.007,-0.005l-0.485,-0.735c-0.589,-0.884 -1.055,-1.582 -1.575,-2.711c-0.802,-1.732 -1.127,-2.741 -1.592,-4.486l-0.018,0.004l0.007,-0.026l-0.607,0.151l-1.473,0.37c-2.38,-6.098 -3.045,-11.516 -1.988,-16.343l3.406,1.458l0.397,0.171l0.111,-0.419l1.586,-6.033l0.145,-0.18l-0.086,-0.044l0.001,-0.004l-0.016,-0.003l-0.304,-0.159l-1.497,-0.777l0.638,-2.875l0.208,-0.256l-0.352,-0.225l-6.59,-4.217l-0.202,0.314l-0.304,-0.216c-3.586,5.062 -5.652,11.375 -5.819,17.78c-0.174,6.674 1.64,13.061 5.246,18.471l0.2,0.298l0.306,-0.185l2.08,-1.264c0.14,0.305 0.414,0.881 0.651,1.282c0.104,0.178 0.248,0.385 0.379,0.563l-1.91,1.242l0.203,0.313l-0.321,0.193l0.213,0.356c1.3,2.199 4.346,7.351 7.409,6.328c0.896,-0.299 1.465,-0.771 2.013,-1.227c0.344,-0.285 0.699,-0.58 1.148,-0.848l0.259,-0.155c-0.001,-0.002 -0.098,-0.288 -0.098,-0.288l-0.093,-0.273Z" style="fill:#4c575f;fill-rule:nonzero;"/><path d="M53.821,31.164c0.015,-0.801 -0.931,-1.26 -2.131,-1.281c-1.203,-0.02 -2.203,0.403 -2.217,1.205c-0.015,0.8 0.895,1.253 2.1,1.274c1.2,0.02 2.238,-0.398 2.248,-1.198Z" style="fill:#4c575f;"/><path d="M39.797,32.22c-0.125,-0.79 0.747,-1.376 1.933,-1.564c1.188,-0.187 2.238,0.094 2.363,0.885c0.125,0.79 -0.714,1.364 -1.902,1.554c-1.186,0.187 -2.269,-0.085 -2.394,-0.875Z" style="fill:#4c575f;"/><path d="M25.931,62.788c0.594,-0.29 0.599,0.332 0.796,0.239c0.107,-0.055 0.065,-0.128 0.025,-0.208c-0.086,-0.179 -0.176,-0.318 -0.324,-0.617c-0.149,-0.301 -0.199,-0.458 -0.284,-0.637c-0.066,-0.131 -0.094,-0.227 -0.213,-0.167c-0.14,0.067 0.284,0.568 -0.328,0.867l-2.248,1.097c-0.241,0.117 -0.285,0.082 -0.376,-0.099l-0.185,-0.381c-0.272,-0.507 0.35,-0.632 0.264,-0.811c-0.056,-0.117 -0.227,0.029 -0.284,0.066l-0.432,0.272c-0.048,0.029 -0.116,0.063 -0.085,0.131c0.204,0.415 0.369,0.705 0.688,1.36c0.319,0.653 0.445,0.963 0.648,1.381c0.034,0.065 0.102,0.032 0.156,0.012l0.692,-0.248c0.068,-0.022 0.19,-0.048 0.143,-0.144c-0.097,-0.2 -0.683,0.25 -0.931,-0.256l-0.182,-0.376c-0.092,-0.182 -0.086,-0.239 0.153,-0.356l2.307,-1.125Z" style="fill:#4c575f;"/><path d="M22.027,60.129c-0.367,0.103 -0.378,0.086 -0.546,-0.494c-0.265,-0.922 0.466,-0.729 0.4,-0.953c-0.031,-0.111 -0.198,-0.037 -0.267,-0.011l-0.52,0.17c-0.049,0.015 -0.091,0.063 -0.074,0.125c0.12,0.421 0.236,0.745 0.333,1.084c0.211,0.733 0.287,1.086 0.343,1.282c0.021,0.066 0.075,0.094 0.124,0.079c0.212,-0.062 -0.115,-0.554 0.366,-0.69l2.486,-0.714c0.651,-0.188 0.468,0.259 0.715,0.19c0.031,-0.011 0.048,-0.045 0.031,-0.108c-0.076,-0.264 -0.156,-0.46 -0.196,-0.608c-0.07,-0.239 -0.13,-0.532 -0.341,-1.259c-0.112,-0.393 -0.629,-0.552 -1.045,-0.433c-0.1,0.029 -0.106,0.069 -0.1,0.088c0.053,0.182 0.73,-0.085 1.07,1.101c0.097,0.344 -0.099,0.381 -0.429,0.474l-0.679,0.197c-0.309,0.087 -0.37,0.125 -0.433,-0.094l-0.101,-0.356c-0.142,-0.497 0.46,-0.525 0.417,-0.679c-0.034,-0.114 -0.217,-0.029 -0.284,-0.006l-0.937,0.307c-0.143,0.046 -0.118,0.094 -0.106,0.128c0.025,0.094 0.52,-0.031 0.637,0.381l0.088,0.302c0.06,0.208 0.02,0.216 -0.207,0.281l-0.745,0.216Z" style="fill:#4c575f;"/><path d="M21.927,57.474c0.623,-0.1 1.029,-0.569 0.941,-1.129c-0.08,-0.506 -0.577,-0.85 -0.714,-0.83c-0.059,0.009 -0.062,0.04 -0.059,0.059c0.015,0.08 0.341,0.274 0.387,0.563c0.073,0.464 -0.476,0.819 -1.001,0.901c-0.339,0.055 -0.745,0.032 -0.805,-0.346c-0.043,-0.265 0.131,-0.378 0.384,-0.481c0.037,-0.014 0.08,-0.031 0.071,-0.074c-0.015,-0.085 -0.293,-0.329 -0.39,-0.313c-0.318,0.052 -0.338,0.518 -0.312,0.686c0.104,0.662 0.765,1.077 1.498,0.964Z" style="fill:#4c575f;"/><path d="M20.736,51.149c-0.543,0 -0.307,-0.36 -0.518,-0.36c-0.048,0 -0.065,0.02 -0.065,0.105c0,0.215 0.023,0.398 0.023,0.659c0,0.308 -0.023,0.437 -0.023,0.642c0,0.07 -0.011,0.116 0.088,0.116c0.162,0 -0.037,-0.549 0.572,-0.549l0.778,0c0.122,0 0.251,0.029 0.251,0.173l0,1.482c0,0.103 -0.071,0.123 -0.222,0.123l-0.879,0c-0.495,0 -0.332,-0.384 -0.505,-0.384c-0.055,0 -0.083,0.044 -0.083,0.116c0,0.145 0.023,0.343 0.023,0.642c0,0.259 -0.023,0.408 -0.023,0.557c0,0.094 0.005,0.245 0.088,0.245c0.21,0 -0.031,-0.563 0.572,-0.563l2.467,0c0.685,0 0.487,0.423 0.707,0.423c0.076,0 0.083,-0.05 0.083,-0.111c0,-0.247 -0.019,-0.457 -0.019,-0.666c0,-0.358 0.019,-0.523 0.019,-0.727c0,-0.159 -0.042,-0.15 -0.076,-0.15c-0.199,0 0,0.618 -0.686,0.618l-0.869,0c-0.242,0 -0.298,-0.015 -0.298,-0.244l0,-1.33c0,-0.219 0.059,-0.204 0.293,-0.204l0.997,0c0.534,0 0.387,0.363 0.58,0.363c0.04,0 0.059,-0.031 0.059,-0.099c0,-0.254 -0.019,-0.449 -0.019,-0.628c0,-0.205 0.019,-0.498 0.019,-0.663c0,-0.065 0.005,-0.105 -0.066,-0.105c-0.215,0 -0.01,0.519 -0.712,0.519l-2.556,0Z" style="fill:#4c575f;"/><path d="M23.379,49.682c0.564,0.056 0.416,0.524 0.638,0.546c0.094,0.009 0.074,-0.093 0.079,-0.147c0.015,-0.135 0.005,-0.271 0.023,-0.43c0.017,-0.174 0.057,-0.34 0.079,-0.584c0.006,-0.065 0.026,-0.188 -0.05,-0.197c-0.262,-0.025 0.05,0.648 -1.01,0.541l-1.876,-0.187c-0.052,-0.004 -0.088,-0.019 -0.085,-0.05c0.002,-0.024 0.033,-0.051 0.079,-0.081l3.113,-2.103c0.045,-0.03 0.081,-0.05 0.088,-0.122c0.006,-0.059 -0.037,-0.062 -0.16,-0.075l-3.095,-0.311c-0.58,-0.057 -0.407,-0.466 -0.571,-0.483c-0.018,-0.002 -0.071,-0.008 -0.083,0.088c-0.003,0.044 0,0.22 -0.031,0.533c-0.034,0.342 -0.072,0.485 -0.077,0.564c-0.008,0.066 0.046,0.085 0.086,0.088c0.181,0.02 0.141,-0.597 0.645,-0.545l1.839,0.183c0.137,0.013 0.201,0.03 0.199,0.061c-0.003,0.028 -0.073,0.082 -0.159,0.139l-2.633,1.753c-0.114,0.079 -0.147,0.016 -0.165,0.175c-0.025,0.263 -0.016,0.395 -0.028,0.523c-0.011,0.095 -0.04,0.182 -0.052,0.276c-0.005,0.06 0.038,0.089 0.086,0.094c0.265,0.028 -0.037,-0.567 1.023,-0.46l2.098,0.211Z" style="fill:#4c575f;"/><path d="M21.577,44.011c-0.514,-0.111 -0.241,-0.435 -0.426,-0.473c-0.066,-0.013 -0.082,0.008 -0.114,0.155c-0.056,0.277 -0.074,0.458 -0.111,0.632c-0.037,0.17 -0.1,0.357 -0.139,0.546c-0.009,0.044 -0.051,0.164 0.042,0.182c0.188,0.041 0.155,-0.541 0.646,-0.438l2.598,0.553c0.515,0.109 0.302,0.43 0.49,0.469c0.028,0.006 0.068,0.006 0.077,-0.039c0.025,-0.125 0.048,-0.34 0.093,-0.549c0.083,-0.381 0.142,-0.558 0.179,-0.737c0.026,-0.112 0.012,-0.16 -0.048,-0.173c-0.173,-0.037 -0.041,0.561 -0.707,0.421l-2.58,-0.549Z" style="fill:#4c575f;"/><path d="M22.729,39.426c-0.026,-0.01 -0.042,0.021 -0.051,0.044c-0.026,0.066 0.142,0.135 0.107,0.224c-0.053,0.14 -0.506,0.376 -0.721,0.939c-0.45,1.172 0.508,2.09 1.379,2.423c0.406,0.156 1.807,0.454 2.331,-0.907c0.38,-0.991 -0.21,-1.783 -0.414,-1.863c-0.033,-0.011 -0.076,0.02 -0.083,0.043c-0.049,0.121 0.507,0.697 0.232,1.419c-0.341,0.887 -1.507,0.867 -2.237,0.587c-0.691,-0.266 -1.271,-0.92 -1.006,-1.603c0.204,-0.539 0.812,-0.777 1.398,-0.82c0.08,-0.007 0.198,0.003 0.228,-0.072c0.03,-0.078 -0.095,-0.105 -0.148,-0.121l-1.015,-0.293Z" style="fill:#4c575f;"/><path d="M33.385,91.897c-0.014,0.15 -0.014,0.298 -0.088,0.446c-0.054,0.105 -0.187,0.023 -0.369,-0.068l-1.365,-0.697c-0.182,-0.091 -0.327,-0.154 -0.274,-0.259c0.074,-0.148 0.194,-0.233 0.311,-0.335l1.725,-1.476c0.109,-0.091 0.154,-0.082 0.174,-0.071c0.051,0.026 0.02,0.011 0.037,0.125l-0.151,2.335ZM34.957,88.09c0.031,-0.381 0.024,-0.416 -0.068,-0.461c-0.13,-0.065 -0.284,0.108 -0.441,0.241l-5.976,5.011c-0.554,0.463 -1.032,0.136 -1.157,0.38c-0.072,0.137 0.102,0.2 0.242,0.27c0.293,0.149 0.605,0.253 0.907,0.407c0.318,0.165 0.6,0.361 0.921,0.523c0.21,0.108 0.483,0.341 0.597,0.12c0.144,-0.285 -1.027,-0.669 -0.637,-1.43c0.128,-0.254 0.458,-0.552 0.637,-0.729c0.586,-0.577 0.819,-0.514 0.989,-0.426l1.976,1.007c0.262,0.133 0.259,0.264 0.168,1.259c-0.034,0.341 -0.059,0.566 -0.179,0.799c-0.326,0.645 -0.981,0.165 -1.137,0.472c-0.077,0.148 0.065,0.194 0.247,0.284c0.29,0.151 0.683,0.296 1.126,0.521c0.659,0.338 0.91,0.518 1.271,0.702c0.273,0.139 0.352,0.208 0.444,0.026c0.176,-0.348 -0.574,-0.21 -0.516,-1.126l0.586,-7.85Z" style="fill:#4c575f;"/><path d="M77.316,87.799l-1.208,0.944c-0.161,0.125 -0.277,0.234 -0.35,0.139c-0.1,-0.13 -0.128,-0.275 -0.171,-0.423l-0.611,-2.189c-0.034,-0.137 -0.006,-0.174 0.011,-0.188c0.045,-0.034 0.017,-0.012 0.131,0.02l2.046,1.123c0.135,0.077 0.268,0.139 0.37,0.27c0.075,0.094 -0.059,0.179 -0.218,0.304ZM82.487,88.05c-0.241,-0.307 -0.434,0.432 -1.239,-0.012l-6.867,-3.844c-0.332,-0.193 -0.366,-0.196 -0.446,-0.133c-0.114,0.088 -0.02,0.301 0.034,0.5l2.014,7.535c0.183,0.696 -0.311,0.995 -0.143,1.208c0.094,0.122 0.222,-0.009 0.347,-0.106c0.256,-0.198 0.483,-0.437 0.751,-0.648c0.284,-0.221 0.58,-0.392 0.864,-0.613c0.187,-0.146 0.512,-0.296 0.358,-0.493c-0.196,-0.25 -1.038,0.646 -1.564,-0.025c-0.176,-0.225 -0.307,-0.648 -0.389,-0.884c-0.279,-0.777 -0.123,-0.962 0.029,-1.078l1.751,-1.367c0.23,-0.18 0.346,-0.12 1.208,0.38c0.295,0.177 0.489,0.296 0.651,0.501c0.446,0.568 -0.264,0.961 -0.054,1.231c0.103,0.13 0.202,0.02 0.364,-0.105c0.256,-0.199 0.557,-0.495 0.947,-0.799c0.586,-0.458 0.856,-0.609 1.175,-0.856c0.238,-0.187 0.334,-0.233 0.209,-0.392Z" style="fill:#4c575f;"/><path d="M41.201,23.345c-0.645,0.138 -1.282,-0.276 -1.422,-0.922c-0.136,-0.649 0.277,-1.286 0.924,-1.422c0.649,-0.138 1.284,0.276 1.422,0.923c0.137,0.646 -0.275,1.283 -0.924,1.421ZM44.172,21.944l-0.235,-1.1c-0.095,-0.449 -0.535,-0.735 -0.988,-0.639l-0.952,0.207l-0.213,-1.003c-0.094,-0.449 -0.538,-0.737 -0.987,-0.641l-1.086,0.232c-0.452,0.095 -0.739,0.537 -0.642,0.986l0.205,1l-0.942,0.2c-0.449,0.095 -0.736,0.537 -0.639,0.986l0.233,1.101c0.097,0.449 0.537,0.736 0.986,0.639l4.617,-0.98c0.45,-0.096 0.737,-0.538 0.643,-0.988Z" style="fill:#4c575f;"/><path d="M51.519,21.745c-0.663,0 -1.201,-0.537 -1.201,-1.197c0,-0.662 0.538,-1.199 1.201,-1.199c0.663,0 1.197,0.537 1.197,1.199c0,0.66 -0.534,1.197 -1.197,1.197ZM53.876,19.037l-0.964,0l-0.006,-1.02c0,-0.459 -0.372,-0.832 -0.83,-0.832l-1.115,0c-0.459,0 -0.832,0.373 -0.832,0.832l0,1.026l-0.975,-0.005c-0.46,0 -0.834,0.372 -0.834,0.832l0,1.124c0,0.459 0.374,0.831 0.834,0.831l4.722,0c0.46,0 0.833,-0.372 0.833,-0.831l0,-1.124c0,-0.461 -0.373,-0.833 -0.833,-0.833Z" style="fill:#4c575f;"/><path d="M63.321,22.423c-0.139,0.646 -0.773,1.06 -1.421,0.922c-0.649,-0.138 -1.061,-0.775 -0.924,-1.421c0.139,-0.647 0.773,-1.061 1.421,-0.923c0.648,0.136 1.06,0.773 0.924,1.422ZM64.769,21.186l-0.942,-0.2l0.205,-1c0.097,-0.449 -0.19,-0.891 -0.639,-0.986l-1.09,-0.232c-0.449,-0.096 -0.89,0.192 -0.986,0.641l-0.213,1.003l-0.953,-0.207c-0.45,-0.096 -0.893,0.19 -0.987,0.639l-0.235,1.1c-0.094,0.45 0.193,0.892 0.642,0.988l4.618,0.98c0.449,0.097 0.892,-0.19 0.986,-0.639l0.233,-1.101c0.097,-0.449 -0.19,-0.891 -0.639,-0.986Z" style="fill:#4c575f;"/><path d="M70.796,27.293c-0.565,-0.342 -0.751,-1.076 -0.409,-1.643c0.341,-0.569 1.077,-0.751 1.642,-0.41l-1.233,2.053ZM72.721,23.25c-0.396,-0.238 -0.907,-0.11 -1.143,0.284l-0.526,0.879l-0.836,-0.507c-0.393,-0.235 -0.904,-0.109 -1.141,0.285l-0.579,0.963c-0.236,0.396 -0.108,0.907 0.284,1.144l1.812,1.154c0.395,0.238 0.903,0.111 1.143,-0.284l0.58,-0.964c0.235,-0.394 0.415,-0.751 0.415,-0.751l0.943,-1.632l-0.952,-0.571Z" style="fill:#4c575f;"/><path d="M32.305,27.293l-1.235,-2.053c0.567,-0.341 1.303,-0.159 1.644,0.41c0.342,0.567 0.156,1.301 -0.409,1.643ZM34.605,25.154l-0.579,-0.963c-0.237,-0.394 -0.747,-0.52 -1.141,-0.285l-0.833,0.507l-0.529,-0.879c-0.236,-0.394 -0.748,-0.522 -1.143,-0.284l-0.952,0.571l0.946,1.632c0,0 0.177,0.357 0.415,0.751l0.58,0.964c0.237,0.395 0.745,0.522 1.141,0.284l1.81,-1.154c0.396,-0.237 0.524,-0.748 0.285,-1.144Z" style="fill:#4c575f;"/><path d="M18.919,22.999c-0.187,0.216 -0.419,0.48 -0.642,0.285l-1.809,-1.572c-0.537,-0.467 -0.344,-0.688 -0.114,-0.953c0.629,-0.723 1.64,-0.549 2.516,0.213c0.53,0.46 0.993,0.939 0.049,2.027ZM24.334,22.641c-0.07,-0.061 -0.162,-0.065 -0.218,0c-0.062,0.071 -0.071,0.189 -0.133,0.262c-0.05,0.057 -0.168,0.193 -0.369,0.132c-1.573,-0.465 -3.401,-0.984 -3.456,-1.03c-0.088,-0.079 0.012,-0.356 -0.013,-0.743c-0.035,-0.395 -0.185,-0.89 -0.757,-1.386c-0.412,-0.359 -1.8,-1.314 -3.161,0.255c-0.418,0.479 -0.805,0.998 -1.223,1.477c-0.392,0.451 -0.478,0.477 -0.766,0.806c-0.073,0.086 -0.09,0.197 -0.001,0.276c0.324,0.278 0.67,-0.789 1.671,0.082l3.941,3.423c1.126,0.981 0.327,1.305 0.614,1.554c0.179,0.155 0.281,-0.018 0.35,-0.097c0.312,-0.358 0.588,-0.748 0.924,-1.134c0.261,-0.3 0.465,-0.462 0.571,-0.584c0.141,-0.165 0.139,-0.271 0.059,-0.338c-0.324,-0.282 -0.574,0.747 -1.529,-0.086l-1.55,-1.346c-0.312,-0.271 -0.412,-0.284 -0.082,-0.664c0.31,-0.358 0.503,-0.417 1.04,-0.239l1.937,0.629c0.714,0.228 1.474,0.489 1.968,-0.077c0.247,-0.285 0.461,-0.93 0.183,-1.172Z" style="fill:#4c575f;"/><path d="M39.071,10.977l-1.225,0.4c-0.164,0.051 -0.287,0.105 -0.324,-0.009c-0.051,-0.157 -0.036,-0.298 -0.035,-0.449l0.046,-2.223c0.003,-0.138 0.037,-0.161 0.054,-0.168c0.046,-0.014 0.021,-0.006 0.103,0.068l1.402,1.8c0.091,0.122 0.185,0.228 0.235,0.387c0.037,0.112 -0.093,0.142 -0.256,0.194ZM43.257,13.172c-0.122,-0.372 -0.467,0.227 -1.015,-0.481l-4.679,-6.112c-0.229,-0.3 -0.251,-0.317 -0.334,-0.291c-0.117,0.039 -0.094,0.267 -0.096,0.468l-0.23,7.621c-0.021,0.705 -0.501,0.786 -0.418,1.046c0.047,0.145 0.184,0.077 0.312,0.036c0.262,-0.086 0.509,-0.215 0.779,-0.303c0.287,-0.094 0.575,-0.137 0.862,-0.231c0.19,-0.062 0.494,-0.074 0.421,-0.311c-0.1,-0.304 -1.019,0.192 -1.28,-0.618c-0.088,-0.272 -0.092,-0.708 -0.102,-0.954c-0.034,-0.812 0.141,-0.919 0.296,-0.969l1.776,-0.576c0.236,-0.077 0.316,0.021 0.901,0.804c0.197,0.273 0.328,0.454 0.408,0.703c0.224,0.687 -0.458,0.772 -0.35,1.1c0.051,0.156 0.159,0.096 0.323,0.044c0.262,-0.086 0.581,-0.239 0.979,-0.369c0.594,-0.193 0.852,-0.227 1.177,-0.332c0.245,-0.08 0.333,-0.083 0.27,-0.275Z" style="fill:#4c575f;"/><path d="M96.76,49.396l-2.069,0.992c-0.137,0.063 -0.262,0.131 -0.427,0.148c-0.119,0.012 -0.119,-0.122 -0.137,-0.293l-0.131,-1.289c-0.016,-0.171 -0.042,-0.302 0.077,-0.314c0.165,-0.017 0.302,0.028 0.45,0.059l2.17,0.521c0.135,0.035 0.153,0.071 0.153,0.091c0.006,0.048 0.002,0.02 -0.086,0.085ZM99.12,49.437c-0.011,-0.123 -0.241,-0.148 -0.437,-0.195l-7.427,-1.853c-0.688,-0.171 -0.665,-0.661 -0.938,-0.634c-0.154,0.017 -0.117,0.165 -0.103,0.298c0.028,0.274 0.103,0.546 0.131,0.83c0.031,0.303 0.012,0.592 0.043,0.896c0.019,0.199 -0.034,0.5 0.213,0.476c0.321,-0.032 0.028,-1.036 0.882,-1.121c0.284,-0.029 0.713,0.062 0.958,0.105c0.804,0.139 0.87,0.332 0.886,0.495l0.188,1.868c0.023,0.247 -0.09,0.305 -0.984,0.711c-0.309,0.136 -0.514,0.224 -0.776,0.25c-0.722,0.073 -0.659,-0.615 -1.004,-0.578c-0.167,0.015 -0.13,0.137 -0.113,0.307c0.028,0.275 0.111,0.62 0.15,1.038c0.063,0.626 0.043,0.887 0.077,1.228c0.026,0.257 0.009,0.345 0.211,0.325c0.392,-0.04 -0.123,-0.506 0.691,-0.893l6.997,-3.287c0.344,-0.159 0.367,-0.18 0.355,-0.266Z" style="fill:#4c575f;"/><path d="M80.216,44.566c-0.922,0.298 -1.751,0.277 -2.03,-0.527c-0.29,-0.836 0.773,-1.509 1.584,-1.774c0.806,-0.261 1.648,-0.276 1.925,0.514c0.207,0.604 -0.251,1.387 -1.479,1.787ZM81.979,42.842c-0.375,-1.12 -1.496,-1.447 -2.713,-1.052c-1.129,0.367 -1.672,1.245 -1.364,2.19c0.489,1.501 1.942,1.344 2.72,1.093c1.177,-0.382 1.666,-1.316 1.357,-2.231Z" style="fill:#4c575f;"/><path d="M79.462,40.147c-0.312,0.147 -0.622,0.257 -0.941,-0.424c-0.062,-0.133 -0.139,-0.299 -0.005,-0.361l1.068,-0.5c0.316,-0.148 0.381,-0.008 0.459,0.158c0.212,0.452 -0.063,0.885 -0.581,1.127ZM80.358,39.098c-0.139,-0.301 -0.304,-0.596 -0.444,-0.896c-0.134,-0.282 -0.128,-0.328 -0.224,-0.534c-0.023,-0.055 -0.071,-0.087 -0.125,-0.062c-0.191,0.088 0.233,0.485 -0.359,0.763l-2.331,1.086c-0.666,0.311 -0.66,-0.134 -0.83,-0.055c-0.105,0.05 -0.046,0.136 -0.023,0.186c0.105,0.223 0.23,0.438 0.343,0.681c0.089,0.187 0.123,0.318 0.158,0.394c0.047,0.103 0.095,0.124 0.144,0.102c0.191,-0.09 -0.233,-0.431 0.333,-0.695l0.916,-0.427c0.188,-0.087 0.21,-0.131 0.321,0.107c0.105,0.223 0.093,0.326 -0.091,0.538l-0.659,0.767c-0.243,0.281 -0.509,0.581 -0.344,0.933c0.082,0.18 0.338,0.421 0.5,0.344c0.043,-0.019 0.062,-0.059 0.045,-0.1c-0.023,-0.044 -0.074,-0.076 -0.096,-0.119c-0.018,-0.037 -0.058,-0.122 0.011,-0.201c0.514,-0.634 1.106,-1.373 1.137,-1.387c0.054,-0.026 0.163,0.082 0.344,0.156c0.188,0.071 0.444,0.108 0.781,-0.049c0.246,-0.113 0.951,-0.552 0.493,-1.532Z" style="fill:#4c575f;"/><path d="M82.857,51.133c-0.048,0.499 -0.509,0.733 -1.08,0.676c-0.347,-0.034 -0.671,-0.097 -0.594,-0.849c0.013,-0.148 0.031,-0.33 0.179,-0.316l1.179,0.118c0.35,0.036 0.336,0.189 0.316,0.371ZM83.17,49.666c-0.211,-0.019 -0.049,0.54 -0.703,0.475l-2.569,-0.257c-0.738,-0.074 -0.503,-0.455 -0.692,-0.474c-0.116,-0.011 -0.108,0.094 -0.113,0.148c-0.026,0.248 -0.026,0.498 -0.055,0.763c-0.019,0.209 -0.056,0.34 -0.065,0.423c-0.011,0.114 0.02,0.158 0.074,0.162c0.211,0.022 0.02,-0.492 0.643,-0.429l1.012,0.102c0.204,0.02 0.247,-0.006 0.222,0.256c-0.026,0.247 -0.086,0.331 -0.355,0.418l-0.964,0.324c-0.353,0.119 -0.74,0.242 -0.777,0.631c-0.02,0.197 0.076,0.537 0.256,0.555c0.049,0.005 0.085,-0.022 0.088,-0.066c0.006,-0.049 -0.022,-0.102 -0.019,-0.152c0.005,-0.038 0.014,-0.134 0.11,-0.169c0.773,-0.282 1.661,-0.617 1.698,-0.614c0.057,0.005 0.097,0.154 0.216,0.312c0.125,0.157 0.327,0.322 0.702,0.359c0.268,0.028 1.1,0.011 1.208,-1.072c0.034,-0.332 0.046,-0.669 0.077,-1.001c0.031,-0.311 0.06,-0.348 0.082,-0.576c0.006,-0.059 -0.019,-0.112 -0.076,-0.118Z" style="fill:#4c575f;"/><path d="M26.16,37.656l-0.33,0.595c-0.042,0.076 -0.07,0.142 -0.119,0.113c-0.069,-0.037 -0.105,-0.092 -0.153,-0.146l-0.671,-0.81c-0.04,-0.053 -0.034,-0.073 -0.031,-0.082c0.013,-0.021 0.006,-0.008 0.059,-0.012l1.074,0.129c0.069,0.008 0.138,0.013 0.206,0.051c0.048,0.026 0.008,0.086 -0.035,0.162ZM28.381,36.906c-0.159,-0.088 -0.102,0.251 -0.523,0.201l-3.614,-0.467c-0.176,-0.024 -0.19,-0.022 -0.214,0.018c-0.03,0.057 0.049,0.131 0.109,0.203l2.275,2.805c0.21,0.259 0.059,0.466 0.17,0.527c0.063,0.034 0.091,-0.04 0.125,-0.102c0.071,-0.126 0.122,-0.262 0.194,-0.393c0.077,-0.139 0.17,-0.259 0.248,-0.399c0.05,-0.092 0.158,-0.208 0.056,-0.264c-0.131,-0.074 -0.312,0.441 -0.663,0.247c-0.116,-0.065 -0.253,-0.218 -0.332,-0.303c-0.262,-0.278 -0.23,-0.378 -0.19,-0.454l0.474,-0.857c0.063,-0.114 0.125,-0.108 0.58,-0.043c0.16,0.023 0.262,0.041 0.369,0.101c0.296,0.164 0.072,0.442 0.211,0.522c0.069,0.037 0.091,-0.026 0.133,-0.104c0.072,-0.126 0.14,-0.298 0.248,-0.491c0.159,-0.287 0.242,-0.393 0.33,-0.551c0.065,-0.116 0.097,-0.151 0.014,-0.196Z" style="fill:#4c575f;"/><path d="M61.329,75.647c-2.35,2.803 -4.221,4.152 -6.387,5.713c-1.113,0.8 -1.83,1.275 -3.161,2.376c-3.997,-2.736 -6.461,-4.444 -10.02,-8.064c-5.934,-6.04 -6.393,-12.282 -6.393,-20.441l0,-17.184l32.692,0.002l0,17.182c0,8.564 -0.972,13.545 -6.731,20.416ZM68.06,36.57l-0.369,-0.004l-33.804,0l0,18.665c0,8.238 0.502,15.051 6.817,21.479c3.72,3.784 6.249,5.517 10.441,8.386l0.257,0.176l0.46,0.315l0.43,-0.355c1.293,-1.07 2.423,-1.884 3.516,-2.671c2.247,-1.618 4.187,-3.017 6.657,-5.963c6.017,-7.18 7.076,-12.611 7.076,-21.367l0,-18.661l-1.481,0Z" style="fill:#4c575f;fill-rule:nonzero;"/><path d="M87.602,18.307l-0.596,-1.072l-0.548,1.705l0.361,0.65l0.783,-1.283Z" style="fill:#4c575f;"/><path d="M45.124,11.456c0.294,1.385 -0.878,1.049 -0.782,1.503c0.056,0.257 0.211,0.213 0.38,0.177c0.371,-0.081 0.669,-0.192 1.293,-0.325c0.624,-0.132 0.942,-0.151 1.316,-0.23c0.27,-0.058 0.463,-0.063 0.404,-0.343c-0.07,-0.324 -1.191,0.267 -1.495,-1.166l-1.119,-5.263c-0.119,-0.559 -0.039,-0.639 0.344,-0.72l0.791,-0.168c1.062,-0.273 1.039,1.083 1.412,1.003c0.242,-0.051 0.042,-0.483 -0.006,-0.62l-0.33,-1.049c-0.033,-0.114 -0.069,-0.278 -0.207,-0.248c-0.867,0.184 -1.481,0.364 -2.842,0.652c-1.361,0.289 -1.994,0.376 -2.861,0.559c-0.14,0.032 -0.104,0.194 -0.09,0.313l0.178,1.567c0.014,0.157 0.012,0.425 0.208,0.383c0.42,-0.09 -0.184,-1.555 0.868,-1.778l0.782,-0.168c0.383,-0.08 0.49,-0.041 0.608,0.516l1.148,5.405Z" style="fill:#4c575f;"/><path d="M32.641,15.844c0.654,1.257 -0.565,1.249 -0.35,1.66c0.121,0.233 0.259,0.147 0.412,0.068c0.337,-0.176 0.595,-0.364 1.159,-0.659c0.568,-0.296 0.868,-0.399 1.205,-0.575c0.245,-0.129 0.431,-0.184 0.297,-0.438c-0.154,-0.295 -1.075,0.574 -1.752,-0.723l-2.489,-4.772c-0.265,-0.506 -0.209,-0.604 0.139,-0.782l0.718,-0.377c0.948,-0.547 1.29,0.764 1.628,0.588c0.218,-0.114 -0.09,-0.476 -0.172,-0.594l-0.6,-0.923c-0.063,-0.102 -0.142,-0.249 -0.267,-0.184c-0.787,0.41 -1.331,0.747 -2.563,1.392c-1.232,0.643 -1.82,0.895 -2.605,1.305c-0.126,0.066 -0.048,0.215 -0.003,0.323l0.592,1.465c0.054,0.146 0.126,0.405 0.303,0.311c0.379,-0.198 -0.595,-1.448 0.36,-1.945l0.709,-0.37c0.345,-0.181 0.458,-0.172 0.721,0.333l2.558,4.897Z" style="fill:#4c575f;"/><path d="M46.817,89.717l-1.215,0.084l1.305,1.208l0.735,-0.052l-0.825,-1.24Z" style="fill:#4c575f;"/><path d="M137.184,9.109c0.405,0.094 0.842,0.156 1.278,0.156c0.312,0 0.655,-0.062 0.936,-0.156c-0.249,2.899 -0.499,8.387 -0.562,12.938c-0.062,5.518 -3.273,8.979 -8.885,8.979c-6.173,0 -8.917,-2.869 -8.917,-8.917c0,-1.933 0.157,-3.366 0.157,-4.925c0,-3.429 -0.125,-6.267 -0.188,-8.075c0.499,0.094 1.122,0.156 1.621,0.156c0.437,0 0.936,-0.062 1.341,-0.156c-0.187,1.84 -0.374,6.079 -0.374,10.693c0,4.24 0,9.758 6.952,9.758c6.828,0 6.828,-6.391 6.828,-10.318c0,-5.924 0,-8.917 -0.187,-10.133Z" style="fill:#4c575f;fill-rule:nonzero;"/><path d="M164.937,31.026c-4.739,-5.581 -10.413,-11.567 -15.744,-17.241c-0.032,1.154 -0.094,3.025 -0.094,6.329c0,2.681 0.125,9.259 0.281,10.506c-0.343,-0.093 -0.718,-0.155 -1.092,-0.155c-0.374,0 -0.748,0.062 -1.153,0.155c0.25,-1.465 0.654,-9.446 0.654,-13.561c0,-3.928 0,-6.952 -0.094,-8.355l0.5,0c5.082,5.518 11.971,13.032 15.776,16.866c0,-5.58 0,-11.659 -0.25,-16.461c0.343,0.094 0.717,0.156 1.06,0.156c0.342,0 0.655,-0.062 0.997,-0.156c-0.187,1.84 -0.499,8.012 -0.499,10.444c0,3.18 0.063,10.07 0.094,11.473l-0.436,0Z" style="fill:#4c575f;fill-rule:nonzero;"/><path d="M174.016,17.184c0,-2.681 -0.125,-5.393 -0.25,-8.075c0.53,0.094 1.029,0.156 1.527,0.156c0.5,0 0.998,-0.062 1.528,-0.156c-0.125,2.682 -0.249,5.394 -0.249,8.075l0,5.362c0,2.681 0.124,5.394 0.249,8.074c-0.53,-0.093 -1.028,-0.155 -1.528,-0.155c-0.498,0 -0.997,0.062 -1.527,0.155c0.125,-2.68 0.25,-5.393 0.25,-8.074l0,-5.362Z" style="fill:#4c575f;fill-rule:nonzero;"/><path d="M182.1,9.109c0.531,0.094 1.092,0.156 1.623,0.156c0.529,0 1.091,-0.062 1.621,-0.156c1.838,5.518 4.488,12.127 7.107,18.425c2.276,-5.05 5.768,-14.341 7.077,-18.425c0.375,0.094 0.78,0.156 1.154,0.156c0.374,0 0.779,-0.062 1.153,-0.156c-3.242,7.171 -6.235,14.34 -8.977,21.511c-0.344,-0.093 -0.688,-0.155 -1.03,-0.155c-0.343,0 -0.749,0.062 -1.029,0.155c-1.87,-5.144 -5.674,-14.34 -8.699,-21.511Z" style="fill:#4c575f;fill-rule:nonzero;"/><path d="M207.283,17.153c0,-2.682 -0.124,-5.394 -0.25,-8.044c1.871,0.094 3.711,0.156 5.582,0.156c1.871,0 3.709,-0.062 5.55,-0.156c-0.063,0.312 -0.094,0.624 -0.094,0.936c0,0.311 0.031,0.623 0.092,0.935c-2.618,-0.187 -4.145,-0.406 -8.198,-0.406c-0.031,1.341 -0.125,2.432 -0.125,3.96c0,1.621 0.031,3.336 0.031,4.115c3.68,0 5.737,-0.156 7.576,-0.311c-0.062,0.311 -0.093,0.654 -0.093,0.965c0,0.312 0.031,0.624 0.093,0.935c-2.152,-0.217 -6.079,-0.279 -7.576,-0.279c-0.031,0.747 -0.031,1.527 -0.031,4.52c0,2.369 0.031,3.897 0.062,4.676c2.775,0 6.455,-0.031 8.418,-0.405c-0.063,0.28 -0.093,0.686 -0.093,0.966c0,0.281 0.03,0.624 0.093,0.904c-1.839,-0.093 -3.71,-0.155 -5.613,-0.155c-1.9,0 -3.771,0.062 -5.674,0.155c0.126,-2.712 0.25,-5.425 0.25,-8.105l0,-5.362Z" style="fill:#4c575f;fill-rule:nonzero;"/><path d="M227.362,18.961c0.562,0.125 1.278,0.156 2.089,0.156c2.56,0 5.958,-1.061 5.958,-4.771c0,-3.273 -2.713,-4.084 -4.834,-4.084c-1.436,0 -2.372,0.094 -3.026,0.157c-0.093,2.275 -0.187,4.52 -0.187,6.765l0,1.777ZM224.806,17.184c0,-2.681 -0.125,-5.393 -0.249,-8.075c1.184,0.094 2.368,0.156 3.553,0.156c1.185,0 2.372,-0.156 3.558,-0.156c3.523,0 6.485,1.216 6.485,4.926c0,4.021 -4.022,5.643 -6.392,5.955c1.528,1.901 6.734,8.604 8.543,10.63c-0.623,-0.093 -1.247,-0.155 -1.87,-0.155c-0.594,0 -1.217,0.062 -1.809,0.155c-1.247,-1.901 -5.394,-7.638 -8.078,-10.35l-1.185,0l0,2.276c0,2.681 0.125,5.394 0.25,8.074c-0.532,-0.093 -1.029,-0.155 -1.529,-0.155c-0.498,0 -0.997,0.062 -1.526,0.155c0.124,-2.68 0.249,-5.393 0.249,-8.074l0,-5.362Z" style="fill:#4c575f;fill-rule:nonzero;"/><path d="M245.329,26.474c0.687,1.466 2.245,3.242 4.927,3.242c2.775,0 4.458,-2.026 4.458,-4.521c0,-5.736 -9.82,-3.273 -9.82,-10.599c0,-3.46 2.618,-5.892 6.764,-5.892c1.965,0 3.368,0.467 4.615,1.465c-0.374,0.717 -0.592,1.434 -0.841,2.619l-0.375,0c-0.437,-1.154 -1.371,-2.93 -3.71,-2.93c-2.339,0 -4.022,1.589 -4.022,3.865c0,5.83 9.821,3.398 9.821,10.288c0,3.804 -2.837,7.015 -7.638,7.015c-2.588,0 -4.053,-0.905 -5.145,-1.778c0.374,-0.966 0.468,-1.59 0.592,-2.774l0.374,0Z" style="fill:#4c575f;fill-rule:nonzero;"/><path d="M264.127,17.184c0,-2.681 -0.124,-5.393 -0.25,-8.075c0.53,0.094 1.029,0.156 1.529,0.156c0.498,0 0.997,-0.062 1.527,-0.156c-0.124,2.682 -0.249,5.394 -0.249,8.075l0,5.362c0,2.681 0.125,5.394 0.249,8.074c-0.53,-0.093 -1.029,-0.155 -1.527,-0.155c-0.5,0 -0.999,0.062 -1.529,0.155c0.126,-2.68 0.25,-5.393 0.25,-8.074l0,-5.362Z" style="fill:#4c575f;fill-rule:nonzero;"/><path d="M123.598,51.321c0.654,0.157 1.527,0.249 2.213,0.249c2.556,0 5.83,-0.965 5.83,-5.206c0,-3.553 -2.026,-4.302 -5.238,-4.302l-2.805,0l0,9.259ZM121.041,48.984c0,-2.682 -0.125,-5.394 -0.249,-8.076c0.997,0.094 2.027,0.157 3.025,0.157c0.997,0 2.992,-0.157 3.865,-0.157c1.871,0 6.828,0.062 6.828,5.27c0,5.487 -5.394,6.547 -8.387,6.547c-0.935,0 -1.715,-0.031 -2.525,-0.094l0,1.714c0,2.682 0.125,5.394 0.249,8.075c-0.529,-0.094 -1.028,-0.155 -1.527,-0.155c-0.5,0 -0.999,0.061 -1.528,0.155c0.124,-2.681 0.249,-5.393 0.249,-8.075l0,-5.361Z" style="fill:#4c575f;fill-rule:nonzero;"/><path d="M149.65,41.657c-4.865,0 -8.606,3.086 -8.606,10.008c0,6.92 3.741,10.007 8.606,10.007c4.892,0 8.635,-3.087 8.635,-10.007c0,-6.922 -3.743,-10.008 -8.635,-10.008ZM149.65,40.503c6.888,0 11.69,4.084 11.69,11.162c0,7.076 -4.802,11.161 -11.69,11.161c-6.86,0 -11.662,-4.085 -11.662,-11.161c0,-7.078 4.802,-11.162 11.662,-11.162Z" style="fill:#4c575f;fill-rule:nonzero;"/><path d="M166.514,48.984c0,-2.682 -0.126,-5.394 -0.25,-8.076c0.53,0.094 1.029,0.157 1.527,0.157c0.5,0 0.997,-0.063 1.529,-0.157c-0.125,2.682 -0.25,5.394 -0.25,8.076c0,5.237 0.062,8.916 0.094,11.971c2.93,0 5.487,0 8.604,-0.405c-0.094,0.311 -0.156,0.623 -0.156,0.935c0,0.312 0.062,0.624 0.156,0.935c-1.901,-0.094 -3.835,-0.155 -5.737,-0.155c-1.932,0 -3.835,0.061 -5.767,0.155c0.124,-2.681 0.25,-5.393 0.25,-8.075l0,-5.361Z" style="fill:#4c575f;fill-rule:nonzero;"/><path d="M183.472,48.984c0,-2.682 -0.124,-5.394 -0.25,-8.076c0.529,0.094 1.029,0.157 1.528,0.157c0.498,0 0.997,-0.063 1.528,-0.157c-0.125,2.682 -0.25,5.394 -0.25,8.076l0,5.361c0,2.682 0.125,5.394 0.25,8.075c-0.531,-0.094 -1.03,-0.155 -1.528,-0.155c-0.499,0 -0.999,0.061 -1.528,0.155c0.126,-2.681 0.25,-5.393 0.25,-8.075l0,-5.361Z" style="fill:#4c575f;fill-rule:nonzero;"/><path d="M198.061,48.984c0,-2.152 -0.032,-4.303 -0.094,-6.455c-2.15,0 -4.926,0.125 -6.671,0.343c0.094,-0.311 0.156,-0.654 0.156,-0.997c0,-0.312 -0.062,-0.623 -0.156,-0.967c2.681,0.094 5.362,0.157 8.044,0.157c2.681,0 5.362,-0.063 8.043,-0.157c-0.093,0.344 -0.156,0.655 -0.156,0.998c0,0.312 0.063,0.655 0.156,0.966c-1.746,-0.218 -4.521,-0.343 -6.672,-0.343c-0.062,2.152 -0.094,4.303 -0.094,6.455l0,5.361c0,2.682 0.126,5.394 0.25,8.075c-0.53,-0.094 -1.029,-0.155 -1.527,-0.155c-0.499,0 -0.998,0.061 -1.528,0.155c0.125,-2.681 0.249,-5.393 0.249,-8.075l0,-5.361Z" style="fill:#4c575f;fill-rule:nonzero;"/><path d="M245.433,61.048c-0.78,0.624 -3.367,1.778 -6.485,1.778c-6.577,0 -11.379,-4.085 -11.379,-11.161c0,-7.078 4.802,-11.162 11.691,-11.162c2.682,0 5.082,0.654 6.767,1.434c-0.312,0.561 -0.531,1.777 -0.656,2.432l-0.186,0.062c-0.873,-0.966 -2.993,-2.774 -5.925,-2.774c-4.895,0 -8.636,3.086 -8.636,10.008c0,6.92 3.741,10.007 8.636,10.007c2.962,0 5.144,-1.684 6.329,-2.587l0.126,0.124l-0.282,1.839Z" style="fill:#4c575f;fill-rule:nonzero;"/><path d="M268.972,62.826c-4.738,-5.581 -10.413,-11.567 -15.743,-17.241c-0.033,1.153 -0.095,3.025 -0.095,6.329c0,2.681 0.124,9.259 0.28,10.506c-0.342,-0.094 -0.716,-0.155 -1.091,-0.155c-0.374,0 -0.748,0.061 -1.153,0.155c0.25,-1.465 0.655,-9.446 0.655,-13.561c0,-3.928 0,-6.953 -0.093,-8.356l0.499,0c5.081,5.519 11.971,13.032 15.774,16.867c0,-5.581 0,-11.66 -0.248,-16.462c0.342,0.094 0.716,0.157 1.06,0.157c0.342,0 0.655,-0.063 0.997,-0.157c-0.187,1.84 -0.498,8.013 -0.498,10.445c0,3.179 0.061,10.07 0.092,11.473l-0.436,0Z" style="fill:#4c575f;fill-rule:nonzero;"/><path d="M276.586,48.984c0,-2.682 -0.124,-5.394 -0.249,-8.076c0.529,0.094 1.028,0.157 1.528,0.157c0.498,0 0.997,-0.063 1.528,-0.157c-0.125,2.682 -0.25,5.394 -0.25,8.076l0,5.361c0,2.682 0.125,5.394 0.25,8.075c-0.531,-0.094 -1.03,-0.155 -1.528,-0.155c-0.5,0 -0.999,0.061 -1.528,0.155c0.125,-2.681 0.249,-5.393 0.249,-8.075l0,-5.361Z" style="fill:#4c575f;fill-rule:nonzero;"/><path d="M302.85,61.048c-0.78,0.624 -3.367,1.778 -6.486,1.778c-6.579,0 -11.379,-4.085 -11.379,-11.161c0,-7.078 4.8,-11.162 11.691,-11.162c2.682,0 5.083,0.654 6.766,1.434c-0.313,0.561 -0.53,1.777 -0.655,2.432l-0.187,0.062c-0.873,-0.966 -2.994,-2.774 -5.924,-2.774c-4.895,0 -8.635,3.086 -8.635,10.008c0,6.92 3.74,10.007 8.635,10.007c2.962,0 5.144,-1.684 6.33,-2.587l0.123,0.124l-0.279,1.839Z" style="fill:#4c575f;fill-rule:nonzero;"/><path d="M123.839,86.146c0,2.213 0.063,4.458 0.188,6.609c0.873,0.187 2.494,0.312 4.084,0.312c4.583,0 9.571,-1.808 9.571,-10.039c0,-7.233 -3.741,-9.01 -8.855,-9.01c-1.84,0 -3.522,0.156 -4.8,0.311c-0.125,1.996 -0.188,4.209 -0.188,6.454l0,5.363ZM121.282,80.783c0,-2.681 -0.124,-5.393 -0.249,-8.075c1.559,0.094 3.149,0.156 4.708,0.156c1.559,0 3.149,-0.156 4.707,-0.156c7.296,0 10.289,3.898 10.289,10.32c0,8.324 -6.422,11.192 -11.348,11.192c-1.403,0 -2.775,-0.155 -4.178,-0.155c-1.403,0 -2.775,0.062 -4.178,0.155c0.125,-2.681 0.249,-5.394 0.249,-8.074l0,-5.363Z" style="fill:#4c575f;fill-rule:nonzero;"/><path d="M144.653,80.752c0,-2.682 -0.124,-5.393 -0.249,-8.044c1.872,0.094 3.71,0.156 5.582,0.156c1.87,0 3.709,-0.062 5.547,-0.156c-0.061,0.313 -0.091,0.624 -0.091,0.936c0,0.312 0.03,0.624 0.091,0.935c-2.617,-0.187 -4.146,-0.405 -8.198,-0.405c-0.031,1.34 -0.125,2.432 -0.125,3.959c0,1.622 0.031,3.336 0.031,4.115c3.679,0 5.736,-0.156 7.577,-0.311c-0.063,0.311 -0.095,0.654 -0.095,0.966c0,0.312 0.032,0.624 0.095,0.935c-2.152,-0.218 -6.08,-0.28 -7.577,-0.28c-0.031,0.748 -0.031,1.527 -0.031,4.521c0,2.369 0.031,3.897 0.063,4.676c2.774,0 6.454,-0.031 8.418,-0.405c-0.063,0.28 -0.094,0.685 -0.094,0.966c0,0.281 0.031,0.624 0.094,0.904c-1.84,-0.093 -3.71,-0.155 -5.613,-0.155c-1.901,0 -3.771,0.062 -5.674,0.155c0.125,-2.712 0.249,-5.425 0.249,-8.106l0,-5.362Z" style="fill:#4c575f;fill-rule:nonzero;"/><path d="M175.898,72.708c0.53,0.094 1.09,0.156 1.622,0.156c0.529,0 1.091,-0.062 1.621,-0.156c1.839,5.519 4.488,12.128 7.108,18.426c2.275,-5.051 5.768,-14.341 7.077,-18.426c0.373,0.094 0.78,0.156 1.153,0.156c0.374,0 0.779,-0.062 1.153,-0.156c-3.241,7.171 -6.235,14.342 -8.978,21.512c-0.343,-0.093 -0.686,-0.155 -1.029,-0.155c-0.344,0 -0.749,0.062 -1.028,0.155c-1.871,-5.144 -5.674,-14.341 -8.699,-21.512Z" style="fill:#4c575f;fill-rule:nonzero;"/><path d="M219.444,80.783c0,-2.681 -0.125,-5.393 -0.249,-8.075c0.529,0.094 1.028,0.156 1.526,0.156c0.5,0 0.999,-0.062 1.531,-0.156c-0.127,2.682 -0.25,5.394 -0.25,8.075c0,5.238 0.062,8.916 0.094,11.972c2.932,0 5.488,0 8.605,-0.405c-0.093,0.311 -0.156,0.623 -0.156,0.935c0,0.312 0.063,0.623 0.156,0.935c-1.901,-0.093 -3.835,-0.155 -5.736,-0.155c-1.933,0 -3.838,0.062 -5.77,0.155c0.124,-2.681 0.249,-5.394 0.249,-8.074l0,-5.363Z" style="fill:#4c575f;fill-rule:nonzero;"/><path d="M270.22,94.626c-4.738,-5.581 -10.412,-11.567 -15.744,-17.241c-0.031,1.153 -0.093,3.024 -0.093,6.329c0,2.681 0.125,9.259 0.28,10.506c-0.343,-0.093 -0.717,-0.155 -1.091,-0.155c-0.374,0 -0.748,0.062 -1.154,0.155c0.25,-1.465 0.655,-9.446 0.655,-13.561c0,-3.929 0,-6.953 -0.092,-8.356l0.498,0c5.082,5.518 11.972,13.032 15.775,16.867c0,-5.58 0,-11.66 -0.249,-16.462c0.343,0.094 0.717,0.156 1.059,0.156c0.344,0 0.655,-0.062 0.999,-0.156c-0.188,1.84 -0.499,8.013 -0.499,10.445c0,3.18 0.061,10.07 0.093,11.473l-0.437,0Z" style="fill:#4c575f;fill-rule:nonzero;"/><path d="M293.504,92.848c-0.779,0.624 -3.367,1.778 -6.484,1.778c-6.579,0 -11.38,-4.085 -11.38,-11.161c0,-7.078 4.801,-11.162 11.691,-11.162c2.681,0 5.081,0.655 6.765,1.434c-0.312,0.561 -0.529,1.777 -0.654,2.432l-0.188,0.062c-0.873,-0.966 -2.993,-2.774 -5.923,-2.774c-4.894,0 -8.636,3.086 -8.636,10.008c0,6.92 3.742,10.007 8.636,10.007c2.962,0 5.144,-1.684 6.329,-2.587l0.124,0.124l-0.28,1.839Z" style="fill:#4c575f;fill-rule:nonzero;"/><path d="M298.965,80.783c0,-2.681 -0.126,-5.393 -0.25,-8.075c0.529,0.094 1.029,0.156 1.527,0.156c0.499,0 0.997,-0.062 1.529,-0.156c-0.126,2.682 -0.25,5.394 -0.25,8.075l0,5.363c0,2.68 0.124,5.393 0.25,8.074c-0.532,-0.093 -1.03,-0.155 -1.529,-0.155c-0.498,0 -0.998,0.062 -1.527,0.155c0.124,-2.681 0.25,-5.394 0.25,-8.074l0,-5.363Z" style="fill:#4c575f;fill-rule:nonzero;"/><path d="M311.026,59.743c0,-1.352 1.096,-2.448 2.449,-2.448c1.351,0 2.448,1.096 2.448,2.448c0,1.353 -1.097,2.449 -2.448,2.449c-1.353,0 -2.449,-1.096 -2.449,-2.449Z" style="fill:#4c575f;fill-rule:nonzero;"/><path d="M319.481,53.804l-3.897,-9.354l-3.992,9.354c-1.309,3.211 -2.493,6.391 -3.023,8.355c-0.406,-0.093 -0.78,-0.156 -1.154,-0.156c-0.375,0 -0.748,0.063 -1.154,0.156c3.337,-7.296 6.579,-14.56 9.759,-21.917l0.592,0c3.054,7.233 7.733,18.581 9.384,21.917c-0.56,-0.093 -1.092,-0.156 -1.651,-0.156c-0.562,0 -1.091,0.063 -1.652,0.156c-0.593,-2.151 -2.091,-5.581 -3.212,-8.355Z" style="fill:#4c575f;fill-rule:nonzero;"/><path d="M311.128,91.578c0,-1.352 1.097,-2.449 2.448,-2.449c1.353,0 2.45,1.097 2.45,2.449c0,1.352 -1.097,2.449 -2.45,2.449c-1.351,0 -2.448,-1.097 -2.448,-2.449Z" style="fill:#4c575f;fill-rule:nonzero;"/><path d="M319.583,85.638l-3.897,-9.353l-3.991,9.353c-1.309,3.211 -2.494,6.39 -3.024,8.355c-0.405,-0.093 -0.778,-0.155 -1.153,-0.155c-0.375,0 -0.748,0.062 -1.155,0.155c3.337,-7.295 6.58,-14.56 9.759,-21.917l0.593,0c3.055,7.233 7.732,18.581 9.383,21.917c-0.56,-0.093 -1.09,-0.155 -1.651,-0.155c-0.561,0 -1.091,0.062 -1.652,0.155c-0.594,-2.151 -2.09,-5.581 -3.212,-8.355Z" style="fill:#4c575f;fill-rule:nonzero;"/><path d="M200.281,91.578c0,-1.352 1.098,-2.449 2.45,-2.449c1.351,0 2.449,1.097 2.449,2.449c0,1.352 -1.098,2.449 -2.449,2.449c-1.352,0 -2.45,-1.097 -2.45,-2.449Z" style="fill:#4c575f;fill-rule:nonzero;"/><path d="M208.737,85.638l-3.897,-9.353l-3.991,9.353c-1.309,3.211 -2.494,6.39 -3.024,8.355c-0.405,-0.093 -0.779,-0.155 -1.153,-0.155c-0.375,0 -0.749,0.062 -1.154,0.155c3.337,-7.295 6.578,-14.56 9.758,-21.917l0.593,0c3.054,7.233 7.732,18.581 9.383,21.917c-0.559,-0.093 -1.091,-0.155 -1.651,-0.155c-0.562,0 -1.091,0.062 -1.653,0.155c-0.592,-2.151 -2.089,-5.581 -3.211,-8.355Z" style="fill:#4c575f;fill-rule:nonzero;"/><path d="M278.989,17.424c0,-2.151 -0.031,-4.302 -0.093,-6.454c-2.151,0 -4.926,0.125 -6.671,0.344c0.094,-0.312 0.156,-0.655 0.156,-0.998c0,-0.311 -0.062,-0.623 -0.156,-0.967c2.68,0.094 5.362,0.156 8.044,0.156c2.68,0 5.362,-0.062 8.042,-0.156c-0.092,0.344 -0.156,0.656 -0.156,0.998c0,0.312 0.064,0.655 0.156,0.967c-1.745,-0.219 -4.521,-0.344 -6.671,-0.344c-0.062,2.152 -0.094,4.303 -0.094,6.454l0,5.362c0,2.681 0.126,5.394 0.25,8.075c-0.53,-0.094 -1.029,-0.156 -1.527,-0.156c-0.499,0 -0.999,0.062 -1.529,0.156c0.125,-2.681 0.249,-5.394 0.249,-8.075l0,-5.362Z" style="fill:#4c575f;fill-rule:nonzero;"/><path d="M316.674,17.424c0,-2.151 -0.031,-4.302 -0.094,-6.454c-2.15,0 -4.926,0.125 -6.671,0.344c0.094,-0.312 0.157,-0.655 0.157,-0.998c0,-0.311 -0.063,-0.623 -0.157,-0.967c2.681,0.094 5.363,0.156 8.044,0.156c2.681,0 5.363,-0.062 8.043,-0.156c-0.093,0.344 -0.156,0.656 -0.156,0.998c0,0.312 0.063,0.655 0.156,0.967c-1.746,-0.219 -4.521,-0.344 -6.672,-0.344c-0.062,2.152 -0.093,4.303 -0.093,6.454l0,5.362c0,2.681 0.125,5.394 0.25,8.075c-0.531,-0.094 -1.03,-0.156 -1.528,-0.156c-0.5,0 -0.998,0.062 -1.528,0.156c0.125,-2.681 0.249,-5.394 0.249,-8.075l0,-5.362Z" style="fill:#4c575f;fill-rule:nonzero;"/><path d="M238.496,74.217l2.432,0l3.163,0.064c0.949,0.062 1.893,0.158 2.844,0.346c-0.032,-0.315 -0.097,-0.63 -0.097,-0.945c0,-0.313 0.065,-0.596 0.097,-0.942l-11.219,0l0,21.408l11.408,0c-0.034,-0.315 -0.096,-0.627 -0.096,-0.942c0,-0.315 0.062,-0.598 0.096,-0.945c-0.978,0.158 -1.929,0.253 -2.908,0.284c-1.896,0.063 -3.792,0.189 -5.72,0.126l0,-9.18l4.898,0c0.95,0 1.864,0.126 2.814,0.157c-0.031,-0.344 -0.096,-0.628 -0.096,-0.88c0,-0.282 0.065,-0.566 0.096,-0.816c-0.95,0.031 -1.864,0.155 -2.814,0.155l-4.898,0l0,-7.89ZM243.774,70.948l-3.983,-3.929c-0.379,-0.377 -0.758,-0.816 -1.2,-1.131c-0.129,-0.126 -0.253,-0.157 -0.411,-0.22c-0.538,-0.125 -1.108,0.156 -1.295,0.659c-0.095,0.284 -0.095,0.565 0.031,0.849c0.189,0.314 0.504,0.473 0.789,0.692l4.962,3.08l1.107,0Z" style="fill:#4c575f;"/><path d="M214.715,42.524l2.432,0l3.162,0.061c0.948,0.062 1.894,0.159 2.844,0.345c-0.032,-0.314 -0.095,-0.629 -0.095,-0.944c0,-0.312 0.063,-0.596 0.095,-0.941l-11.217,0l0,21.408l11.407,0c-0.032,-0.315 -0.095,-0.628 -0.095,-0.942c0,-0.316 0.063,-0.6 0.095,-0.946c-0.979,0.159 -1.93,0.253 -2.911,0.284c-1.893,0.062 -3.789,0.19 -5.717,0.129l0,-9.182l4.897,0c0.953,0 1.866,0.125 2.815,0.155c-0.03,-0.344 -0.098,-0.627 -0.098,-0.877c0,-0.283 0.068,-0.567 0.098,-0.817c-0.949,0.03 -1.862,0.155 -2.815,0.155l-4.897,0l0,-7.888ZM219.994,39.252l-3.985,-3.929c-0.378,-0.377 -0.756,-0.819 -1.198,-1.131c-0.129,-0.126 -0.254,-0.157 -0.412,-0.219c-0.537,-0.126 -1.107,0.155 -1.295,0.659c-0.096,0.283 -0.096,0.564 0.03,0.848c0.188,0.315 0.506,0.473 0.789,0.692l4.964,3.08l1.107,0Z" style="fill:#4c575f;"/><path d="M298.726,8.704l0.632,0l8.955,20.733l0.538,1.13c-0.538,-0.062 -1.073,-0.094 -1.612,-0.094c-0.565,0 -1.165,0 -1.733,0.094l-0.283,-0.909l-1.421,-3.764l-1.542,-3.701l-3.969,-9.466l-4.045,9.466c-1.1,2.758 -2.236,5.519 -3.089,8.374c-0.346,-0.094 -0.725,-0.094 -1.104,-0.094c-0.377,0 -0.787,0.032 -1.165,0.094l9.838,-21.863ZM294.182,28.007c0,-1.35 1.102,-2.446 2.459,-2.446c1.361,0 2.459,1.096 2.459,2.446c0,1.352 -1.098,2.447 -2.459,2.447c-1.357,0 -2.459,-1.095 -2.459,-2.447Z" style="fill:#4c575f;fill-rule:nonzero;"/></svg>