<?xml version="1.0" standalone="no"?><!DOCTYPE svg PUBLIC "-//W3C//DTD SVG 1.1//EN" "http://www.w3.org/Graphics/SVG/1.1/DTD/svg11.dtd"><svg width="100%" height="100%" viewBox="0 0 137 158" version="1.1" xmlns="http://www.w3.org/2000/svg" xmlns:xlink="http://www.w3.org/1999/xlink" xml:space="preserve" style="fill-rule:evenodd;clip-rule:evenodd;stroke-linejoin:round;stroke-miterlimit:1.41421;"><path d="M29.578,52.332c3.025,1.506 3.213,5.378 1.97,7.307c-3.744,5.8 3.412,12.448 11.351,10.051c4.029,-1.224 4.925,-5.348 7.732,-4.905c1.238,0.197 1.103,-5.972 -2.207,-3.632c-5.559,3.938 -10.394,2.553 -9.566,-0.797c0.642,-2.601 0.583,-4.449 -0.412,-5.899c-0.823,-1.199 -1.427,-1.998 -3.386,-2.343c1.959,-0.358 2.563,-1.149 3.386,-2.348c0.995,-1.447 1.054,-3.295 0.412,-5.895c-0.828,-3.349 4.007,-4.739 9.566,-0.8c3.31,2.334 3.445,-3.83 2.207,-3.634c-2.807,0.446 -3.703,-3.685 -7.732,-4.899c-7.939,-2.403 -15.095,4.239 -11.351,10.048c1.243,1.927 1.055,5.804 -1.966,7.305l-0.004,0.441" style="fill:#231f20;fill-rule:nonzero;"/><path d="M78.454,13.091c-11.399,5.625 -25.443,10.603 -30.671,22.091c-5.326,11.714 -4.893,29.918 -0.041,41.002c2.876,2.346 10.979,11.659 14.46,13.687c-0.229,-10.275 2.824,-41.283 2.824,-41.283l13.428,-35.497" style="fill:#231f20;fill-rule:nonzero;"/><path d="M76.363,16.688c-10.432,5.141 -22.716,8.268 -27.024,18.979c-4.314,10.723 -3.458,28.825 -0.346,38.966c2.633,2.139 7.641,10.045 13.408,12.67c-0.218,-9.394 2.321,-38.46 2.321,-38.46l11.641,-32.155" style="fill:#231f20;fill-rule:nonzero;"/><path d="M78.454,13.091c3.53,0.128 18.308,17.105 19.11,36.097c0.243,5.682 0.275,10.743 -1.139,20.095c-4.165,7.164 -24.91,19.69 -34.223,20.588c-0.135,-1.758 -0.667,-5.4 -0.802,-7.358c-0.431,-6.165 -1.087,-9.784 -0.655,-16.042c1.857,-27.098 9.499,-45.001 17.709,-53.38" style="fill:#231f20;fill-rule:nonzero;"/><path d="M78.952,18.45c3.912,1.959 14.271,16.468 14.708,31.091c0.164,5.4 0.14,10.545 -0.931,18.479c-3.448,4.214 -16.103,12.879 -26.395,15.744c-1.308,-3.708 -1.802,-9.494 -2.185,-17.177c-1.284,-25.516 10.713,-45.316 14.803,-48.137" style="fill:#fff;fill-rule:nonzero;"/><path d="M78.771,40.851l3.469,-1.693l-0.095,8.791l6.037,-6l1.21,3.903l-6.242,5.415l4.16,4.838l-2.758,4.162l-3.761,-5.536l-3.449,9.049l-2.88,-1.41l3.921,-8.776l-6.337,0.713l1.017,-4.996l6.159,0.057l-0.451,-8.517" style="fill:#231f20;fill-rule:nonzero;"/><path d="M69.899,20.484c-2.245,3.453 -9.265,6.655 -13.902,11.613c-4.618,4.948 -5.559,9.847 -7.448,12.995c0.625,-3.76 1.867,-7.513 3.205,-9.868c4.758,-8.367 13.621,-11.706 18.145,-14.74" style="fill:#fff;fill-rule:nonzero;"/><path d="M11,102.591l3.792,0l0,1.739l0.054,0c0.526,-1.002 1.817,-2.056 3.739,-2.056c4.003,0 4.739,2.635 4.739,6.058l0,7.057l-3.95,0l0,-6.266c0,-1.477 -0.026,-3.372 -2.055,-3.372c-2.053,0 -2.367,1.605 -2.367,3.264l0,6.374l-3.952,0l0,-12.798" style="fill:#231f20;fill-rule:nonzero;"/><path d="M32.832,112.228c1.975,0 3.16,-1.317 3.16,-3.238c0,-1.922 -1.185,-3.239 -3.16,-3.239c-1.976,0 -3.161,1.317 -3.161,3.239c0,1.921 1.185,3.238 3.161,3.238ZM32.832,102.274c3.95,0 7.108,2.635 7.108,6.716c0,4.082 -3.158,6.714 -7.108,6.714c-3.95,0 -7.11,-2.632 -7.11,-6.714c0,-4.081 3.16,-6.716 7.11,-6.716" style="fill:#231f20;fill-rule:nonzero;"/><path d="M55.981,106.355c-0.577,-0.71 -1.341,-1.077 -2.29,-1.077c-0.658,0 -1.448,0.289 -1.448,1.053c0,1.893 6.663,0.289 6.663,5.16c0,3.264 -3.161,4.213 -5.9,4.213c-1.79,0 -3.765,-0.447 -5.03,-1.739l2.397,-2.657c0.739,0.894 1.606,1.395 2.792,1.395c0.894,0 1.79,-0.239 1.79,-0.923c0,-2.053 -6.661,-0.315 -6.661,-5.185c0,-3.005 2.686,-4.321 5.372,-4.321c1.684,0 3.553,0.423 4.739,1.688l-2.424,2.393" style="fill:#231f20;fill-rule:nonzero;"/><path d="M70.679,105.751l-3.476,0l0,4.266c0,1.368 0.158,2.368 1.869,2.368c0.422,0 1.265,-0.051 1.607,-0.367l0,3.292c-0.869,0.314 -1.843,0.394 -2.765,0.394c-2.632,0 -4.661,-1.081 -4.661,-3.87l0,-6.083l-2.527,0l0,-3.16l2.527,0l0,-3.79l3.95,0l0,3.79l3.476,0l0,3.16" style="fill:#231f20;fill-rule:nonzero;"/><path d="M80.475,109.781c-1.212,0 -3.897,0.104 -3.897,1.843c0,0.946 1,1.394 1.869,1.394c1.552,0 3.002,-0.816 3.002,-2.395l0,-0.842l-0.974,0ZM81.449,113.782l-0.053,0c-0.87,1.368 -2.448,1.922 -4.054,1.922c-2.397,0 -4.556,-1.369 -4.556,-3.948c0,-4.425 5.372,-4.503 8.663,-4.503c0,-1.397 -1.159,-2.293 -2.528,-2.293c-1.289,0 -2.37,0.581 -3.212,1.527l-2.107,-2.157c1.448,-1.369 3.554,-2.056 5.635,-2.056c4.609,0 5.845,2.346 5.845,6.608l0,6.507l-3.633,0l0,-1.607" style="fill:#231f20;fill-rule:nonzero;"/><path d="M87.956,102.591l3.951,0l0,2.053l0.051,0c0.845,-1.551 1.949,-2.37 3.688,-2.37c0.446,0 0.949,0.029 1.317,0.132l0,3.609c-0.554,-0.159 -1.108,-0.264 -1.685,-0.264c-3.003,0 -3.371,1.737 -3.371,4.292l0,5.346l-3.951,0l0,-12.798" style="fill:#231f20;fill-rule:nonzero;"/><path d="M107.206,106.727c-0.396,-0.556 -1.133,-0.976 -1.949,-0.976c-1.974,0 -3.158,1.317 -3.158,3.239c0,1.921 1.184,3.238 3.158,3.238c0.87,0 1.502,-0.448 1.949,-0.974l2.606,2.74c-1.236,1.263 -3.053,1.71 -4.555,1.71c-3.949,0 -7.11,-2.632 -7.11,-6.714c0,-4.081 3.161,-6.716 7.11,-6.716c1.502,0 3.319,0.448 4.555,1.712l-2.606,2.741" style="fill:#231f20;fill-rule:nonzero;"/><path d="M116.242,98.801l0,5.529l0.051,0c0.37,-1.002 1.661,-2.056 3.582,-2.056c4.002,0 4.739,2.635 4.739,6.058l0,7.057l-3.949,0l0,-6.266c0,-1.477 -0.026,-3.372 -2.055,-3.372c-2.053,0 -2.368,1.605 -2.368,3.264l0,6.374l-3.951,0l0,-16.588l3.951,0" style="fill:#231f20;fill-rule:nonzero;"/><path d="M41.893,137.512c1.975,0 3.16,-1.317 3.16,-3.238c0,-1.922 -1.185,-3.24 -3.16,-3.24c-1.976,0 -3.161,1.318 -3.161,3.24c0,1.921 1.185,3.238 3.161,3.238ZM35.099,127.875l3.633,0l0,1.685l0.055,0c0.604,-0.92 2.13,-2.003 3.923,-2.003c3.79,0 6.292,2.74 6.292,6.609c0,3.556 -2.212,6.821 -5.845,6.821c-1.631,0 -3.158,-0.446 -4.054,-1.685l-0.055,0l0,5.161l-3.949,0l0,-16.588" style="fill:#231f20;fill-rule:nonzero;"/><path d="M51.454,127.875l3.952,0l0,2.053l0.05,0c0.844,-1.551 1.949,-2.371 3.688,-2.371c0.446,0 0.948,0.029 1.316,0.131l0,3.611c-0.552,-0.159 -1.106,-0.265 -1.684,-0.265c-3.002,0 -3.37,1.737 -3.37,4.293l0,5.346l-3.952,0l0,-12.798" style="fill:#231f20;fill-rule:nonzero;"/><path d="M70.679,132.825c0.025,-1.316 -1.002,-2.423 -2.425,-2.423c-1.735,0 -2.684,1.184 -2.79,2.423l5.215,0ZM74.023,138.459c-1.264,1.606 -3.344,2.528 -5.401,2.528c-3.948,0 -7.107,-2.631 -7.107,-6.713c0,-4.083 3.159,-6.717 7.107,-6.717c3.688,0 6.005,2.634 6.005,6.717l0,1.238l-9.163,0c0.315,1.497 1.449,2.473 2.976,2.473c1.291,0 2.159,-0.658 2.818,-1.552l2.765,2.026" style="fill:#231f20;fill-rule:nonzero;"/><path d="M84.479,131.641c-0.578,-0.713 -1.341,-1.079 -2.289,-1.079c-0.66,0 -1.449,0.288 -1.449,1.054c0,1.892 6.661,0.287 6.661,5.159c0,3.264 -3.159,4.212 -5.898,4.212c-1.792,0 -3.766,-0.446 -5.029,-1.738l2.397,-2.658c0.736,0.895 1.605,1.394 2.789,1.394c0.897,0 1.792,-0.236 1.792,-0.921c0,-2.054 -6.662,-0.315 -6.662,-5.186c0,-3.003 2.685,-4.321 5.371,-4.321c1.684,0 3.556,0.425 4.741,1.688l-2.424,2.396" style="fill:#231f20;fill-rule:nonzero;"/><path d="M97.593,131.641c-0.576,-0.713 -1.34,-1.079 -2.289,-1.079c-0.658,0 -1.448,0.288 -1.448,1.054c0,1.892 6.662,0.287 6.662,5.159c0,3.264 -3.161,4.212 -5.898,4.212c-1.791,0 -3.766,-0.446 -5.031,-1.738l2.399,-2.658c0.736,0.895 1.603,1.394 2.79,1.394c0.894,0 1.789,-0.236 1.789,-0.921c0,-2.054 -6.66,-0.315 -6.66,-5.186c0,-3.003 2.685,-4.321 5.371,-4.321c1.685,0 3.555,0.425 4.74,1.688l-2.425,2.396" style="fill:#231f20;fill-rule:nonzero;"/></svg>