<?xml version="1.0" encoding="UTF-8" standalone="no"?>
<!-- Created with Inkscape (http://www.inkscape.org/) -->

<svg
   xmlns:dc="http://purl.org/dc/elements/1.1/"
   xmlns:cc="http://creativecommons.org/ns#"
   xmlns:rdf="http://www.w3.org/1999/02/22-rdf-syntax-ns#"
   xmlns:svg="http://www.w3.org/2000/svg"
   xmlns="http://www.w3.org/2000/svg"
   xmlns:sodipodi="http://sodipodi.sourceforge.net/DTD/sodipodi-0.dtd"
   xmlns:inkscape="http://www.inkscape.org/namespaces/inkscape"
   id="svg2"
   version="1.1"
   inkscape:version="0.91 r13725"
   xml:space="preserve"
   width="488.88751"
   height="135"
   viewBox="0 0 488.88751 135"
   sodipodi:docname="ORM_logo_box_cmyk.svg"><metadata
     id="metadata8"><rdf:RDF><cc:Work
         rdf:about=""><dc:format>image/svg+xml</dc:format><dc:type
           rdf:resource="http://purl.org/dc/dcmitype/StillImage" /><dc:title></dc:title></cc:Work></rdf:RDF></metadata><defs
     id="defs6" /><sodipodi:namedview
     pagecolor="#ffffff"
     bordercolor="#666666"
     borderopacity="1"
     objecttolerance="10"
     gridtolerance="10"
     guidetolerance="10"
     inkscape:pageopacity="0"
     inkscape:pageshadow="2"
     inkscape:window-width="1366"
     inkscape:window-height="717"
     id="namedview4"
     showgrid="false"
     inkscape:zoom="0.75682031"
     inkscape:cx="219.99938"
     inkscape:cy="67.5"
     inkscape:window-x="0"
     inkscape:window-y="0"
     inkscape:window-maximized="1"
     inkscape:current-layer="g10" /><g
     id="g10"
     inkscape:groupmode="layer"
     inkscape:label="ink_ext_XXXXXX"
     transform="matrix(1.25,0,0,-1.25,0,135)"><g
       id="g12"
       transform="scale(0.1,0.1)"><path
         d="m 0,0 3911.14,0 0,1080.05 L 0,1080.05 0,0 Z"
         style="fill:#d4103f;fill-opacity:1;fill-rule:nonzero;stroke:none"
         id="path14"
         inkscape:connector-curvature="0" /><path
         d="m 1964.87,726.672 0,92.168 -384.54,0 0,-553.125 384.54,0 0,92.207 -292.38,0 0,138.262 278.3,0 0,92.207 -278.3,0 0,138.281 292.38,0"
         style="fill:#ffffff;fill-opacity:1;fill-rule:nonzero;stroke:none"
         id="path16"
         inkscape:connector-curvature="0" /><path
         d="m 2250.2,265.715 0,553.113 92.19,0 0,-460.906 265.94,0 0,-92.207 -358.13,0"
         style="fill:#ffffff;fill-opacity:1;fill-rule:nonzero;stroke:none"
         id="path18"
         inkscape:connector-curvature="0" /><path
         d="m 2683.46,265.715 0,553.113 92.23,0 0,-460.906 265.92,0 0,-92.207 -358.15,0"
         style="fill:#ffffff;fill-opacity:1;fill-rule:nonzero;stroke:none"
         id="path20"
         inkscape:connector-curvature="0" /><path
         d="m 2061.61,265.715 92.1602,0 0,553.113 -92.1602,0 0,-553.113 z"
         style="fill:#ffffff;fill-opacity:1;fill-rule:nonzero;stroke:none"
         id="path22"
         inkscape:connector-curvature="0" /><path
         d="M 279.699,539.719 C 279.727,698.84 408.66,827.793 567.793,827.824 726.926,827.793 855.84,698.84 855.891,539.719 855.84,380.617 726.926,251.672 567.793,251.633 408.66,251.672 279.727,380.617 279.699,539.719 m 149.559,138.562 c -35.508,-35.633 -57.344,-84.304 -57.371,-138.562 0.027,-54.219 21.863,-102.91 57.371,-138.496 35.597,-35.528 84.289,-57.364 138.535,-57.395 54.238,0.031 102.91,21.867 138.516,57.395 35.539,35.586 57.363,84.277 57.363,138.496 0,54.258 -21.824,102.929 -57.363,138.562 -35.606,35.5 -84.278,57.305 -138.516,57.336 -54.246,-0.031 -102.938,-21.836 -138.535,-57.336"
         style="fill:#ffffff;fill-opacity:1;fill-rule:nonzero;stroke:none"
         id="path24"
         inkscape:connector-curvature="0" /><path
         d="m 1372.78,503.039 c 66.54,19.93 115.05,81.434 115.08,154.453 -0.03,89.121 -72.22,161.297 -161.34,161.336 l -277.9,0 0,-553.113 92.19,0 0,230.449 128.41,0 139.07,-230.449 107.53,0 -143.04,237.324 z m -231.97,85.34 0,138.293 185.71,0 c 38.16,-0.059 69.09,-30.977 69.14,-69.18 -0.05,-38.117 -30.98,-69.043 -69.14,-69.113 l -185.71,0"
         style="fill:#ffffff;fill-opacity:1;fill-rule:nonzero;stroke:none"
         id="path26"
         inkscape:connector-curvature="0" /><path
         d="m 983.293,759.973 c 0,-37.5 -30.383,-67.903 -67.852,-67.903 -37.492,0 -67.871,30.403 -67.871,67.903 0,37.48 30.379,67.851 67.871,67.851 37.469,0 67.852,-30.371 67.852,-67.851"
         style="fill:#ffffff;fill-opacity:1;fill-rule:nonzero;stroke:none"
         id="path28"
         inkscape:connector-curvature="0" /><path
         d="m 3452.58,818.828 -112.03,0 -141.87,-205.351 -141.9,205.351 -112.03,0 207.72,-300.742 0,-252.371 92.22,0 0,252.156 207.89,300.957"
         style="fill:#ffffff;fill-opacity:1;fill-rule:nonzero;stroke:none"
         id="path30"
         inkscape:connector-curvature="0" /><path
         d="m 3561.67,831.164 c -37.68,0 -68.25,-30.547 -68.25,-68.223 0,-37.656 30.57,-68.203 68.25,-68.203 37.63,0 68.2,30.547 68.2,68.203 0,37.676 -30.57,68.223 -68.2,68.223 m 0,-125.508 c -31.64,0 -57.31,25.664 -57.31,57.285 0,31.661 25.67,57.325 57.31,57.325 31.58,0 57.26,-25.664 57.26,-57.325 0,-31.621 -25.68,-57.285 -57.26,-57.285"
         style="fill:#ffffff;fill-opacity:1;fill-rule:nonzero;stroke:none"
         id="path32"
         inkscape:connector-curvature="0" /><path
         d="m 3592.25,777.949 c 0,11.203 -9.02,20.266 -20.25,20.266 l -38.38,0 0,-69.512 11.52,0 0,28.945 19.47,0 13.95,-28.945 12.89,0 -14.26,29.617 c 8.69,2.278 15.06,10.188 15.06,19.629 m -47.11,8.672 26.86,0 c 4.84,0 8.67,-3.875 8.67,-8.672 0,-4.812 -3.83,-8.699 -8.67,-8.699 l -26.86,0 0,17.371"
         style="fill:#ffffff;fill-opacity:1;fill-rule:nonzero;stroke:none"
         id="path34"
         inkscape:connector-curvature="0" /></g></g></svg>