<?xml version="1.0" standalone="no"?><!DOCTYPE svg PUBLIC "-//W3C//DTD SVG 1.1//EN" "http://www.w3.org/Graphics/SVG/1.1/DTD/svg11.dtd"><svg width="100%" height="100%" viewBox="0 0 261 73" version="1.1" xmlns="http://www.w3.org/2000/svg" xmlns:xlink="http://www.w3.org/1999/xlink" xml:space="preserve" style="fill-rule:evenodd;clip-rule:evenodd;stroke-linejoin:round;stroke-miterlimit:1.41421;"><g><rect x="0" y="0.998" width="260.743" height="72.002" style="fill:#c31f33;fill-rule:nonzero;"/><path d="M130.991,24.556l0,-6.145l-25.636,0l0,36.876l25.636,0l0,-6.148l-19.492,0l0,-9.218l18.553,0l0,-6.146l-18.553,0l0,-9.219l19.492,0Z" style="fill:#fff;fill-rule:nonzero;"/><path d="M150.013,55.287l0,-36.875l6.146,0l0,30.727l17.729,0l0,6.148l-23.875,0Z" style="fill:#fff;fill-rule:nonzero;"/><path d="M178.897,55.287l0,-36.875l6.148,0l0,30.727l17.729,0l0,6.148l-23.877,0Z" style="fill:#fff;fill-rule:nonzero;"/><rect x="137.44" y="18.412" width="6.145" height="36.875" style="fill:#fff;fill-rule:nonzero;"/><path d="M18.646,37.02c0.002,-10.609 8.598,-19.206 19.207,-19.208c10.608,0.002 19.203,8.599 19.206,19.208c-0.003,10.606 -8.598,19.202 -19.206,19.205c-10.609,-0.003 -19.205,-8.599 -19.207,-19.205ZM28.616,27.782c-2.367,2.375 -3.822,5.62 -3.824,9.238c0.002,3.614 1.457,6.86 3.824,9.233c2.374,2.368 5.62,3.824 9.237,3.826c3.615,-0.002 6.86,-1.458 9.233,-3.826c2.37,-2.373 3.825,-5.619 3.825,-9.233c0,-3.618 -1.455,-6.863 -3.825,-9.238c-2.373,-2.366 -5.618,-3.821 -9.233,-3.823c-3.617,0.002 -6.863,1.457 -9.237,3.823Z" style="fill:#fff;fill-rule:nonzero;"/><path d="M91.518,39.465c4.436,-1.329 7.67,-5.429 7.672,-10.297c-0.002,-5.942 -4.814,-10.753 -10.756,-10.756l-18.526,0l0,36.875l6.145,0l0,-15.364l8.561,0l9.271,15.364l7.17,0l-9.537,-15.822ZM76.053,33.775l0,-9.219l12.381,0c2.544,0.004 4.606,2.065 4.609,4.612c-0.003,2.541 -2.065,4.603 -4.609,4.607l-12.381,0Z" style="fill:#fff;fill-rule:nonzero;"/><path d="M65.552,22.336c0,2.499 -2.026,4.526 -4.523,4.526c-2.5,0 -4.525,-2.027 -4.525,-4.526c0,-2.499 2.025,-4.524 4.525,-4.524c2.497,0 4.523,2.025 4.523,4.524Z" style="fill:#fff;fill-rule:nonzero;"/><path d="M230.172,18.412l-7.468,0l-9.459,13.69l-9.459,-13.69l-7.469,0l13.848,20.05l0,16.825l6.148,0l0,-16.811l13.859,-20.064Z" style="fill:#fff;fill-rule:nonzero;"/><path d="M237.444,17.59c-2.512,0 -4.549,2.036 -4.549,4.548c0,2.51 2.037,4.547 4.549,4.547c2.51,0 4.547,-2.037 4.547,-4.547c0,-2.512 -2.037,-4.548 -4.547,-4.548ZM237.444,25.957c-2.11,0 -3.82,-1.711 -3.82,-3.819c0,-2.111 1.71,-3.822 3.82,-3.822c2.105,0 3.818,1.711 3.818,3.822c0,2.108 -1.713,3.819 -3.818,3.819Z" style="fill:#fff;fill-rule:nonzero;"/><path d="M239.483,21.137c0,-0.747 -0.602,-1.35 -1.35,-1.35l-2.558,0l0,4.633l0.767,0l0,-1.929l1.299,0l0.93,1.929l0.859,0l-0.951,-1.974c0.58,-0.152 1.004,-0.679 1.004,-1.309ZM236.342,20.559l1.791,0c0.323,0 0.578,0.258 0.578,0.578c0,0.321 -0.255,0.58 -0.578,0.58l-1.791,0l0,-1.158Z" style="fill:#fff;fill-rule:nonzero;"/></g></svg>