<?xml version="1.0" standalone="no"?><!DOCTYPE svg PUBLIC "-//W3C//DTD SVG 1.1//EN" "http://www.w3.org/Graphics/SVG/1.1/DTD/svg11.dtd"><svg width="100%" height="100%" viewBox="0 0 21164 8664" version="1.1" xmlns="http://www.w3.org/2000/svg" xmlns:xlink="http://www.w3.org/1999/xlink" xml:space="preserve" style="fill-rule:evenodd;clip-rule:evenodd;stroke-linejoin:round;stroke-miterlimit:1.41421;"><g id="Layer_x0020_1"><path d="M20481.7,6978.58l0,-6699.25l-1285.4,0l0,435.952l696.962,0l0,5827.35l-696.962,0l0,435.952l1285.4,0Z" style="fill:#2b2a29;"/><path d="M682.337,6978.58l0,-6699.25l1285.4,0l0,435.952l-696.026,0l0,5827.35l696.026,0l0,435.952l-1285.4,0Z" style="fill:#2b2a29;"/><path d="M3705,3587.33l293.753,0c324.625,0 565.054,-69.229 720.35,-208.621c156.231,-138.457 233.88,-357.368 233.88,-655.799l0,-108.52c0,-29.937 0,-54.26 0,-71.1c-21.517,-246.977 -96.359,-428.467 -225.461,-544.472c-128.166,-115.068 -319.012,-172.135 -572.537,-172.135l-449.985,0l0,1760.65ZM3032.36,5930.8l0,-4610.24l1107.65,0c443.437,0 783.965,87.003 1021.59,262.881c236.687,174.942 373.272,378.885 409.758,610.894c35.549,232.944 54.26,410.693 54.26,535.117c0,418.177 -134.715,740.931 -403.209,966.391c-269.429,226.396 -651.121,339.593 -1146.95,339.593l-370.466,0l0,1895.36l-672.638,0Z" style="fill:#f39314;"/><path d="M6924.12,3864.24l979.489,-2.806l-414.435,-1554.83c-13.097,-59.873 -24.324,-120.682 -35.55,-182.426c-10.291,-61.744 -19.646,-130.973 -28.065,-208.621l-19.646,-172.135c0,51.453 -3.742,107.584 -12.162,169.329c-8.42,62.679 -17.775,130.037 -29.937,203.007l-22.452,101.036l-18.711,89.81l-398.531,1557.64ZM5702.33,5930.8l1299.44,-4610.24l807.353,0l1305.99,4610.24l-697.897,1.871l-419.113,-1595.06l-1180.62,-0.935l-422.855,1594.12l-692.284,0Z" style="fill:#f39314;"/><path d="M11868.3,1461.83l-101.972,460.276c-21.517,-12.162 -59.873,-29.001 -115.069,-50.518c-56.131,-21.517 -137.521,-45.841 -243.235,-73.906c-107.584,-28.066 -224.524,-42.099 -352.69,-42.099c-341.465,0 -597.797,148.748 -768.062,445.307c-171.2,296.56 -256.332,767.126 -256.332,1411.7c0,116.004 1.871,231.073 6.549,346.142c3.742,115.069 18.71,299.366 44.905,553.827c25.259,254.461 126.295,484.599 304.044,691.349c176.813,206.75 406.015,310.592 687.606,310.592c217.976,0 455.598,-63.615 710.995,-191.781l96.358,-51.454l96.359,479.921c-94.488,43.034 -158.103,72.035 -192.717,87.004c-33.679,14.968 -129.102,46.776 -284.398,95.423c-156.232,49.582 -348.949,73.906 -580.022,73.906c-478.05,0 -861.613,-167.458 -1152.56,-502.374c-290.011,-334.916 -435.016,-814.837 -435.016,-1437.89c0,-934.583 141.263,-1635.29 422.855,-2103.05c281.591,-467.759 684.8,-701.639 1209.63,-701.639c98.229,0 186.168,4.677 262.881,13.097c76.712,8.42 168.393,28.066 275.042,58.002l192.717,57.067l88.875,31.808l83.261,39.291Z" style="fill:#f39314;"/><path d="M12604.6,5930.8l0,-4610.24l659.541,0l0,2048.79l18.711,-51.454l29.936,-78.583c24.324,-60.809 48.647,-108.521 72.971,-143.135l1256.4,-1779.36l729.705,3.742l-1518.35,2145.14l1754.1,2465.09l-800.805,0.936l-1395.79,-1973.01c-46.776,-72.035 -87.004,-151.554 -120.682,-236.686l-26.195,-76.713l0,2285.47l-659.541,0Z" style="fill:#f39314;"/><path d="M15562.7,1768.68l0,-448.114l2901.04,0l0,454.662l-1119.82,83.261l0,4072.32l-667.025,0l0,-4065.77l-1114.2,-96.358Z" style="fill:#f39314;"/><path d="M3335.47,7840.2c43.969,0 84.197,-9.356 123.489,-26.195c38.356,-15.904 71.099,-38.356 100.1,-65.486c28.066,-28.066 51.454,-62.68 68.293,-101.036c16.839,-38.357 24.323,-79.519 24.323,-121.618c0,-42.098 -7.484,-82.325 -24.323,-120.682c-16.839,-38.356 -40.227,-72.035 -68.293,-101.036c-29.001,-27.13 -61.744,-51.453 -100.1,-68.293c-39.292,-15.904 -79.52,-23.388 -123.489,-23.388l-299.366,0c-15.904,0 -29.001,5.613 -40.227,16.84c-10.291,12.161 -15.904,25.259 -15.904,42.098l0,1057.14c0,15.903 5.613,29.001 15.904,40.227c11.226,10.291 24.323,15.904 40.227,15.904c16.839,0 29.937,-5.613 41.163,-15.904c10.29,-11.226 15.904,-24.324 15.904,-40.227l0,-488.341l242.299,0ZM3093.17,7726.06l0,-399.466l242.299,0c28.066,0 53.325,4.677 77.648,14.032c23.388,11.227 45.841,26.195 63.615,43.97c18.711,18.71 33.679,41.163 43.97,64.551c9.355,24.323 14.968,49.582 14.968,76.712c0,28.066 -5.613,53.325 -14.968,77.648c-10.291,23.388 -25.259,45.841 -43.97,63.616c-17.774,18.71 -40.227,33.678 -63.615,43.033c-24.323,10.291 -49.582,15.904 -77.648,15.904l-242.299,0Z" style="fill:#2b2a29;"/><path d="M4621.81,8135.82c20.581,49.582 49.582,93.552 86.068,130.037c37.42,36.485 81.39,65.486 130.972,86.068c49.583,22.452 100.101,32.743 157.167,32.743c57.067,0 110.392,-10.291 159.974,-32.743c49.583,-20.582 91.681,-49.583 128.166,-86.068c36.486,-36.485 66.422,-80.455 87.939,-130.037c22.453,-49.583 33.679,-101.036 33.679,-158.103l0,-704.446c0,-13.097 -5.613,-28.066 -14.969,-40.227c-9.355,-13.098 -24.323,-20.582 -40.227,-20.582c-16.839,0 -31.807,5.613 -42.098,18.711c-11.226,12.161 -16.84,27.13 -16.84,40.227l0,706.317c0,40.227 -7.484,78.584 -23.388,114.133c-16.839,34.614 -37.42,65.487 -64.55,91.681c-28.066,27.13 -58.938,47.712 -93.552,63.615c-34.614,16.84 -73.906,24.324 -114.134,24.324c-40.227,0 -78.583,-7.484 -113.197,-24.324c-37.421,-15.903 -68.293,-36.485 -93.552,-63.615c-28.066,-26.194 -47.712,-57.067 -62.68,-91.681c-16.839,-35.549 -24.324,-73.906 -24.324,-114.133l0,-704.446c0,-16.839 -4.677,-29.937 -14.032,-42.098c-9.356,-13.098 -24.324,-18.711 -40.228,-18.711c-16.839,0 -31.807,5.613 -43.034,18.711c-10.29,12.161 -15.903,27.13 -15.903,40.227l0,706.317c0,57.067 11.226,108.52 32.743,158.103Z" style="fill:#2b2a29;"/><path d="M7001.77,7384.6c-16.839,-34.614 -36.485,-63.615 -62.679,-89.81c-25.259,-25.259 -54.26,-45.84 -89.81,-59.873c-34.614,-14.969 -71.1,-22.453 -109.456,-22.453l-326.496,0c-16.839,0 -29.937,5.613 -41.163,16.84c-10.291,10.29 -15.904,23.388 -15.904,40.227l0,1059.01c0,15.903 5.613,29.001 15.904,40.227c11.226,10.291 24.324,15.904 41.163,15.904l326.496,0c49.583,0 95.423,-8.42 139.392,-29.001c42.099,-18.711 80.455,-43.97 113.198,-76.713c31.808,-31.808 57.067,-70.164 75.777,-114.133c17.775,-42.099 27.13,-87.939 27.13,-137.522c0,-68.292 -16.839,-128.166 -47.711,-183.361c-32.743,-53.325 -76.713,-95.423 -130.037,-127.231c30.872,-27.13 57.066,-58.002 76.712,-97.294c20.582,-38.356 29.937,-78.583 29.937,-122.553c0,-38.356 -7.484,-76.712 -22.453,-112.262ZM6963.41,8120.85c-13.097,29.001 -30.872,55.196 -53.324,76.713c-21.517,22.452 -47.712,40.227 -76.713,53.325c-29.937,13.097 -60.809,20.581 -93.552,20.581l-270.365,0l0,-488.341l270.365,0c32.743,0 63.615,5.613 93.552,18.71c29.001,12.162 55.196,30.872 76.713,52.389c22.452,22.453 40.227,47.712 53.324,77.649c13.097,30.872 18.71,62.679 18.71,95.422c0,32.744 -5.613,64.551 -18.71,93.552ZM6469.46,7326.6l270.365,0c23.388,0 45.84,3.742 65.486,12.161c20.582,9.356 38.357,22.453 55.196,37.421c14.968,15.904 26.195,34.614 34.614,54.26c9.355,20.582 13.097,43.034 13.097,66.422c0,24.324 -3.742,45.841 -13.097,66.422c-8.419,19.646 -19.646,38.356 -34.614,53.325c-16.839,15.903 -34.614,29.001 -55.196,38.356c-19.646,8.42 -42.098,14.033 -65.486,14.033l-270.365,0l0,-342.4Z" style="fill:#2b2a29;"/><path d="M8026.16,8328.54c0,15.903 4.677,29.001 15.904,40.227c11.226,10.291 24.323,15.904 40.227,15.904l522.955,0c16.839,0 29.937,-5.613 41.163,-15.904c10.291,-11.226 15.904,-24.324 15.904,-40.227c0,-16.84 -5.613,-29.937 -15.904,-41.163c-11.226,-10.291 -24.324,-15.904 -41.163,-15.904l-465.888,0l0,-1001.94c0,-16.839 -5.613,-29.937 -15.904,-40.227c-11.226,-11.227 -24.324,-16.84 -41.163,-16.84c-15.904,0 -29.001,5.613 -40.227,16.84c-11.227,10.29 -15.904,23.388 -15.904,40.227l0,1059.01Z" style="fill:#2b2a29;"/><path d="M9603.45,8328.54c0,15.903 5.613,29.001 16.839,40.227c11.227,10.291 24.324,15.904 40.228,15.904c16.839,0 29.936,-5.613 40.227,-15.904c11.226,-11.226 16.839,-24.324 16.839,-40.227l0,-1059.01c0,-16.839 -5.613,-29.937 -16.839,-40.227c-10.291,-11.227 -23.388,-16.84 -40.227,-16.84c-15.904,0 -29.001,5.613 -40.228,16.84c-11.226,10.29 -16.839,23.388 -16.839,40.227l0,1059.01Z" style="fill:#2b2a29;"/><path d="M11181.7,8357.54c45.84,-16.84 86.068,-42.099 121.617,-73.906c34.614,-30.872 61.744,-67.358 82.326,-109.456c19.646,-42.098 30.872,-87.939 30.872,-137.521c0,-49.583 -7.484,-91.681 -21.517,-127.231c-16.839,-34.614 -37.421,-65.486 -64.551,-93.552c-27.13,-27.13 -60.808,-49.582 -99.165,-69.228c-38.356,-20.582 -80.454,-38.357 -126.295,-55.196c-24.323,-9.355 -51.453,-18.71 -84.197,-29.001c-33.678,-11.226 -64.55,-24.323 -95.422,-39.292c-31.808,-14.033 -57.067,-30.872 -77.649,-51.453c-21.517,-19.646 -32.743,-42.099 -32.743,-65.487c0,-34.614 7.484,-62.679 21.517,-86.067c14.969,-22.453 33.679,-41.163 57.067,-53.325c22.452,-13.097 45.84,-24.324 73.906,-29.937c27.13,-5.613 53.324,-8.419 76.712,-8.419c16.84,0 34.615,0 55.196,1.871c19.646,0.935 40.227,6.548 60.809,14.033c19.646,7.484 38.356,18.71 58.002,31.807c20.581,14.033 37.421,34.614 51.454,58.002c9.355,13.098 20.581,22.453 37.42,28.066c15.904,5.613 30.872,1.871 45.841,-7.484c14.033,-9.355 23.388,-22.453 25.259,-42.099c1.871,-18.71 -1.871,-34.614 -11.226,-47.711c-21.517,-31.808 -45.841,-55.196 -71.1,-75.777c-28.065,-19.646 -55.196,-34.614 -82.326,-45.841c-28.065,-10.29 -57.066,-17.774 -85.132,-23.388c-29.001,-3.742 -57.067,-5.613 -84.197,-5.613c-40.227,0 -80.454,5.613 -120.682,18.711c-43.033,12.161 -79.519,32.743 -112.262,56.131c-32.743,26.194 -60.809,57.067 -80.454,91.681c-20.582,37.421 -31.808,79.519 -31.808,125.359c0,40.228 11.226,74.842 33.679,106.649c21.517,30.873 49.582,58.003 84.196,82.326c32.743,23.388 69.229,42.099 111.327,58.938c41.163,15.904 79.519,30.872 116.004,42.098c36.486,12.162 72.035,25.259 102.908,40.228c30.872,14.968 58.937,30.872 82.325,49.582c24.324,17.775 42.099,40.227 55.196,63.615c13.097,24.324 18.71,53.325 18.71,87.004c0,32.743 -7.484,63.615 -22.452,91.681c-14.969,29.001 -32.743,55.195 -57.067,74.841c-23.388,20.581 -53.324,36.485 -84.197,49.583c-30.872,13.097 -64.55,18.71 -97.294,18.71c-19.646,0 -43.969,-3.742 -69.228,-9.355c-28.066,-5.613 -53.325,-13.098 -79.519,-26.195c-25.259,-10.29 -49.583,-25.259 -69.229,-42.098c-22.452,-15.904 -38.356,-34.614 -49.582,-56.131c-9.355,-14.969 -20.581,-24.324 -35.55,-29.937c-15.904,-3.742 -30.872,-1.871 -45.84,7.484c-14.033,9.355 -23.388,20.582 -27.13,34.614c-5.613,16.84 -3.742,31.808 5.613,45.841c14.968,28.065 36.485,53.324 64.551,77.648c27.13,23.388 56.131,42.098 91.681,58.002c32.743,16.84 67.357,29.937 105.713,39.292c37.421,8.42 72.035,14.033 106.649,14.033c49.583,0 95.423,-8.42 141.264,-27.13Z" style="fill:#2b2a29;"/><path d="M12359.5,8328.54c0,15.903 5.613,29.001 16.84,40.227c11.226,10.291 24.323,15.904 40.227,15.904c16.839,0 29.937,-5.613 40.227,-15.904c11.227,-11.226 16.84,-24.324 16.84,-40.227l0,-429.404l585.635,0l0,429.404c0,15.903 5.613,29.001 15.903,40.227c11.227,10.291 24.324,15.904 41.163,15.904c15.904,0 29.001,-5.613 40.228,-15.904c10.29,-11.226 15.903,-24.324 15.903,-40.227l0,-1059.01c0,-16.839 -5.613,-29.937 -15.903,-40.227c-11.227,-11.227 -24.324,-16.84 -40.228,-16.84c-16.839,0 -29.936,5.613 -41.163,16.84c-10.29,10.29 -15.903,23.388 -15.903,40.227l0,515.471l-585.635,0l0,-515.471c0,-16.839 -5.613,-29.937 -16.84,-40.227c-10.29,-11.227 -23.388,-16.84 -40.227,-16.84c-15.904,0 -29.001,5.613 -40.227,16.84c-11.227,10.29 -16.84,23.388 -16.84,40.227l0,1059.01Z" style="fill:#2b2a29;"/><path d="M14139.8,8328.54c0,15.903 5.613,29.001 16.839,40.227c10.291,10.291 23.388,15.904 40.228,15.904c15.904,0 29.001,-5.613 40.227,-15.904c11.226,-11.226 16.839,-24.324 16.839,-40.227l0,-1059.01c0,-16.839 -5.613,-29.937 -16.839,-40.227c-11.226,-11.227 -24.323,-16.84 -40.227,-16.84c-16.84,0 -29.937,5.613 -40.228,16.84c-11.226,10.29 -16.839,23.388 -16.839,40.227l0,1059.01Z" style="fill:#2b2a29;"/><path d="M15222.2,8328.54c0,15.903 5.613,29.001 16.839,40.227c11.226,10.291 23.388,15.904 40.227,15.904c16.84,0 29.002,-5.613 40.228,-15.904c11.226,-11.226 16.839,-24.324 16.839,-40.227l0,-870.033l627.733,887.807c6.549,9.356 14.033,18.711 23.388,26.195c7.485,8.42 18.711,12.162 30.873,12.162c16.839,0 29.936,-5.613 41.162,-15.904c10.291,-11.226 15.904,-24.324 15.904,-40.227l0,-1059.01c0,-16.839 -5.613,-29.937 -15.904,-40.227c-11.226,-11.227 -24.323,-16.84 -41.162,-16.84c-15.904,0 -29.002,5.613 -40.228,16.84c-10.291,10.29 -15.904,23.388 -15.904,40.227l0,868.162l-631.475,-894.357c-7.484,-8.419 -14.968,-17.774 -20.581,-23.388c-7.485,-5.613 -17.775,-7.484 -30.873,-7.484c-16.839,0 -29.001,5.613 -40.227,16.84c-11.226,10.29 -16.839,23.388 -16.839,40.227l0,1059.01Z" style="fill:#2b2a29;"/><path d="M18029.7,7550.19c16.839,1.871 29.936,-1.871 40.227,-11.227c13.097,-11.226 20.581,-23.387 22.452,-38.356c1.871,-14.968 -3.742,-29.001 -13.097,-42.098c-53.324,-73.906 -118.811,-131.908 -202.072,-175.878c-82.326,-44.905 -174.007,-66.422 -271.301,-66.422c-80.454,0 -156.231,14.969 -227.331,45.841c-72.035,30.872 -131.908,71.099 -185.233,124.424c-53.324,53.324 -93.551,116.004 -125.359,187.104c-30.872,72.035 -45.84,146.876 -45.84,228.266c0,80.455 14.968,155.297 45.84,227.331c31.808,71.1 72.035,131.909 125.359,185.233c53.325,53.325 113.198,93.552 185.233,124.424c71.1,31.808 146.877,45.841 227.331,45.841c70.164,0 135.651,-10.291 200.202,-34.614c63.615,-23.388 120.681,-55.196 172.135,-97.294c49.583,-40.228 93.552,-89.81 129.102,-146.877c34.614,-57.067 58.002,-116.94 71.099,-183.362c3.742,-18.71 0,-34.614 -9.355,-51.453c-9.355,-14.969 -23.388,-21.517 -43.969,-21.517l-332.11,0c-16.839,0 -29.001,4.677 -40.227,15.904c-11.226,11.226 -16.839,24.323 -16.839,40.227c0,16.839 5.613,29.937 16.839,41.163c11.226,10.291 23.388,15.904 40.227,15.904l255.397,0c-16.839,45.84 -40.227,86.067 -68.293,125.359c-29.001,38.356 -61.744,69.229 -101.036,97.294c-38.356,27.13 -80.455,47.712 -126.295,61.744c-45.841,16.84 -95.423,24.324 -146.877,24.324c-64.55,0 -126.295,-13.097 -183.361,-37.421c-57.067,-23.388 -106.649,-58.002 -148.748,-100.1c-42.098,-42.099 -76.712,-91.681 -101.036,-148.748c-23.388,-57.067 -36.485,-119.746 -36.485,-183.362c0,-64.55 13.097,-127.23 36.485,-184.297c24.324,-56.131 58.938,-107.585 101.036,-149.683c42.099,-42.098 91.681,-77.648 148.748,-101.036c57.066,-24.324 118.811,-36.485 183.361,-36.485c64.551,0 130.038,14.033 196.459,45.84c64.551,30.872 126.296,80.455 183.362,147.812c13.097,16.84 27.13,24.324 43.97,26.195Z" style="fill:#2b2a29;"/><path d="M3335.47,7840.2c43.969,0 84.197,-9.356 123.489,-26.195c38.356,-15.904 71.099,-38.356 100.1,-65.486c28.066,-28.066 51.454,-62.68 68.293,-101.036c16.839,-38.357 24.323,-79.519 24.323,-121.618c0,-42.098 -7.484,-82.325 -24.323,-120.682c-16.839,-38.356 -40.227,-72.035 -68.293,-101.036c-29.001,-27.13 -61.744,-51.453 -100.1,-68.293c-39.292,-15.904 -79.52,-23.388 -123.489,-23.388l-299.366,0c-15.904,0 -29.001,5.613 -40.227,16.84c-10.291,12.161 -15.904,25.259 -15.904,42.098l0,1057.14c0,15.903 5.613,29.001 15.904,40.227c11.226,10.291 24.323,15.904 40.227,15.904c16.839,0 29.937,-5.613 41.163,-15.904c10.29,-11.226 15.904,-24.324 15.904,-40.227l0,-488.341l242.299,0ZM3093.17,7726.06l0,-399.466l242.299,0c28.066,0 53.325,4.677 77.648,14.032c23.388,11.227 45.841,26.195 63.615,43.97c18.711,18.71 33.679,41.163 43.97,64.551c9.355,24.323 14.968,49.582 14.968,76.712c0,28.066 -5.613,53.325 -14.968,77.648c-10.291,23.388 -25.259,45.841 -43.97,63.616c-17.774,18.71 -40.227,33.678 -63.615,43.033c-24.323,10.291 -49.582,15.904 -77.648,15.904l-242.299,0ZM4621.81,8135.82c20.581,49.582 49.582,93.552 86.068,130.037c37.42,36.485 81.39,65.486 130.972,86.068c49.583,22.452 100.101,32.743 157.167,32.743c57.067,0 110.392,-10.291 159.974,-32.743c49.583,-20.582 91.681,-49.583 128.166,-86.068c36.486,-36.485 66.422,-80.455 87.939,-130.037c22.453,-49.583 33.679,-101.036 33.679,-158.103l0,-704.446c0,-13.097 -5.613,-28.066 -14.969,-40.227c-9.355,-13.098 -24.323,-20.582 -40.227,-20.582c-16.839,0 -31.807,5.613 -42.098,18.711c-11.226,12.161 -16.84,27.13 -16.84,40.227l0,706.317c0,40.227 -7.484,78.584 -23.388,114.133c-16.839,34.614 -37.42,65.487 -64.55,91.681c-28.066,27.13 -58.938,47.712 -93.552,63.615c-34.614,16.84 -73.906,24.324 -114.134,24.324c-40.227,0 -78.583,-7.484 -113.197,-24.324c-37.421,-15.903 -68.293,-36.485 -93.552,-63.615c-28.066,-26.194 -47.712,-57.067 -62.68,-91.681c-16.839,-35.549 -24.324,-73.906 -24.324,-114.133l0,-704.446c0,-16.839 -4.677,-29.937 -14.032,-42.098c-9.356,-13.098 -24.324,-18.711 -40.228,-18.711c-16.839,0 -31.807,5.613 -43.034,18.711c-10.29,12.161 -15.903,27.13 -15.903,40.227l0,706.317c0,57.067 11.226,108.52 32.743,158.103ZM7001.77,7384.6c-16.839,-34.614 -36.485,-63.615 -62.679,-89.81c-25.259,-25.259 -54.26,-45.84 -89.81,-59.873c-34.614,-14.969 -71.1,-22.453 -109.456,-22.453l-326.496,0c-16.839,0 -29.937,5.613 -41.163,16.84c-10.291,10.29 -15.904,23.388 -15.904,40.227l0,1059.01c0,15.903 5.613,29.001 15.904,40.227c11.226,10.291 24.324,15.904 41.163,15.904l326.496,0c49.583,0 95.423,-8.42 139.392,-29.001c42.099,-18.711 80.455,-43.97 113.198,-76.713c31.808,-31.808 57.067,-70.164 75.777,-114.133c17.775,-42.099 27.13,-87.939 27.13,-137.522c0,-68.292 -15.904,-128.166 -47.711,-183.361c-32.743,-53.325 -76.713,-95.423 -130.037,-127.231c30.872,-27.13 57.066,-58.002 76.712,-97.294c20.582,-38.356 29.937,-78.583 29.937,-122.553c0,-38.356 -7.484,-76.712 -22.453,-112.262ZM6963.41,8120.85c-13.097,29.001 -30.872,55.196 -53.324,76.713c-21.517,22.452 -47.712,40.227 -76.713,53.325c-29.937,13.097 -60.809,20.581 -93.552,20.581l-270.365,0l0,-488.341l270.365,0c32.743,0 63.615,5.613 93.552,18.71c29.001,12.162 55.196,30.872 76.713,52.389c22.452,22.453 40.227,47.712 53.324,77.649c13.097,30.872 18.71,62.679 18.71,95.422c0,32.744 -5.613,64.551 -18.71,93.552ZM6469.46,7326.6l270.365,0c23.388,0 45.84,3.742 65.486,12.161c20.582,9.356 38.357,22.453 55.196,37.421c14.968,15.904 26.195,34.614 34.614,54.26c9.355,20.582 13.097,43.034 13.097,66.422c0,24.324 -3.742,45.841 -13.097,66.422c-8.419,19.646 -19.646,38.356 -34.614,53.325c-16.839,15.903 -34.614,29.001 -55.196,38.356c-19.646,8.42 -42.098,14.033 -65.486,14.033l-270.365,0l0,-342.4ZM8026.16,8328.54c0,15.903 4.677,29.001 15.904,40.227c11.226,10.291 24.323,15.904 40.227,15.904l522.955,0c16.839,0 29.937,-5.613 41.163,-15.904c10.291,-11.226 15.904,-24.324 15.904,-40.227c0,-16.84 -5.613,-29.937 -15.904,-41.163c-11.226,-10.291 -24.324,-15.904 -41.163,-15.904l-465.888,0l0,-1001.94c0,-16.839 -5.613,-29.937 -15.904,-40.227c-11.226,-11.227 -24.324,-16.84 -41.163,-16.84c-15.904,0 -29.001,5.613 -40.227,16.84c-11.227,10.29 -15.904,23.388 -15.904,40.227l0,1059.01ZM9603.45,8328.54c0,15.903 5.613,29.001 16.839,40.227c11.227,10.291 24.324,15.904 40.228,15.904c16.839,0 29.936,-5.613 40.227,-15.904c11.226,-11.226 16.839,-24.324 16.839,-40.227l0,-1059.01c0,-16.839 -5.613,-29.937 -16.839,-40.227c-10.291,-11.227 -23.388,-16.84 -40.227,-16.84c-15.904,0 -29.001,5.613 -40.228,16.84c-11.226,10.29 -16.839,23.388 -16.839,40.227l0,1059.01ZM11181.7,8357.54c45.84,-16.84 86.068,-42.099 121.617,-73.906c34.614,-30.872 61.744,-67.358 82.326,-109.456c19.646,-42.098 30.872,-87.939 30.872,-137.521c0,-49.583 -7.484,-91.681 -21.517,-127.231c-16.839,-34.614 -37.421,-65.486 -64.551,-93.552c-27.13,-27.13 -60.808,-49.582 -99.165,-69.228c-38.356,-20.582 -80.454,-38.357 -126.295,-55.196c-24.323,-9.355 -51.453,-18.71 -84.197,-29.001c-33.678,-11.226 -64.55,-24.323 -95.422,-39.292c-31.808,-14.033 -57.067,-30.872 -77.649,-51.453c-21.517,-19.646 -32.743,-42.099 -32.743,-65.487c0,-34.614 7.484,-62.679 21.517,-86.067c14.969,-22.453 33.679,-41.163 57.067,-53.325c22.452,-13.097 45.84,-24.324 73.906,-29.937c27.13,-5.613 53.324,-8.419 76.712,-8.419c16.84,0 34.615,0 55.196,1.871c19.646,0.935 40.227,6.548 60.809,14.033c19.646,7.484 38.356,18.71 58.002,31.807c20.581,14.033 37.421,34.614 51.454,58.002c9.355,13.098 20.581,22.453 37.42,28.066c15.904,5.613 30.872,1.871 45.841,-7.484c14.033,-9.355 23.388,-22.453 25.259,-42.099c1.871,-18.71 -1.871,-34.614 -11.226,-47.711c-21.517,-31.808 -45.841,-55.196 -71.1,-75.777c-28.065,-19.646 -55.196,-34.614 -83.261,-45.841c-27.13,-10.29 -56.131,-17.774 -84.197,-23.388c-29.001,-3.742 -57.067,-5.613 -84.197,-5.613c-40.227,0 -80.454,5.613 -120.682,18.711c-43.033,12.161 -79.519,32.743 -112.262,56.131c-32.743,26.194 -60.809,57.067 -80.454,91.681c-20.582,37.421 -31.808,79.519 -31.808,125.359c0,40.228 11.226,74.842 33.679,106.649c21.517,30.873 49.582,58.003 84.196,82.326c32.743,23.388 69.229,42.099 111.327,58.938c41.163,15.904 79.519,30.872 116.004,42.098c36.486,12.162 72.035,25.259 102.908,40.228c30.872,14.968 58.937,30.872 82.325,49.582c24.324,17.775 42.099,40.227 55.196,63.615c13.097,24.324 18.71,53.325 18.71,87.004c0,32.743 -7.484,63.615 -22.452,91.681c-14.969,29.001 -32.743,55.195 -57.067,74.841c-23.388,20.581 -53.324,36.485 -84.197,49.583c-30.872,13.097 -64.55,18.71 -97.294,18.71c-19.646,0 -43.969,-3.742 -69.228,-9.355c-28.066,-5.613 -53.325,-13.098 -79.519,-26.195c-25.259,-10.29 -49.583,-25.259 -69.229,-42.098c-22.452,-15.904 -39.291,-34.614 -49.582,-56.131c-9.355,-14.969 -20.581,-24.324 -35.55,-29.937c-15.904,-3.742 -30.872,-1.871 -45.84,7.484c-14.033,9.355 -23.388,20.582 -27.13,34.614c-5.613,16.84 -3.742,31.808 5.613,45.841c14.968,28.065 36.485,53.324 64.551,77.648c27.13,23.388 56.131,42.098 91.681,58.002c32.743,16.84 67.357,29.937 105.713,39.292c37.421,8.42 72.035,14.033 106.649,14.033c49.583,0 95.423,-8.42 141.264,-27.13ZM12359.5,8328.54c0,15.903 5.613,29.001 16.84,40.227c11.226,10.291 24.323,15.904 40.227,15.904c16.839,0 29.937,-5.613 40.227,-15.904c11.227,-11.226 16.84,-24.324 16.84,-40.227l0,-429.404l585.635,0l0,429.404c0,15.903 5.613,29.001 15.903,40.227c11.227,10.291 24.324,15.904 40.228,15.904c16.839,0 29.936,-5.613 41.163,-15.904c10.29,-11.226 15.903,-24.324 15.903,-40.227l0,-1059.01c0,-16.839 -5.613,-29.937 -15.903,-40.227c-11.227,-11.227 -24.324,-16.84 -41.163,-16.84c-15.904,0 -29.001,5.613 -40.228,16.84c-10.29,10.29 -15.903,23.388 -15.903,40.227l0,515.471l-585.635,0l0,-515.471c0,-16.839 -5.613,-29.937 -16.84,-40.227c-10.29,-11.227 -23.388,-16.84 -40.227,-16.84c-15.904,0 -29.001,5.613 -40.227,16.84c-11.227,10.29 -16.84,23.388 -16.84,40.227l0,1059.01ZM14139.8,8328.54c0,15.903 5.613,29.001 16.839,40.227c10.291,10.291 23.388,15.904 40.228,15.904c15.904,0 29.001,-5.613 40.227,-15.904c11.226,-11.226 16.839,-24.324 16.839,-40.227l0,-1059.01c0,-16.839 -5.613,-29.937 -16.839,-40.227c-11.226,-11.227 -24.323,-16.84 -40.227,-16.84c-16.84,0 -29.937,5.613 -40.228,16.84c-11.226,10.29 -16.839,23.388 -16.839,40.227l0,1059.01ZM15222.2,8328.54c0,15.903 5.613,29.001 16.839,40.227c11.226,10.291 23.388,15.904 40.227,15.904c16.84,0 29.002,-5.613 40.228,-15.904c11.226,-11.226 16.839,-24.324 16.839,-40.227l0,-870.033l627.733,887.807c6.549,9.356 14.033,18.711 23.388,26.195c7.485,8.42 18.711,12.162 30.873,12.162c16.839,0 29.936,-5.613 41.162,-15.904c10.291,-11.226 15.904,-24.324 15.904,-40.227l0,-1059.01c0,-16.839 -5.613,-29.937 -15.904,-40.227c-11.226,-11.227 -24.323,-16.84 -41.162,-16.84c-15.904,0 -29.002,5.613 -40.228,16.84c-11.226,10.29 -15.904,23.388 -15.904,40.227l0,868.162l-631.475,-894.357c-7.484,-8.419 -14.968,-17.774 -20.581,-23.388c-7.485,-5.613 -17.775,-7.484 -30.873,-7.484c-16.839,0 -29.001,5.613 -40.227,16.84c-11.226,10.29 -16.839,23.388 -16.839,40.227l0,1059.01ZM18029.7,7550.19c16.839,1.871 29.001,-1.871 40.227,-11.227c13.097,-11.226 20.581,-23.387 22.452,-38.356c1.871,-14.968 -3.742,-29.001 -13.097,-42.098c-53.324,-73.906 -118.811,-131.908 -202.072,-175.878c-82.326,-44.905 -174.007,-66.422 -271.301,-66.422c-80.454,0 -156.231,14.969 -227.331,45.841c-72.035,30.872 -131.908,71.099 -185.233,124.424c-53.324,53.324 -93.551,116.004 -125.359,187.104c-30.872,72.035 -45.84,146.876 -45.84,228.266c0,80.455 14.968,155.297 45.84,227.331c31.808,71.1 72.035,131.909 125.359,185.233c53.325,53.325 113.198,93.552 185.233,124.424c71.1,31.808 146.877,45.841 227.331,45.841c70.164,0 135.651,-10.291 200.202,-34.614c63.615,-23.388 120.681,-55.196 172.135,-97.294c49.583,-40.228 93.552,-89.81 128.166,-146.877c35.55,-57.067 58.938,-116.94 72.035,-183.362c3.742,-18.71 0,-34.614 -9.355,-51.453c-9.355,-14.969 -23.388,-21.517 -43.969,-21.517l-332.11,0c-16.839,0 -29.001,4.677 -40.227,15.904c-11.226,11.226 -16.839,24.323 -16.839,40.227c0,16.839 5.613,29.937 16.839,41.163c11.226,10.291 23.388,15.904 40.227,15.904l255.397,0c-16.839,45.84 -40.227,86.067 -68.293,125.359c-29.001,38.356 -62.68,69.229 -101.036,97.294c-38.356,27.13 -80.455,47.712 -126.295,61.744c-45.841,16.84 -95.423,24.324 -146.877,24.324c-64.55,0 -126.295,-13.097 -183.361,-37.421c-57.067,-23.388 -106.649,-58.002 -148.748,-100.1c-42.098,-42.099 -76.712,-91.681 -101.036,-148.748c-23.388,-57.067 -36.485,-119.746 -36.485,-183.362c0,-64.55 13.097,-127.23 36.485,-184.297c24.324,-56.131 58.938,-107.585 101.036,-149.683c42.099,-42.098 91.681,-77.648 148.748,-101.036c57.066,-24.324 118.811,-36.485 183.361,-36.485c64.551,0 130.038,14.033 196.459,45.84c64.551,30.872 126.296,80.455 183.362,147.812c13.097,16.84 27.13,24.324 43.97,26.195Z" style="fill:#2b2a29;"/></g></svg>