<?xml version="1.0" encoding="utf-8"?>
<!-- Generator: Adobe Illustrator 17.0.0, SVG Export Plug-In . SVG Version: 6.00 Build 0)  -->
<!DOCTYPE svg PUBLIC "-//W3C//DTD SVG 1.1//EN" "http://www.w3.org/Graphics/SVG/1.1/DTD/svg11.dtd">
<svg version="1.1" id="Capa_1" xmlns="http://www.w3.org/2000/svg" xmlns:xlink="http://www.w3.org/1999/xlink" x="0px" y="0px"
	 width="8220.47px" height="2834.65px" viewBox="0 0 8220.47 2834.65" enable-background="new 0 0 8220.47 2834.65"
	 xml:space="preserve">
<g>
	<g>
		<path fill-rule="evenodd" clip-rule="evenodd" fill="#10508E" d="M3627.377,1853.939h185.458v-407.986
			c0-99.708,51.705-190.144,183.312-190.144c96.682,0,136.39,60.683,136.39,152.58v445.55h185.457v-404.77
			c0-96.68,46.928-193.361,171.803-193.361c118.045,0,147.801,80.975,147.801,174.531v423.6h185.947v-445.55
			c0-176.58-69.463-306.042-274.142-306.042c-119.702,0-204.872,39.71-260.773,126.34c-38.633-85.072-117.462-126.34-237.653-126.34
			c-133.166,0-209.945,59.514-244.384,123.803h-3.121v-91.409h-176.094V1853.939z"/>
		<path fill-rule="evenodd" clip-rule="evenodd" fill="#10508E" d="M5060.222,1387.512c15.122-87.217,89.265-144.193,208.97-144.193
			c126.336,0,204.096,55.906,205.752,144.193H5060.222z M5660.305,1535.314v-54.342c0-232.383-140.483-385.451-362.527-385.451
			c-243.896,0-423.015,161.944-423.015,370.916c0,256.387,179.118,416.285,423.015,416.285
			c128.095,0,241.848-42.828,328.576-151.512l-133.164-111.801c-48.588,63.707-114.438,111.801-215.705,111.801
			c-112.875,0-203.8-73.654-217.263-195.896H5660.305z"/>
		<path fill-rule="evenodd" clip-rule="evenodd" fill="#10508E" d="M5896.984,1492.973c0-123.216,85.168-237.164,226.627-237.164
			c141.069,0,225.65,113.947,225.65,237.164c0,123.316-84.581,237.168-225.65,237.168
			C5982.152,1730.141,5896.984,1616.289,5896.984,1492.973z M6352.482,1851.305h176.484V658.846h-185.361v547.402h-5.268
			c-39.705-44.387-116.971-103.9-261.262-103.9c-218.24,0-365.553,156.681-365.553,375.506
			c0,248.578,137.948,405.844,373.455,405.844c107.605,0,208.482-37.074,264.283-119.605h3.221V1851.305z"/>
		<path fill-rule="evenodd" clip-rule="evenodd" fill="#10508E" d="M6589.551,833.284c0,57.461,50.732,108.677,120.193,108.677
			c69.362,0,123.217-46.436,123.217-108.677c0-61.559-53.854-108.097-123.217-108.097
			C6640.283,725.187,6589.551,776.31,6589.551,833.284z M6618.331,1853.939h185.85v-721.833h-185.85V1853.939z"/>
		<path fill-rule="evenodd" clip-rule="evenodd" fill="#10508E" d="M7393.437,1553.07c0,115.412-64.78,189.557-200.583,189.557
			c-64.777,0-138.924-32.877-138.924-108.584c0-118.531,188.584-127.412,298.236-127.412h41.271V1553.07z M7404.945,1855.6h154.046
			v-437.842c0-95.022,0-322.235-314.919-322.235c-125.945,0-255.406,38.145-337.359,126.336l107.023,89.852
			c50.145-40.682,126.436-68.391,208.971-68.391c105.949,0,182.238,42.829,182.238,123.315v17.758h-49.559
			c-199.02,0-496.77,16.193-496.77,259.602c0,166.043,142.533,246.531,286.238,246.531c105.949,0,198.92-39.705,255.312-128.482
			h4.777V1855.6z"/>
	</g>
	<g>
		<g>
			<path fill-rule="evenodd" clip-rule="evenodd" fill="#0C5290" d="M1474.843,1382.831c0-348.966,276.382-631.594,617.448-631.594
				c340.479,0,616.862,282.628,616.862,631.594c0,348.38-276.383,631.007-616.862,631.007
				C1751.226,2013.838,1474.843,1731.211,1474.843,1382.831z"/>
			<path fill-rule="evenodd" clip-rule="evenodd" fill="#0C5290" d="M782.761,1382.831c0-348.966,276.287-631.594,616.864-631.594
				c341.065,0,616.962,282.628,616.962,631.594c0,348.38-275.896,631.007-616.962,631.007
				C1059.048,2013.838,782.761,1731.211,782.761,1382.831z"/>
			<path fill-rule="evenodd" clip-rule="evenodd" fill="#0C5290" d="M2106.925,1382.831c0-348.966,276.286-631.594,617.352-631.594
				c340.578,0,616.863,282.628,616.863,631.594c0,348.38-276.285,631.007-616.863,631.007
				C2383.21,2013.838,2106.925,1731.211,2106.925,1382.831z"/>
		</g>
		<g>
			<rect x="2203.997" y="593.581" fill-rule="evenodd" clip-rule="evenodd" fill="#0C5290" width="379.21" height="315.506"/>
			<g>
				<path fill-rule="evenodd" clip-rule="evenodd" fill="#0C5290" d="M1394.456,1756.285l226.139,320.186h435.111
					c0,0-255.407-319.699-262.237-312.867C1786.152,1770.918,1394.456,1756.285,1394.456,1756.285z"/>
				<path fill-rule="evenodd" clip-rule="evenodd" fill="#0C5290" d="M2729.545,1744.771l252.286,331.699h435.11
					c0,0-281.552-338.428-288.382-331.699C3121.241,1752.088,2729.545,1744.771,2729.545,1744.771z"/>
			</g>
		</g>
	</g>
	<path fill-rule="evenodd" clip-rule="evenodd" fill="#EFEDEE" d="M2295.994,1358.831v10.926v3.123v3.123
		c-1.074,52.193-18.341,103.9-52.78,147.316c-83.607,105.457-235.019,121.654-339.015,37.559
		c-103.413-84.584-120.095-238.142-36.488-343.114c83.023-104.974,235.018-121.754,338.432-37.17
		C2262.044,1226.15,2292.776,1292.004,2295.994,1358.831z M2489.744,1003.619V684.407h-193.75v319.699
		c-184.972-124.287-436.186-88.29-578.23,89.268c-79.998-99.707-201.654-163.898-338.431-163.898
		c-239.8,0-434.625,197.359-434.625,440.28c0,242.824,194.824,440.281,434.625,440.281c41.755,0,82.534-6.242,120.583-17.756
		l154.63,193.854h236.676l-227.311-283.701c19.415-17.27,37.17-35.512,52.778-55.316c19.318,23.998,41.268,46.436,66.34,66.826
		c186.923,152,459.6,122.242,610.035-66.826c79.999,99.217,201.167,162.92,337.456,162.92c41.755,0,82.047-6.242,120.678-17.756
		l154.633,193.854h236.579l-227.116-283.701c91.803-80.973,149.851-199.996,149.851-332.677
		c0-242.921-194.824-440.28-434.625-440.28C2641.253,929.476,2558.72,957.087,2489.744,1003.619z M1138.46,1369.756
		c0-134.726,107.606-243.995,240.873-243.995c133.168,0,240.774,109.27,240.774,243.995c0,71.609-30.341,135.8-78.923,180.677
		l-29.269-37.07h-236.091l79.9,99.217C1234.066,1600.582,1138.46,1496.682,1138.46,1369.756z M2489.744,1366.051
		c1.562-133.168,108.583-240.29,240.776-240.29c133.167,0,240.775,109.27,240.775,243.995c0,71.609-30.243,135.8-78.828,180.677
		l-29.269-37.07h-235.995l79.317,99.217c-119.608-11.998-213.654-112.775-216.777-236.578v-6.246V1366.051z"/>
</g>
</svg>
