<?xml version="1.0" encoding="UTF-8" standalone="no"?>
<!-- Generator: Adobe Illustrator 19.0.0, SVG Export Plug-In . SVG Version: 6.00 Build 0)  -->

<svg
   xmlns:dc="http://purl.org/dc/elements/1.1/"
   xmlns:cc="http://creativecommons.org/ns#"
   xmlns:rdf="http://www.w3.org/1999/02/22-rdf-syntax-ns#"
   xmlns:svg="http://www.w3.org/2000/svg"
   xmlns="http://www.w3.org/2000/svg"
   xmlns:sodipodi="http://sodipodi.sourceforge.net/DTD/sodipodi-0.dtd"
   xmlns:inkscape="http://www.inkscape.org/namespaces/inkscape"
   version="1.1"
   id="Calque_1"
   x="0px"
   y="0px"
   viewBox="0 0 600.86958 150"
   xml:space="preserve"
   sodipodi:docname="ravenpack_vector_white_NEW.svg"
   width="600.86957"
   height="150"
   inkscape:version="0.92.1 r15371"><metadata
     id="metadata61"><rdf:RDF><cc:Work
         rdf:about=""><dc:format>image/svg+xml</dc:format><dc:type
           rdf:resource="http://purl.org/dc/dcmitype/StillImage" /><dc:title></dc:title></cc:Work></rdf:RDF></metadata><defs
     id="defs59" /><sodipodi:namedview
     pagecolor="#ffffff"
     bordercolor="#666666"
     borderopacity="1"
     objecttolerance="10"
     gridtolerance="10"
     guidetolerance="10"
     inkscape:pageopacity="0"
     inkscape:pageshadow="2"
     inkscape:window-width="1280"
     inkscape:window-height="960"
     id="namedview57"
     showgrid="false"
     fit-margin-top="0"
     fit-margin-left="0"
     fit-margin-right="0"
     fit-margin-bottom="0"
     inkscape:zoom="0.25932866"
     inkscape:cx="501.97809"
     inkscape:cy="-611.87641"
     inkscape:window-x="0"
     inkscape:window-y="27"
     inkscape:window-maximized="1"
     inkscape:current-layer="Calque_1" /><style
     type="text/css"
     id="style2">
	.st0{fill:#EFBC34;}
</style><g
     id="g897"
     transform="matrix(4.3478261,0,0,4.3478261,-17.391304,12.173913)"
     style="stroke-width:0.23"><path
       id="path4"
       d="m 28.6,8.1 v 12.3 h 1.7 v -4.9 h 8.1 c 0.9,0 1.5,0.1 1.8,0.4 0.4,0.3 0.6,0.9 0.6,1.8 v 2.7 h 1.6 v -3.2 c 0,-0.6 -0.1,-1.1 -0.4,-1.5 -0.3,-0.4 -0.9,-0.7 -1.7,-0.9 0.7,-0.1 1.2,-0.3 1.6,-0.6 0.4,-0.4 0.6,-1 0.6,-1.8 v -1 C 42.5,10.1 42.3,9.2 41.8,8.8 41.2,8.2 40.1,7.9 38.4,7.9 h -9.8 v 0.2 m 11.6,5.7 c -0.4,0.3 -1.1,0.4 -2,0.4 H 30.3 V 9.5 h 7.5 c 1.2,0 2,0.1 2.4,0.4 0.4,0.3 0.6,0.7 0.6,1.4 v 1.1 c 0,0.7 -0.2,1.1 -0.6,1.4 z"
       inkscape:connector-curvature="0"
       style="stroke-width:0.23" /><path
       id="path6"
       d="m 52.5,20.4 c 0.4,-0.1 0.7,-0.4 0.9,-0.8 v 0.9 h 1.5 v -5.8 c 0,-1.2 -0.4,-2 -1.3,-2.5 -0.7,-0.3 -1.7,-0.5 -3.3,-0.5 H 48 c -1.3,0 -2.2,0.2 -2.8,0.5 -0.5,0.3 -0.8,0.9 -0.8,1.7 v 0.4 h 1.5 V 14 c 0,-0.4 0.1,-0.7 0.4,-0.8 0.3,-0.2 0.9,-0.3 1.8,-0.3 h 2.1 c 1.2,0 2,0.1 2.5,0.3 0.5,0.2 0.7,0.7 0.7,1.4 v 1.6 C 53.1,15.8 52.8,15.5 52.4,15.4 52,15.3 51.3,15.2 50.3,15.2 H 48 c -1.4,0 -2.4,0.1 -2.9,0.4 -0.7,0.3 -1,0.9 -1,1.8 V 18 c 0,0.9 0.2,1.5 0.6,1.9 0.4,0.4 1.2,0.7 2.2,0.7 h 3.5 c 0.9,0 1.7,-0.1 2.1,-0.2 v 0 m 0.2,-3.8 c 0.5,0.2 0.7,0.5 0.7,1.1 v 0.4 c 0,0.5 -0.3,0.9 -0.8,1 -0.5,0.2 -1.5,0.2 -2.9,0.2 h -1.9 c -1,0 -1.6,-0.1 -1.9,-0.3 -0.3,-0.2 -0.4,-0.6 -0.4,-1.1 v -0.3 c 0,-0.5 0.2,-0.9 0.5,-1.1 0.3,-0.2 1,-0.3 1.9,-0.3 h 2.2 c 1.2,0.2 2.1,0.3 2.6,0.4 z"
       inkscape:connector-curvature="0"
       style="stroke-width:0.23" /><polygon
       id="polygon8"
       points="60.1,20.4 61.9,20.4 66.7,11.7 65.2,11.7 61,19.3 56.8,11.7 55.3,11.7 "
       style="stroke-width:0.23" /><path
       id="path10"
       d="m 68.7,12.2 c -0.9,0.5 -1.3,1.5 -1.3,2.9 V 17 c 0,1.1 0.3,2 0.8,2.5 0.6,0.7 1.7,1 3.3,1 h 2.6 c 1.5,0 2.5,-0.2 3.2,-0.5 0.8,-0.4 1.2,-1.1 1.2,-2 V 17.8 H 77 c 0,0.6 -0.2,1.1 -0.6,1.3 -0.3,0.2 -1,0.3 -2,0.3 h -2 c -1.3,0 -2.2,-0.2 -2.7,-0.5 -0.5,-0.3 -0.8,-1 -0.8,-2 v -0.5 h 9.6 v -1 C 78.5,14 78.1,12.9 77.2,12.3 76.5,11.8 75.4,11.6 74,11.6 h -2.3 c -1.4,0 -2.3,0.2 -3,0.6 v 0 m 7.7,1.2 c 0.4,0.3 0.6,0.7 0.6,1.2 v 0.6 h -8.1 c 0,-1 0.2,-1.6 0.6,-1.9 0.4,-0.3 1.2,-0.4 2.4,-0.4 H 74 c 1.1,-0.1 1.9,0.1 2.4,0.5 z"
       inkscape:connector-curvature="0"
       style="stroke-width:0.23" /><path
       id="path12"
       d="m 80.2,11.7 v 8.7 h 1.5 v -4.9 c 0,-1 0.3,-1.8 0.8,-2.1 0.6,-0.4 1.7,-0.6 3.3,-0.6 h 0.4 c 1.3,0 2.2,0.2 2.7,0.6 0.4,0.3 0.5,0.8 0.5,1.5 v 5.5 h 1.5 v -5.9 c 0,-0.9 -0.3,-1.6 -0.8,-2.1 -0.6,-0.6 -1.5,-0.9 -2.8,-0.9 H 85 c -1,0 -1.7,0.1 -2.3,0.3 -0.6,0.2 -1,0.7 -1.2,1.3 v -1.5 h -1.3 z"
       inkscape:connector-curvature="0"
       style="stroke-width:0.23" /><path
       id="path14"
       d="m 92.9,8.1 v 12.3 h 1.7 v -4.9 h 8.1 c 1.7,0 2.8,-0.3 3.3,-1 0.4,-0.5 0.6,-1.5 0.6,-3.1 0,-1.4 -0.3,-2.3 -0.9,-2.8 C 105.2,8.2 104.3,8 103.1,8 H 92.9 v 0.1 m 11.4,1.8 c 0.4,0.3 0.5,0.7 0.5,1.4 v 1.2 c 0,0.6 -0.2,1.1 -0.5,1.3 -0.4,0.3 -0.9,0.4 -1.6,0.4 H 94.5 V 9.5 h 8 c 0.9,0 1.4,0.1 1.8,0.4 z"
       inkscape:connector-curvature="0"
       style="stroke-width:0.23" /><path
       id="path16"
       d="m 115.4,20.4 c 0.4,-0.1 0.7,-0.4 0.9,-0.8 v 0.9 h 1.5 v -5.8 c 0,-1.2 -0.4,-2 -1.3,-2.5 -0.7,-0.3 -1.7,-0.5 -3.3,-0.5 h -2.3 c -1.3,0 -2.2,0.2 -2.8,0.5 -0.5,0.3 -0.8,0.9 -0.8,1.7 v 0.4 h 1.5 V 14 c 0,-0.4 0.1,-0.7 0.4,-0.8 0.3,-0.2 0.9,-0.3 1.8,-0.3 h 2.1 c 1.2,0 2,0.1 2.5,0.3 0.5,0.2 0.7,0.7 0.7,1.4 v 1.6 c -0.3,-0.4 -0.6,-0.7 -1,-0.8 -0.4,-0.1 -1.1,-0.2 -2.1,-0.2 h -2.3 c -1.4,0 -2.4,0.1 -2.9,0.4 -0.7,0.3 -1,0.9 -1,1.8 V 18 c 0,0.9 0.2,1.5 0.6,1.9 0.4,0.4 1.2,0.7 2.2,0.7 h 3.5 c 1,0 1.7,-0.1 2.1,-0.2 v 0 m 0.2,-3.8 c 0.5,0.2 0.7,0.5 0.7,1.1 v 0.4 c 0,0.5 -0.3,0.9 -0.8,1 -0.5,0.2 -1.5,0.2 -2.9,0.2 h -1.9 c -1,0 -1.6,-0.1 -1.9,-0.3 -0.3,-0.2 -0.4,-0.6 -0.4,-1.1 v -0.3 c 0,-0.5 0.2,-0.9 0.5,-1.1 0.3,-0.2 1,-0.3 1.9,-0.3 h 2.2 c 1.2,0.2 2.1,0.3 2.6,0.4 z"
       inkscape:connector-curvature="0"
       style="stroke-width:0.23" /><path
       id="path18"
       d="m 120.7,12.2 c -0.9,0.5 -1.4,1.5 -1.4,2.9 V 17 c 0,1.4 0.4,2.4 1.3,3 0.6,0.4 1.3,0.6 2.3,0.6 h 3.3 c 1.4,0 2.3,-0.2 2.9,-0.7 0.6,-0.5 0.9,-1.3 0.9,-2.3 v -0.3 h -1.4 v 0.3 c 0,0.7 -0.2,1.1 -0.7,1.4 -0.4,0.3 -1,0.4 -1.7,0.4 h -2.5 c -1,0 -1.7,-0.2 -2.1,-0.5 -0.5,-0.4 -0.8,-1 -0.8,-1.9 v -1.8 c 0,-0.8 0.2,-1.3 0.5,-1.7 0.4,-0.4 1.1,-0.7 2.2,-0.7 h 2.7 c 0.8,0 1.4,0.1 1.8,0.4 0.4,0.3 0.6,0.7 0.6,1.4 v 0.2 h 1.4 v -0.2 c 0,-1 -0.3,-1.7 -0.9,-2.2 -0.6,-0.5 -1.6,-0.8 -2.9,-0.8 h -2.4 c -1.5,0 -2.5,0.2 -3.1,0.6 z"
       inkscape:connector-curvature="0"
       style="stroke-width:0.23" /><polygon
       id="polygon20"
       points="142.1,20.4 142.2,20.4 135.1,15.6 141,11.8 141,11.7 138.7,11.7 133.7,15 133,15 133,8.1 131.6,8.1 131.6,20.4 133,20.4 133,16.2 133.6,16.2 139.9,20.4 "
       style="stroke-width:0.23" /><path
       id="path22"
       d="M 6.5,8.2 C 6.8,8.2 7,8 7,7.7 7,7.4 6.7,7.1 6.4,7.1 6.1,7.1 5.8,7.4 5.8,7.7 5.9,8 6.2,8.2 6.5,8.2 Z"
       class="st0"
       inkscape:connector-curvature="0"
       style="fill:#efbc34;stroke-width:0.23" /><path
       id="path24"
       d="M 8.3,8.9 C 8,8.9 7.7,9.2 7.7,9.5 7.7,9.8 8,10 8.3,10 8.6,10 8.9,9.7 8.9,9.4 8.9,9.2 8.6,8.9 8.3,8.9 Z"
       class="st0"
       inkscape:connector-curvature="0"
       style="fill:#efbc34;stroke-width:0.23" /><path
       id="path26"
       d="m 10.1,10.7 c -0.3,0 -0.6,0.3 -0.6,0.6 0,0.3 0.3,0.6 0.6,0.6 0.3,0 0.6,-0.3 0.6,-0.6 0,-0.3 -0.3,-0.6 -0.6,-0.6 z"
       class="st0"
       inkscape:connector-curvature="0"
       style="fill:#efbc34;stroke-width:0.23" /><path
       id="path28"
       d="m 12,13.7 c 0.3,0 0.6,-0.3 0.6,-0.6 0,-0.3 -0.3,-0.6 -0.6,-0.6 -0.3,0 -0.6,0.3 -0.6,0.6 0,0.3 0.2,0.6 0.6,0.6 z"
       class="st0"
       inkscape:connector-curvature="0"
       style="fill:#efbc34;stroke-width:0.23" /><path
       id="path30"
       d="m 12,15.6 c 0.3,0 0.6,-0.3 0.6,-0.6 0,-0.3 -0.3,-0.6 -0.6,-0.6 -0.3,0 -0.6,0.3 -0.6,0.6 0,0.4 0.2,0.6 0.6,0.6 z"
       class="st0"
       inkscape:connector-curvature="0"
       style="fill:#efbc34;stroke-width:0.23" /><path
       id="path32"
       d="m 10.1,17.4 c 0.3,0 0.6,-0.3 0.6,-0.6 0,-0.3 -0.3,-0.6 -0.6,-0.6 -0.3,0 -0.6,0.3 -0.6,0.6 0.1,0.4 0.3,0.6 0.6,0.6 z"
       class="st0"
       inkscape:connector-curvature="0"
       style="fill:#efbc34;stroke-width:0.23" /><path
       id="path34"
       d="m 8.3,19.3 c 0.3,0 0.6,-0.3 0.6,-0.6 0,-0.3 -0.3,-0.6 -0.6,-0.6 -0.3,0 -0.6,0.3 -0.6,0.6 0,0.3 0.3,0.6 0.6,0.6 z"
       class="st0"
       inkscape:connector-curvature="0"
       style="fill:#efbc34;stroke-width:0.23" /><path
       id="path36"
       d="m 6.5,19.9 c -0.3,0 -0.6,0.3 -0.6,0.6 0,0.3 0.3,0.6 0.6,0.6 0.3,0 0.6,-0.3 0.6,-0.6 C 7,20.2 6.8,19.9 6.5,19.9 Z"
       class="st0"
       inkscape:connector-curvature="0"
       style="fill:#efbc34;stroke-width:0.23" /><path
       id="path38"
       d="m 8.4,16.9 c 0,-0.2 -0.2,-0.4 -0.4,-0.4 -0.2,0 -0.4,0.2 -0.4,0.4 0,0.2 0.2,0.4 0.4,0.4 0.3,0 0.4,-0.2 0.4,-0.4 z"
       class="st0"
       inkscape:connector-curvature="0"
       style="fill:#efbc34;stroke-width:0.23" /><path
       id="path40"
       d="m 6.2,19.1 c 0.2,0 0.4,-0.2 0.4,-0.4 0,-0.2 -0.2,-0.4 -0.4,-0.4 -0.2,0 -0.4,0.2 -0.4,0.4 0,0.2 0.2,0.4 0.4,0.4 z"
       class="st0"
       inkscape:connector-curvature="0"
       style="fill:#efbc34;stroke-width:0.23" /><path
       id="path42"
       d="m 4.4,20.1 c -0.2,0 -0.4,0.2 -0.4,0.4 0,0.2 0.2,0.4 0.4,0.4 0.2,0 0.4,-0.2 0.4,-0.4 0,-0.3 -0.1,-0.4 -0.4,-0.4 z"
       class="st0"
       inkscape:connector-curvature="0"
       style="fill:#efbc34;stroke-width:0.23" /><path
       id="path44"
       d="m 10.3,15 c 0,-0.2 -0.2,-0.4 -0.4,-0.4 -0.2,0 -0.4,0.2 -0.4,0.4 0,0.2 0.2,0.4 0.4,0.4 0.2,0 0.4,-0.2 0.4,-0.4 z"
       class="st0"
       inkscape:connector-curvature="0"
       style="fill:#efbc34;stroke-width:0.23" /><path
       id="path46"
       d="m 9.4,13.1 c 0,0.2 0.2,0.4 0.4,0.4 0.2,0 0.4,-0.2 0.4,-0.4 0,-0.2 -0.2,-0.4 -0.4,-0.4 -0.2,0 -0.4,0.2 -0.4,0.4 z"
       class="st0"
       inkscape:connector-curvature="0"
       style="fill:#efbc34;stroke-width:0.23" /><path
       id="path48"
       d="m 7.6,11.3 c 0,0.2 0.2,0.4 0.4,0.4 0.2,0 0.4,-0.2 0.4,-0.4 0,-0.2 -0.2,-0.4 -0.4,-0.4 -0.2,0 -0.4,0.2 -0.4,0.4 z"
       class="st0"
       inkscape:connector-curvature="0"
       style="fill:#efbc34;stroke-width:0.23" /><path
       id="path50"
       d="M 6.2,9.9 C 6.4,9.9 6.6,9.7 6.6,9.5 6.6,9.3 6.4,9.1 6.2,9.1 6,9.1 5.8,9.3 5.8,9.5 5.8,9.7 6,9.9 6.2,9.9 Z"
       class="st0"
       inkscape:connector-curvature="0"
       style="fill:#efbc34;stroke-width:0.23" /><path
       id="path52"
       d="M 4.4,7.3 C 4.2,7.3 4,7.5 4,7.7 4,8 4.2,8.1 4.4,8.1 4.6,8.1 4.8,7.9 4.8,7.7 4.8,7.5 4.7,7.3 4.4,7.3 Z"
       class="st0"
       inkscape:connector-curvature="0"
       style="fill:#efbc34;stroke-width:0.23" /><path
       id="path54"
       d="m 23.3,14.2 v 0 L 15.5,6.4 H 13 12.4 11.7 10.3 8.9 7.5 V 6.6 L 7.6,6.7 C 7.9,7 7.9,7.4 7.7,7.6 v 0 L 7.6,7.7 C 7.5,7.7 7.4,7.9 7.4,8 7.4,8.3 7.6,8.5 7.9,8.5 8,8.5 8.2,8.4 8.3,8.3 v 0 L 8.5,8.1 v 0 0 C 8.7,8 9.1,8.1 9.4,8.4 9.7,8.7 9.7,9.1 9.5,9.3 v 0 0 0 L 9.4,9.4 C 9.3,9.5 9.2,9.7 9.2,9.8 c 0,0.3 0.2,0.5 0.5,0.5 0.1,0 0.3,-0.1 0.4,-0.2 v 0 l 0.2,-0.2 v 0 c 0.2,-0.2 0.6,-0.1 0.9,0.2 0.3,0.3 0.3,0.6 0.2,0.9 l -0.2,0.2 C 11,11.3 11,11.4 11,11.6 c 0,0.3 0.2,0.5 0.5,0.5 0.1,0 0.3,-0.1 0.4,-0.2 l 0.2,-0.2 c 0.2,-0.2 0.6,-0.1 0.9,0.2 0.3,0.3 0.3,0.7 0.1,0.9 v 0 0 0 L 12.9,13 c -0.1,0.1 -0.2,0.2 -0.2,0.4 0,0.3 0.2,0.5 0.5,0.5 0.1,0 0.2,0 0.3,-0.1 0.1,-0.2 0.4,-0.4 0.7,-0.4 0.4,0 0.8,0.3 0.8,0.8 0,0.4 -0.3,0.8 -0.8,0.8 -0.3,0 -0.5,-0.1 -0.6,-0.3 -0.1,-0.1 -0.2,-0.1 -0.3,-0.1 -0.3,0 -0.5,0.2 -0.5,0.5 0,0.1 0.1,0.3 0.2,0.4 l 0.2,0.2 c 0.2,0.2 0.1,0.6 -0.1,0.9 -0.3,0.3 -0.7,0.3 -0.9,0.1 v 0 0 l -0.1,-0.1 c -0.1,-0.1 -0.2,-0.2 -0.4,-0.2 -0.3,0 -0.5,0.2 -0.5,0.5 0,0.1 0.1,0.3 0.2,0.4 l 0.1,0.1 v 0 c 0.2,0.2 0.1,0.6 -0.1,0.9 -0.3,0.3 -0.7,0.3 -0.9,0.1 v 0 0 l -0.1,-0.1 c -0.1,-0.1 -0.2,-0.2 -0.4,-0.2 -0.3,0 -0.5,0.2 -0.5,0.5 0,0.1 0.1,0.3 0.2,0.4 l 0.1,0.1 v 0 C 10,19.3 9.9,19.7 9.7,20 9.4,20.3 9,20.3 8.8,20.1 v 0 0 L 8.7,20 C 8.3,20 8.1,19.9 8,19.9 c -0.3,0 -0.5,0.2 -0.5,0.5 0,0.1 0.1,0.3 0.2,0.4 v 0.2 0 0 c 0.2,0.2 0.2,0.6 -0.1,0.9 L 7.5,22 v 0.5 h 1.8 1.5 0.6 4.1 l 7.7,-7.7 0.1,-0.1 c 0.1,-0.1 0.1,-0.2 0.1,-0.3 0,-0.1 0,-0.2 -0.1,-0.2 v 0 M 10.8,9.5 c -0.3,0 -0.6,-0.3 -0.6,-0.6 0,-0.3 0.3,-0.6 0.6,-0.6 0.3,0 0.6,0.3 0.6,0.6 0,0.3 -0.3,0.6 -0.6,0.6 v 0 m 1.8,1.8 C 12.3,11.3 12,11 12,10.7 c 0,-0.3 0.3,-0.6 0.6,-0.6 0.3,0 0.6,0.3 0.6,0.6 0,0.3 -0.3,0.6 -0.6,0.6 v 0 m 0.5,-2 c -0.2,0 -0.4,-0.2 -0.4,-0.4 0,-0.2 0.2,-0.4 0.4,-0.4 0.2,0 0.4,0.2 0.4,0.4 0,0.2 -0.2,0.4 -0.4,0.4 v 0 m -2.3,10.9 c -0.3,0 -0.6,-0.3 -0.6,-0.6 0,-0.3 0.3,-0.6 0.6,-0.6 0.3,0 0.6,0.3 0.6,0.6 0,0.3 -0.3,0.6 -0.6,0.6 v 0 m 1.1,-2.4 c 0,-0.3 0.3,-0.6 0.6,-0.6 0.3,0 0.6,0.3 0.6,0.6 0,0.3 -0.3,0.6 -0.6,0.6 -0.3,0 -0.6,-0.2 -0.6,-0.6 v 0 m 1.2,2.2 c -0.2,0 -0.4,-0.2 -0.4,-0.4 0,-0.2 0.2,-0.4 0.4,-0.4 0.2,0 0.4,0.2 0.4,0.4 0,0.2 -0.2,0.4 -0.4,0.4 v 0 m 1.3,-6.9 c -0.3,0 -0.6,-0.3 -0.6,-0.6 0,-0.3 0.3,-0.6 0.6,-0.6 0.3,0 0.6,0.3 0.6,0.6 0,0.3 -0.3,0.6 -0.6,0.6 v 0 M 13.8,16 c 0,-0.3 0.3,-0.6 0.6,-0.6 0.3,0 0.6,0.3 0.6,0.6 0,0.3 -0.3,0.6 -0.6,0.6 -0.3,0 -0.6,-0.3 -0.6,-0.6 v 0 m 1.1,2.2 c -0.2,0 -0.4,-0.2 -0.4,-0.4 0,-0.2 0.2,-0.4 0.4,-0.4 0.2,0 0.4,0.2 0.4,0.4 0,0.2 -0.2,0.4 -0.4,0.4 v 0 m 0,-7.1 c -0.2,0 -0.4,-0.2 -0.4,-0.4 0,-0.2 0.2,-0.4 0.4,-0.4 0.2,0 0.4,0.2 0.4,0.4 0,0.2 -0.2,0.4 -0.4,0.4 v 0 m 0.7,3.1 c 0,-0.3 0.3,-0.6 0.6,-0.6 0.3,0 0.6,0.3 0.6,0.6 0,0.3 -0.3,0.6 -0.6,0.6 -0.4,0.1 -0.6,-0.2 -0.6,-0.6 v 0 m 1.1,2.2 c -0.2,0 -0.4,-0.2 -0.4,-0.4 0,-0.2 0.2,-0.4 0.4,-0.4 0.2,0 0.4,0.2 0.4,0.4 0,0.2 -0.2,0.4 -0.4,0.4 v 0 m 0,-3.5 c -0.2,0 -0.4,-0.2 -0.4,-0.4 0,-0.2 0.2,-0.4 0.4,-0.4 0.2,0 0.4,0.2 0.4,0.4 0,0.2 -0.2,0.4 -0.4,0.4 v 0 m 1.9,1.7 c -0.2,0 -0.4,-0.2 -0.4,-0.4 0,-0.2 0.2,-0.4 0.4,-0.4 0.2,0 0.4,0.2 0.4,0.4 0,0.3 -0.2,0.4 -0.4,0.4 z"
       class="st0"
       inkscape:connector-curvature="0"
       style="fill:#efbc34;stroke-width:0.23" /></g></svg>