<?xml version="1.0" standalone="no"?><!DOCTYPE svg PUBLIC "-//W3C//DTD SVG 1.1//EN" "http://www.w3.org/Graphics/SVG/1.1/DTD/svg11.dtd"><svg width="100%" height="100%" viewBox="0 0 500 120" version="1.1" xmlns="http://www.w3.org/2000/svg" xmlns:xlink="http://www.w3.org/1999/xlink" xml:space="preserve" style="fill-rule:evenodd;clip-rule:evenodd;stroke-linejoin:round;stroke-miterlimit:1.41421;"><g id="Layer 1"><path d="M177.981,49.506c-0.198,0.672 -0.939,1.01 -1.59,0.759c-2.014,-0.777 -4.293,-1.332 -6.422,-1.332c-3.67,0 -7.125,1.104 -7.125,4.775c0,1.982 1.104,3.01 4.63,4.114l2.569,0.806c5.14,1.612 7.344,3.965 7.344,8.515c0,7.854 -5.508,13.217 -15.49,13.217c-3.924,0 -7.279,-0.617 -10.124,-1.608c-0.692,-0.24 -1.024,-1.01 -0.819,-1.714l1.175,-4.074c0.196,-0.675 0.949,-0.995 1.601,-0.734c2.571,1.039 5.421,1.743 7.945,1.743c4.481,0 7.635,-1.543 7.635,-5.141c0,-2.128 -1.469,-2.935 -4.774,-3.966l-2.79,-0.879c-4.922,-1.616 -7.125,-4.553 -7.125,-9.252c0,-8.003 6.685,-12.332 15.497,-12.332c2.648,0 5.679,0.592 8.202,1.46c0.698,0.236 1.034,1.01 0.821,1.714l-1.16,3.929Z" style="fill:#21c4d9;fill-rule:nonzero;"/><path d="M195.332,28.548c0.685,0 1.196,0.625 1.068,1.296l-5.404,27.929c5.093,-3.715 9.541,-8.08 13.469,-13.145c0.499,-0.65 1.274,-1.028 2.093,-1.028l5.879,0c0.565,0 0.879,0.639 0.556,1.101c-3.864,5.45 -8.287,10.479 -12.966,14.539l7.446,18.744c0.232,0.592 -0.203,1.231 -0.835,1.231l-6.246,0c-0.79,0 -1.5,-0.498 -1.775,-1.238l-5.124,-13.962c-1.542,1.028 -3.011,1.91 -4.26,2.571l-2.175,11.333c-0.145,0.748 -0.806,1.296 -1.565,1.296l-5.367,0c-0.682,0 -1.196,-0.624 -1.065,-1.296l9.333,-48.075c0.144,-0.752 0.803,-1.296 1.573,-1.296l5.365,0Z" style="fill:#21c4d9;fill-rule:nonzero;"/><path d="M222.798,43.6c0.689,0 1.198,0.625 1.07,1.3l-3.641,18.748c-0.294,1.395 -0.588,3.156 -0.588,4.848c0,2.201 1.249,3.671 4.187,3.671c2.865,0 6.238,-1.249 8.737,-3.598l4.665,-23.672c0.149,-0.752 0.81,-1.297 1.573,-1.297l5.367,0c0.682,0 1.195,0.625 1.062,1.3l-4.81,24.696c-0.588,2.861 -1.249,6.094 -1.835,8.664c-2.791,11.602 -8.078,16.74 -18.652,16.74c-2.328,0 -4.648,-0.29 -6.663,-0.832c-0.741,-0.203 -1.209,-0.947 -1.028,-1.699l0.919,-3.751c0.163,-0.686 0.848,-1.122 1.534,-0.959c1.523,0.363 3.267,0.632 4.872,0.632c6.245,0 9.911,-2.643 11.233,-9.837l0.517,-2.719c-2.716,2.349 -6.758,3.892 -10.574,3.892c-6.17,0 -9.474,-3.083 -9.474,-8.003c0,-2.938 0.588,-6.17 1.249,-9.543l3.345,-17.281c0.148,-0.755 0.807,-1.3 1.572,-1.3l5.363,0Z" style="fill:#21c4d9;fill-rule:nonzero;"/><path d="M271.245,49.533c-0.2,0.672 -0.937,1.01 -1.591,0.759c-2.011,-0.777 -4.293,-1.332 -6.423,-1.332c-3.667,0 -7.117,1.104 -7.117,4.775c0,1.982 1.096,3.01 4.622,4.114l2.571,0.806c5.139,1.612 7.343,3.965 7.343,8.515c0,7.854 -5.509,13.217 -15.491,13.217c-3.918,0 -7.279,-0.617 -10.12,-1.608c-0.694,-0.24 -1.026,-1.01 -0.825,-1.714l1.179,-4.074c0.194,-0.675 0.949,-0.995 1.603,-0.734c2.567,1.039 5.417,1.743 7.94,1.743c4.478,0 7.636,-1.543 7.636,-5.141c0,-2.128 -1.465,-2.935 -4.77,-3.966l-2.796,-0.879c-4.916,-1.616 -7.117,-4.553 -7.117,-9.252c0,-8.003 6.681,-12.332 15.495,-12.332c2.65,0 5.675,0.592 8.203,1.46c0.69,0.236 1.027,1.01 0.817,1.714l-1.159,3.929Z" style="fill:#21c4d9;fill-rule:nonzero;"/><path d="M302.583,50.336c-0.181,0.65 -0.911,0.955 -1.529,0.672c-1.931,-0.882 -4.121,-1.387 -6.612,-1.387c-7.781,0 -12.486,6.685 -12.486,15.2c0.075,5.069 1.912,8.446 7.64,8.519c2.537,0.062 5.183,-0.45 7.577,-1.274c0.584,-0.2 1.225,0.21 1.154,0.824l-0.505,4.277c-0.094,0.828 -0.653,1.532 -1.437,1.805c-2.662,0.926 -5.564,1.416 -8.846,1.416c-9.547,0 -14.025,-5.432 -14.025,-14.394c0,-12.698 7.197,-23.563 20.997,-23.563c3.348,0 6.173,0.624 8.471,1.612c0.716,0.309 1.075,1.108 0.863,1.856l-1.262,4.437Z" style="fill:#21c4d9;fill-rule:nonzero;"/><path d="M322.489,62.032c-7.415,0 -12.851,2.422 -12.851,7.782c0,2.353 1.398,3.82 4.555,3.82c3.009,0 6.168,-1.544 8.147,-3.599l1.612,-8.003l-1.463,0ZM308.432,46.243c0.019,-0.798 0.529,-1.51 1.286,-1.768c3.515,-1.173 7.956,-2.044 11.816,-2.044c7.342,0 12.114,2.2 12.114,8.587c0,1.322 -0.22,2.938 -0.585,4.699l-2.861,15.052c-0.444,2.258 -0.224,3.522 0.751,4.016c0.599,0.301 1.1,0.879 0.966,1.536l-0.432,2.113c-0.167,0.817 -0.784,1.489 -1.598,1.663c-0.831,0.174 -1.757,0.291 -2.629,0.291c-3.308,0 -4.92,-1.543 -5.138,-4.26l-0.221,0c-2.422,2.644 -6.093,4.26 -10.429,4.26c-6.239,0 -10.277,-3.156 -10.277,-9.47c0,-8.519 6.756,-14.612 21.882,-14.612l1.984,0c0.217,-1.104 0.362,-2.204 0.362,-3.011c0,-2.937 -1.471,-4.259 -6.093,-4.259c-2.942,0 -6.467,0.701 -9.797,1.834c-0.592,0.207 -1.202,-0.251 -1.188,-0.875l0.087,-3.752Z" style="fill:#21c4d9;fill-rule:nonzero;"/><path d="M347.454,43.6c0.71,0 1.264,0.61 1.195,1.319l-0.24,2.501l0.071,0c3.597,-3.01 8.226,-4.989 12.704,-4.989c5.581,0 9.249,3.228 9.249,8.37c0,2.495 -0.364,4.55 -0.803,6.899l-3.864,20.219c-0.148,0.748 -0.806,1.296 -1.568,1.296l-5.367,0c-0.683,0 -1.202,-0.624 -1.064,-1.296l3.562,-18.458c0.371,-1.833 0.665,-3.892 0.665,-5.138c0,-2.716 -1.471,-4.11 -4.556,-4.11c-3.375,0 -7.195,1.758 -9.911,4.328l-4.452,23.378c-0.142,0.748 -0.803,1.296 -1.564,1.296l-5.365,0c-0.69,0 -1.205,-0.624 -1.071,-1.296l6.329,-33.019c0.145,-0.755 0.803,-1.3 1.565,-1.3l4.485,0Z" style="fill:#21c4d9;fill-rule:nonzero;"/><path d="M383.802,43.6c0.71,0 1.256,0.61 1.195,1.319l-0.244,2.501l0.073,0c3.599,-3.01 8.223,-4.989 12.7,-4.989c5.583,0 9.255,3.228 9.255,8.37c0,2.495 -0.371,4.55 -0.807,6.899l-3.863,20.219c-0.146,0.748 -0.806,1.296 -1.569,1.296l-5.367,0c-0.687,0 -1.196,-0.624 -1.071,-1.296l3.573,-18.458c0.367,-1.833 0.661,-3.892 0.661,-5.138c0,-2.716 -1.471,-4.11 -4.556,-4.11c-3.375,0 -7.191,1.758 -9.911,4.328l-4.448,23.378c-0.142,0.748 -0.806,1.296 -1.569,1.296l-5.367,0c-0.686,0 -1.201,-0.624 -1.073,-1.296l6.335,-33.019c0.141,-0.755 0.803,-1.3 1.569,-1.3l4.484,0Z" style="fill:#21c4d9;fill-rule:nonzero;"/><path d="M433.579,59.022c0.301,-1.104 0.588,-2.716 0.588,-4.259c0,-3.305 -1.467,-5.654 -5.211,-5.654c-5.432,0 -8.74,3.965 -9.913,9.913l14.536,0ZM418.164,64.821c-0.149,1.104 -0.076,2.35 0.073,3.232c0.661,3.598 3.449,5.36 8.148,5.36c3.279,0 6.722,-0.505 9.747,-1.467c0.582,-0.185 1.183,0.261 1.107,0.868l-0.49,4.063c-0.095,0.795 -0.599,1.5 -1.358,1.765c-3.327,1.161 -7.089,1.746 -10.621,1.746c-10.132,0 -15.052,-4.332 -15.052,-14.169c0,-8.519 2.789,-16.373 8.813,-20.56c3.01,-2.131 6.754,-3.228 11.453,-3.228c8.519,0 12.263,4.841 12.263,12.041c0,2.48 -0.295,5.781 -0.981,9.122c-0.151,0.737 -0.835,1.227 -1.587,1.227l-21.515,0Z" style="fill:#21c4d9;fill-rule:nonzero;"/><path d="M455.395,43.6c0.71,0 1.274,0.607 1.224,1.319l-0.204,2.868l0.146,0c2.719,-3.304 6.686,-4.993 10.428,-4.993c0.414,0 0.767,0.011 1.068,0.033c0.702,0.043 1.096,0.781 0.887,1.449l-1.486,4.749c-0.236,0.759 -0.973,1.242 -1.764,1.275c-3.712,0.16 -7.296,1.22 -9.717,2.923l-4.743,24.696c-0.148,0.748 -0.805,1.296 -1.57,1.296l-5.365,0c-0.683,0 -1.202,-0.624 -1.07,-1.296l6.33,-33.019c0.149,-0.755 0.803,-1.3 1.565,-1.3l4.272,0Z" style="fill:#21c4d9;fill-rule:nonzero;"/><path d="M55.069,56.997c-0.006,-0.059 -0.011,-0.082 0,0M55.069,56.997c0.005,0.053 0.014,0.122 0.018,0.166c-0.007,-0.078 -0.013,-0.131 -0.018,-0.166M67.677,86.697c0,-30.855 23.662,-56.18 53.83,-58.829c-4.693,-4.753 -11.205,-7.704 -18.412,-7.704c-13.267,0 -24.197,9.979 -25.708,22.836c-2.251,-1.412 -4.914,-2.234 -7.769,-2.234c-8.084,0 -15.448,8.091 -14.525,16.433c-2.181,-1.145 -4.663,-1.794 -7.296,-1.794c-8.683,0 -15.719,7.038 -15.719,15.721c0,7.911 5.841,14.455 13.446,15.555c0.598,0.107 1.208,0.166 1.835,0.166l20.319,0c0,-0.051 -0.003,-0.099 -0.001,-0.15M138.709,74.849c-3.18,-3.18 -7.31,-4.801 -11.471,-4.891l0,0.003c-0.148,-0.005 -0.295,-0.003 -0.441,-0.003c-0.146,0 -0.294,-0.002 -0.44,0.003l0,-0.003c-4.16,0.09 -8.29,1.711 -11.47,4.891c-3.309,3.311 -4.928,7.657 -4.885,11.998l8.4,0c0.55,-2.806 1.058,-4.224 2.658,-5.827c1.583,-1.581 3.664,-2.323 5.737,-2.305c2.074,-0.018 4.159,0.724 5.738,2.305c0.547,0.549 0.984,1.161 1.335,1.807c2.434,-1.788 4.451,-4.1 5.928,-6.773c-0.34,-0.414 -0.702,-0.817 -1.089,-1.205M55.093,57.199c-0.002,-0.017 -0.002,-0.022 -0.006,-0.036c0.004,0.021 0.006,0.036 0.006,0.036M142.44,67.421c0.062,-0.684 0.095,-1.377 0.095,-2.077c0,-3.334 -0.766,-6.486 -2.126,-9.298c-4.322,-1.905 -8.966,-2.861 -13.612,-2.851c-8.602,-0.016 -17.202,3.241 -23.761,9.803c-6.58,6.578 -9.843,15.221 -9.801,23.849l8.749,0c-0.036,-6.401 2.355,-12.811 7.225,-17.68c4.737,-4.736 10.93,-7.128 17.148,-7.221l0,-0.005c0.146,-0.002 0.294,0.004 0.44,0.004c0.146,0 0.293,-0.006 0.441,-0.004l0,0.005c5.399,0.081 10.776,1.897 15.202,5.475M90.797,50.748c9.936,-9.938 22.97,-14.88 36,-14.868c0.033,0 0.069,0.003 0.103,0.003c1.159,2.713 1.868,5.664 2.034,8.76c-0.691,-0.035 -1.384,-0.051 -2.08,-0.051c-0.019,0 -0.037,0.002 -0.057,0.002c-0.019,0 -0.038,-0.002 -0.055,-0.002c-11.248,0 -21.821,4.383 -29.772,12.332c-7.952,7.954 -12.335,18.526 -12.335,29.773c0,0.049 0.004,0.099 0.005,0.15l-8.719,0c-0.035,-13.06 4.908,-26.135 14.876,-36.099" style="fill:#21c4d9;fill-rule:nonzero;"/></g></svg>