<?xml version="1.0" encoding="UTF-8" standalone="no"?>
<!-- Created with Inkscape (http://www.inkscape.org/) -->

<svg
   xmlns:dc="http://purl.org/dc/elements/1.1/"
   xmlns:cc="http://creativecommons.org/ns#"
   xmlns:rdf="http://www.w3.org/1999/02/22-rdf-syntax-ns#"
   xmlns:svg="http://www.w3.org/2000/svg"
   xmlns="http://www.w3.org/2000/svg"
   xmlns:sodipodi="http://sodipodi.sourceforge.net/DTD/sodipodi-0.dtd"
   xmlns:inkscape="http://www.inkscape.org/namespaces/inkscape"
   width="122.19624mm"
   height="30.430964mm"
   viewBox="0 0 432.97881 107.82625"
   id="svg3644"
   version="1.1"
   inkscape:version="0.91 r"
   sodipodi:docname="tiedots_logo.svg"
   inkscape:export-filename="/media/miguel/datadrive/Dropbox/Futby/02.2015/02.Plataforma/02.Logo/tiedots_logo.png"
   inkscape:export-xdpi="160.25783"
   inkscape:export-ydpi="160.25783">
  <defs
     id="defs3646">
    <clipPath
       clipPathUnits="userSpaceOnUse"
       id="clipPath3415-1">
      <path
         d="m 0,0 841.89,0 0,595.276 L 0,595.276 0,0 Z"
         id="path3417-7"
         inkscape:connector-curvature="0" />
    </clipPath>
    <clipPath
       clipPathUnits="userSpaceOnUse"
       id="clipPath3415">
      <path
         d="m 0,0 841.89,0 0,595.276 L 0,595.276 0,0 Z"
         id="path3417"
         inkscape:connector-curvature="0" />
    </clipPath>
    <clipPath
       clipPathUnits="userSpaceOnUse"
       id="clipPath3415-1-4">
      <path
         d="m 0,0 841.89,0 0,595.276 L 0,595.276 0,0 Z"
         id="path3417-7-8"
         inkscape:connector-curvature="0" />
    </clipPath>
    <clipPath
       clipPathUnits="userSpaceOnUse"
       id="clipPath3415-9">
      <path
         d="m 0,0 841.89,0 0,595.276 L 0,595.276 0,0 Z"
         id="path3417-9"
         inkscape:connector-curvature="0" />
    </clipPath>
  </defs>
  <sodipodi:namedview
     id="base"
     pagecolor="#ffffff"
     bordercolor="#666666"
     borderopacity="1.0"
     inkscape:pageopacity="0.0"
     inkscape:pageshadow="2"
     inkscape:zoom="1.979899"
     inkscape:cx="271.88127"
     inkscape:cy="144.11992"
     inkscape:document-units="px"
     inkscape:current-layer="layer1"
     showgrid="false"
     fit-margin-top="0"
     fit-margin-left="0"
     fit-margin-right="0"
     fit-margin-bottom="0"
     inkscape:window-width="1855"
     inkscape:window-height="1056"
     inkscape:window-x="1505"
     inkscape:window-y="24"
     inkscape:window-maximized="1" />
  <metadata
     id="metadata3649">
    <rdf:RDF>
      <cc:Work
         rdf:about="">
        <dc:format>image/svg+xml</dc:format>
        <dc:type
           rdf:resource="http://purl.org/dc/dcmitype/StillImage" />
        <dc:title></dc:title>
      </cc:Work>
    </rdf:RDF>
  </metadata>
  <g
     inkscape:label="Layer 1"
     inkscape:groupmode="layer"
     id="layer1"
     transform="translate(-33.990255,-239.39381)">
    <g
       id="g3574"
       transform="matrix(1.25,0,0,-1.25,-142.64312,824.92006)">
      <g
         transform="translate(280.2532,451.3314)"
         id="g3407">
        <path
           inkscape:connector-curvature="0"
           id="path3409"
           style="fill:#00a9c9;fill-opacity:1;fill-rule:nonzero;stroke:none"
           d="m 0,0 0,-7.913 -15.463,0 0,-42.4 -9.22,0 0,42.4 -15.465,0 0,7.913 L 0,0 Z" />
      </g>
      <g
         id="g3411">
        <g
           clip-path="url(#clipPath3415-9)"
           id="g3413">
          <g
             transform="translate(298.6903,450.0957)"
             id="g3419">
            <path
               inkscape:connector-curvature="0"
               id="path3421"
               style="fill:#00a9c9;fill-opacity:1;fill-rule:nonzero;stroke:none"
               d="m 0,0 c 0,-1.644 -0.534,-2.952 -1.597,-3.919 -1.065,-0.968 -2.324,-1.453 -3.775,-1.453 -1.5,0 -2.785,0.485 -3.849,1.453 -1.065,0.967 -1.597,2.275 -1.597,3.919 0,1.695 0.532,3.026 1.597,3.995 1.064,0.966 2.349,1.451 3.849,1.451 1.451,0 2.71,-0.485 3.775,-1.451 C -0.534,3.026 0,1.695 0,0 m -0.944,-49.077 -8.783,0 0,37.97 8.783,0 0,-37.97 z" />
          </g>
          <g
             transform="translate(308.9227,419.8229)"
             id="g3423">
            <path
               inkscape:connector-curvature="0"
               id="path3425"
               style="fill:#00a9c9;fill-opacity:1;fill-rule:nonzero;stroke:none"
               d="m 0,0 c 0,3.34 0.495,6.267 1.488,8.783 0.992,2.517 2.311,4.611 3.958,6.282 1.644,1.668 3.532,2.927 5.661,3.774 2.131,0.846 4.309,1.271 6.536,1.271 5.226,0 9.302,-1.622 12.232,-4.865 2.929,-3.243 4.392,-8.083 4.392,-14.52 0,-0.485 -0.012,-1.029 -0.037,-1.634 -0.024,-0.606 -0.059,-1.15 -0.109,-1.632 l -25.046,0 c 0.242,-3.05 1.318,-5.409 3.231,-7.08 1.911,-1.669 4.682,-2.504 8.313,-2.504 2.129,0 4.077,0.193 5.844,0.581 1.765,0.386 3.159,0.798 4.175,1.233 l 1.162,-7.186 c -0.484,-0.244 -1.151,-0.497 -1.997,-0.763 -0.848,-0.267 -1.815,-0.508 -2.905,-0.725 -1.088,-0.22 -2.262,-0.4 -3.52,-0.546 -1.26,-0.144 -2.541,-0.218 -3.849,-0.218 -3.339,0 -6.242,0.497 -8.711,1.489 -2.47,0.991 -4.502,2.37 -6.099,4.138 -1.597,1.767 -2.783,3.848 -3.557,6.244 C 0.386,-5.483 0,-2.857 0,0 m 25.484,3.921 c 0,1.209 -0.17,2.358 -0.509,3.448 -0.339,1.088 -0.836,2.032 -1.488,2.831 -0.653,0.798 -1.454,1.426 -2.396,1.888 -0.944,0.458 -2.069,0.69 -3.376,0.69 -1.355,0 -2.542,-0.255 -3.558,-0.764 C 13.141,11.507 12.281,10.84 11.579,10.019 10.877,9.194 10.333,8.25 9.947,7.186 9.559,6.121 9.292,5.033 9.147,3.921 l 16.337,0 z" />
          </g>
          <g
             transform="translate(362.9345,404.3581)"
             id="g3427" />
          <g
             transform="translate(391.0315,387.5879)"
             id="g3431" />
          <g
             transform="translate(460.6541,419.7491)"
             id="g3435" />
          <g
             transform="translate(483.6685,439.2781)"
             id="g3439" />
          <g
             transform="translate(502.4709,438.5535)"
             id="g3443" />
          <g
             transform="translate(184.4377,468.421)"
             id="g3447">
            <path
               inkscape:connector-curvature="0"
               id="path3449"
               style="fill:#00a9c9;fill-opacity:1;fill-rule:nonzero;stroke:none"
               d="m 0,0 c -23.82,0 -43.131,-19.309 -43.131,-43.131 0,-23.821 19.311,-43.13 43.131,-43.13 23.82,0 43.131,19.309 43.131,43.13 C 43.131,-19.309 23.82,0 0,0 m -2.618,-66.89 c -10.501,-6.891 -24.16,-6.011 -24.755,-4.732 -0.597,1.279 3.453,18.675 4.807,19.435 1.351,0.762 14.124,-1.306 33.311,18.85 2.089,2.196 3.294,1.223 3.14,0.484 0,0 -5.658,-26.923 -16.503,-34.037 m 14.178,37.717 c 0,0 -6.185,12.384 -3.378,13.766 1.417,0.696 15.837,2.169 16.947,-0.433 1.393,-3.256 -12.528,-16.818 -13.569,-13.333" />
          </g>
        </g>
      </g>
      <text
         transform="scale(1,-1)"
         sodipodi:linespacing="125%"
         id="text3459"
         y="-400.90897"
         x="347.95688"
         style="font-style:normal;font-variant:normal;font-weight:300;font-stretch:normal;font-size:72px;line-height:125%;font-family:Ubuntu;-inkscape-font-specification:'Ubuntu Light';letter-spacing:0px;word-spacing:0px;fill:#00a9c9;fill-opacity:1;stroke:none;stroke-width:1px;stroke-linecap:butt;stroke-linejoin:miter;stroke-opacity:1"
         xml:space="preserve"><tspan
           y="-400.90897"
           x="347.95688"
           id="tspan3461"
           sodipodi:role="line">dots</tspan></text>
    </g>
  </g>
</svg>
